<?xml version="1.0" encoding="UTF-8"?>
<svg version="1.1" xmlns="http://www.w3.org/2000/svg" width="512" height="512">
<path d="M0 0 C10.64403101 8.97065823 22.19947596 22.79145689 23.93457031 37.17285156 C23.98967773 37.89182617 24.04478516 38.61080078 24.1015625 39.3515625 C24.47166366 47.10667064 24.47166366 47.10667064 28.16845703 53.59960938 C32.0353206 56.29961154 36.32157434 58.15195944 40.60253906 60.09472656 C61.42416556 70.38363333 77.68510897 93.02912826 85.48535156 114.30078125 C89.74877853 126.95063306 92.002532 139.46527093 91.8203125 152.83984375 C91.82111794 155.01106912 91.82377484 157.18229446 91.828125 159.35351562 C91.82615062 162.72699142 91.81201221 166.09873385 91.76660156 169.47192383 C91.72764284 172.76227286 91.73863058 176.0493885 91.7578125 179.33984375 C91.71927658 180.85238991 91.71927658 180.85238991 91.67996216 182.39549255 C91.7184343 185.19132892 91.82690208 187.46282469 92.6875 190.125 C94.57582597 191.9374767 96.32964075 192.99965103 98.68942261 194.1174469 C102.58374134 196.08120112 104.85040654 199.47158418 106.79931641 203.32104492 C107.9303163 206.89155999 108.01188946 210.28008112 108.0234375 213.98828125 C108.0300943 214.7390947 108.0367511 215.48990814 108.04360962 216.26347351 C108.05370372 217.84774336 108.05842765 219.43205545 108.05810547 221.01635742 C108.06246794 223.41983478 108.09878851 225.82145771 108.13671875 228.22460938 C108.19266047 236.09041487 108.09569025 242.32976602 103.6875 249.125 C103.6875 253.34633706 105.97023125 257.16594093 107.75 260.94140625 C109.32708003 264.61468848 109.84041425 267.23456198 109.1171875 271.17871094 C108.26215953 277.71464529 107.78192853 283.89905848 111.24169922 289.75610352 C116.35908698 296.30773113 122.54569569 301.80810849 128.6875 307.375 C130.52277243 309.10978948 132.35355317 310.84934384 134.1796875 312.59375 C138.63193769 316.82721766 143.1362232 320.99831134 147.6875 325.125 C147.70151855 324.21790283 147.70151855 324.21790283 147.71582031 323.29248047 C147.76981722 320.5275212 147.85340394 317.76420094 147.9375 315 C147.95167969 314.04867188 147.96585937 313.09734375 147.98046875 312.1171875 C148.22687847 305.02058758 149.42165689 301.39084311 154.5 296.3125 C158.76387847 293.99782312 162.59132832 293.95490439 167.3125 294.6875 C172.00487471 296.68610404 174.38392055 299.51784111 176.6875 304.125 C176.78620158 305.77784147 176.8230353 307.43455816 176.8293457 309.09033203 C176.83638016 310.12545929 176.84341461 311.16058655 176.85066223 312.2270813 C176.85482651 313.3509726 176.85899078 314.47486389 176.86328125 315.6328125 C176.88648859 318.00521712 176.91060629 320.37761297 176.93554688 322.75 C176.97060272 326.49582703 176.99996886 330.24133391 177.01342773 333.98730469 C177.02894883 337.59870454 177.0691985 341.20916281 177.11328125 344.8203125 C177.11041862 346.48793137 177.11041862 346.48793137 177.10749817 348.1892395 C177.19877489 354.02331294 177.68074135 358.37405202 180.70146179 363.43145752 C183.48515114 368.21250568 183.92170529 372.65166999 182.96875 378.0234375 C181.88350413 384.78268574 180.95219922 391.76369438 184.77441406 397.85803223 C191.73376575 407.08787881 200.92341274 414.67022555 209.6875 422.125 C211.26268236 423.47653051 212.83601418 424.83022564 214.40625 426.1875 C215.3024707 426.94740234 215.3024707 426.94740234 216.21679688 427.72265625 C218.6627206 430.05489162 219.64966922 431.94237556 220.33251953 435.23876953 C219.33866226 441.2267408 215.60917301 444.1666534 211.3671875 448.3046875 C210.51577179 449.15805695 209.66435608 450.01142639 208.78713989 450.89065552 C206.98465665 452.6891419 205.17352844 454.47899972 203.35449219 456.26074219 C200.57257073 458.99011948 197.82401471 461.75005149 195.078125 464.515625 C193.32221022 466.25972515 191.56445721 468.00197699 189.8046875 469.7421875 C188.98257782 470.56814423 188.16046814 471.39410095 187.31344604 472.24508667 C186.5330899 473.00322662 185.75273376 473.76136658 184.94873047 474.54248047 C184.26922333 475.21197723 183.58971619 475.881474 182.88961792 476.57125854 C180.15049693 478.50389158 178.00398226 478.86815272 174.6875 479.125 C172.86132812 478.23632812 172.86132812 478.23632812 171.21875 476.65625 C170.53941406 476.00785156 169.86007812 475.35945313 169.16015625 474.69140625 C166.65708471 472.09343152 164.19142132 469.46525634 161.73950195 466.8190918 C159.22269109 464.10721049 156.68513492 461.41511798 154.14550781 458.72460938 C152.83961448 457.32427488 151.54846905 455.91004136 150.27246094 454.48242188 C142.70101696 445.42996239 142.70101696 445.42996239 132.15234375 441.4453125 C128.20759562 441.53645237 124.51239902 442.18204737 120.6875 443.125 C120.70844727 444.10895752 120.72939453 445.09291504 120.75097656 446.10668945 C120.82337842 449.75742031 120.8692995 453.40808775 120.90722656 457.05932617 C120.92734186 458.63951285 120.95463804 460.21962509 120.98925781 461.79956055 C121.03778343 464.07098748 121.06046809 466.34143058 121.078125 468.61328125 C121.09877014 469.31963211 121.11941528 470.02598297 121.14068604 470.7537384 C121.142934 475.66791146 121.142934 475.66791146 119.0065847 477.81202185 C116.16821869 479.41899746 114.38146525 479.50091326 111.12804317 479.50252342 C109.98982552 479.51034666 108.85160786 479.51816991 107.67889875 479.52623022 C106.42803828 479.51953805 105.17717781 479.51284589 103.88841248 479.50595093 C102.54653434 479.50940688 101.20465904 479.51417102 99.86278969 479.52013266 C96.17203041 479.53268095 92.48150321 479.52645503 88.79074299 479.51717401 C84.81183414 479.51039953 80.8329658 479.52085673 76.85406494 479.52911377 C69.05835204 479.54247008 61.26272568 479.53956504 53.46700936 479.53087585 C47.13321712 479.52410765 40.79944918 479.52317883 34.46565437 479.5264473 C33.11477796 479.52713684 33.11477796 479.52713684 31.73661112 479.52784032 C29.90724944 479.52879947 28.07788777 479.52977211 26.2485261 479.5307581 C9.08549657 479.53931743 -8.07748493 479.5294691 -25.24050658 479.513357 C-39.97733768 479.49995104 -54.71409791 479.50228314 -69.45092773 479.51611328 C-86.55303218 479.53215559 -103.65509451 479.53849581 -120.75720543 479.52927649 C-122.57962699 479.52832081 -124.40204856 479.5273777 -126.22447014 479.5264473 C-127.12120389 479.52598447 -128.01793764 479.52552164 -128.94184514 479.52504479 C-135.27087233 479.52245102 -141.59987288 479.52683418 -147.92889595 479.53388596 C-155.63770831 479.54228608 -163.34642899 479.54005216 -171.0552308 479.52404372 C-174.99077445 479.51614123 -178.92616506 479.5131029 -182.86170769 479.52299118 C-186.46088515 479.5318978 -190.05976697 479.52707251 -193.65891742 479.51105852 C-195.58515924 479.50609331 -197.51142141 479.51594319 -199.43764216 479.52623022 C-200.57325207 479.51840697 -201.70886198 479.51058373 -202.87888432 479.50252342 C-204.35483243 479.50179284 -204.35483243 479.50179284 -205.86059767 479.50104749 C-208.72940824 479.06105891 -209.57570549 478.39935871 -211.3125 476.125 C-213.53740622 471.67518757 -212.49833781 465.59345269 -212.49780273 460.64404297 C-212.49995134 458.42524914 -212.51799546 456.20698447 -212.53710938 453.98828125 C-212.63684372 429.74349084 -206.74841741 408.3923046 -189.5625 390.75 C-172.13891601 373.69718988 -150.82517084 368.94881847 -127.29296875 368.75390625 C-126.61808851 368.7482836 -125.94320827 368.74266094 -125.24787712 368.7368679 C-119.60753832 368.69607403 -113.96719424 368.68613676 -108.32672119 368.68835449 C-104.08734037 368.69001807 -99.84863107 368.67643668 -95.6093998 368.63987541 C-93.63791401 368.62908385 -91.66634569 368.64120145 -89.69487 368.65370178 C-88.50545303 368.64366623 -87.31603607 368.63363068 -86.09057617 368.62329102 C-84.52082283 368.62354027 -84.52082283 368.62354027 -82.9193573 368.62379456 C-80.19215664 368.35916273 -80.19215664 368.35916273 -78.47839355 366.24845886 C-77.0609196 363.66679296 -76.88615373 361.85868848 -76.80078125 358.921875 C-76.76533203 357.9421875 -76.72988281 356.9625 -76.69335938 355.953125 C-76.67080078 354.93734375 -76.64824219 353.9215625 -76.625 352.875 C-76.59083984 351.84375 -76.55667969 350.8125 -76.52148438 349.75 C-76.43911907 347.20844188 -76.36993166 344.66722374 -76.3125 342.125 C-77.40046875 341.89425781 -78.4884375 341.66351563 -79.609375 341.42578125 C-88.64515169 339.44324797 -96.90928304 337.07564535 -105.3125 333.125 C-105.6425 333.455 -105.9725 333.785 -106.3125 334.125 C-109.17360292 334.42943771 -112.01793208 334.67430815 -114.88671875 334.87890625 C-115.76213821 334.94407944 -116.63755768 335.00925262 -117.539505 335.07640076 C-119.40483133 335.21394973 -121.27033325 335.34913408 -123.13598633 335.48217773 C-125.9434503 335.68344593 -128.75001305 335.89484743 -131.55664062 336.10742188 C-141.49843711 336.84056921 -151.3385012 337.34290161 -161.3125 337.125 C-160.9825 337.785 -160.6525 338.445 -160.3125 339.125 C-159.86344736 342.05853077 -159.68601435 344.17111943 -161.36083984 346.72119141 C-162.83618054 348.38474217 -164.38112831 349.91352114 -166 351.4375 C-166.53044922 351.97439453 -167.06089844 352.51128906 -167.60742188 353.06445312 C-170.61247571 355.98838894 -172.90727288 358.09498142 -177.3125 358.125 C-178.3025 357.444375 -179.2925 356.76375 -180.3125 356.0625 C-183.06618111 353.82710561 -183.06618111 353.82710561 -185.75 354.4375 C-188.72456273 356.39635838 -190.98933783 358.64819211 -193.4453125 361.21484375 C-195.22841471 363.0389797 -197.06761424 364.71122388 -199 366.375 C-202.49964213 369.39216719 -205.91507089 372.49379723 -209.3125 375.625 C-213.22213279 379.22532448 -217.17116939 382.76918014 -221.1875 386.25 C-223.93073418 388.67050075 -226.62134568 391.14700642 -229.3125 393.625 C-233.22231595 397.22512756 -237.17116468 400.76917605 -241.1875 404.25 C-243.93073456 406.67050108 -246.62132906 409.1470241 -249.3125 411.625 C-253.24067274 415.24159653 -257.20180299 418.80982141 -261.2421875 422.30078125 C-264.79095984 425.42771839 -268.239249 428.66599328 -271.69921875 431.890625 C-277.67488798 436.99986686 -277.67488798 436.99986686 -281.6640625 437.3046875 C-282.41429687 437.20414062 -283.16453125 437.10359375 -283.9375 437 C-284.69289063 436.91492188 -285.44828125 436.82984375 -286.2265625 436.7421875 C-288.7947648 435.98230742 -289.77010974 435.31957379 -291.3125 433.125 C-292.28299208 428.37802786 -292.51821448 423.30961138 -290.12890625 418.98046875 C-288.29691865 416.89367232 -286.33663767 415.02635636 -284.3125 413.125 C-282.50800716 411.17669044 -280.71817489 409.21966088 -278.9375 407.25 C-277.98262637 406.21015123 -277.02689955 405.17108527 -276.0703125 404.1328125 C-273.63283402 401.4797174 -271.21837888 398.80682198 -268.8125 396.125 C-265.03712783 391.91815673 -261.22269552 387.74825147 -257.3984375 383.5859375 C-254.51827393 380.44832914 -251.65718386 377.29479059 -248.8125 374.125 C-245.03712783 369.91815673 -241.22269552 365.74825147 -237.3984375 361.5859375 C-233.78615025 357.65076424 -230.21046433 353.68417102 -226.64453125 349.70703125 C-224.92173741 347.79954929 -223.19106086 345.90165505 -221.44921875 344.01171875 C-220.959375 343.47998047 -220.46953125 342.94824219 -219.96484375 342.40039062 C-218.57565355 340.89450845 -217.18437087 339.3905574 -215.79296875 337.88671875 C-213.53031289 335.36750979 -211.39689076 332.79243712 -209.3125 330.125 C-210.51631448 327.63138429 -211.76678722 325.44356917 -213.3125 323.125 C-213.27795496 318.19196887 -211.55807089 315.70902417 -208.25195312 312.33203125 C-207.71505859 311.80996094 -207.17816406 311.28789062 -206.625 310.75 C-205.84866211 309.93208984 -205.84866211 309.93208984 -205.05664062 309.09765625 C-202.37507136 306.43278418 -200.77659762 305.18267215 -196.98046875 304.7109375 C-194.3125 305.125 -194.3125 305.125 -193.3125 306.125 C-193.22685791 304.83924072 -193.14121582 303.55348145 -193.05297852 302.22875977 C-192.7325412 297.4258907 -192.40949678 292.62319984 -192.08569336 287.82055664 C-191.94631789 285.74801269 -191.80763494 283.67542204 -191.66967773 281.6027832 C-191.47044153 278.61136315 -191.2686564 275.62012387 -191.06640625 272.62890625 C-191.0059462 271.71291153 -190.94548615 270.79691681 -190.88319397 269.85316467 C-190.50171055 264.2553526 -189.96909965 258.69742499 -189.3125 253.125 C-190.26443237 252.68015259 -190.26443237 252.68015259 -191.2355957 252.22631836 C-195.34629726 250.04653997 -196.89024969 245.39175092 -198.3125 241.125 C-198.5894519 236.25029606 -198.62605918 231.3762208 -198.66259766 226.49438477 C-198.6790724 224.88551279 -198.70624931 223.2767114 -198.74462891 221.66821289 C-199.17037564 203.70355184 -199.17037564 203.70355184 -193.3125 196.125 C-190.29605874 193.28907936 -187.26809597 191.44353199 -183.3125 190.125 C-183.30370064 189.23868896 -183.30370064 189.23868896 -183.29472351 188.33447266 C-183.23006368 182.1032225 -183.14547238 175.87245479 -183.05004883 169.64160156 C-183.01709156 167.32591166 -182.98897206 165.01014706 -182.96606445 162.69433594 C-182.80207574 146.54668099 -182.33883477 130.95658269 -176.6875 115.625 C-176.43589111 114.93196777 -176.18428223 114.23893555 -175.92504883 113.52490234 C-171.19398986 101.06940661 -164.31424559 89.9450861 -155.3125 80.125 C-154.48105469 79.21234375 -153.64960938 78.2996875 -152.79296875 77.359375 C-145.31554923 69.52067459 -136.65205427 61.7819403 -126.6015625 57.4375 C-123.12929065 55.90448814 -120.2420765 54.54429257 -117.3125 52.125 C-116.10613321 48.67759227 -115.87282982 45.64964246 -115.6640625 42.0078125 C-114.19282058 25.75876286 -103.50633042 10.35337749 -91.3125 0.125 C-84.50154867 -4.88186006 -77.19520525 -8.8354823 -69.3125 -11.875 C-68.48234375 -12.19597656 -67.6521875 -12.51695313 -66.796875 -12.84765625 C-43.96409682 -20.024626 -18.62995438 -14.25645899 0 0 Z M94.0625 311.625 C93.27875 312.45 92.495 313.275 91.6875 314.125 C103.02018461 326.66423546 103.02018461 326.66423546 116.6875 336.125 C118.0075 334.475 119.3275 332.825 120.6875 331.125 C117.59734779 327.98550859 114.50075304 324.85256243 111.39794922 321.72558594 C110.34275491 320.6603174 109.28936036 319.59326303 108.23779297 318.52441406 C106.72830273 316.99073784 105.21251301 315.46354432 103.6953125 313.9375 C102.78410645 313.01582031 101.87290039 312.09414063 100.93408203 311.14453125 C97.61631874 308.16207766 97.31501434 308.52736729 94.0625 311.625 Z M58.6875 323.125 C62.71498053 327.95798806 66.93129413 332.50610004 71.3984375 336.93359375 C72.31793686 337.85097069 72.31793686 337.85097069 73.25601196 338.78688049 C75.18914564 340.71447559 77.12574987 342.63853928 79.0625 344.5625 C80.38434699 345.87932404 81.70596372 347.19637926 83.02734375 348.51367188 C86.24474299 351.72012373 89.46525681 354.92341629 92.6875 358.125 C95.30937494 357.07625002 96.48121361 356.47568687 97.9375 354 C98.185 353.38125 98.4325 352.7625 98.6875 352.125 C94.79487903 347.95921935 90.8665124 343.83191171 86.90161133 339.73486328 C85.55995183 338.33808923 84.22835379 336.93157444 82.9074707 335.51513672 C75.69848082 327.21009235 75.69848082 327.21009235 66.28369141 322.21875 C63.57796026 322.21875 61.29173347 322.41595847 58.6875 323.125 Z M21.5625 327.6875 C10.37488466 334.50646439 -1.64872431 338.93926893 -14.3125 342.125 C-14.42904436 345.6872231 -14.4998639 349.24895342 -14.5625 352.8125 C-14.59601563 353.81990234 -14.62953125 354.82730469 -14.6640625 355.86523438 C-14.67695313 356.84169922 -14.68984375 357.81816406 -14.703125 358.82421875 C-14.72407227 359.71971436 -14.74501953 360.61520996 -14.76660156 361.5378418 C-14.12692702 365.18226713 -13.10598764 366.68665342 -10.3125 369.125 C-7.21891768 369.57041608 -4.69057655 369.71138004 -1.609375 369.61328125 C-0.35269012 369.60266914 -0.35269012 369.60266914 0.92938232 369.59184265 C3.59967147 369.56390066 6.26784708 369.50116613 8.9375 369.4375 C10.74996967 369.41241671 12.56247228 369.38960359 14.375 369.36914062 C18.81331171 369.31407504 23.25004781 369.22780667 27.6875 369.125 C26.73590501 368.0043472 25.78281584 366.88496305 24.82910156 365.76611328 C24.29851135 365.14261993 23.76792114 364.51912659 23.22125244 363.8767395 C20.7947365 361.10535104 18.11099236 358.62911495 15.421875 356.1171875 C12.49769755 352.75833503 11.67096985 350.05068858 11.75 345.625 C12.88868163 341.37392191 14.19266663 339.76554077 17.6875 337.125 C21.96713523 335.63643122 24.6866207 336.15885748 28.77825928 338.00296021 C32.48742423 340.18279569 35.22545219 343.36838532 38.1328125 346.49609375 C39.55395186 347.97271356 40.97585133 349.44860213 42.3984375 350.92382812 C44.60618735 353.23658071 46.80609978 355.55566894 48.9921875 357.88891602 C60.68633936 370.63581043 60.68633936 370.63581043 76.6875 376.125 C76.99139902 373.19327033 76.99139902 373.19327033 75.48852539 371.55853271 C74.92641357 371.00006653 74.36430176 370.44160034 73.78515625 369.86621094 C73.15029297 369.22834656 72.51542969 368.59048218 71.86132812 367.93328857 C71.16458984 367.24889709 70.46785156 366.56450562 69.75 365.859375 C69.03650391 365.14775208 68.32300781 364.43612915 67.58789062 363.70294189 C66.07135831 362.1931444 64.55122661 360.68695519 63.02783203 359.18408203 C60.71793455 356.90502816 58.41858228 354.61577445 56.12109375 352.32421875 C54.64384361 350.85615229 53.165997 349.38868574 51.6875 347.921875 C51.00695557 347.24558044 50.32641113 346.56928589 49.62524414 345.87249756 C45.66800364 341.97285512 41.61180632 338.23953697 37.39657593 334.61979675 C34.5416046 332.12277377 31.96511974 329.37262073 29.3515625 326.62890625 C26.28655849 323.85889089 24.6247372 325.69964094 21.5625 327.6875 Z " fill="#FEE1B7" transform="translate(291.3125,24.875)"/>
<path d="M0 0 C10.87317749 7.41151282 19.60234793 16.97704322 22.18359375 30.26953125 C21.99560547 32.23822021 21.99560547 32.23822021 21.61328125 34.32324219 C20.75825328 40.85917654 20.27802228 47.04358973 23.73779297 52.90063477 C28.85518073 59.45226238 35.04178944 64.95263974 41.18359375 70.51953125 C43.01886618 72.25432073 44.84964692 73.99387509 46.67578125 75.73828125 C51.12803144 79.97174891 55.63231695 84.14284259 60.18359375 88.26953125 C60.1976123 87.36243408 60.1976123 87.36243408 60.21191406 86.43701172 C60.26591097 83.67205245 60.34949769 80.90873219 60.43359375 78.14453125 C60.44777344 77.19320312 60.46195312 76.241875 60.4765625 75.26171875 C60.72297222 68.16511883 61.91775064 64.53537436 66.99609375 59.45703125 C71.25997222 57.14235437 75.08742207 57.09943564 79.80859375 57.83203125 C84.50096846 59.83063529 86.8800143 62.66237236 89.18359375 67.26953125 C89.28229533 68.92237272 89.31912905 70.57908941 89.32543945 72.23486328 C89.33247391 73.26999054 89.33950836 74.3051178 89.34675598 75.37161255 C89.35092026 76.49550385 89.35508453 77.61939514 89.359375 78.77734375 C89.38258234 81.14974837 89.40670004 83.52214422 89.43164062 85.89453125 C89.46669647 89.64035828 89.49606261 93.38586516 89.50952148 97.13183594 C89.52504258 100.74323579 89.56529225 104.35369406 89.609375 107.96484375 C89.60651237 109.63246262 89.60651237 109.63246262 89.60359192 111.33377075 C89.69486864 117.16784419 90.1768351 121.51858327 93.19755554 126.57598877 C95.98124489 131.35703693 96.41779904 135.79620124 95.46484375 141.16796875 C94.37959788 147.92721699 93.44829297 154.90822563 97.27050781 161.00256348 C104.2298595 170.23241006 113.41950649 177.8147568 122.18359375 185.26953125 C123.75877611 186.62106176 125.33210793 187.97475689 126.90234375 189.33203125 C127.49982422 189.83863281 128.09730469 190.34523438 128.71289062 190.8671875 C131.15881435 193.19942287 132.14576297 195.08690681 132.82861328 198.38330078 C131.83475601 204.37127205 128.10526676 207.31118465 123.86328125 211.44921875 C123.01186554 212.3025882 122.16044983 213.15595764 121.28323364 214.03518677 C119.4807504 215.83367315 117.66962219 217.62353097 115.85058594 219.40527344 C113.06866448 222.13465073 110.32010846 224.89458274 107.57421875 227.66015625 C105.81830397 229.4042564 104.06055096 231.14650824 102.30078125 232.88671875 C101.47867157 233.71267548 100.65656189 234.5386322 99.80953979 235.38961792 C99.02918365 236.14775787 98.24882751 236.90589783 97.44482422 237.68701172 C96.76531708 238.35650848 96.08580994 239.02600525 95.38571167 239.71578979 C92.64659068 241.64842283 90.50007601 242.01268397 87.18359375 242.26953125 C85.35742188 241.38085938 85.35742188 241.38085938 83.71484375 239.80078125 C83.03550781 239.15238281 82.35617187 238.50398437 81.65625 237.8359375 C79.15317846 235.23796277 76.68751507 232.60978759 74.2355957 229.96362305 C71.71878484 227.25174174 69.18122867 224.55964923 66.64160156 221.86914062 C65.33570823 220.46880613 64.0445628 219.05457261 62.76855469 217.62695312 C55.19711071 208.57449364 55.19711071 208.57449364 44.6484375 204.58984375 C40.70368937 204.68098362 37.00849277 205.32657862 33.18359375 206.26953125 C33.20454102 207.25348877 33.22548828 208.23744629 33.24707031 209.2512207 C33.31947217 212.90195156 33.36539325 216.552619 33.40332031 220.20385742 C33.42343561 221.7840441 33.45073179 223.36415634 33.48535156 224.9440918 C33.53387718 227.21551873 33.55656184 229.48596183 33.57421875 231.7578125 C33.59486389 232.46416336 33.61550903 233.17051422 33.63677979 233.89826965 C33.63902775 238.81244271 33.63902775 238.81244271 31.50267845 240.9565531 C28.66431244 242.56352871 26.877559 242.64544451 23.62413692 242.64705467 C22.48591927 242.65487791 21.34770161 242.66270116 20.1749925 242.67076147 C18.2987018 242.66072322 18.2987018 242.66072322 16.38450623 242.65048218 C15.04262809 242.65393813 13.70075279 242.65870227 12.35888344 242.66466391 C8.66812416 242.6772122 4.97759696 242.67098628 1.28683674 242.66170526 C-2.69207211 242.65493078 -6.67094045 242.66538798 -10.64984131 242.67364502 C-18.44555421 242.68700133 -26.24118057 242.68409629 -34.03689689 242.6754071 C-40.37068913 242.6686389 -46.70445707 242.66771008 -53.03825188 242.67097855 C-53.93883615 242.67143825 -54.83942043 242.67189794 -55.76729513 242.67237157 C-57.59665681 242.67333072 -59.42601848 242.67430336 -61.25538015 242.67528935 C-78.41840968 242.68384868 -95.58139118 242.67400035 -112.74441283 242.65788825 C-127.48124393 242.64448229 -142.21800416 242.64681439 -156.95483398 242.66064453 C-174.05693843 242.67668684 -191.15900076 242.68302706 -208.26111168 242.67380774 C-210.08353324 242.67285206 -211.90595481 242.67190895 -213.72837639 242.67097855 C-214.62511014 242.67051572 -215.52184389 242.67005289 -216.44575139 242.66957604 C-222.77477858 242.66698227 -229.10377913 242.67136543 -235.4328022 242.67841721 C-243.14161456 242.68681733 -250.85033524 242.68458341 -258.55913705 242.66857497 C-262.4946807 242.66067248 -266.43007131 242.65763415 -270.36561394 242.66752243 C-273.9647914 242.67642905 -277.56367322 242.67160376 -281.16282367 242.65558977 C-283.08906549 242.65062456 -285.01532766 242.66047444 -286.94154841 242.67076147 C-288.07715832 242.66293822 -289.21276823 242.65511498 -290.38279057 242.64705467 C-291.36675597 242.64656762 -292.35072138 242.64608056 -293.36450392 242.64557874 C-296.23331449 242.20559016 -297.07961174 241.54388996 -298.81640625 239.26953125 C-301.04131247 234.81971882 -300.00224406 228.73798394 -300.00170898 223.78857422 C-300.00385759 221.56978039 -300.02190171 219.35151572 -300.04101562 217.1328125 C-300.14074997 192.88802209 -294.25232366 171.53683585 -277.06640625 153.89453125 C-259.64282226 136.84172113 -238.32907709 132.09334972 -214.796875 131.8984375 C-214.12199476 131.89281485 -213.44711452 131.88719219 -212.75178337 131.88139915 C-207.11144457 131.84060528 -201.47110049 131.83066801 -195.83062744 131.83288574 C-191.59124662 131.83454932 -187.35253732 131.82096793 -183.11330605 131.78440666 C-181.14182026 131.7736151 -179.17025194 131.7857327 -177.19877625 131.79823303 C-176.00935928 131.78819748 -174.81994232 131.77816193 -173.59448242 131.76782227 C-172.02472908 131.76807152 -172.02472908 131.76807152 -170.42326355 131.76832581 C-167.69606289 131.50369398 -167.69606289 131.50369398 -165.9822998 129.39299011 C-164.56482585 126.81132421 -164.39005998 125.00321973 -164.3046875 122.06640625 C-164.26923828 121.08671875 -164.23378906 120.10703125 -164.19726562 119.09765625 C-164.16342773 117.57398438 -164.16342773 117.57398438 -164.12890625 116.01953125 C-164.09474609 114.98828125 -164.06058594 113.95703125 -164.02539062 112.89453125 C-163.94302532 110.35297313 -163.87383791 107.81175499 -163.81640625 105.26953125 C-164.904375 105.05039062 -165.99234375 104.83125 -167.11328125 104.60546875 C-176.50319113 102.61376703 -184.44702118 100.10732609 -192.81640625 95.26953125 C-192.35234375 93.81546875 -192.35234375 93.81546875 -191.87890625 92.33203125 C-190.63673528 88.03288634 -190.19955772 83.71610491 -189.81640625 79.26953125 C-189.42582031 80.17251953 -189.42582031 80.17251953 -189.02734375 81.09375 C-183.19715394 91.5692846 -165.52744564 97.81353752 -154.81640625 101.26953125 C-141.76592187 104.95004388 -129.12611286 105.41963169 -115.62890625 105.33203125 C-114.28190273 105.32700088 -112.93489736 105.32244072 -111.58789062 105.31835938 C-108.33068088 105.30668479 -105.07356847 105.29031008 -101.81640625 105.26953125 C-101.80182373 105.9150293 -101.78724121 106.56052734 -101.7722168 107.22558594 C-101.69762755 110.15749698 -101.60100385 113.0882829 -101.50390625 116.01953125 C-101.48134766 117.0353125 -101.45878906 118.05109375 -101.43554688 119.09765625 C-101.40009766 120.07734375 -101.36464844 121.05703125 -101.328125 122.06640625 C-101.30194092 122.96713867 -101.27575684 123.86787109 -101.2487793 124.79589844 C-100.70372919 127.91416365 -100.24647425 129.19682619 -97.81640625 131.26953125 C-94.89138473 131.62495949 -92.34854658 131.73606551 -89.4296875 131.66015625 C-88.61267868 131.65449646 -87.79566986 131.64883667 -86.9539032 131.64300537 C-84.34497422 131.62061822 -81.73741989 131.57041971 -79.12890625 131.51953125 C-77.36004588 131.49946917 -75.59116398 131.48121789 -73.82226562 131.46484375 C-69.48644969 131.42074605 -65.151661 131.35170419 -60.81640625 131.26953125 C-61.43684814 130.67265503 -61.43684814 130.67265503 -62.06982422 130.0637207 C-63.95164441 128.24452216 -65.8215222 126.41349303 -67.69140625 124.58203125 C-68.34238281 123.95619141 -68.99335938 123.33035156 -69.6640625 122.68554688 C-75.74560831 116.69804559 -75.74560831 116.69804559 -76.81640625 112.26953125 C-76.67744619 108.37864954 -76.14671243 105.86408238 -74.25390625 102.45703125 C-71.10555718 99.63158978 -68.09196326 98.21126131 -63.81640625 98.26953125 C-57.43770341 100.35950341 -53.88669863 103.78278354 -49.37109375 108.640625 C-47.94995439 110.11724481 -46.52805492 111.59313338 -45.10546875 113.06835938 C-42.8977189 115.38111196 -40.69780647 117.70020019 -38.51171875 120.03344727 C-26.81756689 132.78034168 -26.81756689 132.78034168 -10.81640625 138.26953125 C-14.70390579 133.62140334 -18.73522497 129.20164598 -23.02734375 124.92578125 C-23.59917389 124.35299438 -24.17100403 123.78020752 -24.76016235 123.19006348 C-25.96062563 121.98892503 -27.1623312 120.78902699 -28.36523438 119.59033203 C-30.18344062 117.77747346 -31.99625572 115.95934797 -33.80859375 114.140625 C-39.14525051 108.80108487 -44.47944338 103.52637624 -50.22851562 98.62597656 C-66.63875726 84.60763362 -66.63875726 84.60763362 -68.3515625 76.84375 C-68.52664357 72.19268323 -67.78332028 69.8814266 -64.81640625 66.26953125 C-65.26229126 62.67801914 -66.40719443 59.58532376 -67.81640625 56.26953125 C-72.37912959 45.53371163 -71.91087666 34.34602939 -68.13671875 23.40625 C-62.25138546 9.42423038 -52.66721112 1.06241491 -38.81640625 -4.73046875 C-26.30394441 -8.42607778 -10.96748135 -6.73868826 0 0 Z M6.55859375 74.76953125 C5.77484375 75.59453125 4.99109375 76.41953125 4.18359375 77.26953125 C15.51627836 89.80876671 15.51627836 89.80876671 29.18359375 99.26953125 C30.50359375 97.61953125 31.82359375 95.96953125 33.18359375 94.26953125 C30.09344154 91.13003984 26.99684679 87.99709368 23.89404297 84.87011719 C22.83884866 83.80484865 21.78545411 82.73779428 20.73388672 81.66894531 C19.22439648 80.13526909 17.70860676 78.60807557 16.19140625 77.08203125 C15.2802002 76.16035156 14.36899414 75.23867188 13.43017578 74.2890625 C10.11241249 71.30660891 9.81110809 71.67189854 6.55859375 74.76953125 Z M-28.81640625 86.26953125 C-24.78892572 91.10251931 -20.57261212 95.65063129 -16.10546875 100.078125 C-15.18596939 100.99550194 -15.18596939 100.99550194 -14.24789429 101.93141174 C-12.31476061 103.85900684 -10.37815638 105.78307053 -8.44140625 107.70703125 C-7.11955926 109.02385529 -5.79794253 110.34091051 -4.4765625 111.65820312 C-1.25916326 114.86465498 1.96135056 118.06794754 5.18359375 121.26953125 C7.80546869 120.22078127 8.97730736 119.62021812 10.43359375 117.14453125 C10.68109375 116.52578125 10.92859375 115.90703125 11.18359375 115.26953125 C7.29097278 111.1037506 3.36260615 106.97644296 -0.60229492 102.87939453 C-1.94395442 101.48262048 -3.27555246 100.07610569 -4.59643555 98.65966797 C-11.80542543 90.3546236 -11.80542543 90.3546236 -21.22021484 85.36328125 C-23.92594599 85.36328125 -26.21217278 85.56048972 -28.81640625 86.26953125 Z " fill="#FFC887" transform="translate(378.81640625,261.73046875)"/>
<path d="M0 0 C10.64403101 8.97065823 22.19947596 22.79145689 23.93457031 37.17285156 C23.98967773 37.89182617 24.04478516 38.61080078 24.1015625 39.3515625 C24.47166366 47.10667064 24.47166366 47.10667064 28.16845703 53.59960938 C32.0353206 56.29961154 36.32157434 58.15195944 40.60253906 60.09472656 C61.42416556 70.38363333 77.68510897 93.02912826 85.48535156 114.30078125 C89.76418915 126.99635733 92.02001545 139.59275882 91.8828125 153.015625 C91.87856766 154.62156525 91.87856766 154.62156525 91.87423706 156.25994873 C91.86316933 159.63175316 91.8380909 163.0032778 91.8125 166.375 C91.80245284 168.68098571 91.79333005 170.98697564 91.78515625 173.29296875 C91.76498778 178.90383661 91.72581412 184.51411042 91.6875 190.125 C84.0975 190.125 76.5075 190.125 68.6875 190.125 C68.3575 180.885 68.0275 171.645 67.6875 162.125 C64.66207031 162.09921875 61.63664063 162.0734375 58.51953125 162.046875 C55.54719247 162.00832023 52.57501937 161.96320355 49.6027832 161.91748047 C47.55761803 161.88947994 45.51234885 161.86816284 43.46704102 161.85400391 C23.74349624 161.70936779 8.7854785 159.12423326 -6.1640625 145.34765625 C-7.97386002 143.47533845 -9.23413312 141.87002033 -10.5 139.625 C-12.18218845 136.78641792 -12.18218845 136.78641792 -15.8125 136 C-19.24876209 135.79898 -19.24876209 135.79898 -21.3125 137.5625 C-21.9725 138.408125 -22.6325 139.25375 -23.3125 140.125 C-31.35104442 149.88312996 -40.63551963 157.52147117 -53.3125 160.125 C-56.67915325 160.40216567 -60.03038448 160.39546889 -63.40698242 160.38037109 C-64.89117424 160.38580177 -64.89117424 160.38580177 -66.40534973 160.39134216 C-68.5436683 160.39821149 -70.68200431 160.40074624 -72.82033348 160.39939499 C-76.20361019 160.39842731 -79.58657138 160.41139877 -82.96980286 160.42837524 C-92.58523164 160.47458934 -102.200626 160.4992735 -111.81616211 160.50585938 C-117.70525531 160.51086495 -123.59401546 160.5350591 -129.48299599 160.57118607 C-131.72649451 160.58099929 -133.97003874 160.58330776 -136.21355247 160.57801437 C-139.34480002 160.57096894 -142.47504818 160.58817204 -145.60620117 160.61083984 C-146.53459808 160.60266739 -147.462995 160.59449493 -148.41952515 160.58607483 C-153.49961032 160.61953471 -153.49961032 160.61953471 -157.88502502 162.98532104 C-159.74269522 165.76983069 -159.85381509 167.64943951 -159.921875 170.984375 C-159.97021484 172.65693359 -159.97021484 172.65693359 -160.01953125 174.36328125 C-160.04080078 176.10158203 -160.04080078 176.10158203 -160.0625 177.875 C-160.09214844 179.04933594 -160.12179688 180.22367188 -160.15234375 181.43359375 C-160.22299657 184.3303595 -160.27001736 187.2276842 -160.3125 190.125 C-167.5725 190.125 -174.8325 190.125 -182.3125 190.125 C-182.38191312 183.29680595 -182.44148233 176.46986923 -182.47729492 169.64160156 C-182.49224696 167.32580382 -182.51261597 165.01003371 -182.53881836 162.69433594 C-182.71799389 146.43503529 -182.38041573 131.06938825 -176.6875 115.625 C-176.43589111 114.93196777 -176.18428223 114.23893555 -175.92504883 113.52490234 C-171.19398986 101.06940661 -164.31424559 89.9450861 -155.3125 80.125 C-154.48105469 79.21234375 -153.64960938 78.2996875 -152.79296875 77.359375 C-145.31554923 69.52067459 -136.65205427 61.7819403 -126.6015625 57.4375 C-123.12929065 55.90448814 -120.2420765 54.54429257 -117.3125 52.125 C-116.10613321 48.67759227 -115.87282982 45.64964246 -115.6640625 42.0078125 C-114.19282058 25.75876286 -103.50633042 10.35337749 -91.3125 0.125 C-84.50154867 -4.88186006 -77.19520525 -8.8354823 -69.3125 -11.875 C-68.06726563 -12.35646484 -68.06726563 -12.35646484 -66.796875 -12.84765625 C-43.96409682 -20.024626 -18.62995438 -14.25645899 0 0 Z " fill="#B57A4E" transform="translate(291.3125,24.875)"/>
<path d="M0 0 C0.39058594 0.90298828 0.39058594 0.90298828 0.7890625 1.82421875 C6.61925231 12.29975335 24.28896061 18.54400627 35 22 C48.05048438 25.68051263 60.69029339 26.15010044 74.1875 26.0625 C75.53450352 26.05746963 76.88150889 26.05290947 78.22851562 26.04882812 C81.48572537 26.03715354 84.74283778 26.02077883 88 26 C88.01458252 26.64549805 88.02916504 27.29099609 88.04418945 27.95605469 C88.1187787 30.88796573 88.2154024 33.81875165 88.3125 36.75 C88.33505859 37.76578125 88.35761719 38.7815625 88.38085938 39.828125 C88.41630859 40.8078125 88.45175781 41.7875 88.48828125 42.796875 C88.51446533 43.69760742 88.54064941 44.59833984 88.56762695 45.52636719 C89.1160786 48.6640928 89.53617862 49.92954435 92 52 C95.06150243 52.33982772 97.77642572 52.43863407 100.83203125 52.36328125 C102.61783866 52.36314679 104.40364627 52.36382337 106.18945312 52.36523438 C109.00080721 52.34437681 111.81129118 52.31252069 114.62231445 52.2644043 C117.33883667 52.22549111 120.05280283 52.22954549 122.76953125 52.23828125 C123.60410355 52.21147781 124.43867584 52.18467438 125.29853821 52.15705872 C128.87842034 52.18685554 131.10544639 52.24465869 133.90609741 54.60946655 C135.40244448 56.34523353 136.74283319 58.08564031 138 60 C132.77986553 68.45217517 127.49316539 76.84214179 121.95239258 85.08813477 C118.52484084 90.19494358 115.1595213 95.340093 111.8125 100.5 C111.27077148 101.3348291 110.72904297 102.1696582 110.17089844 103.02978516 C109.03797219 104.77596787 107.90516242 106.52222616 106.77246094 108.26855469 C101.79885921 115.93310788 96.8128469 123.58947758 91.80908203 131.234375 C90.6208096 133.05094046 89.43423187 134.86861583 88.24951172 136.6875 C86.63068437 139.17066803 85.0040245 141.64851352 83.375 144.125 C82.90247803 144.85283691 82.42995605 145.58067383 81.94311523 146.33056641 C76.6268218 154.3695595 70.49138157 160.36174497 61 163 C57.66199207 163.25447559 57.66199207 163.25447559 53.95869446 163.26069641 C53.27373136 163.26452196 52.58876827 163.26834751 51.88304871 163.27228898 C49.60074546 163.28256171 47.31869647 163.27863792 45.03637695 163.2746582 C43.39505787 163.27900767 41.75374081 163.28419161 40.11242676 163.29014587 C35.66435242 163.30351715 31.21636315 163.30411697 26.76827264 163.30158257 C23.05516698 163.30051228 19.3420785 163.30539737 15.62897652 163.310188 C6.87332477 163.32127522 -1.88228408 163.32172402 -10.63793945 163.31567383 C-19.67667398 163.30962432 -28.71525323 163.32197159 -37.75396127 163.3432439 C-45.51373529 163.36083606 -53.27345977 163.36686531 -61.03325301 163.36360615 C-65.66837243 163.36179043 -70.3033809 163.36445886 -74.93848228 163.37832069 C-79.29286933 163.39085681 -83.64701306 163.38899521 -88.00139618 163.37590981 C-89.60141137 163.37353579 -91.20144347 163.37630806 -92.80143929 163.38453293 C-94.98112714 163.39493232 -97.15998802 163.38695598 -99.33964539 163.3742218 C-101.17108109 163.37447341 -101.17108109 163.37447341 -103.0395155 163.37473011 C-106 163 -106 163 -107.85377216 161.60161114 C-111.36696466 156.69266716 -110.18593113 150.3316771 -110.18530273 144.51904297 C-110.18745134 142.30024914 -110.20549546 140.08198447 -110.22460938 137.86328125 C-110.32434372 113.61849084 -104.43591741 92.2673046 -87.25 74.625 C-69.82641601 57.57218988 -48.51267084 52.82381847 -24.98046875 52.62890625 C-24.30558851 52.6232836 -23.63070827 52.61766094 -22.93537712 52.6118679 C-17.29503832 52.57107403 -11.65469424 52.56113676 -6.01422119 52.56335449 C-1.77484037 52.56501807 2.46386893 52.55143668 6.7031002 52.51487541 C8.67458599 52.50408385 10.64615431 52.51620145 12.61763 52.52870178 C14.40175545 52.51364845 14.40175545 52.51364845 16.22192383 52.49829102 C17.79167717 52.49854027 17.79167717 52.49854027 19.3931427 52.49879456 C22.12034336 52.23416273 22.12034336 52.23416273 23.83410645 50.12345886 C25.2515804 47.54179296 25.42634627 45.73368848 25.51171875 42.796875 C25.54716797 41.8171875 25.58261719 40.8375 25.61914062 39.828125 C25.65297852 38.30445313 25.65297852 38.30445313 25.6875 36.75 C25.72166016 35.71875 25.75582031 34.6875 25.79101562 33.625 C25.87338093 31.08344188 25.94256834 28.54222374 26 26 C24.91203125 25.78085937 23.8240625 25.56171875 22.703125 25.3359375 C13.31321512 23.34423578 5.36938507 20.83779484 -3 16 C-2.5359375 14.5459375 -2.5359375 14.5459375 -2.0625 13.0625 C-0.82032903 8.76335509 -0.38315147 4.44657366 0 0 Z " fill="#F7D5AB" transform="translate(189,341)"/>
<path d="M0 0 C3.35127311 -0.34433599 5.85181057 -0.36808399 9.12036133 0.47827148 C12.7833362 3.7616374 15.0333157 7.80235454 17.43286133 12.04077148 C18.15360474 13.23621482 18.8789447 14.42889781 19.60864258 15.61889648 C21.09499415 18.05205633 22.55998058 20.49615947 24.00952148 22.95141602 C27.04735288 28.06819233 30.33823713 33.01611653 33.62036133 37.97827148 C34.85477679 39.86802019 36.08783615 41.75865538 37.31958008 43.65014648 C37.93881348 44.59954102 38.55804688 45.54893555 39.19604492 46.52709961 C40.50930341 48.54114028 41.8221094 50.55547605 43.13452148 52.57006836 C46.6468065 57.96082458 50.16590703 63.34688283 53.69848633 68.72436523 C56.39034073 72.82310586 59.06001394 76.934236 61.70503235 81.06332397 C63.30008797 83.54709159 64.90874095 86.02187345 66.51986694 88.49523926 C67.284802 89.67621275 68.04395838 90.86095285 68.79678345 92.04968262 C74.5662287 101.15053241 79.57548852 106.57843146 90.12036133 109.47827148 C90.12036133 109.80827148 90.12036133 110.13827148 90.12036133 110.47827148 C69.44117278 110.54829393 48.76200373 110.60122644 28.08272076 110.633708 C18.48137643 110.64918935 8.88010569 110.67030303 -0.72119141 110.70458984 C-9.0878392 110.73445346 -17.45443371 110.75383726 -25.82113332 110.76053697 C-30.25292154 110.7644544 -34.68455732 110.77368707 -39.11629677 110.79546165 C-43.28508351 110.8157789 -47.45365457 110.82211499 -51.62248611 110.81759453 C-53.1547799 110.81842187 -54.68708068 110.82441591 -56.21933174 110.83588791 C-58.30736198 110.85075808 -60.39457204 110.84724591 -62.48262024 110.83903503 C-63.65237554 110.84180041 -64.82213083 110.84456579 -66.02733326 110.84741497 C-68.87963867 110.47827148 -68.87963867 110.47827148 -70.71695232 109.08072376 C-74.26311062 104.19329265 -73.06556935 97.80582917 -73.06494141 91.99731445 C-73.06709001 89.77852062 -73.08513413 87.56025595 -73.10424805 85.34155273 C-73.20398239 61.09676232 -67.31555608 39.74557608 -50.12963867 22.10327148 C-35.82073048 8.09885686 -19.07934241 3.16883695 0 0 Z " fill="#FE6666" transform="translate(151.879638671875,393.521728515625)"/>
<path d="M0 0 C12.94155321 10.84773909 21.47891537 24.08219322 24.26953125 40.90234375 C25.99562897 66.84611551 25.99562897 66.84611551 19.26953125 74.90234375 C16.19573763 75.56983695 13.60620927 75.89919152 10.5 76.046875 C9.62741043 76.1063884 8.75482086 76.16590179 7.85578918 76.22721863 C5.0571107 76.41204158 2.25768812 76.56330713 -0.54296875 76.71484375 C-2.38620389 76.83450911 -4.22930663 76.95623259 -6.07226562 77.08007812 C-15.96889088 77.71909478 -25.81119531 78.08102233 -35.73046875 77.90234375 C-35.40046875 78.56234375 -35.07046875 79.22234375 -34.73046875 79.90234375 C-34.28141611 82.83587452 -34.1039831 84.94846318 -35.77880859 87.49853516 C-37.25414929 89.16208592 -38.79909706 90.69086489 -40.41796875 92.21484375 C-40.94841797 92.75173828 -41.47886719 93.28863281 -42.02539062 93.84179688 C-45.03044446 96.76573269 -47.32524163 98.87232517 -51.73046875 98.90234375 C-52.72046875 98.22171875 -53.71046875 97.54109375 -54.73046875 96.83984375 C-57.48414986 94.60444936 -57.48414986 94.60444936 -60.16796875 95.21484375 C-63.14253148 97.17370213 -65.40730658 99.42553586 -67.86328125 101.9921875 C-69.64638346 103.81632345 -71.48558299 105.48856763 -73.41796875 107.15234375 C-76.91761088 110.16951094 -80.33303964 113.27114098 -83.73046875 116.40234375 C-87.64010154 120.00266823 -91.58913814 123.54652389 -95.60546875 127.02734375 C-98.34870293 129.4478445 -101.03931443 131.92435017 -103.73046875 134.40234375 C-107.6402847 138.00247131 -111.58913343 141.5465198 -115.60546875 145.02734375 C-118.34870331 147.44784483 -121.03929781 149.92436785 -123.73046875 152.40234375 C-127.65864149 156.01894028 -131.61977174 159.58716516 -135.66015625 163.078125 C-139.20892859 166.20506214 -142.65721775 169.44333703 -146.1171875 172.66796875 C-152.09285673 177.77721061 -152.09285673 177.77721061 -156.08203125 178.08203125 C-156.83226562 177.98148438 -157.5825 177.8809375 -158.35546875 177.77734375 C-159.11085937 177.69226563 -159.86625 177.6071875 -160.64453125 177.51953125 C-163.21273355 176.75965117 -164.18807849 176.09691754 -165.73046875 173.90234375 C-166.70096083 169.15537161 -166.93618323 164.08695513 -164.546875 159.7578125 C-162.7148874 157.67101607 -160.75460642 155.80370011 -158.73046875 153.90234375 C-156.92597591 151.95403419 -155.13614364 149.99700463 -153.35546875 148.02734375 C-152.40059512 146.98749498 -151.4448683 145.94842902 -150.48828125 144.91015625 C-148.05080277 142.25706115 -145.63634763 139.58416573 -143.23046875 136.90234375 C-139.45509658 132.69550048 -135.64066427 128.52559522 -131.81640625 124.36328125 C-128.93624268 121.22567289 -126.07515261 118.07213434 -123.23046875 114.90234375 C-119.45509658 110.69550048 -115.64066427 106.52559522 -111.81640625 102.36328125 C-108.204119 98.42810799 -104.62843308 94.46151477 -101.0625 90.484375 C-99.33970616 88.57689304 -97.60902961 86.6789988 -95.8671875 84.7890625 C-95.37734375 84.25732422 -94.8875 83.72558594 -94.3828125 83.17773438 C-92.9936223 81.6718522 -91.60233962 80.16790115 -90.2109375 78.6640625 C-87.94828164 76.14485354 -85.81485951 73.56978087 -83.73046875 70.90234375 C-84.93428323 68.40872804 -86.18475597 66.22091292 -87.73046875 63.90234375 C-87.69592371 58.96931262 -85.97603964 56.48636792 -82.66992188 53.109375 C-82.13302734 52.58730469 -81.59613281 52.06523437 -81.04296875 51.52734375 C-80.52541016 50.98207031 -80.00785156 50.43679688 -79.47460938 49.875 C-76.79304011 47.21012793 -75.19456637 45.9600159 -71.3984375 45.48828125 C-68.73046875 45.90234375 -68.73046875 45.90234375 -67.73046875 46.90234375 C-67.64482666 45.61658447 -67.55918457 44.3308252 -67.47094727 43.00610352 C-67.15050995 38.20323445 -66.82746553 33.40054359 -66.50366211 28.59790039 C-66.36428664 26.52535644 -66.22560369 24.45276579 -66.08764648 22.38012695 C-65.88841028 19.3887069 -65.68662515 16.39746762 -65.484375 13.40625 C-65.42391495 12.49025528 -65.3634549 11.57426056 -65.30116272 10.63050842 C-65.01239772 6.39322804 -64.69565728 2.158215 -64.30053711 -2.07055664 C-64.23628036 -2.77700821 -64.17202362 -3.48345978 -64.1058197 -4.21131897 C-63.73046875 -6.09765625 -63.73046875 -6.09765625 -61.85546875 -9.03515625 C-44.65484437 -20.38756834 -15.07270429 -11.42326013 0 0 Z " fill="#9B5729" transform="translate(165.73046875,284.09765625)"/>
<path d="M0 0 C13.09577239 11.03695566 23.54553901 26.80305457 25.6875 44.125 C25.82155869 47.14825467 25.78365519 50.09611165 25.6875 53.125 C24.74132812 52.74988281 23.79515625 52.37476562 22.8203125 51.98828125 C-12.82002143 38.10077786 -45.20948066 36.7732714 -80.78515625 52.0078125 C-108.04216277 64.11569963 -129.66623746 84.43127105 -141.3125 112.125 C-147.21524194 127.93942943 -148.68397703 143.38644082 -149.3125 160.125 C-151.33072917 160.54817708 -153.34895833 160.97135417 -155.3671875 161.39453125 C-157.68296549 162.04808838 -157.68296549 162.04808838 -159.3125 165.125 C-159.68048693 167.83575544 -159.68048693 167.83575544 -159.7265625 170.88671875 C-159.76523438 172.00498047 -159.80390625 173.12324219 -159.84375 174.27539062 C-159.8746875 175.44263672 -159.905625 176.60988281 -159.9375 177.8125 C-159.97617188 178.99134766 -160.01484375 180.17019531 -160.0546875 181.38476562 C-160.14904057 184.29791668 -160.23186242 187.21143703 -160.3125 190.125 C-167.5725 190.125 -174.8325 190.125 -182.3125 190.125 C-182.38191312 183.29680595 -182.44148233 176.46986923 -182.47729492 169.64160156 C-182.49224696 167.32580382 -182.51261597 165.01003371 -182.53881836 162.69433594 C-182.71799389 146.43503529 -182.38041573 131.06938825 -176.6875 115.625 C-176.43589111 114.93196777 -176.18428223 114.23893555 -175.92504883 113.52490234 C-171.19398986 101.06940661 -164.31424559 89.9450861 -155.3125 80.125 C-154.48105469 79.21234375 -153.64960938 78.2996875 -152.79296875 77.359375 C-145.31554923 69.52067459 -136.65205427 61.7819403 -126.6015625 57.4375 C-123.12929065 55.90448814 -120.2420765 54.54429257 -117.3125 52.125 C-116.10613321 48.67759227 -115.87282982 45.64964246 -115.6640625 42.0078125 C-114.19282058 25.75876286 -103.50633042 10.35337749 -91.3125 0.125 C-84.50154867 -4.88186006 -77.19520525 -8.8354823 -69.3125 -11.875 C-68.06726563 -12.35646484 -68.06726563 -12.35646484 -66.796875 -12.84765625 C-43.96409682 -20.024626 -18.62995438 -14.25645899 0 0 Z " fill="#9B5729" transform="translate(291.3125,24.875)"/>
<path d="M0 0 C3.81247818 1.57193268 6.18291831 3.96561539 9.05297852 6.8894043 C9.54307907 7.38563797 10.03317963 7.88187164 10.53813171 8.3931427 C11.59989286 9.46918381 12.65939873 10.54745394 13.71689034 11.62769127 C15.3991945 13.34492828 17.08862081 15.05485286 18.78025818 16.76289368 C23.58846836 21.6198449 28.3856184 26.48760269 33.1730957 31.36499023 C36.10619491 34.3521491 39.04936535 37.32908671 41.99864006 40.30027199 C43.11268147 41.42660743 44.22293222 42.55670693 45.32904243 43.69083214 C57.13654502 55.79440428 68.94185628 63.97266461 86 66 C86.09886835 70.78712933 86.17146623 75.57366475 86.21972656 80.36157227 C86.23984381 81.99025829 86.26714137 83.61887208 86.30175781 85.24731445 C86.35027429 87.58823458 86.37296632 89.92820018 86.390625 92.26953125 C86.41127014 92.99775589 86.43191528 93.72598053 86.45318604 94.47627258 C86.45542753 99.52482782 86.45542753 99.52482782 84.37657547 101.69380665 C81.26506274 103.40393002 79.06756969 103.3692085 75.52069092 103.36076355 C74.87207195 103.36332682 74.22345297 103.3658901 73.55517888 103.36853105 C71.38386298 103.37346873 69.21324392 103.35697723 67.04199219 103.34057617 C65.4847719 103.33972989 63.92755041 103.34020506 62.37033081 103.34190369 C58.143325 103.34276503 53.91657416 103.32511679 49.68962765 103.30418181 C45.27204109 103.28543822 40.8544488 103.2836664 36.43682861 103.28010559 C28.07165392 103.27077831 19.70659674 103.24615528 11.34147382 103.21605712 C1.81799962 103.18253437 -7.70548016 103.16603245 -17.22899866 103.15097082 C-36.81939805 103.11960633 -56.40969162 103.06683254 -76 103 C-73.90575768 100.90575768 -72.92875764 100.5418499 -70.1875 99.6875 C-58.6655429 95.44692333 -51.79736327 80.21979664 -45.56201172 70.2512207 C-42.46621753 65.30483816 -39.3190671 60.40449234 -36.0625 55.5625 C-31.75571285 49.15454631 -27.53469869 42.69430127 -23.33520508 36.21557617 C-20.0437869 31.13988063 -16.74121196 26.07174834 -13.42578125 21.01171875 C-13.03764755 20.4191478 -12.64951385 19.82657684 -12.24961853 19.21604919 C-10.69979709 16.85010578 -9.1498839 14.48422635 -7.59786987 12.11972046 C-6.51745025 10.47364716 -5.43838307 8.82668642 -4.359375 7.1796875 C-3.73514648 6.22819824 -3.11091797 5.27670898 -2.46777344 4.29638672 C-1.00243084 2.09226236 -1.00243084 2.09226236 0 0 Z " fill="#FE6666" transform="translate(326,401)"/>
<path d="M0 0 C26.19053761 -2.47484637 26.19053761 -2.47484637 33.14355469 1.10302734 C36.51901731 4.40131736 37.95820247 8.84952337 39.68408203 13.15722656 C42.16322538 18.51291213 45.62732353 23.3095495 48.92523193 28.18762207 C51.03221154 31.31717091 53.09338787 34.47663061 55.16015625 37.6328125 C55.98175382 38.88325616 56.80352917 40.13358303 57.62548828 41.38378906 C61.13624021 46.72790008 64.63160219 52.08203407 68.125 57.4375 C68.7339209 58.36900879 69.3428418 59.30051758 69.97021484 60.26025391 C72.62847429 64.33243429 75.27079488 68.41189739 77.85546875 72.53125 C78.27747559 73.20099854 78.69948242 73.87074707 79.13427734 74.56079102 C80.21693074 76.28527436 81.29055006 78.01542076 82.36328125 79.74609375 C82.90339844 80.48988281 83.44351563 81.23367188 84 82 C84.66 82 85.32 82 86 82 C87.55266269 79.94861632 87.55266269 79.94861632 89.125 77.27734375 C89.74358887 76.27203613 90.36217773 75.26672852 90.99951172 74.23095703 C91.65967285 73.14411621 92.31983398 72.05727539 93 70.9375 C94.37595099 68.70340807 95.75355115 66.47033099 97.1328125 64.23828125 C97.8021582 63.15369629 98.47150391 62.06911133 99.16113281 60.95166016 C101.33428043 57.46342931 103.57257279 54.02882991 105.875 50.625 C109.69484425 44.96618413 113.45936455 39.27313695 117.19091797 33.55566406 C118.68157815 31.27318978 120.1852434 29.00014198 121.69970703 26.73339844 C124.99050165 21.78524228 128.15790678 16.87834497 130.80078125 11.546875 C136.23380252 0.92225259 136.23380252 0.92225259 141.41064453 -0.80371094 C147.47793469 -1.85216309 154.15837176 -2.17548573 160 0 C162.44993066 2.06923512 164.26499726 4.31205511 166 7 C160.77986553 15.45217517 155.49316539 23.84214179 149.95239258 32.08813477 C146.52484084 37.19494358 143.1595213 42.340093 139.8125 47.5 C139.27077148 48.3348291 138.72904297 49.1696582 138.17089844 50.02978516 C137.03797219 51.77596787 135.90516242 53.52222616 134.77246094 55.26855469 C129.79885921 62.93310788 124.8128469 70.58947758 119.80908203 78.234375 C118.6208096 80.05094046 117.43423187 81.86861583 116.24951172 83.6875 C114.63068437 86.17066803 113.0040245 88.64851352 111.375 91.125 C110.90247803 91.85283691 110.42995605 92.58067383 109.94311523 93.33056641 C104.73779696 101.20174924 98.4714959 107.72684098 89 110 C81.08246515 110.79175349 74.73666056 108.53947805 68.18359375 104.0859375 C63.49577571 100.0157611 60.47586142 94.5074398 57.1875 89.3125 C56.44260262 88.15192383 55.69665097 86.99202373 54.94970703 85.83276367 C53.39941358 83.42494404 51.85367736 81.01429057 50.31103516 78.6015625 C46.70907716 72.97689242 43.03789856 67.39760955 39.375 61.8125 C37.960531 59.65000542 36.54646558 57.4872468 35.1328125 55.32421875 C34.44477539 54.27153809 33.75673828 53.21885742 33.04785156 52.13427734 C29.77984362 47.13252652 26.51424055 42.12921018 23.25 37.125 C22.64236816 36.19365234 22.03473633 35.26230469 21.40869141 34.30273438 C18.35945619 29.62674817 15.31595785 24.94714795 12.28125 20.26171875 C11.38937988 18.8857251 11.38937988 18.8857251 10.47949219 17.48193359 C9.35908538 15.75261005 8.23986824 14.02251492 7.12207031 12.29150391 C6.62288086 11.52112793 6.12369141 10.75075195 5.609375 9.95703125 C5.17592773 9.28647705 4.74248047 8.61592285 4.29589844 7.92504883 C3.36263418 6.53869075 2.36772376 5.1931331 1.33691406 3.87768555 C0 2 0 2 0 0 Z " fill="#DEF8FD" transform="translate(161,394)"/>
<path d="M0 0 C4.89098144 0.85355586 7.17078962 3.73509678 10.51708984 7.24389648 C11.52579887 8.26534004 11.52579887 8.26534004 12.55488586 9.30741882 C14.6987203 11.48479276 16.82077551 13.6820694 18.94287109 15.88061523 C20.38223219 17.35008104 21.82297301 18.81819675 23.26513672 20.28491211 C26.44236241 23.52106733 29.60596873 26.76987799 32.75810242 30.0304718 C33.78079937 31.08074639 34.83516837 32.10085307 35.91462708 33.09269714 C37.25537109 34.56811523 37.25537109 34.56811523 37.79833984 37.36108398 C37.03497203 41.86989674 34.81743755 43.82152746 31.56787109 46.88061523 C31.03742188 47.41750977 30.50697266 47.9544043 29.96044922 48.50756836 C26.95539539 51.43150417 24.66059822 53.53809665 20.25537109 53.56811523 C19.26537109 52.88749023 18.27537109 52.20686523 17.25537109 51.50561523 C14.50168999 49.27022085 14.50168999 49.27022085 11.81787109 49.88061523 C8.84330836 51.83947362 6.57853326 54.09130735 4.12255859 56.65795898 C2.33945638 58.48209493 0.50025685 60.15433912 -1.43212891 61.81811523 C-4.93177103 64.83528243 -8.3471998 67.93691246 -11.74462891 71.06811523 C-15.6542617 74.66843972 -19.6032983 78.21229537 -23.61962891 81.69311523 C-26.36286309 84.11361598 -29.05347459 86.59012166 -31.74462891 89.06811523 C-35.65444486 92.6682428 -39.60329358 96.21229129 -43.61962891 99.69311523 C-46.36286347 102.11361632 -49.05345797 104.59013933 -51.74462891 107.06811523 C-55.67280165 110.68471177 -59.6339319 114.25293665 -63.67431641 117.74389648 C-67.22308875 120.87083362 -70.67137791 124.10910852 -74.13134766 127.33374023 C-80.10701689 132.44298209 -80.10701689 132.44298209 -84.09619141 132.74780273 C-84.84642578 132.64725586 -85.59666016 132.54670898 -86.36962891 132.44311523 C-87.12501953 132.35803711 -87.88041016 132.27295898 -88.65869141 132.18530273 C-91.22689371 131.42542265 -92.20223865 130.76268903 -93.74462891 128.56811523 C-94.71512099 123.8211431 -94.95034339 118.75272662 -92.56103516 114.42358398 C-90.72904756 112.33678756 -88.76876658 110.46947159 -86.74462891 108.56811523 C-84.94013607 106.61980568 -83.1503038 104.66277612 -81.36962891 102.69311523 C-80.41475528 101.65326646 -79.45902845 100.6142005 -78.50244141 99.57592773 C-76.06496293 96.92283264 -73.65050779 94.24993722 -71.24462891 91.56811523 C-67.46925674 87.36127196 -63.65482442 83.19136671 -59.83056641 79.02905273 C-56.95040284 75.89144438 -54.08931277 72.73790582 -51.24462891 69.56811523 C-47.46925674 65.36127196 -43.65482442 61.19136671 -39.83056641 57.02905273 C-36.21827916 53.09387948 -32.64259323 49.12728626 -29.07666016 45.15014648 C-27.35386632 43.24266453 -25.62318977 41.34477028 -23.88134766 39.45483398 C-23.39150391 38.9230957 -22.90166016 38.39135742 -22.39697266 37.84350586 C-21.00778246 36.33762368 -19.61649977 34.83367263 -18.22509766 33.32983398 C-15.9624418 30.81062502 -13.82901966 28.23555235 -11.74462891 25.56811523 C-12.94844339 23.07449953 -14.19891612 20.88668441 -15.74462891 18.56811523 C-15.71008387 13.6350841 -13.99019979 11.15213941 -10.68408203 7.77514648 C-10.1471875 7.25307617 -9.61029297 6.73100586 -9.05712891 6.19311523 C-8.53957031 5.6478418 -8.02201172 5.10256836 -7.48876953 4.54077148 C-5.11475472 2.18153883 -3.30860279 0.68485311 0 0 Z " fill="#A8AAAD" transform="translate(93.74462890625,329.431884765625)"/>
<path d="M0 0 C11.00440022 7.50095852 19.3711673 16.93954696 22.18359375 30.26953125 C22.26178011 31.78348821 22.29149284 33.30046632 22.28125 34.81640625 C22.27641602 36.08291016 22.27641602 36.08291016 22.27148438 37.375 C22.25891602 38.68404297 22.25891602 38.68404297 22.24609375 40.01953125 C22.24158203 40.90769531 22.23707031 41.79585938 22.23242188 42.7109375 C22.22066775 44.89720454 22.20423624 47.08333304 22.18359375 49.26953125 C19.18359375 49.26953125 19.18359375 49.26953125 16.66015625 46.96875 C15.70206358 45.97206748 14.7518107 44.96780293 13.80859375 43.95703125 C8.02705334 37.71071241 8.02705334 37.71071241 0.24609375 34.83203125 C-3.62884885 35.38559448 -5.77065973 36.86126656 -8.81640625 39.26953125 C-10.34855513 42.33382901 -10.04579173 44.88609545 -9.81640625 48.26953125 C-7.95204762 51.90648795 -5.70512539 54.61974021 -2.8046875 57.4765625 C-1.66870117 58.60288086 -1.66870117 58.60288086 -0.50976562 59.75195312 C0.27591797 60.52087891 1.06160156 61.28980469 1.87109375 62.08203125 C2.66837891 62.87029297 3.46566406 63.65855469 4.28710938 64.47070312 C6.24814885 66.4082571 8.21371256 68.34097401 10.18359375 70.26953125 C9.0318602 72.73753172 8.1357581 74.3173669 6.18359375 76.26953125 C2.38344475 76.36157343 0.45477388 74.82066659 -2.18212891 72.32617188 C-3.45828215 71.03589505 -4.72381434 69.73505628 -5.98046875 68.42578125 C-6.65435638 67.74149048 -7.32824402 67.05719971 -8.02255249 66.35217285 C-10.17189036 64.16724156 -12.30737646 61.96940836 -14.44140625 59.76953125 C-16.58426933 57.57143974 -18.72997506 55.37632422 -20.88168335 53.18688965 C-22.21947029 51.82458247 -23.55187464 50.4569646 -24.87832642 49.08361816 C-25.48260468 48.46627808 -26.08688293 47.84893799 -26.70947266 47.21289062 C-27.23844147 46.66741577 -27.76741028 46.12194092 -28.31240845 45.55993652 C-30.75467615 43.46451118 -33.04131999 43.24454083 -36.19140625 42.89453125 C-39.96635009 42.94664899 -39.96635009 42.94664899 -42.69140625 45.64453125 C-44.85667778 48.31927844 -45.68190641 49.56340709 -46.31640625 52.89453125 C-45.33661613 59.50811458 -39.58772549 63.50771751 -35.01171875 68.046875 C-34.33439697 68.71984619 -33.6570752 69.39281738 -32.95922852 70.08618164 C-31.57818692 71.45263648 -30.19067748 72.81258682 -28.79663086 74.16577148 C-27.83382202 75.11045288 -27.83382202 75.11045288 -26.8515625 76.07421875 C-26.26769775 76.64124512 -25.68383301 77.20827148 -25.08227539 77.79248047 C-23.81640625 79.26953125 -23.81640625 79.26953125 -23.81640625 81.26953125 C-23.19765625 81.53765625 -22.57890625 81.80578125 -21.94140625 82.08203125 C-19.81640625 83.26953125 -19.81640625 83.26953125 -17.81640625 86.26953125 C-27.79826546 87.31762647 -27.79826546 87.31762647 -31.9375 85.16796875 C-34.05547751 83.31872387 -35.91617969 81.34402903 -37.81640625 79.26953125 C-39.50185838 77.56101228 -41.20239083 75.86838884 -42.90454102 74.17651367 C-44.08471068 72.99956896 -45.25853572 71.81622367 -46.42553711 70.6262207 C-49.32831591 67.56778139 -49.32831591 67.56778139 -52.81640625 65.26953125 C-54.42164361 65.40306427 -56.02571898 65.55079861 -57.62890625 65.70703125 C-62.26093388 65.73372882 -62.26093388 65.73372882 -64.48046875 63.87890625 C-71.02966322 53.99484589 -72.41292664 41.36617038 -70.16015625 29.94140625 C-66.58338613 16.92936324 -59.51522962 6.28724045 -47.71484375 -0.51953125 C-32.91385153 -8.11809417 -14.4569473 -8.88270132 0 0 Z " fill="#FE99A2" transform="translate(378.81640625,261.73046875)"/>
<path d="M0 0 C0.99 2.475 0.99 2.475 2 5 C0.90042969 5.54527344 -0.19914062 6.09054687 -1.33203125 6.65234375 C-21.97792444 17.09692942 -35.61103072 30.68489542 -44.2109375 52.42578125 C-46.44650475 59.71904271 -47.30862972 66.56112118 -47.30078125 74.1796875 C-47.30720894 75.58155807 -47.30720894 75.58155807 -47.31376648 77.01174927 C-47.31946956 78.96973871 -47.32004002 80.92774931 -47.31567383 82.88574219 C-47.31248648 85.88773009 -47.33611674 88.88875664 -47.36132812 91.890625 C-47.36359874 93.79947793 -47.36430572 95.7083335 -47.36328125 97.6171875 C-47.372491 98.51404266 -47.38170074 99.41089783 -47.39118958 100.33493042 C-47.38184639 101.58235519 -47.38184639 101.58235519 -47.37231445 102.85498047 C-47.37294388 103.58506317 -47.3735733 104.31514587 -47.3742218 105.06735229 C-46.89958058 107.51861052 -45.87956137 108.42055396 -44 110 C-48.78715623 110.07415168 -53.57397827 110.12860204 -58.36157227 110.16479492 C-59.99021223 110.17988243 -61.61881156 110.20035506 -63.24731445 110.22631836 C-65.58815535 110.26270449 -67.92845919 110.2797262 -70.26953125 110.29296875 C-71.36186821 110.31619453 -71.36186821 110.31619453 -72.47627258 110.33988953 C-77.52914883 110.34157209 -77.52914883 110.34157209 -79.9206543 108.60668945 C-83.28709458 103.59548305 -82.18593403 97.35854976 -82.18530273 91.51904297 C-82.18745134 89.30024914 -82.20549546 87.08198447 -82.22460938 84.86328125 C-82.32434372 60.61849084 -76.43591741 39.2673046 -59.25 21.625 C-43.31499488 6.02909179 -22.03975101 -1.12703272 0 0 Z " fill="#FE3845" transform="translate(161,394)"/>
<path d="M0 0 C0.66 0 1.32 0 2 0 C2.34925034 0.83624405 2.69850067 1.6724881 3.05833435 2.53407288 C5.49524407 6.88402442 8.54410974 9.96399312 12.06665039 13.45483398 C12.78254333 14.17598389 13.49843628 14.89713379 14.23602295 15.64013672 C16.59908897 18.0163789 18.97292938 20.38150912 21.34765625 22.74609375 C23.00136955 24.40182934 24.65463742 26.05800994 26.30747986 27.71461487 C29.77361374 31.18516965 33.24510915 34.65024693 36.72045898 38.11157227 C41.15658033 42.53065579 45.5791684 46.96299868 49.99776554 51.39959621 C53.4111428 54.82386316 56.83169442 58.24089189 60.25439262 61.65583992 C61.8867306 63.28618742 63.51687288 64.91873655 65.144701 66.55358696 C85.61586836 87.12063967 85.61586836 87.12063967 113 94.1875 C116.53051764 94.16351551 119.16156662 93.95121642 122.57226562 92.92138672 C125.6187408 92.54833431 126.73814017 92.82698229 129.33325195 94.54164124 C132.00136339 96.95712969 134.49019895 99.48007379 136.96875 102.08984375 C137.88966431 103.02349258 138.81057861 103.95714142 139.75939941 104.91908264 C142.19972961 107.39366897 144.61182413 109.8940718 147.0189209 112.40093994 C149.48302877 114.95735285 151.97302722 117.48826872 154.4609375 120.02148438 C159.33286316 124.9897411 164.1754188 129.985767 169 135 C167.43919073 138.30645121 166.31513794 140.25034386 163 142 C159.75040206 142.09171527 157.71168517 141.58748308 155.18487549 139.50164795 C153.09038674 137.38648442 151.09194696 135.20558311 149.1015625 132.9921875 C147.55525095 131.3485034 146.00701058 129.70663212 144.45703125 128.06640625 C142.03628719 125.47901854 139.63119749 122.8818726 137.25830078 120.25048828 C128.5049873 109.53423536 128.5049873 109.53423536 116.48388672 104.12402344 C112.53444263 104.19842435 108.84096802 105.10947494 105 106 C92.86413161 105.58670142 82.09909022 100.22507312 73.34277344 92.02246094 C72.8325552 91.54575329 72.32233696 91.06904564 71.79665756 90.5778923 C66.4763485 85.57391214 61.30444507 80.41962457 56.1603775 75.2355423 C54.46267934 73.52477165 52.76160604 71.8174162 51.05975342 70.11077881 C47.45362347 66.49337963 43.85150776 62.87200032 40.25 59.25 C36.05502914 55.0312616 31.8583384 50.8142621 27.65740204 46.60146332 C25.99592165 44.93358642 24.33752185 43.26268997 22.67926025 41.59161377 C17.79012878 36.67892102 12.8738362 31.85070096 7.59146118 27.35507202 C5.35041602 25.44690258 3.2281423 23.43323535 1.125 21.375 C0.38507813 20.66085937 -0.35484375 19.94671875 -1.1171875 19.2109375 C-4.10629956 15.70090134 -5.03923898 13.09869144 -4.875 8.5 C-3.92283654 4.69134616 -2.75897607 2.75897607 0 0 Z " fill="#FEAF68" transform="translate(307,362)"/>
<path d="M0 0 C0 18.15 0 36.3 0 55 C-9.405 55.99 -9.405 55.99 -19 57 C-25.90475759 58.15551726 -25.90475759 58.15551726 -28 62 C-31.00148136 61.67841271 -31.98205792 61.01846979 -34.125 58.8125 C-37.67001561 53.49497658 -38.32324852 48.3836147 -38.37109375 42.109375 C-38.38012222 41.36471985 -38.3891507 40.6200647 -38.39845276 39.85284424 C-38.41289748 38.28295879 -38.42182756 36.71301393 -38.42553711 35.14306641 C-38.43739953 32.77009758 -38.48660617 30.39976238 -38.53710938 28.02734375 C-38.62900631 19.48165928 -38.45124993 12.08839027 -33 5 C-22.96238471 -4.44236297 -15.32565683 -0.66633291 0 0 Z " fill="#FEE2B8" transform="translate(131,216)"/>
<path d="M0 0 C0.95658005 -0.00073013 1.9131601 -0.00146027 2.89872742 -0.00221252 C6.05375293 0.00126492 9.20729364 0.04013461 12.36206055 0.0793457 C14.55209039 0.08867324 16.74213067 0.09578963 18.93217468 0.1007843 C24.69130346 0.11985856 30.44979994 0.16896392 36.2086792 0.2243042 C42.08719326 0.27548693 47.96580968 0.29829632 53.84448242 0.32348633 C65.37535891 0.37708153 76.90576649 0.46240021 88.4362793 0.56762695 C88.4362793 0.89762695 88.4362793 1.22762695 88.4362793 1.56762695 C86.97715622 1.57975723 86.97715622 1.57975723 85.48855591 1.59213257 C76.33561925 1.66950974 67.18283279 1.75722736 58.03009224 1.85515404 C53.3242095 1.90516839 48.61834979 1.95149778 43.91235352 1.98950195 C39.37352837 2.02629009 34.83489342 2.072632 30.29623032 2.12569046 C28.56186117 2.14426895 26.8274512 2.15936405 25.09302139 2.17097092 C22.66964353 2.18777461 20.24670457 2.21679443 17.82348633 2.2487793 C17.10131927 2.25093948 16.37915222 2.25309967 15.63510132 2.25532532 C11.58697124 2.21258584 11.58697124 2.21258584 8.4362793 4.56762695 C8.21859911 7.36712532 8.12485277 10.07062423 8.11743164 12.87280273 C8.1023632 14.16071213 8.1023632 14.16071213 8.08699036 15.47463989 C8.05602904 18.32073275 8.03908741 21.16673101 8.0222168 24.01293945 C8.00351555 25.9830711 7.98394293 27.95319465 7.96353149 29.92330933 C7.91209401 35.11496213 7.87253059 40.30664095 7.83538818 45.49841309 C7.79542119 50.79368584 7.74429562 56.08884936 7.6940918 61.3840332 C7.59719504 71.77848784 7.51283443 82.173004 7.4362793 92.56762695 C6.36249023 92.29047852 5.28870117 92.01333008 4.18237305 91.7277832 C2.746224 91.361706 1.31002331 90.99583138 -0.1262207 90.63012695 C-1.18292969 90.35652344 -1.18292969 90.35652344 -2.26098633 90.07739258 C-2.96030273 89.90014648 -3.65961914 89.72290039 -4.38012695 89.5402832 C-5.33060913 89.29677124 -5.33060913 89.29677124 -6.30029297 89.04833984 C-9.35907633 88.39870718 -12.46814084 88.00985265 -15.5637207 87.56762695 C-15.2337207 69.08762695 -14.9037207 50.60762695 -14.5637207 31.56762695 C-21.8237207 31.56762695 -29.0837207 31.56762695 -36.5637207 31.56762695 C-36.5637207 31.23762695 -36.5637207 30.90762695 -36.5637207 30.56762695 C-29.3037207 30.56762695 -22.0437207 30.56762695 -14.5637207 30.56762695 C-14.62172852 28.82094727 -14.67973633 27.07426758 -14.73950195 25.2746582 C-14.78640298 22.97650784 -14.83190277 20.67832858 -14.8762207 18.38012695 C-14.91811523 17.22963867 -14.96000977 16.07915039 -15.00317383 14.89379883 C-15.01928711 13.78198242 -15.03540039 12.67016602 -15.05200195 11.5246582 C-15.07818604 10.503479 -15.10437012 9.4822998 -15.13134766 8.43017578 C-13.47825437 0.09360859 -7.06442775 -0.14135507 0 0 Z " fill="#FCC787" transform="translate(145.563720703125,184.432373046875)"/>
<path d="M0 0 C1.06371826 -0.00555908 2.12743652 -0.01111816 3.22338867 -0.0168457 C11.66082954 0.06197111 11.66082954 0.06197111 15.5 2.3125 C14.324375 2.6425 13.14875 2.9725 11.9375 3.3125 C-6.62237267 9.61585298 -21.6219964 21.79547604 -30.75 39.25 C-32.96614107 43.85320792 -34.60978307 48.401256 -35.859375 53.3515625 C-36.5 55.3125 -36.5 55.3125 -38.5 57.3125 C-40.49609375 58.02685547 -40.49609375 58.02685547 -42.9375 58.6796875 C-43.83339844 58.92589844 -44.72929687 59.17210937 -45.65234375 59.42578125 C-46.59207031 59.67714844 -47.53179687 59.92851563 -48.5 60.1875 C-55.03005152 61.93810956 -61.27730049 63.89607455 -67.50390625 66.54736328 C-69.5 67.3125 -69.5 67.3125 -71.5 67.3125 C-72.58518389 51.57733362 -65.49462286 36.36888473 -55.4921875 24.5546875 C-54.83476562 23.81476562 -54.17734375 23.07484375 -53.5 22.3125 C-52.94570312 21.67570312 -52.39140625 21.03890625 -51.8203125 20.3828125 C-44.43233634 12.42924965 -34.53622025 7.18239849 -24.5 3.3125 C-23.25476563 2.83103516 -23.25476563 2.83103516 -21.984375 2.33984375 C-14.74689775 0.06490573 -7.52030566 0.03402348 0 0 Z " fill="#7F441C" transform="translate(246.5,9.6875)"/>
<path d="M0 0 C3.795 -0.103125 7.59 -0.20625 11.5 -0.3125 C12.68013672 -0.35802002 13.86027344 -0.40354004 15.07617188 -0.45043945 C22.04967556 -0.54166946 26.6598183 0.38325807 32 5 C37.04635327 9.92047867 39.18590464 14.58678519 39.35484314 21.64628601 C39.36020584 22.35469131 39.36556854 23.06309662 39.37109375 23.79296875 C39.38463646 24.9120739 39.38463646 24.9120739 39.39845276 26.05378723 C39.41291851 27.629649 39.42183284 29.20557033 39.42553711 30.78149414 C39.43737985 33.16333549 39.48654856 35.54253691 39.53710938 37.92382812 C39.6279738 46.71142018 39.17722607 53.5043331 34 61 C33.34 60.319375 32.68 59.63875 32 58.9375 C31.00344639 57.95482596 30.00303447 56.97605799 29 56 C28.44183594 55.44570313 27.88367188 54.89140625 27.30859375 54.3203125 C18.44809947 45.99625733 8.72160201 42.08261283 -3.25 41.4375 C-3.99507813 41.39431641 -4.74015625 41.35113281 -5.5078125 41.30664062 C-7.338349 41.20103275 -9.16915176 41.10005799 -11 41 C-11 40.67 -11 40.34 -11 40 C-7.37 40 -3.74 40 0 40 C0 26.8 0 13.6 0 0 Z " fill="#F8D4AA" transform="translate(360,215)"/>
<path d="M0 0 C0.88945312 0.00322266 1.77890625 0.00644531 2.6953125 0.00976562 C3.61570312 0.01814453 4.53609375 0.02652344 5.484375 0.03515625 C6.42023438 0.03966797 7.35609375 0.04417969 8.3203125 0.04882812 C10.62506541 0.06058707 12.92968727 0.07702199 15.234375 0.09765625 C13.88158335 2.80323955 12.69075099 2.76695521 9.859375 3.72265625 C-1.95001079 8.31801095 -10.27101086 16.24569512 -15.578125 27.72265625 C-19.19721633 38.00849476 -20.83719276 49.61144873 -16.765625 60.09765625 C-13.3085365 66.33144881 -8.09206655 70.92118343 -3.015625 75.84765625 C-1.26633897 77.54616475 0.47870308 79.24905893 2.21875 80.95703125 C2.98928711 81.70436523 3.75982422 82.45169922 4.55371094 83.22167969 C6.234375 85.09765625 6.234375 85.09765625 6.234375 87.09765625 C6.853125 87.36578125 7.471875 87.63390625 8.109375 87.91015625 C10.234375 89.09765625 10.234375 89.09765625 12.234375 92.09765625 C2.25251579 93.14575147 2.25251579 93.14575147 -1.88671875 90.99609375 C-4.00469626 89.14684887 -5.86539844 87.17215403 -7.765625 85.09765625 C-9.45107713 83.38913728 -11.15160958 81.69651384 -12.85375977 80.00463867 C-14.03392943 78.82769396 -15.20775447 77.64434867 -16.37475586 76.4543457 C-19.27753466 73.39590639 -19.27753466 73.39590639 -22.765625 71.09765625 C-24.37086236 71.23118927 -25.97493773 71.37892361 -27.578125 71.53515625 C-32.21015263 71.56185382 -32.21015263 71.56185382 -34.4296875 69.70703125 C-40.97888197 59.82297089 -42.36214539 47.19429538 -40.109375 35.76953125 C-36.53260488 22.75748824 -29.46444837 12.11536545 -17.6640625 5.30859375 C-11.67333195 2.23306055 -6.77896603 -0.04345491 0 0 Z " fill="#FE798C" transform="translate(348.765625,255.90234375)"/>
<path d="M0 0 C1.58056641 2.00854492 1.58056641 2.00854492 3.1015625 4.48046875 C3.66866943 5.38917725 4.23577637 6.29788574 4.82006836 7.23413086 C5.4156958 8.20874268 6.01132324 9.18335449 6.625 10.1875 C7.88807607 12.21431921 9.15240182 14.24036017 10.41796875 16.265625 C11.03333496 17.25498047 11.64870117 18.24433594 12.28271484 19.26367188 C14.43847527 22.69866801 16.66775235 26.07715095 18.9375 29.4375 C23.32749481 35.96316795 27.63955316 42.53836955 31.9375 49.125 C32.58904053 50.12200928 33.24058105 51.11901855 33.91186523 52.14624023 C34.52747314 53.09055908 35.14308105 54.03487793 35.77734375 55.0078125 C36.32640381 55.84973145 36.87546387 56.69165039 37.44116211 57.55908203 C37.95557861 58.36458496 38.46999512 59.17008789 39 60 C39.57290771 60.87809326 40.14581543 61.75618652 40.73608398 62.66088867 C42 65 42 65 41.4453125 67.41796875 C39.72506548 70.4911668 37.85827041 73.40157085 35.875 76.3125 C35.15054688 77.38113281 34.42609375 78.44976562 33.6796875 79.55078125 C33.12539062 80.35902344 32.57109375 81.16726563 32 82 C28.16882041 80.72294014 27.67376535 79.3492492 25.55859375 75.9609375 C24.89786865 74.91341309 24.23714355 73.86588867 23.55639648 72.78662109 C23.21067596 72.22996765 22.86495544 71.67331421 22.50875854 71.09979248 C21.06777347 68.77971744 19.60884874 66.47113119 18.15077209 64.16177368 C17.4263026 63.01391398 16.70277845 61.86545708 15.98020935 60.71640015 C13.36343527 56.55773355 10.68664369 52.44701308 7.9375 48.375 C1.80137289 39.25351708 -4.17712387 30.02929246 -10.16796875 20.81201172 C-11.90729296 18.1422974 -13.65523564 15.47846308 -15.40625 12.81640625 C-16.41670335 11.27346152 -17.42712227 9.73049425 -18.4375 8.1875 C-19.13734009 7.13006592 -19.13734009 7.13006592 -19.85131836 6.05126953 C-23 1.22623729 -23 1.22623729 -23 -1 C-19.91772291 -1.22655901 -16.8342984 -1.42803465 -13.75 -1.625 C-12.87730469 -1.68945312 -12.00460938 -1.75390625 -11.10546875 -1.8203125 C-10.26113281 -1.871875 -9.41679687 -1.9234375 -8.546875 -1.9765625 C-7.77182617 -2.02893066 -6.99677734 -2.08129883 -6.19824219 -2.13525391 C-3.56718526 -1.97336968 -2.18995552 -1.46958278 0 0 Z " fill="#EAC093" transform="translate(215,395)"/>
<path d="M0 0 C4.32504836 1.65863505 7.09418825 4.871041 10.25 8.125 C10.80429688 8.68832031 11.35859375 9.25164062 11.9296875 9.83203125 C13.29104485 11.21686028 14.64614859 12.60783204 16 14 C15.24332031 14.59167969 14.48664063 15.18335938 13.70703125 15.79296875 C11.54361008 17.55679698 9.61599623 19.30743817 7.6875 21.3125 C4.68078127 24.36438404 1.54429359 27.1880265 -1.69921875 29.984375 C-4.5077302 32.44480269 -7.25461879 34.96974992 -10 37.5 C-13.90963279 41.10032448 -17.85866939 44.64418014 -21.875 48.125 C-24.61823418 50.54550075 -27.30884568 53.02200642 -30 55.5 C-33.90981595 59.10012756 -37.85866468 62.64417605 -41.875 66.125 C-44.61823569 68.54550208 -47.30877915 71.02207715 -50 73.5 C-54.60603471 77.73915702 -59.26734179 81.90292606 -64 86 C-65.50064092 87.31176715 -67.00064969 88.62425786 -68.5 89.9375 C-69.66666667 90.95833333 -70.83333333 91.97916667 -72 93 C-74.46522747 89.3021588 -74.7869842 86.29096207 -74 82 C-72.38718789 79.64258118 -71.07931987 78.0462863 -69.0625 76.125 C-68.04237621 75.08651923 -67.02285283 74.04744835 -66.00390625 73.0078125 C-65.49359863 72.50024414 -64.98329102 71.99267578 -64.45751953 71.46972656 C-62.38980292 69.38469239 -60.44681353 67.19767335 -58.5 65 C-54.72462783 60.79315673 -50.91019552 56.62325147 -47.0859375 52.4609375 C-44.20577393 49.32332914 -41.34468386 46.16979059 -38.5 43 C-34.72462783 38.79315673 -30.91019552 34.62325147 -27.0859375 30.4609375 C-23.47489254 26.52711758 -19.90027625 22.56204101 -16.3359375 18.5859375 C-14.60062249 16.66490315 -12.85685419 14.75418359 -11.1015625 12.8515625 C-10.3600293 12.0471875 -10.3600293 12.0471875 -9.60351562 11.2265625 C-8.64289858 10.18599978 -7.68074338 9.14685417 -6.71679688 8.109375 C-4.31556028 5.50774238 -2.06100211 2.87994335 0 0 Z " fill="#C6C7C9" transform="translate(92,363)"/>
<path d="M0 0 C1.65 0 3.3 0 5 0 C5.77923828 1.53720703 5.77923828 1.53720703 6.57421875 3.10546875 C7.27814996 4.46640243 7.98260498 5.82706527 8.6875 7.1875 C9.19700195 8.19780273 9.19700195 8.19780273 9.71679688 9.22851562 C13.59375855 16.6563394 18.43817661 20.59358284 25.8125 24.3125 C26.50537109 24.67150391 27.19824219 25.03050781 27.91210938 25.40039062 C29.60373329 26.27536851 31.30127672 27.13888619 33 28 C33 29.65 33 31.3 33 33 C31.91460937 33.56847656 30.82921875 34.13695312 29.7109375 34.72265625 C17.76350598 41.10825644 12.03663626 45.89963608 6.4921875 58.5234375 C5 61 5 61 3.0078125 62.0390625 C1 62 1 62 -0.5859375 60.91796875 C-2.35529178 58.51809872 -3.42906763 56.04356193 -4.625 53.3125 C-9.93874531 42.51569886 -18.27947219 37.78886521 -29 33 C-28.88671875 30.71875 -28.88671875 30.71875 -28 28 C-25.26953125 26.15625 -25.26953125 26.15625 -21.8125 24.5 C-13.02633615 20.24247603 -8.58737381 16.17967056 -4.125 7.6875 C-3.7228125 6.94693359 -3.320625 6.20636719 -2.90625 5.44335938 C-1.92622136 3.6349732 -0.96150085 1.81830493 0 0 Z " fill="#FFCB00" transform="translate(53,138)"/>
<path d="M0 0 C2.34375 0.015625 2.34375 0.015625 5 1 C6.41067229 3.28337634 7.46602352 5.30605558 8.5 7.75 C11.30656805 14.22256363 14.64989561 18.86730689 20.8125 22.5 C21.48925781 22.90605469 22.16601562 23.31210938 22.86328125 23.73046875 C23.56839844 24.14941406 24.27351563 24.56835938 25 25 C26.50215252 25.93404714 28.00223817 26.87142841 29.5 27.8125 C30.1703125 28.23144531 30.840625 28.65039062 31.53125 29.08203125 C32.25828125 29.53642578 32.25828125 29.53642578 33 30 C32.88671875 31.78515625 32.88671875 31.78515625 32 34 C29.26953125 35.74609375 29.26953125 35.74609375 25.8125 37.4375 C17.05983363 41.74881338 12.58626453 45.82244047 8.125 54.3125 C7.7228125 55.05306641 7.320625 55.79363281 6.90625 56.55664062 C5.92622136 58.3650268 4.96150085 60.18169507 4 62 C2.35 62 0.7 62 -1 62 C-1.4846875 60.99839844 -1.969375 59.99679688 -2.46875 58.96484375 C-8.97294253 45.90231177 -15.56042416 40.11500701 -29 34 C-29 32.35 -29 30.7 -29 29 C-27.99839844 28.5153125 -26.99679687 28.030625 -25.96484375 27.53125 C-13.9050373 21.52634198 -7.96944152 15.84380689 -2.1640625 3.44140625 C-1 1 -1 1 0 0 Z " fill="#FEAF0F" transform="translate(449,137)"/>
<path d="M0 0 C3.5 0.5625 3.5 0.5625 5.9375 2.125 C8.08411697 5.47372247 7.81322566 7.62665041 7.5 11.5625 C6.1706543 14.57275391 6.1706543 14.57275391 4.32421875 17.5390625 C3.66099609 18.621875 2.99777344 19.7046875 2.31445312 20.8203125 C1.61255859 21.93148438 0.91066406 23.04265625 0.1875 24.1875 C-0.50279297 25.30640625 -1.19308594 26.4253125 -1.90429688 27.578125 C-3.19000877 29.66010871 -4.48204055 31.73821276 -5.7824707 33.81103516 C-7.38480794 36.37796347 -8.95141798 38.96287235 -10.5 41.5625 C-8.51992577 40.43909814 -6.54102221 39.313633 -4.5625 38.1875 C-3.94439453 37.83751953 -3.32628906 37.48753906 -2.68945312 37.12695312 C0.91272192 35.07725471 4.47486141 32.97815992 8.00390625 30.8046875 C8.7522876 30.34884277 9.50066895 29.89299805 10.27172852 29.42333984 C11.7332583 28.53076101 13.18847693 27.627747 14.63647461 26.71337891 C18.74431414 24.22060829 21.54544223 22.91943055 26.5 23.5625 C28.875 24.5625 28.875 24.5625 30.5 26.5625 C31.37570621 31.99187853 31.37570621 31.99187853 30.5 34.5625 C26.52073521 38.16111045 22.34069592 41.05786295 17.7109375 43.76953125 C17.08522858 44.13978928 16.45951965 44.5100473 15.81484985 44.89152527 C14.50386751 45.66478123 13.19121101 46.43520535 11.87695312 47.20288086 C9.86738897 48.37945617 7.86724675 49.57102764 5.8671875 50.76367188 C4.58647994 51.51654849 3.30524785 52.26853371 2.0234375 53.01953125 C1.42856537 53.37570023 0.83369324 53.7318692 0.22079468 54.09883118 C-3.07016617 56.00097571 -4.57708926 56.5625 -8.5 56.5625 C-10.60644531 54.91015625 -10.60644531 54.91015625 -12.828125 52.625 C-13.62734375 51.81289063 -14.4265625 51.00078125 -15.25 50.1640625 C-16.075 49.30554688 -16.9 48.44703125 -17.75 47.5625 C-18.59046875 46.70398438 -19.4309375 45.84546875 -20.296875 44.9609375 C-22.37381504 42.83679428 -24.44087223 40.70389163 -26.5 38.5625 C-22.43854175 31.01454344 -18.23227907 23.56840496 -13.875 16.1875 C-13.31554687 15.22972656 -12.75609375 14.27195312 -12.1796875 13.28515625 C-4.80026853 0.77147173 -4.80026853 0.77147173 0 0 Z " fill="#602F0E" transform="translate(130.5,299.4375)"/>
<path d="M0 0 C4.90071314 0.85940837 7.1781831 3.73260462 10.53198242 7.24926758 C11.20445511 7.93022995 11.8769278 8.61119232 12.56977844 9.31278992 C14.71361287 11.49016385 16.83566809 13.68744049 18.95776367 15.88598633 C20.39712477 17.35545213 21.83786558 18.82356784 23.2800293 20.2902832 C26.45725499 23.52643842 29.62086131 26.77524908 32.772995 30.0358429 C33.79569195 31.08611749 34.85006095 32.10622416 35.92951965 33.09806824 C37.27026367 34.57348633 37.27026367 34.57348633 37.81323242 37.36645508 C37.04986461 41.87526784 34.83233013 43.82689856 31.58276367 46.88598633 C30.78708984 47.69132812 30.78708984 47.69132812 29.9753418 48.51293945 C26.94924098 51.45735412 24.69171823 53.46767374 20.27026367 53.57348633 C15.47399097 51.17534998 12.49560005 47.74673959 9.08276367 43.67114258 C6.73063487 40.94895903 4.16844099 38.48824731 1.55541992 36.01879883 C0.27026367 34.57348633 0.27026367 34.57348633 0.27026367 32.57348633 C-0.27243164 32.34145508 -0.81512695 32.10942383 -1.37426758 31.87036133 C-4.41558693 30.19587041 -6.81312752 28.11816165 -9.41723633 25.82348633 C-10.39047852 24.98301758 -11.3637207 24.14254883 -12.36645508 23.27661133 C-15.05148452 20.20547021 -15.76230798 18.63408528 -15.72973633 14.57348633 C-14.50708008 12.44848633 -14.50708008 12.44848633 -12.66723633 10.57348633 C-12.01754883 9.90317383 -11.36786133 9.23286133 -10.69848633 8.54223633 C-10.04879883 7.89254883 -9.39911133 7.24286133 -8.72973633 6.57348633 C-7.94083008 5.66083008 -7.94083008 5.66083008 -7.13598633 4.72973633 C-4.90507608 2.21402903 -3.33254857 0.70013027 0 0 Z " fill="#8A8B8D" transform="translate(93.729736328125,329.426513671875)"/>
<path d="M0 0 C2.62359909 1.84173181 5.00912396 3.86551835 7.4375 5.95703125 C16.64237692 13.2956755 27.68035986 13.99695415 39 13 C47.92561706 11.20667855 55.04351954 7.04143791 62.03125 1.34375 C65.08194125 -0.73846784 67.41183474 -0.44852066 71 0 C73.4375 1.625 73.4375 1.625 75 4 C75.5625 6.9375 75.5625 6.9375 75 10 C73.0625 12.4375 73.0625 12.4375 70 15 C69.05253906 15.83724609 69.05253906 15.83724609 68.0859375 16.69140625 C55.10247181 27.62112373 39.66333998 29.98792511 23.23974609 29.1953125 C10.9504997 28.12365378 -1.55346573 20.7627147 -10 12 C-11.42041821 9.15916359 -11.31452272 7.14522722 -11 4 C-8.03747335 -0.50304051 -5.16093645 -0.99889093 0 0 Z " fill="#74583E" transform="translate(214,298)"/>
<path d="M0 0 C0.74056641 0.00451172 1.48113281 0.00902344 2.24414062 0.01367188 C4.05862899 0.02537825 5.87307534 0.04331102 7.6875 0.0625 C7.04296875 0.73410156 6.3984375 1.40570313 5.734375 2.09765625 C3.19552847 5.77510762 3.09588329 8.06086843 2.9375 12.5 C2.88078125 13.77746094 2.8240625 15.05492187 2.765625 16.37109375 C2.66328709 19.02592952 2.73129825 21.51079632 2.99023438 24.16113281 C3.78237093 35.33659538 -0.42429954 41.938345 -6.3125 50.9375 C-7.18255978 52.31720329 -8.04977085 53.69870731 -8.9140625 55.08203125 C-11.01466096 58.43048815 -13.15211373 61.75233368 -15.3125 65.0625 C-17.78050047 63.91076645 -19.36033565 63.01466435 -21.3125 61.0625 C-22.19295682 49.97382193 -21.10187034 38.54103087 -20.30541992 27.4675293 C-20.18381707 25.72016712 -20.07270671 23.97204701 -19.97143555 22.22338867 C-19.82238464 19.65338966 -19.64323485 17.0870739 -19.45703125 14.51953125 C-19.39730888 13.35391411 -19.39730888 13.35391411 -19.33638 12.16474915 C-19.00999549 8.17937749 -18.43860806 6.21716179 -15.88427734 3.08447266 C-11.05520887 -0.71221854 -5.91926068 -0.0687671 0 0 Z " fill="#7F441C" transform="translate(120.3125,271.9375)"/>
<path d="M0 0 C1.87890625 0.109375 1.87890625 0.109375 4 1 C5.52734375 3.328125 5.52734375 3.328125 6.9375 6.25 C11.12762793 14.28799293 15.59565619 17.57490894 23.671875 21.47265625 C26 23 26 23 26.828125 25.18359375 C26.88484375 25.78300781 26.9415625 26.38242187 27 27 C26.05898437 27.47308594 25.11796875 27.94617188 24.1484375 28.43359375 C16.35390281 32.5104298 11.0895643 35.9360704 7 44 C6.21211004 45.35636753 5.42078772 46.71075099 4.625 48.0625 C4.08875 49.031875 3.5525 50.00125 3 51 C1.1953125 50.83203125 1.1953125 50.83203125 -1 50 C-2.6328125 47.63671875 -2.6328125 47.63671875 -4.125 44.6875 C-4.62257813 43.72199219 -5.12015625 42.75648437 -5.6328125 41.76171875 C-6.44548543 40.12011942 -7.22496038 38.46028414 -7.9296875 36.76953125 C-9.31985849 34.47118287 -10.53934704 34.04104548 -13 33 C-14.92017797 31.96482025 -16.8366671 30.92277754 -18.75 29.875 C-19.73484375 29.33617188 -20.7196875 28.79734375 -21.734375 28.2421875 C-22.48203125 27.83226563 -23.2296875 27.42234375 -24 27 C-23.8203125 25.171875 -23.8203125 25.171875 -23 23 C-20.7421875 21.578125 -20.7421875 21.578125 -17.875 20.25 C-9.20347931 15.7736508 -4.97531551 9.71511478 -1 1 C-0.67 0.67 -0.34 0.34 0 0 Z " fill="#FEAE0F" transform="translate(98,26)"/>
<path d="M0 0 C2.73396702 1.63705624 5.23964687 3.42954224 7.765625 5.37109375 C13.4820118 9.53845965 21.24672221 8.51406598 28 8 C32.3016959 6.74777178 35.22125205 4.68377869 38.5625 1.75 C41.90566413 -0.6502204 43.97623447 -0.58527499 48 0 C50.4375 1.625 50.4375 1.625 52 4 C52.60449629 7.55141572 52.36194417 9.34191969 50.625 12.5 C41.18130417 21.49399603 30.50920294 24.56239554 17.8046875 24.4855957 C6.63903058 24.09095547 -0.94709518 19.66285188 -9.234375 12.37890625 C-11.47310026 9.36257067 -11.46656385 7.67732584 -11 4 C-8.0325183 -0.51057218 -5.16891927 -0.91706632 0 0 Z " fill="#74583E" transform="translate(165,223)"/>
<path d="M0 0 C2.16709306 1.3513432 4.0712274 2.82881358 6.0078125 4.4921875 C12.42596908 9.34985111 20.35202523 8.79749476 28 8 C32.2579335 6.47721773 35.53125204 4.19033926 39.01953125 1.36328125 C42.10438189 -0.76021554 44.36618607 -0.51911628 48 0 C50.9392493 2.4983619 51.88632325 3.97690923 52.3125 7.8125 C49.38819179 14.91439136 42.87489098 18.95212419 36.0625 22 C26.57127664 25.28628039 14.97510034 25.89588984 5.4375 22.375 C-0.7472853 19.35750959 -7.23004762 15.92090681 -11 10 C-11.52755517 6.38247881 -11.45932313 4.69817115 -9.4375 1.625 C-5.94740709 -0.7017286 -4.13674184 -0.68945697 0 0 Z " fill="#74583E" transform="translate(286,223)"/>
<path d="M0 0 C3.33423875 0.98792259 4.38176395 1.30103555 6.375 4 C6.71557617 6.4519043 6.71557617 6.4519043 6.66796875 9.32421875 C6.65830078 10.35224609 6.64863281 11.38027344 6.63867188 12.43945312 C6.61353516 13.51130859 6.58839844 14.58316406 6.5625 15.6875 C6.54896484 16.77095703 6.53542969 17.85441406 6.52148438 18.97070312 C6.48610643 21.64763405 6.43674189 24.32356838 6.375 27 C7.41140625 26.94199219 8.4478125 26.88398438 9.515625 26.82421875 C10.88537156 26.77730962 12.25516692 26.73181068 13.625 26.6875 C14.30691406 26.64560547 14.98882812 26.60371094 15.69140625 26.56054688 C19.50073125 26.46808753 21.03751455 26.68476633 23.86328125 29.32421875 C25.375 32 25.375 32 25.3125 35.125 C24.33864094 38.11150112 23.81247556 39.12274245 21.375 41 C17.78122065 41.6366629 14.14383779 41.46329293 10.5 41.4375 C9.00919922 41.4674707 9.00919922 41.4674707 7.48828125 41.49804688 C3.16090128 41.49515037 0.20351857 41.45514721 -3.6328125 39.34765625 C-9.31911298 32.64674137 -9.14371972 26.41285215 -9.125 17.9375 C-9.15335938 16.76638672 -9.18171875 15.59527344 -9.2109375 14.38867188 C-9.2327287 4.83867686 -9.2327287 4.83867686 -6.3203125 1.69140625 C-3.625 0 -3.625 0 0 0 Z " fill="#74583E" transform="translate(237.625,241)"/>
<path d="M0 0 C7.793219 4.67837442 12.59465485 11.92033181 15.4921875 20.49609375 C15.19217842 23.88263688 14.14237979 26.69250507 12.6796875 29.74609375 C12.36386719 30.431875 12.04804687 31.11765625 11.72265625 31.82421875 C10.4921875 33.49609375 10.4921875 33.49609375 8.54296875 34.41796875 C6.4921875 34.49609375 6.4921875 34.49609375 4.90625 33.4140625 C3.13689572 31.01419247 2.06311987 28.53965568 0.8671875 25.80859375 C-4.44655781 15.01179261 -12.78728469 10.28495896 -23.5078125 5.49609375 C-23.3046875 3.17578125 -23.3046875 3.17578125 -22.5078125 0.49609375 C-20.3984375 -1.12109375 -20.3984375 -1.12109375 -17.7578125 -2.37890625 C-16.89671875 -2.80945313 -16.035625 -3.24 -15.1484375 -3.68359375 C-9.59278197 -5.40946307 -4.88741841 -2.559731 0 0 Z " fill="#FFB00F" transform="translate(47.5078125,165.50390625)"/>
<path d="M0 0 C10.00384647 4.74208307 16.59792147 11.66020087 21.25 21.68359375 C22 24 22 24 21.5625 27.1875 C21.046875 28.115625 20.53125 29.04375 20 30 C19.65582031 30.63292969 19.31164062 31.26585937 18.95703125 31.91796875 C18.00870699 33.63316894 17.0083632 35.31939467 16 37 C14.35 37 12.7 37 11 37 C10.5153125 35.99839844 10.030625 34.99679688 9.53125 33.96484375 C3.02705747 20.90231177 -3.56042416 15.11500701 -17 9 C-17 7.35 -17 5.7 -17 4 C-6.39169626 -2.16861123 -6.39169626 -2.16861123 0 0 Z " fill="#F39700" transform="translate(437,162)"/>
<path d="M0 0 C8.18023297 3.98341779 13.11717273 9.91636638 16.25 18.375 C15.86043267 24.02372634 12.95369623 28.26552459 10 33 C8.1953125 32.83203125 8.1953125 32.83203125 6 32 C4.3671875 29.63671875 4.3671875 29.63671875 2.875 26.6875 C2.37742187 25.72199219 1.87984375 24.75648437 1.3671875 23.76171875 C0.55451457 22.12011942 -0.22496038 20.46028414 -0.9296875 18.76953125 C-2.31985849 16.47118287 -3.53934704 16.04104548 -6 15 C-7.92017797 13.96482025 -9.8366671 12.92277754 -11.75 11.875 C-13.22726563 11.06675781 -13.22726563 11.06675781 -14.734375 10.2421875 C-15.85585937 9.62730469 -15.85585937 9.62730469 -17 9 C-16.828125 7.20703125 -16.828125 7.20703125 -16 5 C-13.671875 3.26171875 -13.671875 3.26171875 -10.75 1.6875 C-9.31914063 0.88892578 -9.31914063 0.88892578 -7.859375 0.07421875 C-4.59011187 -1.15398803 -3.26797881 -1.1139637 0 0 Z " fill="#F39700" transform="translate(91,44)"/>
<path d="M0 0 C4.59542459 0.75938973 6.5330317 3.18007827 9.58984375 6.53125 C10.13511719 7.10359375 10.68039063 7.6759375 11.2421875 8.265625 C12.58043387 9.67430539 13.8995935 11.10107497 15.21484375 12.53125 C14.22484375 13.19125 13.23484375 13.85125 12.21484375 14.53125 C7.50234519 18.33943114 3.28163618 22.36312628 -0.55859375 27.05078125 C-1.78515625 28.53125 -1.78515625 28.53125 -3.78515625 30.53125 C-5.61440256 29.00637581 -7.42170732 27.46394808 -9.22265625 25.90625 C-9.73892578 25.47957031 -10.25519531 25.05289062 -10.78710938 24.61328125 C-13.36103311 22.3589951 -14.72608105 20.70669889 -15.82421875 17.4453125 C-15.7770274 13.92483784 -15.15509334 13.01016678 -12.72265625 10.53125 C-12.07296875 9.8609375 -11.42328125 9.190625 -10.75390625 8.5 C-10.10421875 7.8503125 -9.45453125 7.200625 -8.78515625 6.53125 C-7.99625 5.61859375 -7.99625 5.61859375 -7.19140625 4.6875 C-4.92929506 2.13660865 -3.3947095 0.64751822 0 0 Z " fill="#6E6F71" transform="translate(93.78515625,329.46875)"/>
<path d="M0 0 C0.26039063 0.60199219 0.52078125 1.20398438 0.7890625 1.82421875 C6.61530719 12.29266486 24.29060839 18.55679135 35 22 C41.93296247 23.89511503 48.84761733 25.29878601 56 26 C56 26.33 56 26.66 56 27 C35.83077334 27.55378755 14.62792421 27.20888342 -3 16 C-2.690625 15.030625 -2.38125 14.06125 -2.0625 13.0625 C-0.82032903 8.76335509 -0.38315147 4.44657366 0 0 Z " fill="#FDC988" transform="translate(189,341)"/>
<path d="M0 0 C5.06623768 4.23816537 9.80038069 8.67408963 14.4375 13.375 C15.07365234 14.01566406 15.70980469 14.65632813 16.36523438 15.31640625 C17.91250332 16.87530879 19.45736492 18.43651416 21 20 C20.34 20.33 19.68 20.66 19 21 C10.93695917 15.88685216 4.64925047 10.51511075 0 2 C0 1.34 0 0.68 0 0 Z " fill="#FF9B9E" transform="translate(334,321)"/>
<path d="M0 0 C1.41805831 0.28482368 2.83440379 0.57818144 4.25 0.875 C5.03890625 1.03742188 5.8278125 1.19984375 6.640625 1.3671875 C8.96831144 1.99150075 10.89031952 2.84838542 13 4 C11.35 5.65 9.7 7.3 8 9 C6.66368764 7.6905332 5.33102075 6.37734515 4 5.0625 C3.2575 4.33160156 2.515 3.60070312 1.75 2.84765625 C0 1 0 1 0 0 Z " fill="#FF6A66" transform="translate(355,397)"/>
</svg>
