<?xml version="1.0" encoding="UTF-8"?>
<svg version="1.1" xmlns="http://www.w3.org/2000/svg" width="512" height="512">
<path d="M0 0 C1.2065625 0.67095703 1.2065625 0.67095703 2.4375 1.35546875 C10.25920045 6.15397906 15.64948572 12.42662521 19 21 C19 21.66 19 22.32 19 23 C19.84594727 22.98952637 20.69189453 22.97905273 21.56347656 22.96826172 C24.76170812 22.93377355 27.95984358 22.90890643 31.15820312 22.89013672 C32.53128212 22.88020081 33.90434067 22.86664739 35.27734375 22.84912109 C51.12134331 22.65222929 66.32470242 23.87038149 78.47265625 35.24609375 C85.02386662 42.76909491 88.4353985 50.9639707 87.9375 60.9375 C86.86112823 69.07993584 82.67440919 76.18719058 77 82 C75.97178131 82.49071487 74.94356262 82.98142975 73.88418579 83.48701477 C70.64008924 86.31358952 70.55462942 86.71393713 70.26742554 90.77043152 C70.2444491 92.79109295 70.25470022 94.81228923 70.29052734 96.83276367 C70.2842205 98.48980064 70.2842205 98.48980064 70.27778625 100.18031311 C70.2700594 103.84341557 70.30373093 107.50501884 70.3359375 111.16796875 C70.33484337 113.7222781 70.33053385 116.27658792 70.32315063 118.83088684 C70.3083408 126.26206606 70.33433695 133.6926044 70.36656952 141.12368011 C70.4076448 151.17909362 70.41712628 161.23423964 70.39805984 171.28972816 C70.3984294 175.02362459 70.4240921 178.7567447 70.45175171 182.49052429 C70.49208001 198.03015339 69.89614714 213.38673349 62.3125 227.375 C61.80529419 228.35122314 61.80529419 228.35122314 61.2878418 229.34716797 C57.94950986 235.53287825 53.67533208 240.77089072 49 246 C48.21625 247.03125 47.4325 248.0625 46.625 249.125 C43.27390536 252.79524651 39.51481331 255.77330987 35.62109375 258.8515625 C33.25835731 260.78823172 31.11556243 262.79981508 29 265 C35.68713103 275.57402594 41.75579594 281.11164072 54 284 C57.30531259 284.48226284 60.60555818 284.72018561 63.9375 284.9375 C78.85687567 286.15723095 93.29969706 288.74751275 107 295 C107.92941406 295.41765625 108.85882813 295.8353125 109.81640625 296.265625 C123.42119851 303.00028745 134.06241924 314.22279755 139.29223633 328.53686523 C142.38827964 338.56217924 144.93348751 348.64373649 147.25 358.875 C147.77462089 361.17262734 148.30104348 363.46981499 148.83026123 365.76638794 C149.15487856 367.17690337 149.47667147 368.5880727 149.79522705 369.99996948 C150.61181475 373.59698848 150.61181475 373.59698848 152 377 C152.556875 376.7834375 153.11375 376.566875 153.6875 376.34375 C154.8321875 375.92609375 154.8321875 375.92609375 156 375.5 C157.11375 375.08234375 157.11375 375.08234375 158.25 374.65625 C161 374 161 374 169 374 C169 333.41 169 292.82 169 251 C165.04 251 161.08 251 157 251 C149.87463755 249.42686803 145.41061875 246.88463383 141 241 C138.18150026 236.28280383 137.55416119 232.34139531 137.56420898 226.95019531 C137.55413315 226.16558929 137.54405731 225.38098328 137.53367615 224.57260132 C137.50529159 221.99096229 137.49932405 219.40991016 137.49609375 216.828125 C137.48644442 215.02219407 137.47635133 213.21626545 137.46583557 211.41033936 C137.44789681 207.627671 137.44231205 203.84520788 137.4440918 200.0625 C137.44439615 195.23607143 137.40348182 190.41097205 137.35177517 185.58485794 C137.31826906 181.85453353 137.31233861 178.12452528 137.31392097 174.39406586 C137.31040094 172.61598896 137.29724473 170.83790211 137.27392387 169.05997467 C137.05346293 150.51349003 137.05346293 150.51349003 144 143 C149.05611874 138.95372181 153.67231247 136.90120283 160.18261719 136.83886719 C160.99736511 136.82925964 161.81211304 136.8196521 162.65155029 136.80975342 C163.52450745 136.80550354 164.3974646 136.80125366 165.296875 136.796875 C166.20447571 136.79117493 167.11207642 136.78547485 168.04718018 136.77960205 C169.96698852 136.77016517 171.88681296 136.76362328 173.80664062 136.75976562 C176.72555258 136.75008111 179.6437538 136.71905401 182.5625 136.6875 C184.43228751 136.68096719 186.30208003 136.67571781 188.171875 136.671875 C189.03673523 136.6595282 189.90159546 136.6471814 190.79266357 136.63446045 C197.60094452 136.65915636 202.7881905 138.05797565 208.6875 141.625 C217.18710978 150.35432896 216.75519031 159.97267495 216.69921875 171.46484375 C216.70513677 173.26648936 216.71238729 175.06813103 216.72090149 176.86976624 C216.7327438 180.63465966 216.72613793 184.39896048 216.70678711 188.16381836 C216.68391179 192.96672016 216.71068445 197.76785131 216.75184917 202.57057858 C216.77753746 206.28808918 216.77481734 210.00518233 216.76395607 213.72274971 C216.76247849 215.4924232 216.7700531 217.26213015 216.78720665 219.03172112 C216.93443505 237.16058488 216.93443505 237.16058488 210 245 C202.20684067 251.63247602 195.22922271 251 185 251 C185.33 291.92 185.66 332.84 186 375 C189.96 376.98 193.92 378.96 198 381 C206.55528326 388.96116636 210.04200031 396.68387298 210.47888184 408.3634491 C210.5507248 412.10910087 210.55448435 415.85103569 210.52148438 419.59716797 C210.50004429 422.49401568 210.5213571 425.38838398 210.546875 428.28515625 C210.56959903 442.09497782 209.47753717 452.48391769 199.5078125 462.83203125 C190.76125353 470.39330886 181.72009476 471.19410532 170.625 471.25 C169.10132813 471.2809375 169.10132813 471.2809375 167.546875 471.3125 C160.09150143 471.35122921 155.10567099 470.61158697 149.25 465.6875 C143.40274013 458.70327294 144 456.07386359 144 446 C79.32 446 14.64 446 -52 446 C-52 453.59 -52 461.18 -52 469 C-56.91229261 476.36843891 -56.91229261 476.36843891 -62 479 C-65.42333221 479.50336456 -65.42333221 479.50336456 -69.24890137 479.50793457 C-69.95624908 479.51417453 -70.66359679 479.5204145 -71.39237928 479.52684355 C-73.75086257 479.54273543 -76.10830683 479.53018517 -78.46679688 479.51757812 C-80.16236471 479.52300097 -81.85792784 479.53012454 -83.55348206 479.53881836 C-88.15060823 479.55703541 -92.74737485 479.5499909 -97.34450722 479.53730202 C-102.15835149 479.52716597 -106.97216524 479.53656938 -111.78601074 479.54284668 C-119.86960368 479.55012132 -127.95305037 479.54054019 -136.03662109 479.52148438 C-145.37868644 479.49971599 -154.72040258 479.50676749 -164.06245947 479.52879 C-172.08726662 479.54694922 -180.11196873 479.54949976 -188.1367898 479.53903532 C-192.92795694 479.53280327 -197.71896001 479.53195685 -202.51011658 479.54518127 C-207.0147986 479.55674675 -211.51903096 479.54870139 -216.02366447 479.52560425 C-217.67562552 479.52032087 -219.32762449 479.52182462 -220.97957039 479.53065491 C-223.23725513 479.54160931 -225.49350498 479.52785024 -227.75109863 479.50793457 C-229.01353645 479.50642647 -230.27597427 479.50491837 -231.57666779 479.50336456 C-236.74288776 478.74372691 -239.79217504 476.258151 -243.34375 472.55859375 C-245.86923911 467.13236597 -245.57892928 461.97232993 -245.5 456.0625 C-245.51546875 454.90814453 -245.5309375 453.75378906 -245.546875 452.56445312 C-245.51628275 445.89916681 -245.37003088 441.19286898 -241 436 C-233.59145126 430.38857447 -224.39762301 431.32882114 -215.5 431.25 C-213.89840568 431.2218052 -212.29684095 431.19187292 -210.6953125 431.16015625 C-206.7969284 431.08670485 -202.8988946 431.036878 -199 431 C-199.95551758 430.46238037 -200.91103516 429.92476074 -201.89550781 429.37084961 C-203.16479713 428.65232863 -204.43399819 427.93365173 -205.703125 427.21484375 C-206.64502686 426.68570374 -206.64502686 426.68570374 -207.60595703 426.14587402 C-212.79989319 423.19755144 -217.45432918 419.88085607 -222 416 C-222.79792969 415.34644531 -223.59585938 414.69289063 -224.41796875 414.01953125 C-236.40572629 403.81599809 -246.62757921 389.85316335 -252 375 C-252 374.01 -252 373.02 -252 372 C-252.9379541 372.02094727 -253.8759082 372.04189453 -254.84228516 372.06347656 C-258.34238625 372.13189373 -261.84177066 372.18191586 -265.34228516 372.21972656 C-266.85346736 372.23976791 -268.36457272 372.26700905 -269.87548828 372.30175781 C-272.05520643 372.35061109 -274.23389431 372.37304224 -276.4140625 372.390625 C-277.7232666 372.41157227 -279.0324707 372.43251953 -280.38134766 372.45410156 C-285.74102526 371.78152024 -289.51286931 369.09058169 -292.8125 364.875 C-297.06061138 359.2917679 -296.69728141 353.85259318 -296 347 C-294.3418279 342.24855619 -291.71850934 339.16432033 -287.4375 336.5625 C-281.93088308 334.05949231 -277.28892769 333.86037559 -271.28417969 333.88647461 C-270.40577423 333.88632858 -269.52736877 333.88618256 -268.62234497 333.8860321 C-265.7221631 333.88672815 -262.82204564 333.89450614 -259.921875 333.90234375 C-257.90977005 333.90420902 -255.89766465 333.90563241 -253.88555908 333.90663147 C-248.59194686 333.91044802 -243.29836211 333.92027098 -238.00476074 333.93133545 C-232.60213594 333.94156808 -227.1995067 333.94613306 -221.796875 333.95117188 C-211.1979046 333.961894 -200.59895459 333.9789601 -190 334 C-189.80011475 333.31288437 -189.60022949 332.62576874 -189.39428711 331.91783142 C-189.1288208 331.01674149 -188.86335449 330.11565155 -188.58984375 329.18725586 C-188.3280835 328.29389023 -188.06632324 327.4005246 -187.79663086 326.48008728 C-183.40376821 312.80413857 -171.09861469 302.1370638 -158.66796875 295.71484375 C-144.46977734 288.84915857 -129.30777497 286.26807442 -113.75 285.0625 C-105.98379077 284.44849498 -99.03610919 283.59862073 -92 280 C-90.9275 279.46375 -89.855 278.9275 -88.75 278.375 C-84.69380321 274.87192095 -81.63207411 270.66453371 -79 266 C-79 265.01 -79 264.02 -79 263 C-80.6561468 261.39112076 -80.6561468 261.39112076 -82.875 259.875 C-95.45008983 250.42892313 -105.25794747 239.94149827 -112.4375 225.9375 C-112.75541504 225.32575928 -113.07333008 224.71401855 -113.40087891 224.08374023 C-118.11780729 214.37204395 -119.44539501 204.41944295 -119.28955078 193.7331543 C-119.2852858 192.57221756 -119.28102081 191.41128082 -119.27662659 190.21516418 C-119.26639344 187.71730477 -119.24976871 185.21946472 -119.22729874 182.72168541 C-119.1948342 178.7659391 -119.18549357 174.81053431 -119.18502808 170.85469055 C-119.18009682 159.61566307 -119.15067887 148.37710316 -119.05859375 137.13842773 C-119.00781219 130.91027289 -118.98922052 124.6828786 -119.0061816 118.45453006 C-119.01368586 115.16775849 -118.99932467 111.8833744 -118.95492935 108.596838 C-118.90685689 104.936592 -118.9142294 101.28029195 -118.93408203 97.61987305 C-118.89250221 96.00276932 -118.89250221 96.00276932 -118.8500824 94.35299683 C-118.93495147 88.55333363 -118.93495147 88.55333363 -121.99917221 83.82517433 C-124.3805312 81.92937469 -124.3805312 81.92937469 -126.85815239 80.3928194 C-129.60449512 78.60690363 -130.9532367 76.60971354 -132.5 73.75 C-132.9640625 72.91984375 -133.428125 72.0896875 -133.90625 71.234375 C-137.40208352 64.09288651 -137.31199129 55.0906014 -134.90625 47.58984375 C-129.67506918 36.58488623 -122.31783223 30.36389127 -111.13427734 25.70874023 C-104.233847 23.41727955 -97.21282452 22.88783742 -89.984375 22.97265625 C-88.79585937 22.98361328 -87.60734375 22.99457031 -86.3828125 23.00585938 C-83.94451846 23.04387579 -81.50653985 23.11728089 -79.0703125 23.22460938 C-72.13939641 23.28096309 -72.13939641 23.28096309 -66.53051758 19.63378906 C-64.41764315 16.76656468 -64.41764315 16.76656468 -62.73657227 13.79614258 C-57.06796901 4.66883862 -46.58431753 0.31142915 -36.83984375 -3.109375 C-25.32696837 -5.77970622 -10.46603972 -5.86897713 0 0 Z " fill="#FEDCA5" transform="translate(296,18)"/>
<path d="M0 0 C0.81474792 -0.00960754 1.62949585 -0.01921509 2.46893311 -0.02911377 C3.34189026 -0.03336365 4.21484741 -0.03761353 5.11425781 -0.04199219 C6.02185852 -0.04769226 6.92945923 -0.05339233 7.86456299 -0.05926514 C9.78437133 -0.06870202 11.70419578 -0.0752439 13.62402344 -0.07910156 C16.5429354 -0.08878607 19.46113661 -0.11981317 22.37988281 -0.15136719 C24.24967032 -0.1579 26.11946284 -0.16314938 27.98925781 -0.16699219 C28.85411804 -0.17933899 29.71897827 -0.19168579 30.61004639 -0.20440674 C37.41832733 -0.17971083 42.60557331 1.21910846 48.50488281 4.78613281 C57.00449259 13.51546177 56.57257312 23.13380776 56.51660156 34.62597656 C56.52251958 36.42762217 56.52977011 38.22926384 56.5382843 40.03089905 C56.55012661 43.79579247 56.54352074 47.5600933 56.52416992 51.32495117 C56.5012946 56.12785298 56.52806727 60.92898412 56.56923199 65.73171139 C56.59492028 69.449222 56.59220015 73.16631514 56.58133888 76.88388252 C56.5798613 78.65355601 56.58743591 80.42326296 56.60458946 82.19285393 C56.75181786 100.32171769 56.75181786 100.32171769 49.81738281 108.16113281 C42.02422348 114.79360884 35.04660552 114.16113281 24.81738281 114.16113281 C25.14738281 155.08113281 25.47738281 196.00113281 25.81738281 238.16113281 C29.77738281 240.14113281 33.73738281 242.12113281 37.81738281 244.16113281 C46.37266607 252.12229918 49.85938312 259.84500579 50.29626465 271.52458191 C50.36810761 275.27023368 50.37186717 279.0121685 50.33886719 282.75830078 C50.3174271 285.65514849 50.33873991 288.54951679 50.36425781 291.44628906 C50.38698184 305.25611064 49.29491998 315.6450505 39.32519531 325.99316406 C30.57863635 333.55444167 21.53747757 334.35523813 10.44238281 334.41113281 C8.91871094 334.44207031 8.91871094 334.44207031 7.36425781 334.47363281 C-0.09111576 334.51236203 -5.07694619 333.77271979 -10.93261719 328.84863281 C-16.77987705 321.86440575 -16.18261719 319.2349964 -16.18261719 309.16113281 C-80.86261719 309.16113281 -145.54261719 309.16113281 -212.18261719 309.16113281 C-212.18261719 316.75113281 -212.18261719 324.34113281 -212.18261719 332.16113281 C-217.0949098 339.52957172 -217.0949098 339.52957172 -222.18261719 342.16113281 C-225.6059494 342.66449738 -225.6059494 342.66449738 -229.43151855 342.66906738 C-230.13886627 342.67530735 -230.84621398 342.68154731 -231.57499647 342.68797636 C-233.93347976 342.70386824 -236.29092402 342.69131798 -238.64941406 342.67871094 C-240.3449819 342.68413378 -242.04054502 342.69125735 -243.73609924 342.69995117 C-248.33322542 342.71816822 -252.92999204 342.71112371 -257.5271244 342.69843483 C-262.34096868 342.68829878 -267.15478243 342.69770219 -271.96862793 342.70397949 C-280.05222086 342.71125413 -288.13566756 342.701673 -296.21923828 342.68261719 C-305.56130363 342.6608488 -314.90301977 342.6679003 -324.24507666 342.68992281 C-332.26988381 342.70808203 -340.29458592 342.71063257 -348.31940699 342.70016813 C-353.11057413 342.69393608 -357.9015772 342.69308966 -362.69273376 342.70631409 C-367.19741579 342.71787956 -371.70164815 342.70983421 -376.20628166 342.68673706 C-377.85824271 342.68145368 -379.51024168 342.68295743 -381.16218758 342.69178772 C-383.41987232 342.70274212 -385.67612217 342.68898305 -387.93371582 342.66906738 C-389.19615364 342.66755928 -390.45859146 342.66605118 -391.75928497 342.66449738 C-396.92550495 341.90485972 -399.97479222 339.41928382 -403.52636719 335.71972656 C-406.0518563 330.29349878 -405.76154647 325.13346275 -405.68261719 319.22363281 C-405.69808594 318.06927734 -405.71355469 316.91492188 -405.72949219 315.72558594 C-405.69889994 309.06029962 -405.55264807 304.35400179 -401.18261719 299.16113281 C-394.92815922 294.57276311 -388.60454517 294.64665489 -381.11376953 294.81811523 C-379.33158524 294.83410515 -379.33158524 294.83410515 -377.51339722 294.85041809 C-374.27299704 294.88217186 -371.0333738 294.93133904 -367.79330015 294.98607802 C-364.3833957 295.03748318 -360.97333018 295.06009568 -357.56314087 295.08406067 C-346.69698666 295.16553228 -335.83139663 295.28816234 -324.96599066 295.43909866 C-317.82224248 295.53829346 -310.67892451 295.61681215 -303.53457987 295.65707093 C-300.1499371 295.67747841 -296.76666699 295.71144942 -293.38261032 295.77898216 C-273.13410823 296.38046141 -273.13410823 296.38046141 -255.18261719 288.16113281 C-254.19393646 287.50779465 -253.20525574 286.85445648 -252.18661499 286.18132019 C-229.10486095 270.6396451 -212.21547901 246.5396841 -206.54223633 219.1875 C-205.38227977 212.65142438 -205.36551398 206.81610053 -209.18261719 201.16113281 C-212.21644728 199.13857942 -212.87020582 198.90536195 -216.28686523 198.84228516 C-217.11891479 198.82222412 -217.95096436 198.80216309 -218.80822754 198.78149414 C-219.67814331 198.77013428 -220.54805908 198.75877441 -221.44433594 198.74707031 C-222.64878357 198.72060425 -222.64878357 198.72060425 -223.87756348 198.69360352 C-226.87487828 198.63057356 -229.87252768 198.58436122 -232.87011719 198.53613281 C-242.92480469 198.35050781 -242.92480469 198.35050781 -253.18261719 198.16113281 C-253.18261719 181.33113281 -253.18261719 164.50113281 -253.18261719 147.16113281 C-251.20261719 149.63613281 -251.20261719 149.63613281 -249.18261719 152.16113281 C-235.42284831 166.74545712 -215.16257458 173.41472838 -195.39453125 174.28369141 C-170.31859828 174.93898582 -144.67996735 173.09587893 -124.70214844 156.04394531 C-121.27059051 152.73114804 -118.3347259 149.46535025 -116.18261719 145.16113281 C-115.27274048 145.36246826 -115.27274048 145.36246826 -114.34448242 145.56787109 C-108.30549253 146.84797215 -102.39368983 147.57405043 -96.24511719 148.03613281 C-81.34026945 149.32925354 -66.87509132 151.91221844 -53.18261719 158.16113281 C-52.25320313 158.57878906 -51.32378906 158.99644531 -50.36621094 159.42675781 C-36.76141868 166.16142027 -26.12019795 177.38393037 -20.89038086 191.69799805 C-17.79433755 201.72331205 -15.24912968 211.80486931 -12.93261719 222.03613281 C-12.4079963 224.33376015 -11.8815737 226.6309478 -11.35235596 228.92752075 C-11.02773863 230.33803618 -10.70594572 231.74920551 -10.38739014 233.16110229 C-9.57080244 236.7581213 -9.57080244 236.7581213 -8.18261719 240.16113281 C-7.62574219 239.94457031 -7.06886719 239.72800781 -6.49511719 239.50488281 C-5.35042969 239.08722656 -5.35042969 239.08722656 -4.18261719 238.66113281 C-3.06886719 238.24347656 -3.06886719 238.24347656 -1.93261719 237.81738281 C0.81738281 237.16113281 0.81738281 237.16113281 8.81738281 237.16113281 C8.81738281 196.57113281 8.81738281 155.98113281 8.81738281 114.16113281 C4.85738281 114.16113281 0.89738281 114.16113281 -3.18261719 114.16113281 C-10.30797964 112.58800084 -14.77199843 110.04576664 -19.18261719 104.16113281 C-22.00111692 99.44393664 -22.628456 95.50252812 -22.6184082 90.11132812 C-22.62848404 89.32672211 -22.63855988 88.54211609 -22.64894104 87.73373413 C-22.6773256 85.1520951 -22.68329314 82.57104297 -22.68652344 79.98925781 C-22.69617277 78.18332688 -22.70626585 76.37739827 -22.71678162 74.57147217 C-22.73472038 70.78880381 -22.74030514 67.00634069 -22.73852539 63.22363281 C-22.73822104 58.39720424 -22.77913537 53.57210486 -22.83084202 48.74599075 C-22.86434813 45.01566634 -22.87027858 41.28565809 -22.86869621 37.55519867 C-22.87221625 35.77712177 -22.88537246 33.99903492 -22.90869331 32.22110748 C-23.12915426 13.67462284 -23.12915426 13.67462284 -16.18261719 6.16113281 C-11.12649845 2.11485463 -6.51030472 0.06233564 0 0 Z " fill="#E5E5E5" transform="translate(456.1826171875,154.8388671875)"/>
<path d="M0 0 C1.2065625 0.67095703 1.2065625 0.67095703 2.4375 1.35546875 C10.25920045 6.15397906 15.64948572 12.42662521 19 21 C19 21.66 19 22.32 19 23 C19.84594727 22.98952637 20.69189453 22.97905273 21.56347656 22.96826172 C24.76170812 22.93377355 27.95984358 22.90890643 31.15820312 22.89013672 C32.53128212 22.88020081 33.90434067 22.86664739 35.27734375 22.84912109 C51.12134331 22.65222929 66.32470242 23.87038149 78.47265625 35.24609375 C85.02386662 42.76909491 88.4353985 50.9639707 87.9375 60.9375 C86.86112823 69.07993584 82.67440919 76.18719058 77 82 C75.97374512 82.45342773 74.94749023 82.90685547 73.89013672 83.37402344 C70.4966684 86.45732681 70.52490337 87.18965735 70.22705078 91.59472656 C70.18605503 93.94302539 70.17757759 96.29203532 70.1953125 98.640625 C70.18160614 99.87794373 70.16789978 101.11526245 70.15377808 102.39007568 C70.12273125 105.67182089 70.11736312 108.95228832 70.12445068 112.23413086 C70.12536405 115.58599702 70.09199463 118.93732576 70.0625 122.2890625 C70.01055139 128.85949803 69.99245327 135.42937806 70 142 C63.54609668 141.09087205 57.11768349 140.06207699 50.6875 139 C49.04297852 138.73316406 49.04297852 138.73316406 47.36523438 138.4609375 C46.32044922 138.28820312 45.27566406 138.11546875 44.19921875 137.9375 C42.77355591 137.70353516 42.77355591 137.70353516 41.3190918 137.46484375 C39 137 39 137 37 136 C34.4506966 135.62996105 31.9148496 135.30949041 29.35546875 135.02734375 C28.17881653 134.89588203 28.17881653 134.89588203 26.97839355 134.76176453 C-4.49736701 131.32081013 -35.46371563 130.81888041 -67 134 C-68.58361328 134.15275391 -68.58361328 134.15275391 -70.19921875 134.30859375 C-84.67317776 135.73659701 -98.69798268 138.15448155 -112.83129883 141.58862305 C-115 142 -115 142 -119 142 C-118.98881386 140.97095802 -118.98881386 140.97095802 -118.97740173 139.92112732 C-118.90847265 132.76645095 -118.90255314 125.61367 -118.93286133 118.45874023 C-118.94096657 115.7892775 -118.92308619 113.12358859 -118.89379883 110.45385742 C-118.85444772 106.61247394 -118.87286827 102.77499079 -118.90234375 98.93359375 C-118.87776596 97.74479111 -118.85318817 96.55598846 -118.8278656 95.3311615 C-118.86244966 88.99902337 -118.86244966 88.99902337 -122.00112915 83.74032593 C-124.37747204 81.84491632 -124.37747204 81.84491632 -126.85926819 80.34663391 C-129.63349633 78.60149719 -130.95413484 76.60805303 -132.5 73.75 C-132.9640625 72.91984375 -133.428125 72.0896875 -133.90625 71.234375 C-137.40208352 64.09288651 -137.31199129 55.0906014 -134.90625 47.58984375 C-129.67506918 36.58488623 -122.31783223 30.36389127 -111.13427734 25.70874023 C-104.233847 23.41727955 -97.21282452 22.88783742 -89.984375 22.97265625 C-88.79585937 22.98361328 -87.60734375 22.99457031 -86.3828125 23.00585938 C-83.94451846 23.04387579 -81.50653985 23.11728089 -79.0703125 23.22460938 C-72.13939641 23.28096309 -72.13939641 23.28096309 -66.53051758 19.63378906 C-64.41764315 16.76656468 -64.41764315 16.76656468 -62.73657227 13.79614258 C-57.06796901 4.66883862 -46.58431753 0.31142915 -36.83984375 -3.109375 C-25.32696837 -5.77970622 -10.46603972 -5.86897713 0 0 Z " fill="#E5E5E5" transform="translate(296,18)"/>
<path d="M0 0 C0.65962329 -0.00171833 1.31924658 -0.00343666 1.99885845 -0.00520706 C4.23282414 -0.0095798 6.46671662 -0.00655097 8.70068359 -0.00341797 C10.33554613 -0.0046101 11.97040844 -0.00613635 13.60527039 -0.00796509 C19.10323601 -0.01181615 24.60116274 -0.00396671 30.09912109 0.00439453 C32.01850378 0.00667282 33.93788651 0.00891043 35.85726929 0.0111084 C47.85022536 0.02630683 59.84310603 0.05728236 71.83601093 0.09494019 C78.59345015 0.11589228 85.35088078 0.13426011 92.1083374 0.14831543 C109.28413164 0.18429724 126.45973862 0.23402443 143.63537979 0.31651115 C151.5041777 0.35400785 159.37288369 0.38511717 167.24176025 0.39984131 C174.02670807 0.41265961 180.81142766 0.43943684 187.59624535 0.48380697 C191.10731272 0.50636111 194.61810127 0.52233332 198.12924767 0.52131271 C201.97532303 0.52043578 205.82080633 0.55048747 209.66674805 0.58349609 C211.36357192 0.5759496 211.36357192 0.5759496 213.09467506 0.56825066 C220.71221233 0.67037864 220.71221233 0.67037864 224.63005066 3.03070068 C228.53915001 7.4795561 228.86386982 11.66444544 228.72021484 17.41064453 C228.28607345 22.20687329 226.98943346 26.57197781 225.47412109 31.12939453 C225.07193359 32.35916016 224.66974609 33.58892578 224.25537109 34.85595703 C215.61384192 60.10411607 197.9392657 81.34493644 174.47412109 94.12939453 C173.86234009 94.54229736 173.25055908 94.9552002 172.62023926 95.38061523 C164.10753477 100.55769235 155.17237746 99.85595419 145.54443359 99.79345703 C143.70416952 99.79683216 141.86390764 99.80169056 140.02365112 99.80795288 C136.17896159 99.81529507 132.33485566 99.8047074 128.49023438 99.78125 C123.59244712 99.75280403 118.69603265 99.76915638 113.79829597 99.79911232 C110.00094505 99.81729201 106.20391256 99.81137805 102.40655136 99.79847336 C100.60226143 99.79516663 98.79794143 99.79912881 96.99368668 99.81087112 C83.15678764 99.88116484 72.62882936 97.55929512 61.03662109 89.56689453 C60.41174805 89.13981201 59.786875 88.71272949 59.14306641 88.27270508 C41.99658136 76.24544754 29.54583267 60.46449733 21.47412109 41.12939453 C21.47412109 40.13939453 21.47412109 39.14939453 21.47412109 38.12939453 C20.53616699 38.1503418 19.59821289 38.17128906 18.63183594 38.19287109 C15.13173484 38.26128826 11.63235044 38.31131039 8.13183594 38.34912109 C6.62065374 38.36916244 5.10954837 38.39640358 3.59863281 38.43115234 C1.41891466 38.48000562 -0.75977322 38.50243677 -2.93994141 38.52001953 C-4.24914551 38.5409668 -5.55834961 38.56191406 -6.90722656 38.58349609 C-12.26690417 37.91091477 -16.03874821 35.21997622 -19.33837891 31.00439453 C-23.58649028 25.42116244 -23.22316032 19.98198771 -22.52587891 13.12939453 C-20.86770681 8.37795072 -18.24438824 5.29371486 -13.96337891 2.69189453 C-9.04485893 0.45620363 -5.41394583 0.00366978 0 0 Z " fill="#F68311" transform="translate(22.52587890625,351.87060546875)"/>
<path d="M0 0 C0.81474792 -0.00960754 1.62949585 -0.01921509 2.46893311 -0.02911377 C3.34189026 -0.03336365 4.21484741 -0.03761353 5.11425781 -0.04199219 C6.02185852 -0.04769226 6.92945923 -0.05339233 7.86456299 -0.05926514 C9.78437133 -0.06870202 11.70419578 -0.0752439 13.62402344 -0.07910156 C16.5429354 -0.08878607 19.46113661 -0.11981317 22.37988281 -0.15136719 C24.24967032 -0.1579 26.11946284 -0.16314938 27.98925781 -0.16699219 C28.85411804 -0.17933899 29.71897827 -0.19168579 30.61004639 -0.20440674 C37.41832733 -0.17971083 42.60557331 1.21910846 48.50488281 4.78613281 C57.00449259 13.51546177 56.57257312 23.13380776 56.51660156 34.62597656 C56.52251958 36.42762217 56.52977011 38.22926384 56.5382843 40.03089905 C56.55012661 43.79579247 56.54352074 47.5600933 56.52416992 51.32495117 C56.5012946 56.12785298 56.52806727 60.92898412 56.56923199 65.73171139 C56.59492028 69.449222 56.59220015 73.16631514 56.58133888 76.88388252 C56.5798613 78.65355601 56.58743591 80.42326296 56.60458946 82.19285393 C56.75181786 100.32171769 56.75181786 100.32171769 49.81738281 108.16113281 C42.02422348 114.79360884 35.04660552 114.16113281 24.81738281 114.16113281 C25.14738281 155.08113281 25.47738281 196.00113281 25.81738281 238.16113281 C29.77738281 240.14113281 33.73738281 242.12113281 37.81738281 244.16113281 C46.37266607 252.12229918 49.85938312 259.84500579 50.29626465 271.52458191 C50.36810761 275.27023368 50.37186717 279.0121685 50.33886719 282.75830078 C50.3174271 285.65514849 50.33873991 288.54951679 50.36425781 291.44628906 C50.38698184 305.25611064 49.29491998 315.6450505 39.32519531 325.99316406 C30.57863635 333.55444167 21.53747757 334.35523813 10.44238281 334.41113281 C8.91871094 334.44207031 8.91871094 334.44207031 7.36425781 334.47363281 C-0.09111576 334.51236203 -5.07694619 333.77271979 -10.93261719 328.84863281 C-15.05174044 323.92856893 -16.55667534 319.85626226 -16.58666992 313.45654297 C-16.5993541 312.14142731 -16.61203827 310.82631165 -16.62510681 309.47134399 C-16.6230549 308.04762616 -16.62006648 306.62390941 -16.61621094 305.20019531 C-16.62077742 303.72577678 -16.62608438 302.25136037 -16.63209534 300.77694702 C-16.64101056 297.69203019 -16.63862241 294.60737243 -16.62866211 291.52246094 C-16.6171859 287.5861205 -16.63737024 283.65067897 -16.66657925 279.71445656 C-16.68500562 276.67048542 -16.6846359 273.62672704 -16.67894173 270.58271408 C-16.67878923 269.13236609 -16.6847736 267.68200301 -16.6972332 266.23170853 C-16.75590662 258.28175899 -16.59022346 252.01141508 -12.18261719 245.16113281 C-11.34730469 243.76894531 -11.34730469 243.76894531 -10.49511719 242.34863281 C-4.88565843 237.04238804 1.32720671 237.16113281 8.81738281 237.16113281 C8.81738281 196.57113281 8.81738281 155.98113281 8.81738281 114.16113281 C4.85738281 114.16113281 0.89738281 114.16113281 -3.18261719 114.16113281 C-10.30797964 112.58800084 -14.77199843 110.04576664 -19.18261719 104.16113281 C-22.00111692 99.44393664 -22.628456 95.50252812 -22.6184082 90.11132812 C-22.62848404 89.32672211 -22.63855988 88.54211609 -22.64894104 87.73373413 C-22.6773256 85.1520951 -22.68329314 82.57104297 -22.68652344 79.98925781 C-22.69617277 78.18332688 -22.70626585 76.37739827 -22.71678162 74.57147217 C-22.73472038 70.78880381 -22.74030514 67.00634069 -22.73852539 63.22363281 C-22.73822104 58.39720424 -22.77913537 53.57210486 -22.83084202 48.74599075 C-22.86434813 45.01566634 -22.87027858 41.28565809 -22.86869621 37.55519867 C-22.87221625 35.77712177 -22.88537246 33.99903492 -22.90869331 32.22110748 C-23.12915426 13.67462284 -23.12915426 13.67462284 -16.18261719 6.16113281 C-11.12649845 2.11485463 -6.51030472 0.06233564 0 0 Z " fill="#E5E5E5" transform="translate(456.1826171875,154.8388671875)"/>
<path d="M0 0 C2.64779912 0.23535992 5.29226245 0.48831121 7.9375 0.75 C8.65357422 0.811875 9.36964844 0.87375 10.10742188 0.9375 C18.57052526 1.80181694 26.75818086 3.96451046 35 6 C35.09367609 13.52929554 35.16425034 21.05852891 35.20724869 28.58827877 C35.22791103 32.08665335 35.25582356 35.5846224 35.30175781 39.08276367 C35.77034274 75.77425326 35.77034274 75.77425326 27.3125 91.375 C26.80529419 92.35122314 26.80529419 92.35122314 26.2878418 93.34716797 C22.94950986 99.53287825 18.67533208 104.77089072 14 110 C13.21625 111.03125 12.4325 112.0625 11.625 113.125 C8.27390536 116.79524651 4.51481331 119.77330987 0.62109375 122.8515625 C-1.74164269 124.78823172 -3.88443757 126.79981508 -6 129 C-1.77794513 135.67612426 2.30976054 140.72519764 9 145 C6.54736057 154.08531487 -0.73933861 159.87526701 -8.5 164.75 C-33.99455785 178.61143698 -65.66579946 179.52585831 -93.27734375 172.12109375 C-106.4323015 168.07471678 -119.16288561 161.75567158 -127 150 C-127.33 166.17 -127.66 182.34 -128 199 C-160.01 199 -192.02 199 -225 199 C-221.6430634 183.89378528 -213.48945717 172.27850085 -200.640625 163.64453125 C-184.96223507 153.85391037 -166.90650869 150.4694507 -148.75 149.0625 C-140.98379077 148.44849498 -134.03610919 147.59862073 -127 144 C-125.9275 143.46375 -124.855 142.9275 -123.75 142.375 C-119.2205919 138.46323846 -115.67829338 133.35658676 -113 128 C-110.13429026 128.61033025 -107.88280032 129.48702547 -105.35546875 130.9609375 C-104.67806641 131.35023438 -104.00066406 131.73953125 -103.30273438 132.140625 C-102.60470703 132.54796875 -101.90667969 132.9553125 -101.1875 133.375 C-89.09135723 140.41688593 -79.37579329 143.00515167 -65.45483398 139.61206055 C-38.99277389 132.46870051 -12.91701544 115.98001525 1.19628906 91.96435547 C9.36440442 77.16439328 12.17053902 64.32081328 12.5 47.5 C12.58121094 45.72302734 12.58121094 45.72302734 12.6640625 43.91015625 C12.75729077 37.93688778 12.70033138 34.00667474 8.6171875 29.42578125 C7.99956543 28.85512939 7.38194336 28.28447754 6.74560547 27.6965332 C2.5059046 23.57601833 0.06128476 17.24302237 -0.09765625 11.42578125 C-0.09103244 10.05465342 -0.07914198 8.68354283 -0.0625 7.3125 C-0.05798828 6.61060547 -0.05347656 5.90871094 -0.04882812 5.18554688 C-0.03706927 3.45699462 -0.01913454 1.72848635 0 0 Z " fill="#FBC368" transform="translate(331,154)"/>
<path d="M0 0 C0.88823456 0.01649597 1.77646912 0.03299194 2.69161987 0.04998779 C4.5763747 0.08753543 6.46107166 0.12808766 8.34570312 0.17138672 C11.20956815 0.23366564 14.07326229 0.27540388 16.9375 0.31640625 C18.77086093 0.3554971 20.60419603 0.3958232 22.4375 0.4375 C23.28676056 0.44702698 24.13602112 0.45655396 25.01101685 0.46636963 C30.91837782 0.63348668 37.09783155 1.25019976 41.68069458 5.40020752 C47.01884511 11.55491498 46.36413068 17.5655407 46.4296875 25.296875 C46.45869141 26.42544922 46.48769531 27.55402344 46.51757812 28.71679688 C46.59863037 39.30970242 46.59863037 39.30970242 42.1171875 43.984375 C37.57309739 47.56312793 34.62626702 48.48543111 28.86828613 48.49230957 C28.16093842 48.49854953 27.45359071 48.5047895 26.72480822 48.51121855 C24.36632493 48.52711043 22.00888067 48.51456017 19.65039062 48.50195312 C17.95482279 48.50737597 16.25925966 48.51449954 14.56370544 48.52319336 C9.96657927 48.54141041 5.36981265 48.5343659 0.77268028 48.52167702 C-4.04116399 48.51154097 -8.85497774 48.52094438 -13.66882324 48.52722168 C-21.75241618 48.53449632 -29.83586287 48.52491519 -37.91943359 48.50585938 C-47.26149894 48.48409099 -56.60321508 48.49114249 -65.94527197 48.513165 C-73.97007912 48.53132422 -81.99478123 48.53387476 -90.0196023 48.52341032 C-94.81076944 48.51717827 -99.60177251 48.51633185 -104.39292908 48.52955627 C-108.8976111 48.54112175 -113.40184346 48.53307639 -117.90647697 48.50997925 C-119.55843802 48.50469587 -121.21043699 48.50619962 -122.86238289 48.51502991 C-125.12006763 48.52598431 -127.37631748 48.51222524 -129.63391113 48.49230957 C-130.89634895 48.49080147 -132.15878677 48.48929337 -133.45948029 48.48773956 C-138.62570026 47.72810191 -141.67498754 45.242526 -145.2265625 41.54296875 C-147.75205161 36.11674097 -147.46174178 30.95670493 -147.3828125 25.046875 C-147.39828125 23.89251953 -147.41375 22.73816406 -147.4296875 21.54882812 C-147.39909525 14.88354181 -147.25284338 10.17724398 -142.8828125 4.984375 C-136.60136751 0.36991 -130.15036285 0.4396594 -122.62353516 0.54614258 C-120.81243759 0.54767586 -120.81243759 0.54767586 -118.9647522 0.54924011 C-115.67565026 0.55574413 -112.38725212 0.57988225 -109.09831667 0.61173081 C-105.65066187 0.64059587 -102.20297422 0.64575575 -98.75521851 0.65324402 C-92.23410898 0.67079221 -85.71327463 0.70788918 -79.19230211 0.7528407 C-69.60715463 0.81820085 -60.02189183 0.8578966 -50.43659019 0.89290142 C-49.73392481 0.89547083 -49.03125943 0.89804024 -48.30730116 0.90068752 C-46.9067721 0.90578466 -45.50624279 0.91081685 -44.10571325 0.91578215 C-40.00169677 0.93104989 -35.89779512 0.95340794 -31.79384923 0.98183978 C-28.65115948 1.00280016 -25.5084386 1.01793638 -22.36572266 1.03442383 C-21.22598999 1.04430328 -20.08625732 1.05418274 -18.9119873 1.06436157 C-17.36017258 1.07097054 -17.36017258 1.07097054 -15.77700806 1.07771301 C-14.4237313 1.08688861 -14.4237313 1.08688861 -13.04311562 1.09624958 C-8.68743246 0.87068391 -4.601629 -0.09414685 0 0 Z " fill="#808080" transform="translate(197.8828125,449.015625)"/>
<path d="M0 0 C5.28 0 10.56 0 16 0 C16.33 40.92 16.66 81.84 17 124 C20.96 125.98 24.92 127.96 29 130 C37.55528326 137.96116636 41.04200031 145.68387298 41.47888184 157.3634491 C41.5507248 161.10910087 41.55448435 164.85103569 41.52148438 168.59716797 C41.50004429 171.49401568 41.5213571 174.38838398 41.546875 177.28515625 C41.56959903 191.09497782 40.47753717 201.48391769 30.5078125 211.83203125 C21.76125353 219.39330886 12.72009476 220.19410532 1.625 220.25 C0.10132813 220.2809375 0.10132813 220.2809375 -1.453125 220.3125 C-8.90849857 220.35122921 -13.89432901 219.61158697 -19.75 214.6875 C-23.86912325 209.76743612 -25.37405816 205.69512945 -25.40405273 199.29541016 C-25.41673691 197.98029449 -25.42942108 196.66517883 -25.44248962 195.31021118 C-25.44043771 193.88649335 -25.43744929 192.46277659 -25.43359375 191.0390625 C-25.43816023 189.56464397 -25.44346719 188.09022756 -25.44947815 186.61581421 C-25.45839337 183.53089738 -25.45600522 180.44623962 -25.44604492 177.36132812 C-25.43456871 173.42498768 -25.45475305 169.48954616 -25.48396206 165.55332375 C-25.50238843 162.50935261 -25.50201871 159.46559423 -25.49632454 156.42158127 C-25.49617205 154.97123328 -25.50215641 153.5208702 -25.51461601 152.07057571 C-25.57328944 144.12062618 -25.40760627 137.85028227 -21 131 C-20.1646875 129.6078125 -20.1646875 129.6078125 -19.3125 128.1875 C-13.70304124 122.88125523 -7.49017611 123 0 123 C0 82.41 0 41.82 0 0 Z " fill="#FCC369" transform="translate(465,269)"/>
<path d="M0 0 C21.95236232 4.70407764 41.68719035 11.87030155 54.4375 31.1875 C60.99419477 42.92034103 63.78246868 56.44969191 66.79516602 69.45874023 C67.32156996 71.72657487 67.8604722 73.99120827 68.40039062 76.25585938 C68.74292163 77.71597381 69.08474608 79.17625422 69.42578125 80.63671875 C69.66473869 81.63828255 69.66473869 81.63828255 69.90852356 82.66007996 C70.71006306 86.15882525 71.35232772 89.41088581 71 93 C69.71937515 94.7074998 68.38232443 96.37373596 67 98 C65.22353575 101.67059789 64.73613031 104.64904509 64.68115234 108.70825195 C64.66128265 109.82903641 64.64141296 110.94982086 64.62094116 112.10456848 C64.60938995 113.3036937 64.59783875 114.50281891 64.5859375 115.73828125 C64.56657135 116.97418503 64.5472052 118.21008881 64.5272522 119.48344421 C64.47767445 122.75651967 64.43637171 126.029561 64.39910889 129.30279541 C64.35897981 132.64793457 64.30776548 135.99288373 64.2578125 139.33789062 C64.16020447 145.89186315 64.08057687 152.44570739 64 159 C52.12 159 40.24 159 28 159 C26.20703125 148.64453125 26.20703125 148.64453125 25.5957489 145.11177063 C24.58667833 139.28009289 23.57575315 133.44874519 22.56176758 127.61791992 C19.01305704 107.19138036 19.01305704 107.19138036 17.4296875 97.40625 C17.21139074 96.0744286 16.99289603 94.74263963 16.77416992 93.41088867 C16.39701475 91.09757614 16.02920373 88.78271029 15.6730957 86.46606445 C14.43760386 78.95339025 13.05091803 71.54243169 7 66.5 C3.92768985 64.82826339 3.92768985 64.82826339 0 64 C0 42.88 0 21.76 0 0 Z " fill="#4A83C9" transform="translate(376,305)"/>
<path d="M0 0 C1.32 1.65 2.64 3.3 4 5 C17.75976887 19.58432431 38.02004261 26.25359557 57.78808594 27.12255859 C82.62415979 27.77158491 108.87872118 26.09908053 128.48046875 8.8125 C130.38641321 6.92391387 132.20535182 4.99356239 134 3 C134.99 2.01 135.98 1.02 137 0 C137 22.11 137 44.22 137 67 C120.17 67 103.34 67 86 67 C84.35 63.7 82.7 60.4 81 57 C75.73245263 52.68061116 71.73217753 51.87630932 65.05004883 51.79467773 C64.34735367 51.78477814 63.64465851 51.77487854 62.92066956 51.76467896 C60.59949099 51.73310766 58.27829195 51.70832387 55.95703125 51.68359375 C54.34705577 51.66302044 52.73708564 51.64202387 51.12712097 51.62062073 C46.89063862 51.56543894 42.65410784 51.51601251 38.4175415 51.46777344 C33.33386184 51.40869551 28.25027065 51.34248895 23.16666412 51.27747345 C15.44449681 51.17951289 7.72227262 51.09062342 0 51 C0 34.17 0 17.34 0 0 Z " fill="#64AFD8" transform="translate(203,302)"/>
<path d="M0 0 C4.41077344 -0.07471341 8.82120184 -0.12886513 13.23242188 -0.16479492 C14.72988307 -0.17978888 16.22730105 -0.20019105 17.72460938 -0.22631836 C27.01822284 -0.38430979 34.48718635 -0.33332919 42.6875 4.625 C51.18710978 13.35432896 50.75519031 22.97267495 50.69921875 34.46484375 C50.70513677 36.26648936 50.71238729 38.06813103 50.72090149 39.86976624 C50.7327438 43.63465966 50.72613793 47.39896048 50.70678711 51.16381836 C50.68391179 55.96672016 50.71068445 60.76785131 50.75184917 65.57057858 C50.77753746 69.28808918 50.77481734 73.00518233 50.76395607 76.72274971 C50.76247849 78.4924232 50.7700531 80.26213015 50.78720665 82.03172112 C50.93443505 100.16058488 50.93443505 100.16058488 44 108 C37.86803755 113.21869145 31.19419013 114.25858787 23.31640625 114.1953125 C22.26585304 114.19106766 22.26585304 114.19106766 21.19407654 114.18673706 C18.9833683 114.17564885 16.77308329 114.15056703 14.5625 114.125 C13.05274028 114.11495546 11.54297412 114.1058322 10.03320312 114.09765625 C6.35533403 114.07574714 2.6777084 114.04129758 -1 114 C2 112 2 112 5.8125 110.8125 C11.80420594 108.6206811 14.80139378 104.43033603 17.55651855 98.84394836 C19.1756166 94.99072595 19.39284705 91.5822845 19.41992188 87.38745117 C19.43262619 86.29810524 19.43262619 86.29810524 19.44558716 85.18675232 C19.4688298 82.80530891 19.46998226 80.42451662 19.46875 78.04296875 C19.47586034 76.37298836 19.48356061 74.70301038 19.49182129 73.03303528 C19.50523765 69.53880011 19.50684821 66.04479076 19.50097656 62.55053711 C19.49508944 58.0953024 19.52564359 53.6411608 19.56609344 49.1861372 C19.59207661 45.73804492 19.59483819 42.29021196 19.59120178 38.84203529 C19.59288377 37.20074026 19.60243667 35.55943205 19.62034607 33.91823387 C19.71677539 23.98809304 19.42842735 15.31503264 12.62805176 7.40397644 C8.94188668 3.97133087 4.68943939 2.53619566 0 1 C0 0.67 0 0.34 0 0 Z " fill="#C2C7CC" transform="translate(462,155)"/>
<path d="M0 0 C4.04142215 -0.11662261 8.08240865 -0.1873935 12.125 -0.25 C13.26710938 -0.28351563 14.40921875 -0.31703125 15.5859375 -0.3515625 C22.02830925 -0.4264738 26.17243488 -0.47176468 31 4 C40.02492731 15.60347797 40.02993924 37.31359054 42.44384766 51.30761719 C42.89859562 53.94355291 43.35636584 56.57893534 43.81689453 59.21386719 C44.48911078 63.06370265 45.15543359 66.91451635 45.8203125 70.765625 C46.12656052 72.51289886 46.12656052 72.51289886 46.43899536 74.29547119 C46.72466873 75.96340729 46.72466873 75.96340729 47.01611328 77.66503906 C47.18249298 78.62573303 47.34887268 79.586427 47.52029419 80.57623291 C48.19091973 85.36263656 48.5624266 90.18669261 49 95 C-3.8 95 -56.6 95 -111 95 C-111 94.67 -111 94.34 -111 94 C-68.76 94 -26.52 94 17 94 C15.68 88.06 14.36 82.12 13 76 C12.37891015 72.64086827 11.78054984 69.30498592 11.25390625 65.93359375 C11.11759293 65.09368896 10.9812796 64.25378418 10.84083557 63.38842773 C10.55571189 61.63158229 10.27259982 59.87440918 9.99151611 58.11691284 C7.76361728 44.20260853 5.44277575 30.33261021 2.51000977 16.54663086 C1.34639215 11.03340759 0.53549315 5.61128462 0 0 Z " fill="#C1C7CD" transform="translate(355,369)"/>
<path d="M0 0 C4.60809095 -0.09915614 9.21555592 -0.17160182 13.82446289 -0.21972656 C15.39097923 -0.23979558 16.95742109 -0.26705751 18.52368164 -0.30175781 C20.78029794 -0.35048754 23.03592083 -0.3730147 25.29296875 -0.390625 C25.98899704 -0.41127014 26.68502533 -0.43191528 27.40214539 -0.45318604 C30.98550265 -0.4548256 32.8687066 -0.08564968 35.8996582 1.89160156 C39.49954995 5.50530203 40.12360567 8.65078273 40.3125 13.625 C40.16747437 19.42602513 38.82347399 24.51576384 37 30 C36.5978125 31.22976563 36.195625 32.45953125 35.78125 33.7265625 C27.13972082 58.97472154 9.46514461 80.2155419 -14 93 C-14.67305176 93.43755615 -15.34610352 93.8751123 -16.03955078 94.32592773 C-23.93841741 99.02850493 -31.76400434 98.57323327 -40.625 98.3125 C-42.12105615 98.28736574 -43.61715334 98.26456168 -45.11328125 98.24414062 C-48.7430543 98.18959675 -52.37125701 98.10361461 -56 98 C-52.82218072 95.55026283 -49.65144892 93.74306516 -46.0625 91.9375 C-20.53101621 78.33983335 -3.99919323 55.11566303 5 28 C7.05046604 21.11788455 8.91675374 12.90991105 6.20703125 5.96875 C4.47866946 3.26694306 2.67218478 1.78145652 0 0 Z " fill="#F64411" transform="translate(211,353)"/>
<path d="M0 0 C8.70835316 4.06007239 14.80121186 10.84692096 18.51171875 19.65625 C21.19057685 27.28210838 20.97072819 35.00581346 20.89257812 42.99365234 C20.87113149 45.60088091 20.8924614 48.20535495 20.91796875 50.8125 C20.93779236 63.22119018 19.72346058 74.5018821 10.65625 83.87890625 C5.60289118 88.62205889 -0.20719651 93.00497535 -7.37890625 93.16796875 C-11.82751959 91.06723467 -14.93706117 87.14323637 -17.62890625 83.10546875 C-18.73839822 79.77699285 -18.77612983 77.2487684 -18.8059082 73.74145508 C-18.81874344 72.42611282 -18.83157867 71.11077057 -18.84480286 69.75556946 C-18.85297231 68.31621682 -18.86041565 66.8768599 -18.8671875 65.4375 C-18.87126303 64.71105474 -18.87533855 63.98460949 -18.87953758 63.23615074 C-18.90038741 59.38847515 -18.91469183 55.54083507 -18.92407227 51.69311523 C-18.93511359 47.73323156 -18.96948948 43.77391339 -19.00924397 39.81422901 C-19.03548764 36.75743114 -19.04377108 33.70076619 -19.04735374 30.64386559 C-19.05220249 29.18511844 -19.06376737 27.72637655 -19.08239174 26.26774025 C-19.20936671 15.66098838 -18.20821339 8.15848259 -10.62890625 0.10546875 C-6.54357306 -2.52081687 -4.33390997 -1.62966401 0 0 Z " fill="#FDDCA5" transform="translate(458.62890625,394.89453125)"/>
<path d="M0 0 C16.93353384 8.46676692 28.33486664 19.01938089 35 37 C37.22763129 44.20554674 38.63372593 51.59186768 40 59 C40.18546387 59.98097656 40.37092773 60.96195312 40.56201172 61.97265625 C45.05800534 86.06647008 46.30862636 109.54993364 46 134 C40.06 134 34.12 134 28 134 C27.75354736 132.5766333 27.50709473 131.1532666 27.25317383 129.68676758 C27.08894928 128.73833984 26.92472473 127.78991211 26.75552368 126.81274414 C26.38438469 124.66896371 26.01335506 122.52516434 25.64242554 120.38134766 C24.61775373 114.45981819 23.59137774 108.53859287 22.56176758 102.61791992 C19.01305704 82.19138036 19.01305704 82.19138036 17.4296875 72.40625 C17.21139074 71.0744286 16.99289603 69.74263963 16.77416992 68.41088867 C16.39701475 66.09757614 16.02920373 63.78271029 15.6730957 61.46606445 C14.43760386 53.95339025 13.05091803 46.54243169 7 41.5 C3.92768985 39.82826339 3.92768985 39.82826339 0 39 C0 26.13 0 13.26 0 0 Z " fill="#64AFD8" transform="translate(376,330)"/>
<path d="M0 0 C17.79333289 -0.58316735 31.14136978 -0.53455727 45 12 C51.27114855 19.52537826 54.07908995 27.206028 54 37 C52.91827631 44.11604505 49.82468061 50.65398848 45 56 C44.37002609 56.35520721 43.74005219 56.71041443 43.09098816 57.0763855 C39.57323724 59.1337822 37.36735516 60.66992175 36.25386047 64.70153809 C35.97724033 68.10152006 35.94453169 71.42506818 36 74.8359375 C35.98912354 76.07042633 35.97824707 77.30491516 35.96704102 78.57681274 C35.94089554 82.51043077 35.96972345 86.44145123 36 90.375 C35.99636017 93.04566532 35.9802318 95.71607398 35.96484375 98.38671875 C35.93499755 104.92495308 35.95025233 111.46191288 36 118 C32.11934327 117.45270142 28.24393027 116.8949664 24.37890625 116.24609375 C23.19458008 116.04790039 23.19458008 116.04790039 21.98632812 115.84570312 C20.7865332 115.64364258 20.7865332 115.64364258 19.5625 115.4375 C18.73556641 115.29892578 17.90863281 115.16035156 17.05664062 115.01757812 C15.03763511 114.67913211 13.01879978 114.33967107 11 114 C12.485 113.505 12.485 113.505 14 113 C13.98889694 112.34711502 13.97779388 111.69423004 13.96635437 111.02156067 C13.85571437 104.22471805 13.78031298 97.42813132 13.7253418 90.63061523 C13.70020161 88.0940512 13.66608463 85.55755958 13.62280273 83.02124023 C13.56213339 79.37465549 13.53378426 75.72902868 13.51171875 72.08203125 C13.48591232 70.94852737 13.4601059 69.8150235 13.43351746 68.64717102 C13.43070323 60.74283897 13.43070323 60.74283897 16.41308594 56.85131836 C17.26676758 56.2403833 18.12044922 55.62944824 19 55 C26.38281367 48.30788615 30.19284013 41.45727899 31.4375 31.5 C31.30495475 24.39557434 27.46814655 17.84715033 22.9140625 12.59375 C16.21160468 6.29108791 8.79390332 3.24525191 0 1 C0 0.67 0 0.34 0 0 Z " fill="#C3C7CC" transform="translate(330,42)"/>
<path d="M0 0 C0 15.84 0 31.68 0 48 C-20.13 48 -40.26 48 -61 48 C-57.6430634 32.89378528 -49.48945717 21.27850085 -36.640625 12.64453125 C-26.3664304 6.23266194 -12.2034461 0 0 0 Z " fill="#64AFD7" transform="translate(167,305)"/>
<path d="M0 0 C5.28 0 10.56 0 16 0 C16 40.92 16 81.84 16 124 C10.72 124 5.44 124 0 124 C0 83.08 0 42.16 0 0 Z " fill="#666666" transform="translate(465,269)"/>
<path d="M0 0 C0 17.49 0 34.98 0 53 C-11.88 53 -23.76 53 -36 53 C-36 37.16 -36 21.32 -36 5 C-21.59803922 2.78431373 -21.59803922 2.78431373 -16.125 2.5 C-10.65072813 2.13637083 -5.35037568 0 0 0 Z " fill="#E3E4E4" transform="translate(203,300)"/>
<path d="M0 0 C4.58978038 -0.0992963 9.17892788 -0.17166748 13.76953125 -0.21972656 C15.32921244 -0.23977222 16.88881913 -0.26701657 18.44824219 -0.30175781 C20.69745314 -0.35059126 22.9456659 -0.37303815 25.1953125 -0.390625 C26.23161301 -0.42159271 26.23161301 -0.42159271 27.28884888 -0.45318604 C32.33407837 -0.45549475 35.1180243 0.84486989 39 4 C43.8359594 10.11748864 43.60609065 15.97259786 43.5 23.5625 C43.51546875 24.67302734 43.5309375 25.78355469 43.546875 26.92773438 C43.51754479 33.05408149 43.41064315 37.34677147 39 42 C34.41008564 45.67741073 30.94230944 46.5623622 25.1953125 46.390625 C24.4713327 46.38496521 23.74735291 46.37930542 23.00143433 46.37347412 C20.70859212 46.35123667 18.41736284 46.30106987 16.125 46.25 C14.56252271 46.22991841 13.00002071 46.21167055 11.4375 46.1953125 C7.6243867 46.15141416 3.81246598 46.08247971 0 46 C4.75 42 4.75 42 7 42 C9.67298527 35.40663634 10.21328461 30.31771163 10.25 23.25 C10.2809375 21.78433594 10.2809375 21.78433594 10.3125 20.2890625 C10.34427824 14.39419852 9.86917398 10.18819081 7 5 C5.0995533 3.15684329 5.0995533 3.15684329 3 2 C2.01 1.34 1.02 0.68 0 0 Z " fill="#666666" transform="translate(201,451)"/>
<path d="M0 0 C0.74900574 0.00141495 1.49801147 0.0028299 2.26971436 0.00428772 C4.65380912 0.00986966 7.03780878 0.0224188 9.421875 0.03515625 C11.04166531 0.04017359 12.66145709 0.04473609 14.28125 0.04882812 C18.24482812 0.05983317 22.20833545 0.07708534 26.171875 0.09765625 C26.171875 0.42765625 26.171875 0.75765625 26.171875 1.09765625 C24.7796875 1.49984375 24.7796875 1.49984375 23.359375 1.91015625 C19.59939657 3.31093253 17.94614412 4.54911801 16.171875 8.09765625 C15.44627856 17.29250952 16.19908409 24.84113192 19.296875 33.5859375 C20.171875 36.09765625 20.171875 36.09765625 20.171875 38.09765625 C15.72450758 38.19697901 11.27773787 38.26933628 6.82958984 38.31738281 C5.31840764 38.33742416 3.80730228 38.3646653 2.29638672 38.39941406 C0.11666857 38.44826734 -2.06201931 38.47069849 -4.2421875 38.48828125 C-5.5513916 38.50922852 -6.8605957 38.53017578 -8.20947266 38.55175781 C-13.56915026 37.87917649 -17.34099431 35.18823794 -20.640625 30.97265625 C-24.88873638 25.38942415 -24.52540641 19.95024943 -23.828125 13.09765625 C-22.1699529 8.34621244 -19.54663434 5.26197658 -15.265625 2.66015625 C-10.01741378 0.27460569 -5.73320857 -0.04092411 0 0 Z " fill="#FBC267" transform="translate(23.828125,351.90234375)"/>
<path d="M0 0 C4.26832981 -0.09965569 8.53602469 -0.17183391 12.80517578 -0.21972656 C14.25418917 -0.23971295 15.70312325 -0.26691197 17.15185547 -0.30175781 C32.15586355 -0.65333347 32.15586355 -0.65333347 39 4 C43.89596051 9.15364264 45.48406324 13.39388584 45.30859375 20.40234375 C44.72180415 25.34177521 42.97367084 29.19678255 39.28125 32.5703125 C34.24852619 36.30220516 30.4455887 37.12424299 24.14453125 37.09765625 C23.15207649 37.09553383 23.15207649 37.09553383 22.13957214 37.09336853 C20.03050172 37.08777996 17.92153823 37.07522965 15.8125 37.0625 C14.38086091 37.05748352 12.94922015 37.05292087 11.51757812 37.04882812 C8.01168412 37.0378143 4.5058525 37.02055755 1 37 C1.41572266 35.67935547 1.41572266 35.67935547 1.83984375 34.33203125 C2.20207031 33.17058594 2.56429687 32.00914062 2.9375 30.8125 C3.29714844 29.66394531 3.65679687 28.51539063 4.02734375 27.33203125 C6.1385811 20.09955951 7.43650571 12.76227686 4.6875 5.5625 C3.24778336 3.37626361 1.86816123 1.7949 0 0 Z " fill="#FBC268" transform="translate(244,353)"/>
<path d="M0 0 C2.375 1.5625 2.375 1.5625 4 4 C4.53299574 7.25127402 4.79220047 8.92371788 4 12 C2.61592273 13.92210138 1.16062616 15.47318896 -0.58984375 17.06640625 C-2.76050168 20.04279317 -2.90889807 22.34073904 -3 26 C-2.14826402 28.7206556 -0.87312263 31.16216904 0.4375 33.6875 C4.15937867 41.54783124 5.85398239 48.14310108 3.140625 56.71484375 C0.52759135 62.66575942 -3.26271054 67.77141125 -9 71 C-13.139022 71.2069511 -15.01970414 70.65353057 -18.4375 68.375 C-20.71102089 64.91924825 -20.67972651 63.07835908 -20 59 C-18.56957216 56.89983427 -17.04370186 55.04693903 -15.3125 53.1875 C-13.38676032 49.97793387 -13.62437669 47.68506235 -14 44 C-15.23252668 40.81366655 -15.23252668 40.81366655 -16.9375 37.75 C-20.53995316 30.30606834 -22.23001455 23.57993951 -20.0625 15.4375 C-17.74116145 9.4836965 -13.39926128 3.12694798 -7.93359375 -0.29296875 C-4.96915633 -1.37693476 -2.99277154 -0.8728917 0 0 Z " fill="#656565" transform="translate(127,190)"/>
<path d="M0 0 C3.48490596 2.50004123 4.78215063 4.05598606 5.75 8.25 C4.81160611 12.94196943 2.73250148 15.2297355 -0.46875 18.69140625 C-2.49584179 21.74755739 -2.46415297 23.38140936 -2 27 C-0.75983411 30.34149863 -0.75983411 30.34149863 0.9375 33.625 C4.3549092 40.55676617 6.1134082 46.22735037 5 54 C2.53753154 60.85912494 -0.49764615 67.35868184 -7 71 C-10.95294467 71.83502126 -13.99558524 71.62775923 -17.5 69.4375 C-19.66040714 65.9268384 -19.67890984 64.07345904 -19 60 C-17.56957216 57.89983427 -16.04370186 56.04693903 -14.3125 54.1875 C-12.38421729 50.97369548 -12.62602297 48.69253113 -13 45 C-14.2248105 41.60996016 -14.2248105 41.60996016 -15.9375 38.375 C-19.36647716 31.549471 -21.38074638 25.30312143 -19.38671875 17.64453125 C-16.31109166 8.90541464 -10.31886612 -1.21398425 0 0 Z " fill="#656565" transform="translate(83,231)"/>
<path d="M0 0 C2.64779912 0.23535992 5.29226245 0.48831121 7.9375 0.75 C8.65357422 0.811875 9.36964844 0.87375 10.10742188 0.9375 C18.73705701 1.81882444 26.31604998 3.95671764 35 6 C35 18.54 35 31.08 35 44 C23.03754981 42.29107854 12.8356719 36.60925846 5.40625 26.921875 C1.22448663 20.55197963 -0.3174021 14.76188318 -0.125 7.125 C-0.11146484 6.09246094 -0.11146484 6.09246094 -0.09765625 5.0390625 C-0.07432513 3.35922162 -0.03846326 1.67956254 0 0 Z " fill="#686767" transform="translate(331,154)"/>
<path d="M0 0 C1.8253125 0.0309375 1.8253125 0.0309375 3.6875 0.0625 C4.40531087 11.30820358 3.0042695 20.67377268 -4.5 29.4375 C-11.74243025 36.80989229 -19.38709448 41.17819412 -29.3125 44.0625 C-29.9725 44.0625 -30.6325 44.0625 -31.3125 44.0625 C-31.3125 31.5225 -31.3125 18.9825 -31.3125 6.0625 C-27.785625 5.258125 -24.25875 4.45375 -20.625 3.625 C-19.52196533 3.37306885 -18.41893066 3.1211377 -17.2824707 2.86157227 C-16.40163818 2.66104248 -15.52080566 2.4605127 -14.61328125 2.25390625 C-13.71778564 2.04967041 -12.82229004 1.84543457 -11.8996582 1.63500977 C-7.87504259 0.74440642 -4.13387962 -0.07006576 0 0 Z " fill="#828180" transform="translate(208.3125,153.9375)"/>
<path d="M0 0 C1.640625 1.9765625 1.640625 1.9765625 3.25 4.625 C6.516574 9.61343405 10.00291808 12.80705935 15 16 C12.83138098 24.21918588 6.26915143 30.21077322 -0.8125 34.6875 C-4.4422346 36.1820966 -5.32697786 36.05778785 -9 35 C-18.22706368 30.86534109 -27.70795472 25.65710188 -32 16 C-31.67 15.01 -31.34 14.02 -31 13 C-28.72827724 11.95566774 -26.53604667 11.08112569 -24.1875 10.25 C-17.79057355 7.86792908 -12.2530303 5.00401106 -6.48828125 1.3203125 C-4 0 -4 0 0 0 Z " fill="#ECA93C" transform="translate(325,283)"/>
<path d="M0 0 C1.4723451 0.23378644 2.9335822 0.53815179 4.38671875 0.87109375 C9.84705722 2.02846394 15.25576943 2.60243951 20.8125 3.0625 C22.63171882 3.21762719 24.45073924 3.37510255 26.26953125 3.53515625 C27.05948486 3.600979 27.84943848 3.66680176 28.66333008 3.73461914 C31.12914239 4.01466699 33.56652805 4.51330561 36 5 C36 13.25 36 21.5 36 30 C32.37 29.01 28.74 28.02 25 27 C22.08561034 26.27390636 19.17352211 25.56062901 16.25 24.875 C15.54746094 24.70613281 14.84492188 24.53726562 14.12109375 24.36328125 C13.42628906 24.19957031 12.73148437 24.03585937 12.015625 23.8671875 C11.41008789 23.72394043 10.80455078 23.58069336 10.18066406 23.43310547 C7.14272116 22.82973436 4.06615242 22.43802177 1 22 C1 37.51 1 53.02 1 69 C0.67 69 0.34 69 0 69 C-0.15359422 60.15126358 -0.3017759 51.30245819 -0.4429636 42.45351505 C-0.50868791 38.34501734 -0.57630739 34.23656871 -0.64819336 30.12817383 C-0.71744175 26.16659657 -0.78179646 22.20496781 -0.84269524 18.24325371 C-0.86685236 16.72849049 -0.89280114 15.21375478 -0.92053413 13.69905281 C-0.95894714 11.58465001 -0.99110482 9.47024078 -1.02172852 7.35571289 C-1.04171402 6.14992081 -1.06169952 4.94412872 -1.08229065 3.70179749 C-1 1 -1 1 0 0 Z " fill="#BEC6CD" transform="translate(340,300)"/>
<path d="M0 0 C2.70936465 2.00302244 4.6798057 3.61769418 5.46389771 7.00268555 C5.64525955 9.44238135 5.66682375 11.83506025 5.62890625 14.28125 C5.63131821 15.17235474 5.63373016 16.06345947 5.63621521 16.98156738 C5.63523803 18.86096661 5.62187511 20.74039507 5.59692383 22.61962891 C5.56260867 25.4909068 5.57627211 28.35910638 5.59570312 31.23046875 C5.58880438 33.05990889 5.57913173 34.88934111 5.56640625 36.71875 C5.57136612 37.57408325 5.57632599 38.4294165 5.58143616 39.31066895 C5.50217915 43.33616901 5.28828255 45.5184595 3.17944336 49.04101562 C1 51 1 51 -2.4375 51.625 C-6.99638975 50.82519478 -8.2009582 49.65772139 -11 46 C-11.71030249 42.97218796 -11.67820306 40.03647743 -11.62890625 36.9375 C-11.63131821 36.06859131 -11.63373016 35.19968262 -11.63621521 34.30444336 C-11.63523816 32.47212142 -11.62187845 30.63976945 -11.59692383 28.80761719 C-11.56260718 26.00874189 -11.57627272 23.2130245 -11.59570312 20.4140625 C-11.58880436 18.63019494 -11.57913169 16.84633551 -11.56640625 15.0625 C-11.57136612 14.22904053 -11.57632599 13.39558105 -11.58143616 12.53686523 C-11.50008253 8.50772678 -11.30239791 6.47548931 -9.08959961 2.99609375 C-6.06227233 0.10423397 -4.1614175 -0.58066291 0 0 Z " fill="#C3C7CC" transform="translate(326,72)"/>
<path d="M0 0 C2.05047939 1.79331473 2.89206988 3.25233753 3.28244019 5.95654297 C3.41515504 8.45511248 3.44188877 10.93539246 3.43359375 13.4375 C3.4388356 14.3545874 3.44407745 15.2716748 3.44947815 16.21655273 C3.45589406 18.15314726 3.45456693 20.08978078 3.44604492 22.02636719 C3.43752978 24.9896372 3.46631013 27.95098265 3.49804688 30.9140625 C3.49965887 32.79687442 3.49908139 34.67968976 3.49609375 36.5625 C3.51294472 37.89075806 3.51294472 37.89075806 3.53013611 39.24584961 C3.4609587 45.34920555 3.4609587 45.34920555 1.18774414 48.55859375 C-2.03516121 50.68202118 -4.23052374 50.53849661 -8 50 C-10.18334961 48.57226562 -10.18334961 48.57226562 -12 46 C-12.60894289 42.78414472 -12.584256 39.6092568 -12.56640625 36.34375 C-12.57260483 35.40446655 -12.57880341 34.46518311 -12.58518982 33.49743652 C-12.59228614 31.51376379 -12.58911726 29.53003148 -12.57641602 27.54638672 C-12.56254696 24.51027981 -12.59662685 21.47725297 -12.63476562 18.44140625 C-12.6357168 16.51302008 -12.63385808 14.58463005 -12.62890625 12.65625 C-12.64216446 11.74887085 -12.65542267 10.8414917 -12.66908264 9.90661621 C-12.57656329 3.64905215 -12.57656329 3.64905215 -9.68725586 0.39648438 C-5.99609139 -1.52170048 -3.94217682 -1.16805239 0 0 Z " fill="#C2C7CC" transform="translate(222,73)"/>
<path d="M0 0 C2.71968442 2.00490038 4.67842515 3.60784595 5.46243286 7.00195312 C5.64535554 9.44206949 5.66683196 11.83453005 5.62890625 14.28125 C5.63131821 15.17235474 5.63373016 16.06345947 5.63621521 16.98156738 C5.63523803 18.86096661 5.62187511 20.74039507 5.59692383 22.61962891 C5.56260867 25.4909068 5.57627211 28.35910638 5.59570312 31.23046875 C5.58880438 33.05990889 5.57913173 34.88934111 5.56640625 36.71875 C5.57136612 37.57408325 5.57632599 38.4294165 5.58143616 39.31066895 C5.50220997 43.33460329 5.28585877 45.52086674 3.18334961 49.04492188 C1 51 1 51 -2.5 51.5625 C-6 51 -6 51 -8.18554688 49.56835938 C-10.94492744 45.6624547 -10.572958 42.01774342 -10.53125 37.34375 C-10.5350769 36.40446655 -10.53890381 35.46518311 -10.54284668 34.49743652 C-10.54556576 32.51374234 -10.53820484 30.5300123 -10.52148438 28.54638672 C-10.50007461 25.51057984 -10.52128607 22.47713954 -10.546875 19.44140625 C-10.54423172 17.51301561 -10.53910675 15.58462644 -10.53125 13.65625 C-10.53934692 12.74887085 -10.54744385 11.8414917 -10.55578613 10.90661621 C-10.46260994 4.64237812 -10.46260994 4.64237812 -8.15039062 1.43164062 C-5.15355709 -0.56352648 -3.53159224 -0.6486598 0 0 Z " fill="#C2C7CC" transform="translate(273,56)"/>
<path d="M0 0 C2.3327033 1.60576785 3.89553258 3.16244008 4.65625 5.9296875 C4.8046875 8.03125 4.8046875 8.03125 4.1171875 11.96875 C1.69360726 14.73855599 0.17964456 15.78735489 -3.4453125 16.40625 C-5.8828125 15.96875 -5.8828125 15.96875 -7.66796875 14.46484375 C-11.84865981 11.64084961 -17.03011693 12.45278371 -21.8828125 12.96875 C-23.90518302 13.92269836 -25.9110821 14.91410351 -27.8828125 15.96875 C-31.32330401 15.85212317 -33.7933885 15.56617606 -36.8203125 13.90625 C-38.60138815 10.65840616 -38.7176259 7.49428429 -37.8828125 3.96875 C-28.35082573 -6.75473512 -11.92956979 -6.53403823 0 0 Z " fill="#6A6967" transform="translate(317.8828125,187.03125)"/>
<path d="M0 0 C2.3327033 1.60576785 3.89553258 3.16244008 4.65625 5.9296875 C4.8046875 8.03125 4.8046875 8.03125 4.1171875 11.96875 C1.69360726 14.73855599 0.17964456 15.78735489 -3.4453125 16.40625 C-5.8828125 15.96875 -5.8828125 15.96875 -7.59765625 14.46484375 C-10.75825704 12.39559571 -13.13607412 12.56993598 -16.8828125 12.59375 C-18.0996875 12.58601563 -19.3165625 12.57828125 -20.5703125 12.5703125 C-24.11387495 12.99654289 -25.20896003 13.76881887 -27.8828125 15.96875 C-31.27967068 15.84956199 -33.82281865 15.55003695 -36.8203125 13.90625 C-38.60138815 10.65840616 -38.7176259 7.49428429 -37.8828125 3.96875 C-28.35082573 -6.75473512 -11.92956979 -6.53403823 0 0 Z " fill="#6A6967" transform="translate(254.8828125,187.03125)"/>
<path d="M0 0 C1.6045556 0.14148989 3.20863767 0.28835686 4.8125 0.4375 C5.70582031 0.51871094 6.59914063 0.59992188 7.51953125 0.68359375 C10 1 10 1 13 2 C13 12.56 13 23.12 13 34 C6.20624152 28.3385346 6.20624152 28.3385346 4.25 25.0625 C3.66992188 24.12083984 3.66992188 24.12083984 3.078125 23.16015625 C0.4018072 17.79782384 -0.27458967 13.06255941 -0.125 7.125 C-0.11146484 6.09246094 -0.11146484 6.09246094 -0.09765625 5.0390625 C-0.07432513 3.35922162 -0.03846326 1.67956254 0 0 Z " fill="#818180" transform="translate(331,154)"/>
<path d="M0 0 C0.33 0 0.66 0 1 0 C1 6.27 1 12.54 1 19 C-9.125 19 -9.125 19 -13.0625 18 C-13.81660156 17.814375 -14.57070313 17.62875 -15.34765625 17.4375 C-16.16556641 17.2209375 -16.16556641 17.2209375 -17 17 C-14.47956964 14.37455171 -11.82890053 11.98350026 -9.0625 9.625 C-5.62802551 6.65828043 -2.83973918 3.52816081 0 0 Z " fill="#4C84C7" transform="translate(339,302)"/>
</svg>
