<?xml version="1.0" encoding="UTF-8"?>
<svg version="1.1" xmlns="http://www.w3.org/2000/svg" width="512" height="512">
<path d="M0 0 C74.58 0 149.16 0 226 0 C226 160.38 226 320.76 226 486 C223.03 486 220.06 486 217 486 C217 494.58 217 503.16 217 512 C211.06 512 205.12 512 199 512 C199 503.42 199 494.84 199 486 C142.24 486 85.48 486 27 486 C27 494.58 27 503.16 27 512 C20.73 512 14.46 512 8 512 C8 503.42 8 494.84 8 486 C5.36 486 2.72 486 0 486 C0 325.62 0 165.24 0 0 Z " fill="#E2584B" transform="translate(282,0)"/>
<path d="M0 0 C80.52 0 161.04 0 244 0 C244 100.32 244 200.64 244 304 C241.03 304 238.06 304 235 304 C235 312.58 235 321.16 235 330 C229.06 330 223.12 330 217 330 C217 321.42 217 312.84 217 304 C154.3 304 91.6 304 27 304 C27 312.58 27 321.16 27 330 C21.06 330 15.12 330 9 330 C9 321.42 9 312.84 9 304 C6.03 304 3.06 304 0 304 C0 203.68 0 103.36 0 0 Z " fill="#4397D0" transform="translate(4,182)"/>
<path d="M0 0 C80.52 0 161.04 0 244 0 C244 48.84 244 97.68 244 148 C163.48 148 82.96 148 0 148 C0 99.16 0 50.32 0 0 Z " fill="#FEA217" transform="translate(4,0)"/>
<path d="M0 0 C0.66128906 0.58136719 1.32257813 1.16273438 2.00390625 1.76171875 C2.73738281 2.35339844 3.47085938 2.94507813 4.2265625 3.5546875 C20.78850511 17.33263289 30.15864717 37.6748921 33.00390625 58.76171875 C34.39606635 80.12088748 29.82343783 101.35247833 17.00390625 118.76171875 C16.33617187 119.674375 15.6684375 120.58703125 14.98046875 121.52734375 C4.09957661 135.59001302 -11.02703259 146.29038594 -27.99609375 151.76171875 C-28.88554687 152.05949219 -29.775 152.35726562 -30.69140625 152.6640625 C-52.80462263 158.92851153 -77.553283 154.89686772 -97.49487305 144.12451172 C-118.74142321 131.97165265 -132.20222552 112.13279317 -138.76269531 88.86206055 C-144.61986581 66.32662324 -140.69017915 43.71867267 -129.18359375 23.63671875 C-116.59302049 3.52408506 -98.22548137 -10.01685195 -75.53515625 -16.73046875 C-49.28415609 -21.98066878 -20.86368765 -17.61734536 0 0 Z " fill="#D4D8DA" transform="translate(179.99609375,296.23828125)"/>
<path d="M0 0 C26.07 0 52.14 0 79 0 C79 48.84 79 97.68 79 148 C52.93 148 26.86 148 0 148 C0 99.16 0 50.32 0 0 Z " fill="#FEA117" transform="translate(169,0)"/>
<path d="M0 0 C0.85078125 -0.00773437 1.7015625 -0.01546875 2.578125 -0.0234375 C8.06786275 -0.00659781 12.73169888 0.70278314 18 2.25 C18.93585938 2.52199219 19.87171875 2.79398437 20.8359375 3.07421875 C30.20040295 6.258137 37.08397202 11.25875108 44 18.25 C43.52578613 18.59591187 43.05157227 18.94182373 42.56298828 19.29821777 C35.16739591 24.9400526 28.23355383 30.79235792 26.421875 40.28125 C25.77736285 45.93355314 25.74953738 51.54051428 25.9140625 57.22216797 C26.00010491 60.75430675 25.91475249 64.25400415 25.8125 67.78515625 C25.76699159 78.55017018 26.25751706 86.65983537 33.86767578 94.77770996 C37.09175648 97.81785138 40.41980191 100.63845047 44 103.25 C31.48799301 115.88619565 17.58445421 121.41744329 -0.125 121.5625 C-16.81946497 121.57697915 -30.61254354 115.18956185 -42.6875 103.67578125 C-55.54101394 90.19261882 -60.71905741 74.10641472 -60.34375 55.58984375 C-59.43827928 38.83486263 -50.19305252 24.63102737 -38.13671875 13.53515625 C-27.03412345 4.57224741 -14.15842347 -0.12871294 0 0 Z " fill="#86CDD8" transform="translate(125,303.75)"/>
<path d="M0 0 C34.32 0 68.64 0 104 0 C104 25.74 104 51.48 104 78 C69.68 78 35.36 78 0 78 C0 52.26 0 26.52 0 0 Z " fill="#87CDD8" transform="translate(39,35)"/>
<path d="M0 0 C5.61 0 11.22 0 17 0 C17 34.32 17 68.64 17 104 C68.81 104 120.62 104 174 104 C174 109.94 174 115.88 174 122 C99.42 122 24.84 122 -52 122 C-52 116.06 -52 110.12 -52 104 C-40.45 104 -28.9 104 -17 104 C-17 98.39 -17 92.78 -17 87 C-11.39 87 -5.78 87 0 87 C0 58.29 0 29.58 0 0 Z " fill="#CD4E42" transform="translate(334,52)"/>
<path d="M0 0 C5.54105761 0.53504108 10.47110163 1.56540927 15.6875 3.5625 C16.37739014 3.82571045 17.06728027 4.0889209 17.77807617 4.36010742 C42.37280227 14.13852875 60.08992053 33.75858136 70.68359375 57.6015625 C79.81310014 81.17031786 79.76449179 107.87240833 69.5625 131.125 C68.72913648 132.76076616 67.87521549 134.38623932 67 136 C66.56042969 136.89460937 66.12085938 137.78921875 65.66796875 138.7109375 C61.99578902 145.93390258 57.37494902 151.95880939 52 158 C50.98486328 159.15822266 50.98486328 159.15822266 49.94921875 160.33984375 C33.3371445 178.14072934 8.76243725 187.80072565 -15.24609375 189.1875 C-40.20877966 189.66697536 -64.63946001 180.99389786 -83 164 C-83.77601562 163.30390625 -84.55203125 162.6078125 -85.3515625 161.890625 C-99.08635026 148.95821316 -107.39282959 132.10251028 -112 114 C-112 112.68 -112 111.36 -112 110 C-111.01 110.33 -110.02 110.66 -109 111 C-107.9296875 113.44921875 -107.9296875 113.44921875 -106.875 116.6875 C-98.92564408 138.35246106 -82.5081124 153.49752725 -61.9375 163.23828125 C-42.69252398 172.02626085 -18.94694391 173.3344433 1 166 C2.76537109 165.36384766 2.76537109 165.36384766 4.56640625 164.71484375 C13.32637554 161.26278121 20.56406431 156.69957604 28 151 C28.81210938 150.38511719 29.62421875 149.77023437 30.4609375 149.13671875 C46.83982262 135.71752691 56.73291929 113.77386197 59 93 C60.50190739 67.86151727 53.57039227 45.64627919 37.125 26.25 C26.83167256 15.17868851 13.868291 7.73860317 0 2 C0 1.34 0 0.68 0 0 Z " fill="#3F8DC2" transform="translate(153,280)"/>
<path d="M0 0 C0.85078125 -0.00773437 1.7015625 -0.01546875 2.578125 -0.0234375 C8.06786275 -0.00659781 12.73169888 0.70278314 18 2.25 C18.93585938 2.52199219 19.87171875 2.79398437 20.8359375 3.07421875 C30.15559222 6.24290136 37.16719526 11.21196967 44 18.25 C42.26461877 20.12002288 40.5140665 21.96988092 38.75 23.8125 C38.25886719 24.34552734 37.76773438 24.87855469 37.26171875 25.42773438 C35.796875 26.94140625 35.796875 26.94140625 33 29.25 C29.67216331 29.27465064 27.6010379 27.38335222 25 25.4375 C15.44554617 18.96915034 5.42408451 16.98496013 -6 18.25 C-19.46537603 21.14123876 -28.90484375 28.46762288 -36.5703125 39.67578125 C-40.39968379 46.57074213 -41.55573352 52.63299923 -41.5 60.5 C-41.49500488 61.42441895 -41.49000977 62.34883789 -41.48486328 63.30126953 C-41.19992561 74.50816309 -37.58510133 82.13570555 -30 90.25 C-30 90.91 -30 91.57 -30 92.25 C-29.43539062 92.51941406 -28.87078125 92.78882813 -28.2890625 93.06640625 C-25.88246577 94.31077282 -23.65641399 95.72724642 -21.375 97.1875 C-11.29158345 103.2081093 -1.23081687 104.85414992 10.3671875 102.59375 C17.22066444 100.72315394 22.38100487 98.039566 27.87890625 93.54296875 C30 92.25 30 92.25 31.94921875 92.234375 C34.96638162 93.72858899 36.92424863 95.89494265 39.25 98.3125 C40.58804688 99.69115234 40.58804688 99.69115234 41.953125 101.09765625 C42.62859375 101.80792969 43.3040625 102.51820313 44 103.25 C32.38403726 115.19317295 18.96102249 121.15281453 2.28930664 121.54272461 C-15.44826525 121.68801163 -29.71886485 116.0417074 -42.6875 103.67578125 C-55.54101394 90.19261882 -60.71905741 74.10641472 -60.34375 55.58984375 C-59.43827928 38.83486263 -50.19305252 24.63102737 -38.13671875 13.53515625 C-27.03412345 4.57224741 -14.15842347 -0.12871294 0 0 Z " fill="#72C4D1" transform="translate(125,303.75)"/>
<path d="M0 0 C80.52 0 161.04 0 244 0 C244 5.61 244 11.22 244 17 C163.48 17 82.96 17 0 17 C0 11.39 0 5.78 0 0 Z " fill="#2D81BA" transform="translate(4,243)"/>
<path d="M0 0 C5.94 0 11.88 0 18 0 C18 48.84 18 97.68 18 148 C12.06 148 6.12 148 0 148 C0 99.16 0 50.32 0 0 Z " fill="#EB8B22" transform="translate(169,0)"/>
<path d="M0 0 C5.61 0 11.22 0 17 0 C17 45.87 17 91.74 17 139 C5.78 139 -5.44 139 -17 139 C-17 133.39 -17 127.78 -17 122 C-11.39 122 -5.78 122 0 122 C0 81.74 0 41.48 0 0 Z " fill="#CF4E42" transform="translate(334,191)"/>
<path d="M0 0 C5.61 0 11.22 0 17 0 C17 39.93 17 79.86 17 121 C11.39 121 5.78 121 0 121 C0 81.07 0 41.14 0 0 Z " fill="#D6D9DB" transform="translate(317,191)"/>
<path d="M0 0 C34.32 0 68.64 0 104 0 C104 5.61 104 11.22 104 17 C69.68 17 35.36 17 0 17 C0 11.39 0 5.78 0 0 Z " fill="#71C4D1" transform="translate(39,35)"/>
<path d="M0 0 C5.61 0 11.22 0 17 0 C17 28.71 17 57.42 17 87 C11.39 87 5.78 87 0 87 C0 58.29 0 29.58 0 0 Z " fill="#D6D8DA" transform="translate(317,52)"/>
<path d="M0 0 C17.16 0 34.32 0 52 0 C52 5.94 52 11.88 52 18 C34.84 18 17.68 18 0 18 C0 12.06 0 6.12 0 0 Z " fill="#2D81BA" transform="translate(169,208)"/>
<path d="M0 0 C4.09550274 2.08498321 6.3008496 3.75977783 8 8 C8.6359083 12.05642561 8.92954126 16.18535769 7.01953125 19.9140625 C3.62407971 24.15576504 0.90852208 25.78794199 -4.375 26.375 C-9.6151217 25.83291844 -12.48600311 23.7663297 -15.875 19.8125 C-17.48942639 15.77643403 -17.92637226 12.27444209 -17 8 C-12.68217199 0.89605055 -8.1239815 -0.99672378 0 0 Z " fill="#EB8B22" transform="translate(217,100)"/>
<path d="M0 0 C6.27 0 12.54 0 19 0 C19 8.58 19 17.16 19 26 C12.73 26 6.46 26 0 26 C0 17.42 0 8.84 0 0 Z " fill="#0A4979" transform="translate(290,486)"/>
<path d="M0 0 C5.94 0 11.88 0 18 0 C18 8.58 18 17.16 18 26 C12.06 26 6.12 26 0 26 C0 17.42 0 8.84 0 0 Z " fill="#0A4A79" transform="translate(481,486)"/>
<path d="M0 0 C5.94 0 11.88 0 18 0 C18 8.58 18 17.16 18 26 C12.06 26 6.12 26 0 26 C0 17.42 0 8.84 0 0 Z " fill="#094A7A" transform="translate(221,486)"/>
<path d="M0 0 C5.94 0 11.88 0 18 0 C18 8.58 18 17.16 18 26 C12.06 26 6.12 26 0 26 C0 17.42 0 8.84 0 0 Z " fill="#0A4A79" transform="translate(13,486)"/>
<path d="M0 0 C5.94 0 11.88 0 18 0 C18 5.94 18 11.88 18 18 C12.06 18 6.12 18 0 18 C0 12.06 0 6.12 0 0 Z " fill="#2E82BB" transform="translate(65,208)"/>
<path d="M0 0 C5.94 0 11.88 0 18 0 C18 5.94 18 11.88 18 18 C12.06 18 6.12 18 0 18 C0 12.06 0 6.12 0 0 Z " fill="#2E82BB" transform="translate(30,208)"/>
<path d="M0 0 C5.61 0 11.22 0 17 0 C17 5.94 17 11.88 17 18 C11.39 18 5.78 18 0 18 C0 12.06 0 6.12 0 0 Z " fill="#2D81BA" transform="translate(100,208)"/>
<path d="M0 0 C5.61 0 11.22 0 17 0 C17 5.61 17 11.22 17 17 C11.39 17 5.78 17 0 17 C0 11.39 0 5.78 0 0 Z " fill="#EB8B23" transform="translate(204,61)"/>
<path d="M0 0 C5.61 0 11.22 0 17 0 C17 5.61 17 11.22 17 17 C11.39 17 5.78 17 0 17 C0 11.39 0 5.78 0 0 Z " fill="#EB8B23" transform="translate(204,26)"/>
</svg>
