<?xml version="1.0" encoding="UTF-8"?>
<svg version="1.1" xmlns="http://www.w3.org/2000/svg" width="512" height="512">
<path d="M0 0 C6.72807183 2.08264984 11.54232334 12.03743443 15.25390625 17.63964844 C19.37390629 23.76487392 23.58543136 29.7732118 28.06640625 35.63964844 C33.01030249 42.12162759 37.62940019 48.78436538 42.18676758 55.54248047 C46.34935833 61.68178362 50.72289918 67.62923759 55.28515625 73.47753906 C55.98705078 74.38922852 55.98705078 74.38922852 56.703125 75.31933594 C57.11264404 75.84253418 57.52216309 76.36573242 57.9440918 76.90478516 C59.06640625 78.63964844 59.06640625 78.63964844 61.06640625 83.63964844 C77.56640625 83.63964844 94.06640625 83.63964844 111.06640625 83.63964844 C111.72640625 81.98964844 112.38640625 80.33964844 113.06640625 78.63964844 C114.1887207 76.90478516 114.1887207 76.90478516 115.4296875 75.31933594 C115.89761719 74.71154297 116.36554688 74.10375 116.84765625 73.47753906 C117.35296875 72.82978516 117.85828125 72.18203125 118.37890625 71.51464844 C122.9750773 65.5150237 127.34097946 59.40552918 131.56640625 53.13964844 C136.04246668 46.51441341 140.6830453 40.06910254 145.53588867 33.71582031 C150.07426701 27.73154054 154.29184563 21.54452341 158.43945312 15.28417969 C167.78329929 1.34637578 167.78329929 1.34637578 172.1328125 0 C175.44209747 -0.17216814 177.74292177 0.44555775 180.56640625 2.13964844 C182.65892934 5.62718692 182.77797735 8.72298128 182.06640625 12.63964844 C180.53749488 15.72394582 178.5064889 18.31912853 176.37890625 21.01464844 C175.18048572 22.60020523 173.98258379 24.1861541 172.78515625 25.77246094 C172.16769531 26.5771582 171.55023438 27.38185547 170.9140625 28.2109375 C167.9936785 32.04972979 165.18983581 35.97041431 162.37890625 39.88964844 C161.29199731 41.39509554 160.20476377 42.90030836 159.1171875 44.40527344 C156.0274029 48.68921024 152.95659796 52.98646518 149.8918457 57.28833008 C145.7412 63.10868846 141.54988427 68.89960857 137.35546875 74.68847656 C136.56269531 75.78385742 136.56269531 75.78385742 135.75390625 76.90136719 C135.04814453 77.87529419 135.04814453 77.87529419 134.328125 78.86889648 C133.21025408 80.43776603 132.1349764 82.03679321 131.06640625 83.63964844 C132.03474396 83.663909 132.03474396 83.663909 133.02264404 83.68865967 C166.52389666 84.53805703 199.99698936 85.69585374 233.46376038 87.45100403 C235.83322376 87.57476242 238.20278783 87.69639079 240.5723877 87.81750488 C251.07483192 88.35718012 261.57213266 88.95901029 272.06640625 89.63964844 C272.87023491 89.69144508 273.67406357 89.74324173 274.50225067 89.79660797 C279.46600625 90.11976245 284.42735544 90.46654691 289.38745689 90.84170723 C290.94956889 90.9578704 292.5120885 91.06869919 294.07499123 91.17368889 C305.71397742 91.96516494 315.96612868 93.52683617 324.06640625 102.63964844 C329.68972936 110.79346694 330.2752488 121.20185386 331.25 130.78808594 C331.35012894 131.74241516 331.45025787 132.69674438 331.55342102 133.67999268 C331.87672999 136.79091865 332.19127062 139.9026327 332.50390625 143.01464844 C332.61279175 144.08656433 332.72167725 145.15848022 332.8338623 146.26287842 C334.41558743 161.91349504 335.76040199 177.56982637 336.81640625 193.26464844 C336.87520966 194.13289246 336.93401306 195.00113647 336.99459839 195.89569092 C337.33352291 200.96813841 337.64334795 206.0415646 337.92538452 211.11749268 C338.01779928 212.77031901 338.11356368 214.42296224 338.21304321 216.07537842 C339.34254354 235.13081366 339.25380803 254.21157876 339.25170898 273.29296875 C339.25162844 277.07524471 339.25847034 280.8573977 339.2722168 284.63964844 C339.39685143 319.54175807 338.2523367 354.29931982 335.19140625 389.07714844 C335.10681152 390.05942413 335.0222168 391.04169983 334.93505859 392.05374146 C333.84524601 404.67946788 332.69539077 417.30232012 331.30560303 429.8989563 C331.14900654 431.32496732 330.99669844 432.75145737 330.84918213 434.17843628 C329.62533114 445.86105074 327.24721443 455.69851885 318.06640625 463.63964844 C310.96459871 467.8544433 303.84309976 468.76118257 295.75390625 469.20214844 C295.01333984 469.24533203 294.27277344 469.28851563 293.50976562 469.33300781 C291.69549161 469.43835276 289.88097075 469.5394316 288.06640625 469.63964844 C288.13746582 470.50654297 288.20852539 471.3734375 288.28173828 472.26660156 C288.54183385 475.51627643 288.7901312 478.76642599 289.03076172 482.01757812 C289.13680097 483.41832757 289.24738595 484.81874124 289.36279297 486.21875 C290.57819424 501.03607679 290.57819424 501.03607679 288.06640625 507.63964844 C284.38772705 511.22636066 281.52245739 512.82503227 276.44140625 513.13964844 C275.62414062 513.21183594 274.806875 513.28402344 273.96484375 513.35839844 C266.98702072 511.62804879 262.92238119 505.54715372 258.8600769 500.00486755 C250.17858823 488.2944957 239.94162172 474.62526886 224.66845703 472.33496094 C211.72613178 471.26801175 198.76756804 472.85284659 185.92625427 474.41592407 C168.0534462 476.51363006 150.04151068 476.45516633 132.06640625 476.63964844 C131.1671064 476.64900547 130.26780655 476.6583625 129.34125519 476.66800308 C116.46604202 476.79617409 103.59126781 476.8341541 90.71547318 476.82832718 C87.75903463 476.82712511 84.80259955 476.82768924 81.84616089 476.82833862 C50.83200659 476.82688236 19.8520337 476.36777515 -11.1438446 475.30253601 C-13.69933424 475.21839933 -16.25521466 475.14529602 -18.81135559 475.08406067 C-25.13406514 474.9134241 -31.30101243 474.51360192 -37.57397461 473.68652344 C-51.82299475 471.88007087 -51.82299475 471.88007087 -64.7355957 477.10766602 C-70.27619772 481.73222635 -74.93582036 487.04841586 -79.62109375 492.51464844 C-81.29527288 494.34831182 -82.97689404 496.1752091 -84.66601562 497.99511719 C-88.33093888 501.96043798 -91.91826519 505.98194382 -95.44560242 510.07003784 C-97.32397694 512.05144492 -98.4189553 512.59228348 -101.140625 512.84277344 C-109.97124056 513.00164508 -109.97124056 513.00164508 -113.93359375 509.63964844 C-117.25755337 506.31568882 -117.45045479 503.22048882 -117.93359375 498.63964844 C-117.88606709 496.2949446 -117.77043818 493.95082477 -117.59375 491.61230469 C-117.50029297 490.32646484 -117.40683594 489.040625 -117.31054688 487.71582031 C-117.20589266 486.37791689 -117.10107293 485.0400264 -116.99609375 483.70214844 C-116.89449494 482.33696504 -116.79357731 480.97173077 -116.69335938 479.60644531 C-116.44678919 476.28361853 -116.1933245 472.96146809 -115.93359375 469.63964844 C-116.97257812 469.60226562 -118.0115625 469.56488281 -119.08203125 469.52636719 C-131.41287459 468.98606013 -142.24010756 467.94376561 -151.12109375 458.38964844 C-156.13467509 452.80979483 -157.39628649 445.36947181 -158.1796875 438.16699219 C-158.27566727 437.35116165 -158.37164703 436.53533112 -158.47053528 435.69477844 C-158.78331118 432.99016076 -159.07844373 430.28401345 -159.37109375 427.57714844 C-159.52825867 426.16544373 -159.52825867 426.16544373 -159.68859863 424.72521973 C-161.56324828 407.80959574 -162.95256 390.86306316 -164.18359375 373.88964844 C-164.26640594 372.75389374 -164.34921814 371.61813904 -164.43453979 370.44796753 C-164.98226884 362.84794328 -165.48158124 355.24596186 -165.93359375 347.63964844 C-166.01681381 346.25928909 -166.01681381 346.25928909 -166.10171509 344.8510437 C-167.21441529 325.55659045 -167.1209749 306.2302596 -167.11889648 286.91088867 C-167.11881589 283.13544861 -167.12566624 279.36013162 -167.1394043 275.5847168 C-167.26411181 240.70110961 -166.11789948 205.96151721 -163.05859375 171.20214844 C-162.97399902 170.21987274 -162.8894043 169.23759705 -162.80224609 168.22555542 C-161.71243351 155.59982899 -160.56257827 142.97697676 -159.17279053 130.38034058 C-159.01619404 128.95432956 -158.86388594 127.52783951 -158.71636963 126.1008606 C-157.56365273 115.09727666 -155.4988738 105.27089563 -146.93359375 97.63964844 C-137.79306817 91.21114693 -125.51477758 91.29215975 -114.7734375 90.63964844 C-113.52782043 90.55907196 -112.28220337 90.47849548 -110.99884033 90.39547729 C-107.65087833 90.18086168 -104.30266784 89.97225446 -100.95409775 89.76747894 C-98.8511832 89.63842656 -96.74840717 89.50730557 -94.6456604 89.37554932 C-49.42910714 86.54469983 -4.21602911 84.93426352 41.06640625 83.63964844 C40.70401855 83.13888794 40.34163086 82.63812744 39.96826172 82.12219238 C38.29213934 79.80545849 36.61676978 77.48818115 34.94140625 75.17089844 C34.37164062 74.38360352 33.801875 73.59630859 33.21484375 72.78515625 C29.46316646 67.59462545 25.74895583 62.37942014 22.06640625 57.13964844 C17.95681692 51.30048187 13.81080044 45.4897647 9.62890625 39.70214844 C9.09821533 38.96303223 8.56752441 38.22391602 8.02075195 37.46240234 C5.18694352 33.52525109 2.30845685 29.63292291 -0.64453125 25.78417969 C-1.54860718 24.58619751 -1.54860718 24.58619751 -2.47094727 23.36401367 C-3.62253289 21.83991678 -4.78893754 20.32686206 -5.97241211 18.82739258 C-9.68477434 13.8716279 -10.70001069 10.83762888 -9.93359375 4.63964844 C-7.54845029 0.66440934 -4.62735874 -0.24074196 0 0 Z " fill="#9372B8" transform="translate(169.93359375,-0.6396484375)"/>
<path d="M0 0 C6.72807183 2.08264984 11.54232334 12.03743443 15.25390625 17.63964844 C19.37390629 23.76487392 23.58543136 29.7732118 28.06640625 35.63964844 C33.01030249 42.12162759 37.62940019 48.78436538 42.18676758 55.54248047 C46.34935833 61.68178362 50.72289918 67.62923759 55.28515625 73.47753906 C55.98705078 74.38922852 55.98705078 74.38922852 56.703125 75.31933594 C57.11264404 75.84253418 57.52216309 76.36573242 57.9440918 76.90478516 C59.06640625 78.63964844 59.06640625 78.63964844 61.06640625 83.63964844 C77.56640625 83.63964844 94.06640625 83.63964844 111.06640625 83.63964844 C111.72640625 81.98964844 112.38640625 80.33964844 113.06640625 78.63964844 C114.1887207 76.90478516 114.1887207 76.90478516 115.4296875 75.31933594 C115.89761719 74.71154297 116.36554688 74.10375 116.84765625 73.47753906 C117.35296875 72.82978516 117.85828125 72.18203125 118.37890625 71.51464844 C122.9750773 65.5150237 127.34097946 59.40552918 131.56640625 53.13964844 C136.04246668 46.51441341 140.6830453 40.06910254 145.53588867 33.71582031 C150.07426701 27.73154054 154.29184563 21.54452341 158.43945312 15.28417969 C167.78329929 1.34637578 167.78329929 1.34637578 172.1328125 0 C175.44209747 -0.17216814 177.74292177 0.44555775 180.56640625 2.13964844 C182.65892934 5.62718692 182.77797735 8.72298128 182.06640625 12.63964844 C180.53749488 15.72394582 178.5064889 18.31912853 176.37890625 21.01464844 C175.18048572 22.60020523 173.98258379 24.1861541 172.78515625 25.77246094 C172.16769531 26.5771582 171.55023438 27.38185547 170.9140625 28.2109375 C167.9936785 32.04972979 165.18983581 35.97041431 162.37890625 39.88964844 C161.29199731 41.39509554 160.20476377 42.90030836 159.1171875 44.40527344 C156.0274029 48.68921024 152.95659796 52.98646518 149.8918457 57.28833008 C145.7412 63.10868846 141.54988427 68.89960857 137.35546875 74.68847656 C136.56269531 75.78385742 136.56269531 75.78385742 135.75390625 76.90136719 C135.04814453 77.87529419 135.04814453 77.87529419 134.328125 78.86889648 C133.21025408 80.43776603 132.1349764 82.03679321 131.06640625 83.63964844 C132.03474396 83.663909 132.03474396 83.663909 133.02264404 83.68865967 C166.52389666 84.53805703 199.99698936 85.69585374 233.46376038 87.45100403 C235.83322376 87.57476242 238.20278783 87.69639079 240.5723877 87.81750488 C251.07483192 88.35718012 261.57213266 88.95901029 272.06640625 89.63964844 C272.87023491 89.69144508 273.67406357 89.74324173 274.50225067 89.79660797 C279.46600625 90.11976245 284.42735544 90.46654691 289.38745689 90.84170723 C290.94956889 90.9578704 292.5120885 91.06869919 294.07499123 91.17368889 C305.71397742 91.96516494 315.96612868 93.52683617 324.06640625 102.63964844 C329.68972936 110.79346694 330.2752488 121.20185386 331.25 130.78808594 C331.35012894 131.74241516 331.45025787 132.69674438 331.55342102 133.67999268 C331.87672999 136.79091865 332.19127062 139.9026327 332.50390625 143.01464844 C332.61279175 144.08656433 332.72167725 145.15848022 332.8338623 146.26287842 C334.41558743 161.91349504 335.76040199 177.56982637 336.81640625 193.26464844 C336.87520966 194.13289246 336.93401306 195.00113647 336.99459839 195.89569092 C337.33352291 200.96813841 337.64334795 206.0415646 337.92538452 211.11749268 C338.01779928 212.77031901 338.11356368 214.42296224 338.21304321 216.07537842 C339.34254354 235.13081366 339.25380803 254.21157876 339.25170898 273.29296875 C339.25162844 277.07524471 339.25847034 280.8573977 339.2722168 284.63964844 C339.39685143 319.54175807 338.2523367 354.29931982 335.19140625 389.07714844 C335.10681152 390.05942413 335.0222168 391.04169983 334.93505859 392.05374146 C333.84524601 404.67946788 332.69539077 417.30232012 331.30560303 429.8989563 C331.14900654 431.32496732 330.99669844 432.75145737 330.84918213 434.17843628 C329.62533114 445.86105074 327.24721443 455.69851885 318.06640625 463.63964844 C310.96459871 467.8544433 303.84309976 468.76118257 295.75390625 469.20214844 C295.01333984 469.24533203 294.27277344 469.28851563 293.50976562 469.33300781 C291.69549161 469.43835276 289.88097075 469.5394316 288.06640625 469.63964844 C288.13746582 470.50654297 288.20852539 471.3734375 288.28173828 472.26660156 C288.54183385 475.51627643 288.7901312 478.76642599 289.03076172 482.01757812 C289.13680097 483.41832757 289.24738595 484.81874124 289.36279297 486.21875 C290.57819424 501.03607679 290.57819424 501.03607679 288.06640625 507.63964844 C284.38772705 511.22636066 281.52245739 512.82503227 276.44140625 513.13964844 C275.62414062 513.21183594 274.806875 513.28402344 273.96484375 513.35839844 C266.98702072 511.62804879 262.92238119 505.54715372 258.8600769 500.00486755 C250.17858823 488.2944957 239.94162172 474.62526886 224.66845703 472.33496094 C211.72613178 471.26801175 198.76756804 472.85284659 185.92625427 474.41592407 C168.0534462 476.51363006 150.04151068 476.45516633 132.06640625 476.63964844 C131.1671064 476.64900547 130.26780655 476.6583625 129.34125519 476.66800308 C116.46604202 476.79617409 103.59126781 476.8341541 90.71547318 476.82832718 C87.75903463 476.82712511 84.80259955 476.82768924 81.84616089 476.82833862 C50.83200659 476.82688236 19.8520337 476.36777515 -11.1438446 475.30253601 C-13.69933424 475.21839933 -16.25521466 475.14529602 -18.81135559 475.08406067 C-25.13406514 474.9134241 -31.30101243 474.51360192 -37.57397461 473.68652344 C-51.82299475 471.88007087 -51.82299475 471.88007087 -64.7355957 477.10766602 C-70.27619772 481.73222635 -74.93582036 487.04841586 -79.62109375 492.51464844 C-81.29527288 494.34831182 -82.97689404 496.1752091 -84.66601562 497.99511719 C-88.33093888 501.96043798 -91.91826519 505.98194382 -95.44560242 510.07003784 C-97.32397694 512.05144492 -98.4189553 512.59228348 -101.140625 512.84277344 C-109.97124056 513.00164508 -109.97124056 513.00164508 -113.93359375 509.63964844 C-117.25755337 506.31568882 -117.45045479 503.22048882 -117.93359375 498.63964844 C-117.88606709 496.2949446 -117.77043818 493.95082477 -117.59375 491.61230469 C-117.50029297 490.32646484 -117.40683594 489.040625 -117.31054688 487.71582031 C-117.20589266 486.37791689 -117.10107293 485.0400264 -116.99609375 483.70214844 C-116.89449494 482.33696504 -116.79357731 480.97173077 -116.69335938 479.60644531 C-116.44678919 476.28361853 -116.1933245 472.96146809 -115.93359375 469.63964844 C-116.97257812 469.60226562 -118.0115625 469.56488281 -119.08203125 469.52636719 C-131.41287459 468.98606013 -142.24010756 467.94376561 -151.12109375 458.38964844 C-156.13467509 452.80979483 -157.39628649 445.36947181 -158.1796875 438.16699219 C-158.27566727 437.35116165 -158.37164703 436.53533112 -158.47053528 435.69477844 C-158.78331118 432.99016076 -159.07844373 430.28401345 -159.37109375 427.57714844 C-159.52825867 426.16544373 -159.52825867 426.16544373 -159.68859863 424.72521973 C-161.56324828 407.80959574 -162.95256 390.86306316 -164.18359375 373.88964844 C-164.26640594 372.75389374 -164.34921814 371.61813904 -164.43453979 370.44796753 C-164.98226884 362.84794328 -165.48158124 355.24596186 -165.93359375 347.63964844 C-166.01681381 346.25928909 -166.01681381 346.25928909 -166.10171509 344.8510437 C-167.21441529 325.55659045 -167.1209749 306.2302596 -167.11889648 286.91088867 C-167.11881589 283.13544861 -167.12566624 279.36013162 -167.1394043 275.5847168 C-167.26411181 240.70110961 -166.11789948 205.96151721 -163.05859375 171.20214844 C-162.97399902 170.21987274 -162.8894043 169.23759705 -162.80224609 168.22555542 C-161.71243351 155.59982899 -160.56257827 142.97697676 -159.17279053 130.38034058 C-159.01619404 128.95432956 -158.86388594 127.52783951 -158.71636963 126.1008606 C-157.56365273 115.09727666 -155.4988738 105.27089563 -146.93359375 97.63964844 C-137.79306817 91.21114693 -125.51477758 91.29215975 -114.7734375 90.63964844 C-113.52782043 90.55907196 -112.28220337 90.47849548 -110.99884033 90.39547729 C-107.65087833 90.18086168 -104.30266784 89.97225446 -100.95409775 89.76747894 C-98.8511832 89.63842656 -96.74840717 89.50730557 -94.6456604 89.37554932 C-49.42910714 86.54469983 -4.21602911 84.93426352 41.06640625 83.63964844 C40.70401855 83.13888794 40.34163086 82.63812744 39.96826172 82.12219238 C38.29213934 79.80545849 36.61676978 77.48818115 34.94140625 75.17089844 C34.37164062 74.38360352 33.801875 73.59630859 33.21484375 72.78515625 C29.46316646 67.59462545 25.74895583 62.37942014 22.06640625 57.13964844 C17.95681692 51.30048187 13.81080044 45.4897647 9.62890625 39.70214844 C9.09821533 38.96303223 8.56752441 38.22391602 8.02075195 37.46240234 C5.18694352 33.52525109 2.30845685 29.63292291 -0.64453125 25.78417969 C-1.54860718 24.58619751 -1.54860718 24.58619751 -2.47094727 23.36401367 C-3.62253289 21.83991678 -4.78893754 20.32686206 -5.97241211 18.82739258 C-9.68477434 13.8716279 -10.70001069 10.83762888 -9.93359375 4.63964844 C-7.54845029 0.66440934 -4.62735874 -0.24074196 0 0 Z M-12.3276825 126.40969849 C-16.46999628 126.77522316 -20.61458684 126.92430187 -24.76953125 127.06933594 C-26.64064344 127.14095865 -28.51173652 127.21308192 -30.3828125 127.28564453 C-31.35009277 127.32260437 -32.31737305 127.35956421 -33.31396484 127.39764404 C-48.73281011 128.00008017 -64.14878144 128.69259223 -79.53790283 129.83843994 C-81.12271224 129.95500626 -82.70797515 130.06557693 -84.29364014 130.16986084 C-86.48790528 130.31637133 -88.67909961 130.48614303 -90.87109375 130.66308594 C-92.09699219 130.75509277 -93.32289062 130.84709961 -94.5859375 130.94189453 C-99.46078121 131.95796099 -102.61259008 134.39203386 -106.18359375 137.76464844 C-110.41734274 144.72009321 -110.41505407 154.05909112 -111.15234375 162.01464844 C-111.25575073 163.09625244 -111.35915771 164.17785645 -111.46569824 165.29223633 C-111.68334492 167.58471563 -111.8983434 169.87744773 -112.11083984 172.17041016 C-112.425041 175.54771607 -112.75089645 178.92373954 -113.078125 182.29980469 C-115.99390112 212.91837365 -117.27273094 243.31516361 -117.19433594 274.06079102 C-117.1829686 278.54388569 -117.18972154 283.02674206 -117.20121002 287.50982857 C-117.24047973 305.57985153 -117.01548738 323.60493644 -116.04296875 341.65136719 C-116.00413826 342.38849253 -115.96530777 343.12561787 -115.9253006 343.88508034 C-115.40380248 353.51819819 -114.51323938 363.07502372 -113.3835907 372.6554718 C-112.74430851 378.13708783 -112.3767989 383.63519123 -111.99609375 389.13964844 C-111.41971488 396.76774477 -110.70723377 404.33402833 -109.49609375 411.88964844 C-109.38595947 412.60958984 -109.2758252 413.32953125 -109.16235352 414.07128906 C-108.17143231 419.79691894 -106.62922527 423.34086685 -101.99609375 426.88964844 C-97.99257533 429.17737325 -94.83132093 429.74834826 -90.265625 429.92089844 C-89.37166016 429.95828125 -88.47769531 429.99566406 -87.55664062 430.03417969 C-86.62916016 430.06898438 -85.70167969 430.10378906 -84.74609375 430.13964844 C-74.49496837 430.53252336 -74.49496837 430.53252336 -69.62109375 431.11230469 C-20.4320286 436.96158137 29.93851551 435.96254096 79.40022212 435.84024447 C84.37302368 435.82852668 89.34578889 435.82450973 94.31860352 435.82495117 C138.20553793 435.93294932 138.20553793 435.93294932 182.06640625 434.63964844 C182.85856915 434.60190685 183.65073204 434.56416527 184.46689987 434.52528 C196.47757809 433.94751696 208.48306047 433.29067076 220.48730469 432.59277344 C225.30871975 432.31308639 230.13090069 432.04989444 234.95341682 431.78998756 C238.72005541 431.58416492 242.48596447 431.36681098 246.2517662 431.14625168 C248.03203287 431.04392778 249.81254867 430.94583912 251.59329605 430.85225296 C254.06063905 430.72149271 256.52650406 430.57440627 258.99267578 430.42333984 C259.71047714 430.38894302 260.4282785 430.3545462 261.16783142 430.31910706 C267.40372572 429.9069978 272.02209826 428.3205239 276.87890625 424.32714844 C281.43492865 418.72974949 281.73409649 411.84057508 282.55859375 404.90136719 C282.686362 403.84995041 282.81413025 402.79853363 282.94577026 401.71525574 C284.23656264 390.7551602 285.13559624 379.77045929 285.94677734 368.76586914 C286.19210769 365.44264685 286.44693632 362.12025272 286.703125 358.79785156 C287.18981005 352.41386959 287.63956898 346.02789559 288.06640625 339.63964844 C288.12435364 338.79210999 288.18230103 337.94457153 288.24200439 337.0713501 C289.35454247 320.19692986 289.22000879 303.28773439 289.19677734 286.38525391 C289.19109934 282.23635423 289.19445723 278.08751896 289.20021439 273.93862152 C289.52649054 242.71208079 289.52649054 242.71208079 287.28282166 211.61129761 C286.99457641 208.98524378 286.90945817 206.35719702 286.82666016 203.71777344 C286.47917474 193.19526198 285.49550707 182.73027708 284.45181274 172.25836182 C284.27997 170.53026785 284.11110361 168.80187498 283.94540405 167.07318115 C283.27170375 149.52947995 283.27170375 149.52947995 275.50390625 134.95214844 C257.65424351 121.9391685 212.18095132 127.46271481 190.25390625 126.57714844 C189.28459167 126.5369458 188.3152771 126.49674316 187.31658936 126.45532227 C150.75429768 124.9549342 114.17580992 124.46688233 77.58569336 124.50927734 C72.58136024 124.51503299 67.57707962 124.51153795 62.57274818 124.5058403 C25.07739748 124.24246742 25.07739748 124.24246742 -12.3276825 126.40969849 Z " fill="#D94953" transform="translate(169.93359375,-0.6396484375)"/>
<path d="M0 0 C1.06091858 0.06303314 2.12183716 0.12606628 3.21490479 0.19100952 C15.6566818 0.94968409 28.01526803 2.00217323 40.375 3.625 C43.06496408 22.31303832 44.03489956 40.77667094 44.375 59.625 C44.98698242 59.67760986 45.59896484 59.73021973 46.22949219 59.78442383 C47.03547852 59.86200928 47.84146484 59.93959473 48.671875 60.01953125 C49.86828613 60.12938354 49.86828613 60.12938354 51.08886719 60.24145508 C57.21397994 61.26906637 60.85653289 65.93371051 64.375 70.625 C67.23938011 75.39228997 66.96710168 80.22113531 66.375 85.625 C64.58455453 91.89691976 60.66465178 95.98686846 55.375 99.625 C51.56460388 101.6696028 48.6488504 101.68362621 44.375 101.625 C44.39594727 102.25365967 44.41689453 102.88231934 44.43847656 103.5300293 C45.11031987 126.77453196 45.11031987 126.77453196 40.375 137.625 C40.04757812 138.47578125 39.72015625 139.3265625 39.3828125 140.203125 C34.53949011 151.44528937 25.2147076 160.24949852 14.375 165.625 C13.28832031 166.17027344 12.20164062 166.71554687 11.08203125 167.27734375 C10.18871094 167.72207031 9.29539062 168.16679687 8.375 168.625 C9.12523437 168.95371094 9.87546875 169.28242188 10.6484375 169.62109375 C24.65792398 176.13179968 35.24822744 186.43419417 41.375 200.703125 C43.22077157 206.09623881 44.375 211.90552423 44.375 217.625 C31.45240998 217.67233353 18.5298421 217.70736172 5.60718155 217.72862434 C-0.39993195 217.73885355 -6.40698425 217.7526046 -12.4140625 217.77587891 C-131.145924 218.22320286 -131.145924 218.22320286 -150.625 212.625 C-147.16652355 196.26050166 -140.30307545 183.95149131 -126.32421875 174.3203125 C-122.8504687 172.13853606 -119.36073226 170.31665234 -115.625 168.625 C-116.64207031 168.13193359 -116.64207031 168.13193359 -117.6796875 167.62890625 C-132.17170711 160.22232005 -143.03287694 149.01904663 -148.625 133.625 C-150.73179489 126.79478596 -151.04558583 120.24542681 -151.25 113.125 C-151.28867188 112.01640625 -151.32734375 110.9078125 -151.3671875 109.765625 C-151.46075243 107.05224203 -151.54649483 104.33885339 -151.625 101.625 C-152.51469482 101.58088989 -152.51469482 101.58088989 -153.42236328 101.53588867 C-161.05872868 100.9613342 -164.53087257 98.28865721 -169.625 92.625 C-173.61649065 87.30301247 -173.50938584 81.02626892 -172.625 74.625 C-170.42489262 68.758047 -165.91260521 63.91015044 -160.625 60.625 C-158.29003906 59.93115234 -158.29003906 59.93115234 -155.890625 59.4609375 C-155.08915039 59.29899902 -154.28767578 59.13706055 -153.46191406 58.97021484 C-152.5526416 58.7993335 -152.5526416 58.7993335 -151.625 58.625 C-151.5748877 57.72483154 -151.52477539 56.82466309 -151.47314453 55.8972168 C-149.76552821 25.58025083 -149.76552821 25.58025083 -148.5625 14.3125 C-148.48338379 13.56895264 -148.40426758 12.82540527 -148.32275391 12.05932617 C-147.9564259 8.83878845 -147.44971972 5.75671175 -146.625 2.625 C-98.0743076 -2.54347688 -48.69594697 -2.89959996 0 0 Z " fill="#F0CFA4" transform="translate(251.625,217.375)"/>
<path d="M0 0 C4.87023162 0.00753153 9.74038174 0.00482214 14.61061037 -0.00360447 C67.9010373 -0.09344136 121.65135891 0.13509535 174.69483888 5.83916897 C178.4694344 6.23847747 182.2252487 6.37815711 186.01905763 6.50713772 C194.54993614 7.15995462 202.0474834 10.80889602 207.95655763 17.00713772 C213.69007584 24.57511766 215.58567305 32.90842144 216.51905763 42.19463772 C216.63563722 43.25746975 216.75221681 44.32030178 216.87232912 45.41534084 C217.25701531 49.02733094 217.61133969 52.64116543 217.95655763 56.25713772 C218.05130373 57.24535518 218.05130373 57.24535518 218.14796388 58.25353664 C218.6249697 63.25300485 219.07802814 68.25437595 219.51905763 73.25713772 C219.63386476 74.5512759 219.74867189 75.84541408 219.86695802 77.17876858 C220.18805245 80.91632826 220.47367465 84.65594687 220.74674928 88.39730495 C220.89737286 90.45040838 221.05269 92.5031695 221.21104372 94.55569118 C223.01381359 118.35205239 223.23626638 142.06141498 223.15217531 165.91759914 C223.14130384 169.80410672 223.14175871 173.69058007 223.14216554 177.57710022 C223.14158021 205.39555596 222.41785695 232.96360309 220.08155763 260.69463772 C219.99285402 261.75788265 219.9041504 262.82112758 219.8127588 263.91659206 C217.75193763 288.52792583 217.75193763 288.52792583 216.45655763 300.19463772 C216.31564699 301.57316921 216.31564699 301.57316921 216.17188966 302.97954983 C214.88595089 313.60936753 211.00837738 322.08529826 202.95655763 329.25713772 C195.51078738 334.26353181 187.24758732 335.53493612 178.45655763 335.81963772 C176.82102359 335.88035659 175.18559911 335.94410988 173.55030763 336.01104397 C172.83552248 336.03497219 172.12073732 336.05890041 171.38429201 336.08355373 C168.84194779 336.23246479 168.84194779 336.23246479 165.89112794 336.7275967 C160.73957224 337.42092782 155.59799557 337.6954064 150.40968263 337.97588772 C149.28503603 338.03868923 148.16038942 338.10149074 147.00166261 338.16619533 C144.61463895 338.29873682 142.22753081 338.42976441 139.84034669 338.55938381 C136.28769767 338.75272201 132.73540611 338.95178468 129.18312013 339.15166897 C126.84199364 339.28092598 124.50084826 339.40984149 122.15968263 339.53838772 C121.13981264 339.59571071 120.11994264 339.65303371 119.06916749 339.71209377 C115.36568562 339.91106069 111.66153846 340.08898735 107.95655763 340.25713772 C107.05662647 340.29854633 106.1566953 340.33995495 105.2294935 340.38261837 C86.85378025 341.20549375 68.49370389 341.43461026 50.10304081 341.45732635 C47.78119622 341.46032267 45.45935586 341.46443778 43.13751352 341.46883053 C35.74993187 341.48244012 28.36236078 341.49212906 20.97476751 341.49603242 C13.4962278 341.50001366 6.01781757 341.51207419 -1.4606787 341.53838772 C-36.15487898 341.65771547 -70.78363397 341.48934783 -105.44578612 339.86651272 C-106.12676651 339.83493855 -106.8077469 339.80336439 -107.50936306 339.77083343 C-121.82664536 339.10339753 -136.11687968 338.29880876 -150.38516963 336.9194569 C-155.82184292 336.40142995 -161.23013478 336.10037579 -166.68989527 335.95499462 C-178.72346914 335.6182506 -188.14923163 334.25629394 -197.10594237 325.49151272 C-212.24995886 308.02704208 -209.91893519 270.79876402 -210.83250487 248.65557522 C-210.96333582 245.39001903 -210.96333582 245.39001903 -211.52220213 242.75030178 C-212.25615219 237.83163321 -212.41698911 232.9346753 -212.59422362 227.96807522 C-212.65698233 226.22003093 -212.65698233 226.22003093 -212.7210089 224.43667263 C-213.23458552 208.41686662 -213.23060915 192.39062602 -213.2287451 176.36407131 C-213.22866419 172.72730159 -213.23557047 169.0906588 -213.24925292 165.45391506 C-213.37151363 132.34289811 -212.10943651 99.50399417 -208.92112792 66.53594631 C-208.59749875 63.16930055 -208.29177106 59.80130146 -207.98680174 56.43291897 C-204.92345707 23.54454968 -204.92345707 23.54454968 -195.12156737 14.47979397 C-188.77297016 9.44766943 -182.673073 6.99546149 -174.60203612 6.37823147 C-173.89513136 6.3213113 -173.18822661 6.26439113 -172.4599005 6.20574611 C-170.13436166 6.02253875 -167.8079599 5.85790761 -165.48094237 5.69463772 C-163.82042575 5.57018324 -162.15994455 5.44525527 -160.49949706 5.31988186 C-146.24769888 4.26492246 -131.98303143 3.425548 -117.70799315 2.75982326 C-112.43550977 2.51318906 -107.16320781 2.26491443 -101.89169371 1.9982571 C-67.92635438 0.28982987 -33.99947316 -0.0586755 0 0 Z M-93.43753111 17.02718776 C-97.5798449 17.39271244 -101.72443546 17.54179115 -105.87937987 17.68682522 C-107.75049206 17.75844793 -109.62158514 17.8305712 -111.49266112 17.90313381 C-112.45994139 17.94009365 -113.42722167 17.97705349 -114.42381346 18.01513332 C-129.84265873 18.61756945 -145.25863006 19.31008151 -160.64775145 20.45592922 C-162.23256086 20.57249554 -163.81782377 20.68306621 -165.40348876 20.78735012 C-167.5977539 20.93386061 -169.78894823 21.10363231 -171.98094237 21.28057522 C-173.20684081 21.37258205 -174.43273924 21.46458889 -175.69578612 21.55938381 C-180.57062983 22.57545027 -183.7224387 25.00952314 -187.29344237 28.38213772 C-191.52719136 35.33758249 -191.52490269 44.6765804 -192.26219237 52.63213772 C-192.36559935 53.71374172 -192.46900633 54.79534572 -192.57554686 55.90972561 C-192.79319354 58.20220491 -193.00819201 60.49493701 -193.22068846 62.78789943 C-193.53488962 66.16520535 -193.86074507 69.54122882 -194.18797362 72.91729397 C-197.10374974 103.53586292 -198.38257956 133.93265289 -198.30418456 164.67828029 C-198.29281722 169.16137497 -198.29957016 173.64423134 -198.31105864 178.12731785 C-198.35032835 196.19734081 -198.125336 214.22242571 -197.15281737 232.26885647 C-197.11398688 233.00598181 -197.07515639 233.74310714 -197.03514922 234.50256962 C-196.5136511 244.13568747 -195.62308799 253.692513 -194.49343932 263.27296108 C-193.85415713 268.75457711 -193.48664752 274.25268051 -193.10594237 279.75713772 C-192.5295635 287.38523405 -191.81708239 294.95151761 -190.60594237 302.50713772 C-190.49580809 303.22707912 -190.38567381 303.94702053 -190.27220213 304.68877834 C-189.28128092 310.41440822 -187.73907388 313.95835613 -183.10594237 317.50713772 C-179.10242395 319.79486253 -175.94116955 320.36583754 -171.37547362 320.53838772 C-170.48150877 320.57577053 -169.58754393 320.61315334 -168.66648924 320.65166897 C-167.73900877 320.68647365 -166.81152831 320.72127834 -165.85594237 320.75713772 C-155.60481699 321.15001264 -155.60481699 321.15001264 -150.73094237 321.72979397 C-101.54187722 327.57907064 -51.17133311 326.58003023 -1.7096265 326.45773375 C3.26317506 326.44601595 8.23594027 326.44199901 13.2087549 326.44244045 C57.09568931 326.5504386 57.09568931 326.5504386 100.95655763 325.25713772 C101.74872053 325.21939613 102.54088342 325.18165455 103.35705125 325.14276928 C115.36772947 324.56500624 127.37321185 323.90816004 139.37745607 323.21026272 C144.19887114 322.93057567 149.02105207 322.66738372 153.84356821 322.40747684 C157.61020679 322.2016542 161.37611585 321.98430026 165.14191759 321.76374096 C166.92218426 321.66141706 168.70270005 321.5633284 170.48344743 321.46974224 C172.95079043 321.33898199 175.41665545 321.19189554 177.88282716 321.04082912 C178.60062852 321.0064323 179.31842988 320.97203548 180.0579828 320.93659633 C186.2938771 320.52448707 190.91224964 318.93801317 195.76905763 314.94463772 C200.32508003 309.34723877 200.62424787 302.45806435 201.44874513 295.51885647 C201.57651338 294.46743969 201.70428163 293.41602291 201.83592165 292.33274502 C203.12671403 281.37264948 204.02574762 270.38794857 204.83692873 259.38335842 C205.08225907 256.06013612 205.3370877 252.737742 205.59327638 249.41534084 C206.07996143 243.03135887 206.52972037 236.64538487 206.95655763 230.25713772 C207.01450502 229.40959926 207.07245241 228.56206081 207.13215578 227.68883938 C208.24469385 210.81441913 208.11016017 193.90522367 208.08692873 177.00274318 C208.08125072 172.85384351 208.08460861 168.70500824 208.09036577 164.5561108 C208.41664192 133.32957007 208.41664192 133.32957007 206.17297304 102.22878689 C205.88472779 99.60273306 205.79960955 96.9746863 205.71681154 94.33526272 C205.36932612 83.81275126 204.38565846 73.34776636 203.34196413 62.87585109 C203.17012138 61.14775712 203.00125499 59.41936426 202.83555543 57.69067043 C202.16185513 40.14696923 202.16185513 40.14696923 194.39405763 25.56963772 C176.54439489 12.55665778 131.0711027 18.08020409 109.14405763 17.19463772 C108.17474306 17.15443508 107.20542848 17.11423244 106.20674074 17.07281154 C69.64444906 15.57242348 33.0659613 15.08437161 -3.52415526 15.12676662 C-8.52848838 15.13252227 -13.53276899 15.12902723 -18.53710043 15.12332958 C-56.03245114 14.8599567 -56.03245114 14.8599567 -93.43753111 17.02718776 Z " fill="#C32531" transform="translate(251.04344236850739,108.7428622841835)"/>
<path d="M0 0 C0 0.33 0 0.66 0 1 C-6.6 1.99 -13.2 2.98 -20 4 C-20.84591167 10.71535582 -20.84591167 10.71535582 -21.29711914 17.40625 C-21.33708511 18.3866626 -21.37705109 19.3670752 -21.41822815 20.37719727 C-21.47610756 21.92298462 -21.47610756 21.92298462 -21.53515625 23.5 C-21.57813339 24.57628662 -21.62111053 25.65257324 -21.66539001 26.76147461 C-21.80093741 30.17419992 -21.9317896 33.58708635 -22.0625 37 C-22.15398603 39.32423101 -22.24577967 41.64844993 -22.33789062 43.97265625 C-22.56215369 49.64830248 -22.78256977 55.32408812 -23 61 C-22.06671875 60.80277344 -21.1334375 60.60554688 -20.171875 60.40234375 C-17 60 -17 60 -14.25 61.5625 C-10.81894116 65.27948041 -10.13905275 68.47041971 -9.6875 73.4375 C-10.12373138 78.41053769 -11.4299055 82.26748193 -14.8125 86 C-17.80470155 87.36786356 -19.83512083 86.6217498 -23 86 C-22.90516413 91.4222217 -22.79881575 96.8440631 -22.68261719 102.26586914 C-22.64476025 104.10337439 -22.60983946 105.94094292 -22.578125 107.77856445 C-22.07949434 139.3854206 -22.07949434 139.3854206 -8 167 C-3.42164045 170.63510478 -0.42132634 171.49872328 5.39135742 171.48583984 C6.10608215 171.48963654 6.82080688 171.49343323 7.55718994 171.49734497 C9.90707093 171.50471991 12.25569857 171.48340216 14.60546875 171.4609375 C16.25205847 171.45854977 17.89865094 171.45764845 19.54524231 171.4581604 C22.99428408 171.45503694 26.44290888 171.43851526 29.8918457 171.41162109 C34.28503577 171.37777588 38.67776551 171.36998923 43.07107067 171.37151146 C46.47286777 171.37096387 49.87456677 171.35993272 53.27633095 171.34550858 C54.89443534 171.33919801 56.51255072 171.33521533 58.13066673 171.33372116 C66.17793346 171.31816273 73.96296763 171.17333403 81.8651886 169.43179321 C88.88158964 168.01263537 94.14578681 171.29286041 99.94140625 174.8671875 C110.85844844 182.47983761 119.63058007 193.95909694 123 207 C123.20982015 208.89871505 123.39197438 210.8006049 123.55273438 212.70410156 C123.68053284 214.19130707 123.68053284 214.19130707 123.81091309 215.70855713 C123.87331177 216.46473328 123.93571045 217.22090942 124 218 C111.07740998 218.04733353 98.1548421 218.08236172 85.23218155 218.10362434 C79.22506805 218.11385355 73.21801575 218.1276046 67.2109375 218.15087891 C-51.520924 218.59820286 -51.520924 218.59820286 -71 213 C-67.54152355 196.63550166 -60.67807545 184.32649131 -46.69921875 174.6953125 C-43.2254687 172.51353606 -39.73573226 170.69165234 -36 169 C-37.01707031 168.50693359 -37.01707031 168.50693359 -38.0546875 168.00390625 C-52.54670711 160.59732005 -63.40787694 149.39404663 -69 134 C-71.10679489 127.16978596 -71.42058583 120.62042681 -71.625 113.5 C-71.66367188 112.39140625 -71.70234375 111.2828125 -71.7421875 110.140625 C-71.83575243 107.42724203 -71.92149483 104.71385339 -72 102 C-72.88969482 101.95588989 -72.88969482 101.95588989 -73.79736328 101.91088867 C-81.43372868 101.3363342 -84.90587257 98.66365721 -90 93 C-93.99149065 87.67801247 -93.88438584 81.40126892 -93 75 C-90.79989262 69.133047 -86.28760521 64.28515044 -81 61 C-78.66503906 60.30615234 -78.66503906 60.30615234 -76.265625 59.8359375 C-75.46415039 59.67399902 -74.66267578 59.51206055 -73.83691406 59.34521484 C-72.9276416 59.1743335 -72.9276416 59.1743335 -72 59 C-71.9498877 58.09983154 -71.89977539 57.19966309 -71.84814453 56.2722168 C-70.14052821 25.95525083 -70.14052821 25.95525083 -68.9375 14.6875 C-68.85838379 13.94395264 -68.77926758 13.20040527 -68.69775391 12.43432617 C-68.3314259 9.21378845 -67.82471972 6.13171175 -67 3 C-44.58917808 0.9230764 -22.51290164 -0.17922089 0 0 Z " fill="#F0B886" transform="translate(172,217)"/>
<path d="M0 0 C1.58216309 -0.00845947 1.58216309 -0.00845947 3.19628906 -0.01708984 C12.1737482 0.06685153 21.54911379 0.89330946 29.0625 6.3125 C30.5625 9.0625 30.5625 9.0625 31.0625 11.3125 C29.4125 13.2925 27.7625 15.2725 26.0625 17.3125 C26.94264771 17.10886841 26.94264771 17.10886841 27.84057617 16.90112305 C46.96394346 12.5143143 65.3900816 9.09157938 85.0625 8.875 C86.85131592 8.84152466 86.85131592 8.84152466 88.67626953 8.80737305 C97.29882507 8.82955595 107.2049823 9.52343062 114.25463867 15.02246094 C116.89978269 17.74053871 117.94713593 19.77763024 118.75 23.5 C118.0625 26.3125 118.0625 26.3125 116.0625 28.5625 C112.40340626 30.69697135 109.1808136 31.35043494 105.0625 32.3125 C106.06494751 32.53800537 106.06494751 32.53800537 107.08764648 32.76806641 C155.27100726 43.70511476 155.27100726 43.70511476 164.1328125 55.58203125 C165.63671906 58.38131952 165.74628565 60.23546456 165.0625 63.3125 C162.09037903 66.98891504 159.30250149 68.19662279 154.8125 69.5 C153.73484375 69.82355469 152.6571875 70.14710938 151.546875 70.48046875 C143.73772445 72.34520986 136.11887048 72.50597941 128.125 72.5 C126.97894287 72.49919434 125.83288574 72.49838867 124.65209961 72.49755859 C117.1068718 72.44475494 109.64064316 72.09197464 102.125 71.4375 C101.10591553 71.34895752 100.08683105 71.26041504 99.03686523 71.16918945 C97.98184814 71.07726318 96.92683105 70.98533691 95.83984375 70.890625 C47.35754224 66.68410393 -2.31094081 66.31686347 -50.76806641 71.12280273 C-53.72512679 71.38137081 -56.65820519 71.40990347 -59.625 71.375 C-61.14673828 71.36146484 -61.14673828 71.36146484 -62.69921875 71.34765625 C-63.43785156 71.33605469 -64.17648438 71.32445312 -64.9375 71.3125 C-66.70593204 89.95628882 -67.87199717 108.61823574 -68.9375 127.3125 C-76.58928571 129.50892857 -76.58928571 129.50892857 -79.9375 130.3125 C-83.33986202 120.0785178 -86.15838854 109.97604933 -87.9375 99.3125 C-88.14375 98.10722656 -88.35 96.90195313 -88.5625 95.66015625 C-91.8097294 73.80900843 -92.38028683 49.52969299 -79.9375 30.3125 C-67.16319274 13.36846603 -48.63395379 8.4048285 -28.9375 3.3125 C-28.24140625 3.12880859 -27.5453125 2.94511719 -26.828125 2.75585938 C-17.87326106 0.47164103 -9.20055826 0.04684602 0 0 Z " fill="#5E6B75" transform="translate(169.9375,148.6875)"/>
<path d="M0 0 C4.06339957 0.64795123 8.06284031 0.60569724 12.17141724 0.6035614 C13.10057449 0.60692001 14.02973175 0.61027863 14.98704529 0.61373901 C18.05616599 0.62323011 21.12523199 0.62519149 24.19436646 0.62626648 C26.33563255 0.62948136 28.47689843 0.6328456 30.61816406 0.63635254 C35.1087393 0.64233993 39.59929532 0.64419294 44.08987427 0.64360046 C49.82262786 0.6434991 55.55525689 0.65712666 61.28798103 0.67437267 C65.71314043 0.68553637 70.13827019 0.6875183 74.56344223 0.68699074 C76.67558088 0.68816522 78.78772043 0.69255689 80.89984512 0.7003231 C94.99931166 0.89315581 94.99931166 0.89315581 108.90966797 -1.10620117 C115.78034336 -2.62941845 121.15776095 0.83621753 126.81546021 4.32548523 C137.7325024 11.93813534 146.50463402 23.41739467 149.87405396 36.45829773 C150.08387411 38.35701278 150.26602833 40.25890263 150.42678833 42.16239929 C150.55458679 43.6496048 150.55458679 43.6496048 150.68496704 45.16685486 C150.74736572 45.92303101 150.8097644 46.67920715 150.87405396 47.45829773 C137.95146394 47.50563126 125.02889605 47.54065945 112.1062355 47.56192207 C106.099122 47.57215128 100.0920697 47.58590233 94.08499146 47.60917664 C-24.64687005 48.05650059 -24.64687005 48.05650059 -44.12594604 42.45829773 C-40.67450391 26.12708371 -33.82018835 13.70589643 -19.79782104 4.15751648 C-12.40471285 -0.54424092 -8.84783157 -2.25447417 0 0 Z " fill="#F0D233" transform="translate(145.12594604492188,387.5417022705078)"/>
<path d="M0 0 C1.8871875 0.0309375 1.8871875 0.0309375 3.8125 0.0625 C3.34199219 0.70574219 2.87148438 1.34898438 2.38671875 2.01171875 C1.76410156 2.91535156 1.14148437 3.81898437 0.5 4.75 C-0.11488281 5.62011719 -0.72976562 6.49023438 -1.36328125 7.38671875 C-7.39370535 18.10500995 -7.41471694 32.83596726 -8.625 44.8125 C-8.72944427 45.84533112 -8.83388855 46.87816223 -8.9414978 47.94229126 C-9.74267667 55.97777984 -10.47826689 64.01841941 -11.1875 72.0625 C-11.34116028 73.78856476 -11.34116028 73.78856476 -11.4979248 75.54949951 C-14.83805287 113.5756241 -15.55933121 151.46829812 -15.5625 189.625 C-15.56396719 191.26030481 -15.56396719 191.26030481 -15.56546402 192.92864609 C-15.58663717 217.59784757 -15.33908904 242.14063711 -13.43896484 266.74411011 C-13.12798619 270.84785839 -12.86749918 274.95372604 -12.61291504 279.06129456 C-11.30758853 300.11920733 -9.7901862 321.1195517 -7.1875 342.0625 C-7.07438477 343.03622559 -6.96126953 344.00995117 -6.84472656 345.01318359 C-5.45825896 358.87605282 -5.45825896 358.87605282 0.8125 371.0625 C1.9571875 372.5784375 1.9571875 372.5784375 3.125 374.125 C3.681875 374.764375 4.23875 375.40375 4.8125 376.0625 C-3.70063898 375.86325632 -10.76425996 373.95362094 -17.265625 368.234375 C-23.41442968 361.6722053 -25.48340362 354.32575921 -26.43359375 345.58984375 C-26.52957352 344.77401321 -26.62555328 343.95818268 -26.72444153 343.11763 C-27.03721743 340.41301232 -27.33234998 337.70686502 -27.625 335 C-27.78216492 333.58829529 -27.78216492 333.58829529 -27.94250488 332.14807129 C-29.81715453 315.2324473 -31.20646625 298.28591472 -32.4375 281.3125 C-32.52031219 280.1767453 -32.60312439 279.0409906 -32.68844604 277.87081909 C-33.23617509 270.27079484 -33.73548749 262.66881342 -34.1875 255.0625 C-34.27072006 253.68214066 -34.27072006 253.68214066 -34.35562134 252.27389526 C-35.46832154 232.97944202 -35.37488115 213.65311116 -35.37280273 194.33374023 C-35.37272214 190.55830017 -35.37957249 186.78298318 -35.39331055 183.00756836 C-35.51801806 148.12396117 -34.37180573 113.38436877 -31.3125 78.625 C-31.22790527 77.6427243 -31.14331055 76.66044861 -31.05615234 75.64840698 C-29.96633976 63.02268055 -28.81648452 50.39982832 -27.42669678 37.80319214 C-27.27010029 36.37718112 -27.11779219 34.95069107 -26.97027588 33.52371216 C-25.82495228 22.59070308 -23.78556912 12.60294786 -15.1875 5.0625 C-10.43547725 2.0958672 -5.66597437 -0.09288483 0 0 Z " fill="#C32430" transform="translate(38.1875,91.9375)"/>
<path d="M0 0 C6.09940955 -0.42064893 9.13663653 -0.08964656 14 4 C22.08101652 11.63207115 21.01822113 27.42039627 22.0625 37.875 C22.19514755 39.1787558 22.19514755 39.1787558 22.33047485 40.5088501 C23.46679311 51.70252167 24.47004459 62.86710786 24.82421875 74.1171875 C24.94686746 76.82636127 25.14504766 79.39215412 25.4765625 82.07055664 C27.7955361 102.5518979 27.18799449 123.47291937 27.18530273 144.06176758 C27.18522183 147.2961999 27.19212767 150.53048947 27.20581055 153.76489258 C27.29933226 176.25854477 26.58882396 198.56269622 25 221 C24.86690634 222.97545832 24.73442688 224.9509582 24.6027832 226.92651367 C24.28167963 231.6614341 23.93156617 236.39359217 23.5625 241.125 C23.50030273 241.92711914 23.43810547 242.72923828 23.37402344 243.55566406 C22.57850513 253.72150862 21.70249185 263.87282642 20.5 274 C20.39373291 274.93602051 20.28746582 275.87204102 20.17797852 276.83642578 C19.16201339 284.74299437 17.29928631 290.64560664 11 296 C8.24921116 296.91692961 6.64051087 297.10886083 3.8125 297.0625 C2.554375 297.041875 1.29625 297.02125 0 297 C-0.19353 289.78470995 0.39755519 282.89324057 1.3671875 275.75 C3.22193199 261.20371262 4.19309914 246.62954151 5.125 232 C5.29497171 229.41532498 5.46554269 226.83068929 5.63671875 224.24609375 C6.0243199 218.35653946 6.41027349 212.46693162 6.7767334 206.57601929 C6.93598447 204.02532479 7.10055149 201.47526876 7.26916504 198.92520142 C7.88974626 189.30863003 8.17465511 179.72463753 8.203125 170.0859375 C8.21007463 168.6011147 8.21706955 167.11629212 8.22410583 165.63146973 C8.24332741 160.87931014 8.24803153 156.12719387 8.25 151.375 C8.25073643 150.56207741 8.25147285 149.74915482 8.2522316 148.91159821 C8.28554756 103.67797571 6.78781506 58.2212346 0.39916992 13.38647461 C-0.12893414 8.90614954 -0.19069362 4.50248832 0 0 Z " fill="#B89ED1" transform="translate(432,131)"/>
<path d="M0 0 C0.93070312 0.01804688 1.86140625 0.03609375 2.8203125 0.0546875 C3.49835938 0.07789063 4.17640625 0.10109375 4.875 0.125 C4.194375 0.785 3.51375 1.445 2.8125 2.125 C1.83118936 3.12289618 0.85225364 4.1231304 -0.125 5.125 C-0.93904297 5.92744141 -0.93904297 5.92744141 -1.76953125 6.74609375 C-13.37733706 18.93035945 -16.80857991 33.46154218 -16.45703125 49.78125 C-16.18636674 55.11622018 -14.5976873 59.42788717 -12.125 64.125 C-11.795 65.115 -11.465 66.105 -11.125 67.125 C-15.49325717 69.30912859 -21.19083546 68.84362436 -26 69.1875 C-27.76730469 69.32381836 -27.76730469 69.32381836 -29.5703125 69.46289062 C-37.10339099 70.01459736 -44.5726852 70.24194913 -52.125 70.125 C-53.89343204 88.76878882 -55.05949717 107.43073574 -56.125 126.125 C-63.77678571 128.32142857 -63.77678571 128.32142857 -67.125 129.125 C-70.52736202 118.8910178 -73.34588854 108.78854933 -75.125 98.125 C-75.33125 96.91972656 -75.5375 95.71445313 -75.75 94.47265625 C-78.9972294 72.62150843 -79.56778683 48.34219299 -67.125 29.125 C-53.03351223 10.43383792 -23.2764587 -0.59683227 0 0 Z " fill="#4D5961" transform="translate(157.125,149.875)"/>
<path d="M0 0 C3.625 0.4375 3.625 0.4375 5.59375 2.421875 C7.64640336 5.46927576 9.13639577 8.49550531 10.66723633 11.82202148 C13.72117239 18.78827136 13.72117239 18.78827136 19.01171875 23.921875 C21.61457852 24.40807747 23.97856362 24.47211908 26.625 24.4375 C37.15322216 25.68772638 37.15322216 25.68772638 41.9375 28.125 C43.625 30.4375 43.625 30.4375 43.703125 33.62109375 C41.99802444 39.65690263 37.55945704 42.67548509 32.90820312 46.65625 C29.05276607 50.09504179 29.05276607 50.09504179 27.12548828 54.73876953 C27.09828594 57.04046901 27.26718807 59.16551556 27.625 61.4375 C27.8415625 62.83355469 27.8415625 62.83355469 28.0625 64.2578125 C28.248125 65.01835937 28.43375 65.77890625 28.625 66.5625 C29.4951178 70.62304971 30.12544789 74.26710088 29.625 78.4375 C28 80.875 28 80.875 25.625 82.4375 C19.74666486 83.28981466 15.96188957 80.78727594 11.0625 77.9375 C4.75038327 73.87301966 4.75038327 73.87301966 -2.375 73.4375 C-6.06673828 75.13184794 -9.54080021 77.19780388 -13.04882812 79.23828125 C-17.25885386 81.59589566 -20.40531559 83.31579474 -25.375 82.4375 C-27.23046875 81.29296875 -27.23046875 81.29296875 -28.375 79.4375 C-29.3297967 72.50752396 -28.21065482 66.09174871 -26.375 59.4375 C-25.75950494 56.15485969 -25.72120328 54.39572081 -27.625 51.60546875 C-30.19303827 48.5915905 -32.92666105 45.8489503 -35.84375 43.171875 C-42.21971489 37.2398064 -42.21971489 37.2398064 -43.125 32.5625 C-42.33343115 29.26429646 -41.98477105 28.4373672 -39.375 26.4375 C-37.00244141 25.85668945 -37.00244141 25.85668945 -34.2265625 25.55078125 C-33.22109375 25.41607422 -32.215625 25.28136719 -31.1796875 25.14257812 C-29.06988698 24.88209293 -26.95776743 24.63971425 -24.84375 24.41601562 C-19.22874269 23.73897243 -19.22874269 23.73897243 -14.64624023 20.73339844 C-13.3438414 18.68540749 -12.33454033 16.66478252 -11.375 14.4375 C-10.80394531 13.33664063 -10.23289062 12.23578125 -9.64453125 11.1015625 C-8.92330078 9.59722656 -8.92330078 9.59722656 -8.1875 8.0625 C-4.60598458 0.59707207 -4.60598458 0.59707207 0 0 Z " fill="#F0D234" transform="translate(391.375,219.5625)"/>
<path d="M0 0 C3.875 0.6875 3.875 0.6875 6.375 2.1875 C8.46752309 5.67503848 8.5865711 8.77083284 7.875 12.6875 C6.34608863 15.77179739 4.31508265 18.3669801 2.1875 21.0625 C0.98907947 22.64805679 -0.20882246 24.23400566 -1.40625 25.8203125 C-2.02371094 26.62500977 -2.64117187 27.42970703 -3.27734375 28.25878906 C-6.19772775 32.09758136 -9.00157044 36.01826587 -11.8125 39.9375 C-12.89940894 41.44294711 -13.98664248 42.94815992 -15.07421875 44.453125 C-18.16460258 48.73789261 -21.23532052 53.03646003 -24.30175781 57.33837891 C-27.871522 62.34213854 -31.46459646 67.32894437 -35.0625 72.3125 C-35.61873047 73.08335938 -36.17496094 73.85421875 -36.74804688 74.6484375 C-37.27333984 75.37546875 -37.79863281 76.1025 -38.33984375 76.8515625 C-38.80511475 77.49561035 -39.27038574 78.1396582 -39.74975586 78.80322266 C-40.20358643 79.42503418 -40.65741699 80.0468457 -41.125 80.6875 C-41.58116699 81.41855957 -42.03733398 82.14961914 -42.50732422 82.90283203 C-44.125 84.6875 -44.125 84.6875 -46.30151367 85.14160156 C-47.12369385 85.1206543 -47.94587402 85.09970703 -48.79296875 85.078125 C-49.68564453 85.06523438 -50.57832031 85.05234375 -51.49804688 85.0390625 C-52.42681641 85.00554687 -53.35558594 84.97203125 -54.3125 84.9375 C-55.25287109 84.91945313 -56.19324219 84.90140625 -57.16210938 84.8828125 C-59.48409889 84.8356655 -61.8040369 84.76988231 -64.125 84.6875 C-61.15706737 79.25104648 -57.7929459 74.29793005 -54.125 69.3125 C-52.9575356 67.71151891 -51.79088732 66.10994243 -50.625 64.5078125 C-49.74521484 63.2997998 -49.74521484 63.2997998 -48.84765625 62.06738281 C-46.23966969 58.46439911 -43.68082196 54.82758422 -41.125 51.1875 C-36.46963124 44.56574529 -31.74941862 37.99370082 -26.99584961 31.44213867 C-24.25159558 27.6537898 -21.52935612 23.85247805 -18.84765625 20.01953125 C-18.3165625 19.26091797 -17.78546875 18.50230469 -17.23828125 17.72070312 C-16.24149353 16.29331315 -15.24774328 14.86379458 -14.2578125 13.43164062 C-11.94775196 10.12360776 -9.56826921 6.88351807 -7.03515625 3.7421875 C-6.34691772 2.88536377 -6.34691772 2.88536377 -5.64477539 2.01123047 C-3.72380182 0.33805477 -2.52583657 0.13072185 0 0 Z " fill="#4C5860" transform="translate(344.125,-0.6875)"/>
<path d="M0 0 C6.72807183 2.08264984 11.54232334 12.03743443 15.25390625 17.63964844 C19.37390629 23.76487392 23.58543136 29.7732118 28.06640625 35.63964844 C33.01094009 42.12246356 37.62964707 48.78665194 42.18896484 55.54467773 C46.32874791 61.64826805 50.67152924 67.56665169 55.19726562 73.38964844 C57.96003882 76.9839359 60.17171635 80.48786151 62.06640625 84.63964844 C45.61375663 86.98073692 45.61375663 86.98073692 40.15087891 83.37548828 C36.55570471 79.77384213 34.02929764 75.43504019 31.49365234 71.05273438 C29.02325672 66.87596559 26.20569775 62.93761933 23.44140625 58.95214844 C22.34476683 57.33385212 21.2484067 55.7153665 20.15234375 54.09667969 C16.85064485 49.27416748 13.29543721 44.703137 9.68359375 40.10839844 C5.72890272 34.96760979 2.15115749 29.55160822 -1.46875 24.17285156 C-3.64765693 20.94215129 -5.78082226 17.8221114 -8.28515625 14.83105469 C-10.99521451 11.22834691 -10.49370844 9.05055164 -9.93359375 4.63964844 C-7.54845029 0.66440934 -4.62735874 -0.24074196 0 0 Z " fill="#4C5860" transform="translate(169.93359375,-0.6396484375)"/>
<path d="M0 0 C6.92373208 -0.12564912 13.67616449 0.24965498 20.5625 0.9375 C33.02497356 2.11041435 45.49165042 2.61074586 58 3 C53.64466634 8.20628845 49.07104713 13.07597423 44.265625 17.8671875 C43.54638855 18.58738068 42.8271521 19.30757385 42.08612061 20.04959106 C40.57801017 21.55837764 39.06865368 23.06591967 37.55810547 24.57226562 C35.23939189 26.88558343 32.92611386 29.20424155 30.61328125 31.5234375 C29.14355004 32.99250859 27.67350904 34.46126982 26.203125 35.9296875 C25.51043518 36.62440155 24.81774536 37.3191156 24.10406494 38.03488159 C23.14231354 38.99190475 23.14231354 38.99190475 22.16113281 39.96826172 C21.59742981 40.53116913 21.03372681 41.09407654 20.45294189 41.67404175 C17.14481199 44.69304902 13.74920893 44.26800241 9.4765625 44.21875 C5.30007855 43.84984921 3.12844821 42.12844821 0.25 39.25 C-2.56098036 34.19023536 -2.06934577 28.36220964 -1.66015625 22.75390625 C-1.61434921 22.09792953 -1.56854218 21.44195282 -1.52134705 20.76609802 C-1.37532677 18.69766524 -1.21910038 16.63015585 -1.0625 14.5625 C-0.96090898 13.14913722 -0.85999132 11.73572588 -0.75976562 10.32226562 C-0.51428424 6.88091495 -0.25965233 3.44031389 0 0 Z " fill="#5E6A74" transform="translate(54,468)"/>
<path d="M0 0 C0.33798128 4.26730106 0.65876008 8.53546211 0.96435547 12.80517578 C1.0704287 14.25441333 1.1810173 15.70332832 1.29638672 17.15185547 C2.51009291 32.46566137 2.51009291 32.46566137 0 39 C-3.6786792 42.58671222 -6.54394886 44.18538383 -11.625 44.5 C-12.85089844 44.60828125 -12.85089844 44.60828125 -14.1015625 44.71875 C-21.4039451 42.90791658 -27.56278305 34.5963691 -32.78125 29.38671875 C-33.48020386 28.69109329 -34.17915771 27.99546783 -34.89929199 27.27876282 C-36.35929204 25.82378308 -37.81797954 24.36748513 -39.27539062 22.90991211 C-41.51673765 20.67077889 -43.76600014 18.43979722 -46.015625 16.20898438 C-47.43798773 14.78955107 -48.85988023 13.36964637 -50.28125 11.94921875 C-50.9561145 11.28153976 -51.630979 10.61386078 -52.32629395 9.9259491 C-52.94113647 9.30802994 -53.555979 8.69011078 -54.18945312 8.0534668 C-54.73380005 7.51054489 -55.27814697 6.96762299 -55.83898926 6.4082489 C-57 5 -57 5 -57 3 C-55.81035645 2.94465088 -54.62071289 2.88930176 -53.39501953 2.83227539 C-48.94062735 2.62432639 -44.48640638 2.41288466 -40.03222656 2.20043945 C-38.11202348 2.1093314 -36.19177645 2.01914439 -34.27148438 1.92993164 C-31.49597023 1.80082119 -28.7206361 1.66829279 -25.9453125 1.53515625 C-25.1001004 1.49656998 -24.25488831 1.4579837 -23.38406372 1.41822815 C-19.15649243 1.21220459 -14.96286658 0.91308982 -10.75341797 0.46655273 C-7.14963681 0.08449894 -3.62862212 -0.09549006 0 0 Z " fill="#5E6A74" transform="translate(458,468)"/>
<path d="M0 0 C2.31063733 0.36612211 4.62333479 0.71938243 6.9375 1.0625 C8.95839006 1.37463296 10.97924243 1.68701048 13 2 C12.47212891 2.64001953 12.47212891 2.64001953 11.93359375 3.29296875 C1.91142985 15.98422068 -2.64547611 29.01661807 -4 45 C-1.36 45 1.28 45 4 45 C4 45.33 4 45.66 4 46 C2.09154297 45.90912109 2.09154297 45.90912109 0.14453125 45.81640625 C-0.69601807 45.77644531 -1.53656738 45.73648438 -2.40258789 45.6953125 C-4.2754971 45.60599343 -6.14838093 45.51614062 -8.02124023 45.42578125 C-12.99026188 45.18681018 -17.95937712 44.95670012 -22.9296875 44.74609375 C-24.34664917 44.6840979 -24.34664917 44.6840979 -25.79223633 44.62084961 C-27.60964207 44.54156735 -29.42718922 44.46545021 -31.24487305 44.39282227 C-32.072854 44.35600342 -32.90083496 44.31918457 -33.75390625 44.28125 C-34.47908447 44.25095703 -35.2042627 44.22066406 -35.95141602 44.18945312 C-38.05163959 43.99522437 -39.97057715 43.56441091 -42 43 C-38.54855786 26.66878598 -31.69424231 14.2475987 -17.671875 4.69921875 C-7.55595248 -1.73415303 -7.55595248 -1.73415303 0 0 Z " fill="#E6A42E" transform="translate(143,387)"/>
<path d="M0 0 C8.02470457 1.00308807 11.61931417 2.09148425 16.75 8 C21.23625451 13.98167268 21.81197284 18.5894631 21 26 C19.2107494 32.26773415 15.29142856 36.36886167 10 40 C6.14585428 42.01883823 4.59157763 42 0 42 C0 28.14 0 14.28 0 0 Z " fill="#F0B886" transform="translate(297,277)"/>
<path d="M0 0 C4.46702209 0.70070935 5.51855064 2.98822452 8.1875 6.5 C10.89759046 8.57773602 12.13961991 8.50087055 15.625 8.4375 C19.84186307 7.32779919 21.39214126 5.7745631 24.1875 2.5 C26.1875 0.5 26.1875 0.5 29.1875 0.25 C32.1875 0.5 32.1875 0.5 34.1875 2.5 C34.27960823 7.19751984 33.25783518 9.88112929 30.125 13.25 C25.03935966 17.86859173 19.31034831 20.22672685 12.33203125 19.91015625 C6.30403974 18.7572617 0.83396756 15.88260815 -2.9375 11 C-5.54065534 6.1407767 -5.54065534 6.1407767 -4.8125 2.5 C-2.8125 0.5 -2.8125 0.5 0 0 Z " fill="#515C62" transform="translate(183.8125,338.5)"/>
<path d="M0 0 C3.81492458 1.16783406 4.93270111 2.6244795 7.0625 5.9375 C8.91030818 11.48092454 8.74065423 16.0935337 6.25 21.3125 C4.71624226 24.26248615 3.97422069 24.99635288 1.0625 26.9375 C-2.9106785 26.85296429 -4.4474313 26.4408138 -7.25 23.5625 C-10.44835724 18.58727762 -10.60056158 13.69896753 -9.9375 7.9375 C-7.60058721 3.42484082 -5.4769826 -0.11653154 0 0 Z " fill="#525D63" transform="translate(244.9375,277.0625)"/>
<path d="M0 0 C3.83545518 1.17411893 4.95304605 2.57799926 7.0625 5.9375 C9.00586932 10.79592331 8.4314458 15.83066261 6.8125 20.6875 C4.22576531 25.49143586 4.22576531 25.49143586 1.0625 26.9375 C-1.9375 26.9375 -1.9375 26.9375 -4.9375 25.9375 C-9.03105624 21.84394376 -10.06188522 18.20594335 -10.25 12.5625 C-10.20487991 7.99785092 -8.93940363 5.45401568 -5.9375 1.9375 C-2.9375 -0.0625 -2.9375 -0.0625 0 0 Z " fill="#525C62" transform="translate(153.9375,277.0625)"/>
</svg>
