<?xml version="1.0" encoding="UTF-8"?>
<svg version="1.1" xmlns="http://www.w3.org/2000/svg" width="512" height="512">
<path d="M0 0 C7.52735904 4.48853632 11.93185993 10.28063521 15.421875 18.2578125 C16.28588231 22.02802621 16.15296605 25.39009771 16.109375 29.2578125 C17.22908691 29.23686523 18.34879883 29.21591797 19.50244141 29.19433594 C23.67320877 29.12170824 27.84392068 29.07593039 32.01513672 29.03808594 C33.81731581 29.01802217 35.61943021 28.99076437 37.42138672 28.95605469 C40.01806636 28.90730421 42.61388229 28.88479168 45.2109375 28.8671875 C46.41129135 28.83621979 46.41129135 28.83621979 47.63589478 28.80462646 C52.94163741 28.80251819 55.8944475 29.75344445 60.109375 33.2578125 C63.59959341 37.48281373 64.3043737 39.87284851 64.109375 45.2578125 C64.68851654 45.24893005 65.26765808 45.24004761 65.86434937 45.230896 C71.93208879 45.14189723 77.99964059 45.08186195 84.06787109 45.03808594 C86.32771343 45.01806161 88.58750455 44.99083388 90.84716797 44.95605469 C94.10917862 44.90713172 97.37049987 44.88475118 100.6328125 44.8671875 C101.63114105 44.84654236 102.6294696 44.82589722 103.65805054 44.80462646 C112.82446169 44.8017424 120.78227326 47.20761843 127.578125 53.5546875 C133.45549138 60.09175827 136.34551099 67.11947741 136.3878479 75.93966675 C136.3936403 76.58591102 136.3994327 77.23215529 136.40540063 77.89798272 C136.422316 80.04906477 136.42526973 82.19993119 136.42822266 84.35107422 C136.4375267 85.89874289 136.44769608 87.44640656 136.45866394 88.99406433 C136.48592437 93.18571353 136.5011016 97.37732919 136.51409197 101.56904364 C136.52973983 105.95330487 136.55652478 110.33749781 136.5821228 114.72171021 C136.62888127 123.0194458 136.66563957 131.31719429 136.69879568 139.61499417 C136.73703778 149.06360521 136.78644248 158.51214761 136.83677983 167.96070075 C136.94005608 187.39302107 137.02933049 206.8253833 137.109375 226.2578125 C137.64726654 225.90376343 138.18515808 225.54971436 138.73934937 225.18493652 C139.45104279 224.72623169 140.16273621 224.26752686 140.89599609 223.79492188 C141.59888763 223.3377478 142.30177917 222.88057373 143.02597046 222.4095459 C145.98132389 220.7757877 148.38926288 220.66014499 151.734375 220.7578125 C152.79914063 220.768125 153.86390625 220.7784375 154.9609375 220.7890625 C161.60683123 221.77852559 165.54052936 225.26599135 169.984375 229.9453125 C170.48195313 230.45642578 170.97953125 230.96753906 171.4921875 231.49414062 C172.70495676 232.74189362 173.90818219 233.99891114 175.109375 235.2578125 C176.07875 234.4121875 177.048125 233.5665625 178.046875 232.6953125 C191.55760586 221.11468605 191.55760586 221.11468605 199.359375 221.0078125 C201.03773438 220.96914063 201.03773438 220.96914063 202.75 220.9296875 C209.55722832 221.59457957 213.48842955 225.21113081 217.984375 229.9453125 C218.48195313 230.45642578 218.97953125 230.96753906 219.4921875 231.49414062 C220.70495676 232.74189362 221.90818219 233.99891114 223.109375 235.2578125 C224.07875 234.4328125 225.048125 233.6078125 226.046875 232.7578125 C226.68625 232.21898437 227.325625 231.68015625 227.984375 231.125 C229.46524172 229.82379725 230.90045126 228.46956151 232.296875 227.078125 C238.81114982 220.72218325 238.81114982 220.72218325 243.171875 220.3203125 C248.41261245 220.91184128 251.59195894 224.64551431 255.109375 228.2578125 C255.85058594 228.97582031 256.59179688 229.69382812 257.35546875 230.43359375 C263.91389289 236.82834955 263.91389289 236.82834955 264.609375 241.9140625 C264.56188724 245.66559568 263.5845877 247.37082467 261.046875 250.1015625 C259.75427746 251.34140096 258.44093824 252.5599197 257.109375 253.7578125 C256.10777344 254.70527344 256.10777344 254.70527344 255.0859375 255.671875 C253.4437277 257.22024424 251.78594665 258.74685963 250.109375 260.2578125 C252.3524578 265.10822299 255.9366741 268.09249639 259.796875 271.72265625 C263.66377033 275.96187089 264.40005955 279.54511079 264.421875 285.1953125 C264.43863281 286.19433594 264.45539063 287.19335938 264.47265625 288.22265625 C263.6825701 294.82369858 260.02955238 298.75700534 255.421875 303.1328125 C254.91076172 303.63039063 254.39964844 304.12796875 253.87304688 304.640625 C252.62529388 305.85339426 251.36827636 307.05661969 250.109375 308.2578125 C252.10021466 313.15573053 256.0185067 316.16945234 259.796875 319.72265625 C263.66377033 323.96187089 264.40005955 327.54511079 264.421875 333.1953125 C264.43863281 334.19433594 264.45539063 335.19335938 264.47265625 336.22265625 C263.73377659 342.39587659 260.54446836 346.2370209 256.234375 350.5078125 C255.39132812 351.35859375 254.54828125 352.209375 253.6796875 353.0859375 C249.30297668 356.78419162 245.52420335 357.59361458 239.859375 357.7578125 C238.27382813 357.83515625 238.27382813 357.83515625 236.65625 357.9140625 C227.93144728 356.29978182 221.67265738 349.23000311 215.734375 343.0703125 C215.03699219 342.35939453 214.33960938 341.64847656 213.62109375 340.91601562 C212.33578773 339.60480612 211.05361818 338.29050802 209.77587891 336.97192383 C208.67551482 335.84012537 207.54740072 334.73458681 206.39208984 333.65893555 C205.109375 332.2578125 205.109375 332.2578125 205.109375 330.2578125 C204.449375 330.2578125 203.789375 330.2578125 203.109375 330.2578125 C203.109375 329.5978125 203.109375 328.9378125 203.109375 328.2578125 C202.449375 328.2578125 201.789375 328.2578125 201.109375 328.2578125 C201.109375 327.5978125 201.109375 326.9378125 201.109375 326.2578125 C200.449375 326.2578125 199.789375 326.2578125 199.109375 326.2578125 C199.109375 325.5978125 199.109375 324.9378125 199.109375 324.2578125 C198.119375 323.9278125 197.129375 323.5978125 196.109375 323.2578125 C196.109375 322.5978125 196.109375 321.9378125 196.109375 321.2578125 C195.119375 320.9278125 194.129375 320.5978125 193.109375 320.2578125 C193.109375 319.5978125 193.109375 318.9378125 193.109375 318.2578125 C183.72427513 326.34810962 174.65612729 334.77462191 165.72886753 343.36450863 C162.93315034 346.05169969 160.12010768 348.71273002 157.25317383 351.32397461 C141.80951599 364.71234067 141.80951599 364.71234067 135.19749451 383.26063538 C135.19962177 387.19450832 135.43974223 391.03472273 135.92497253 394.93778992 C136.109375 397.2578125 136.109375 397.2578125 135.36230469 400.59326172 C134.79484795 403.45252837 134.79484795 403.45252837 137.07543945 405.97094727 C138.031521 406.87127686 138.98760254 407.77160645 139.97265625 408.69921875 C140.47983688 409.18937973 140.98701752 409.67954071 141.50956726 410.18455505 C143.13127883 411.7473151 144.77452903 413.28463469 146.421875 414.8203125 C148.05489587 416.3627572 149.68255172 417.9101401 151.30204773 419.46678162 C152.77582759 420.88032584 154.26511564 422.27764803 155.75512695 423.67407227 C159.62509533 427.9212853 160.40007952 431.55028377 160.421875 437.1953125 C160.43863281 438.19433594 160.45539063 439.19335938 160.47265625 440.22265625 C159.73377659 446.39587659 156.54446836 450.2370209 152.234375 454.5078125 C151.39132812 455.35859375 150.54828125 456.209375 149.6796875 457.0859375 C144.29430845 461.63650095 139.18489528 461.7489083 132.33984375 461.640625 C125.38246269 460.81617114 120.59771905 456.42620868 116.109375 451.2578125 C115.779375 450.2678125 115.449375 449.2778125 115.109375 448.2578125 C113.4071744 447.00493254 113.4071744 447.00493254 111.109375 447.2578125 C109.06059638 449.12033852 107.30311789 450.94172527 105.484375 453.0078125 C100.61669624 458.17014133 96.52897516 461.86668342 89.109375 462.2578125 C82.86702631 461.89660835 77.93874556 460.33594764 73.109375 456.2578125 C71.2870811 454.16718082 69.52253073 452.05689546 67.8203125 449.8671875 C66.01526376 447.80104105 66.01526376 447.80104105 62.109375 448.2578125 C60.52919114 449.43309786 60.52919114 449.43309786 59.19140625 451.1015625 C58.65837891 451.68808594 58.12535156 452.27460938 57.57617188 452.87890625 C56.48179342 454.1218721 55.39820148 455.37442685 54.32617188 456.63671875 C51.37985912 459.83999785 49.14843056 461.73182743 44.71484375 462.140625 C38.75569639 461.67373574 35.49236538 457.81618515 31.609375 453.6328125 C30.89523438 452.91996094 30.18109375 452.20710938 29.4453125 451.47265625 C26.53285568 448.45499662 24.40864496 446.07271651 22.953125 442.109375 C23.30685758 435.65375543 27.36185388 431.59465191 31.796875 427.3828125 C32.30798828 426.88523437 32.81910156 426.38765625 33.34570312 425.875 C34.59345612 424.66223074 35.85047364 423.45900531 37.109375 422.2578125 C36.18576738 422.25634594 35.26215977 422.25487938 34.31056404 422.25336838 C11.81664817 422.21674126 -10.67711918 422.15724952 -33.17091179 422.07390976 C-44.04883948 422.03413391 -54.92669497 422.001734 -65.8046875 421.98681641 C-75.28813288 421.97379239 -84.77141931 421.94680846 -94.25477517 421.90319943 C-99.27418442 421.88060161 -104.29339776 421.86490082 -109.3128624 421.86592865 C-114.04238552 421.86667625 -118.77147582 421.84868535 -123.50088692 421.81664467 C-125.23177808 421.80816238 -126.96271788 421.80638434 -128.69362068 421.81200981 C-140.26925756 421.84460463 -150.4768534 421.25687748 -159.359375 412.9609375 C-164.9343909 406.76015451 -168.13590864 399.8358462 -168.14789391 391.42496109 C-168.1543428 390.27662804 -168.16079169 389.12829499 -168.167436 387.94516397 C-168.1643388 386.69323117 -168.1612416 385.44129838 -168.15805054 384.15142822 C-168.16178884 382.80043972 -168.16639108 381.44945337 -168.17178118 380.09847045 C-168.18400454 376.39159159 -168.1837515 372.68480302 -168.18139243 368.97790861 C-168.18098409 364.97777131 -168.19202507 360.97766289 -168.20150757 356.97753906 C-168.21811517 349.14234229 -168.22361702 341.30717562 -168.22473232 333.47196272 C-168.22568296 327.10204947 -168.22979406 320.73214614 -168.23613358 314.36223602 C-168.25374575 296.29762719 -168.26297255 278.23304212 -168.26147263 260.16842464 C-168.26139272 259.19470974 -168.2613128 258.22099485 -168.26123047 257.21777344 C-168.26110783 255.75541514 -168.26110783 255.75541514 -168.26098271 254.26351425 C-168.26016993 238.46641971 -168.27930545 222.66942054 -168.3075072 206.87235358 C-168.336244 190.6473905 -168.35004704 174.42247391 -168.34831965 158.19748473 C-168.347656 149.09027691 -168.35313739 139.98316907 -168.37467575 130.87598419 C-168.39289807 123.12129694 -168.39722631 115.36675498 -168.3836569 107.61205557 C-168.37713238 103.65735292 -168.37699117 99.70292891 -168.3943634 95.74825287 C-168.41012247 92.12343702 -168.40720213 88.49912008 -168.38979514 84.87431619 C-168.38528701 82.9513407 -168.40036042 81.02834957 -168.41627443 79.10543466 C-168.33874357 69.33766374 -166.40365565 61.08047663 -159.59375 53.7890625 C-151.48559805 46.49916441 -143.43080368 44.95485361 -132.8046875 45.0625 C-131.21930679 45.06674484 -131.21930679 45.06674484 -129.60189819 45.07107544 C-126.23968999 45.082234 -122.87775214 45.10733091 -119.515625 45.1328125 C-117.23047261 45.14284788 -114.94531602 45.15197275 -112.66015625 45.16015625 C-107.07022089 45.18215918 -101.48044227 45.21559377 -95.890625 45.2578125 C-95.92414063 44.33226562 -95.95765625 43.40671875 -95.9921875 42.453125 C-95.8579306 38.22919629 -94.56221694 36.49184484 -91.890625 33.2578125 C-86.86321501 29.0779316 -83.23870919 28.70603461 -76.9921875 28.8671875 C-76.15722748 28.87284729 -75.32226746 28.87850708 -74.46200562 28.88433838 C-71.81261234 28.90661027 -69.16460484 28.95678727 -66.515625 29.0078125 C-64.71225921 29.02788948 -62.90887208 29.04613815 -61.10546875 29.0625 C-56.69999231 29.10644464 -52.29554306 29.17540649 -47.890625 29.2578125 C-47.90432129 27.99396729 -47.91801758 26.73012207 -47.93212891 25.42797852 C-48.01394109 17.87863854 -44.70184128 11.25833195 -39.59375 5.7890625 C-28.99673947 -3.73852495 -12.95346121 -6.21592266 0 0 Z M136.109375 262.2578125 C136.109375 282.3878125 136.109375 302.5178125 136.109375 323.2578125 C140.60681467 319.40286421 144.89679839 315.61182143 149.04296875 311.421875 C149.5657692 310.89765961 150.08856964 310.37344421 150.62721252 309.83334351 C152.26949845 308.1855338 153.9082415 306.53425349 155.546875 304.8828125 C156.67098967 303.75367295 157.79533674 302.62476472 158.91992188 301.49609375 C161.65242735 298.75266062 164.38176509 296.00611265 167.109375 293.2578125 C161.94251125 286.95080018 156.22750472 281.22326432 150.45776367 275.47583008 C148.77989816 273.80339056 147.10752674 272.12558706 145.43554688 270.44726562 C144.3727169 269.3850953 143.30957739 268.3232346 142.24609375 267.26171875 C141.74510666 266.75870743 141.24411957 266.25569611 140.72795105 265.73744202 C138.75789243 263.31705702 138.75789243 263.31705702 136.109375 262.2578125 Z " fill="#FEB64D" transform="translate(207.890625,26.7421875)"/>
<path d="M0 0 C5.94070658 -0.09953497 11.88091827 -0.17178154 17.82226562 -0.21972656 C19.83960435 -0.23973216 21.8568859 -0.2669456 23.87402344 -0.30175781 C26.78855573 -0.35076577 29.70231559 -0.37307964 32.6171875 -0.390625 C33.50614716 -0.41127014 34.39510681 -0.43191528 35.31100464 -0.45318604 C44.12897529 -0.45628336 51.96151763 2.21936552 58.46875 8.296875 C64.36693271 14.85709863 67.23565719 21.89341852 67.28088379 30.74191284 C67.28682603 31.39476324 67.29276828 32.04761364 67.29889059 32.72024739 C67.31614684 34.89411763 67.31927085 37.06776609 67.32226562 39.24169922 C67.33153016 40.80594344 67.34158058 42.37018318 67.35235596 43.93441772 C67.37852449 48.17413216 67.39147754 52.41378337 67.40037727 56.65356588 C67.40624998 59.30467795 67.41446156 61.95577294 67.42338562 64.60687637 C67.45071099 72.90850804 67.4700578 81.21010043 67.4777894 89.51177394 C67.48675333 99.08270781 67.52187093 108.65307077 67.57979059 118.22383106 C67.62305722 125.63124628 67.64319959 133.03850102 67.64587164 140.44604123 C67.64796488 144.86631897 67.65971796 149.28605916 67.69551086 153.70620346 C67.72853229 157.8646434 67.73275626 162.02214333 67.71523285 166.18066788 C67.71369535 167.70281752 67.7223354 169.22501834 67.74214935 170.74703979 C67.91279371 184.67690789 67.91279371 184.67690789 62.38509369 190.50197029 C59.26908262 193.87205073 59.73110991 198.18795214 59.78125 202.5 C60.17772987 207.03119855 62.08286115 209.96535198 65.04231262 213.3039856 C70.94459362 221.43226735 69.34153406 235.95875112 69.6875 245.875 C69.71517834 246.59481049 69.74285667 247.31462097 69.77137375 248.0562439 C70.4233239 266.95668615 69.05430687 281.1720062 55.7568512 295.73947144 C47.33478413 304.26494329 38.04044489 312.4148968 28 319 C27.67 319 27.34 319 27 319 C26.99864347 318.38767031 26.99728694 317.77534063 26.99588931 317.14445549 C26.91522103 280.844453 26.82425895 244.54448984 26.71994839 208.24454731 C26.70742967 203.88495558 26.69499688 199.52536361 26.68261719 195.16577148 C26.6789182 193.86390933 26.6789182 193.86390933 26.67514448 192.53574692 C26.63543206 178.48684222 26.602678 164.43792949 26.57250018 150.38900144 C26.54137474 135.97110565 26.50276065 121.55324391 26.45720994 107.13538641 C26.42934342 98.24041825 26.40730241 89.34547496 26.39273749 80.45047491 C26.38218692 74.34898948 26.36435549 68.24755225 26.34083296 62.14610315 C26.32748026 58.62708656 26.31730493 55.10813745 26.31578636 51.58909416 C26.31405385 47.76925586 26.29697267 43.94957181 26.2784729 40.129776 C26.28040763 39.02372562 26.28234237 37.91767524 26.28433573 36.77810818 C26.20267431 25.49407001 24.46925559 17.70396927 17 9 C12.17015094 4.24951466 6.46486119 2.59995559 0 1 C0 0.67 0 0.34 0 0 Z " fill="#FEA726" transform="translate(277,72)"/>
<path d="M0 0 C3.47095417 2.13281 6.05361831 4.57374041 8.84375 7.51171875 C9.34132813 8.02283203 9.83890625 8.53394531 10.3515625 9.06054688 C11.56433176 10.30829987 12.76755719 11.56531739 13.96875 12.82421875 C14.938125 11.97859375 15.9075 11.13296875 16.90625 10.26171875 C30.41698086 -1.3189077 30.41698086 -1.3189077 38.21875 -1.42578125 C39.33765625 -1.4515625 40.4565625 -1.47734375 41.609375 -1.50390625 C48.41660332 -0.83901418 52.34780455 2.77753706 56.84375 7.51171875 C57.34132813 8.02283203 57.83890625 8.53394531 58.3515625 9.06054688 C59.56433176 10.30829987 60.76755719 11.56531739 61.96875 12.82421875 C63.4228125 11.58671875 63.4228125 11.58671875 64.90625 10.32421875 C65.8653125 9.51597656 65.8653125 9.51597656 66.84375 8.69140625 C68.32461672 7.3902035 69.75982626 6.03596776 71.15625 4.64453125 C77.67052482 -1.7114105 77.67052482 -1.7114105 82.03125 -2.11328125 C87.27198745 -1.52175247 90.45133394 2.21192056 93.96875 5.82421875 C94.70996094 6.54222656 95.45117188 7.26023437 96.21484375 8 C102.77326789 14.3947558 102.77326789 14.3947558 103.46875 19.48046875 C103.42126224 23.23200193 102.4439627 24.93723092 99.90625 27.66796875 C98.61365246 28.90780721 97.30031324 30.12632595 95.96875 31.32421875 C95.30101562 31.95585937 94.63328125 32.5875 93.9453125 33.23828125 C92.3031027 34.78665049 90.64532165 36.31326588 88.96875 37.82421875 C91.2118328 42.67462924 94.7960491 45.65890264 98.65625 49.2890625 C102.52314533 53.52827714 103.25943455 57.11151704 103.28125 62.76171875 C103.29800781 63.76074219 103.31476563 64.75976562 103.33203125 65.7890625 C102.5419451 72.39010483 98.88892738 76.32341159 94.28125 80.69921875 C93.51458008 81.44558594 93.51458008 81.44558594 92.73242188 82.20703125 C91.48466888 83.41980051 90.22765136 84.62302594 88.96875 85.82421875 C90.95958966 90.72213678 94.8778817 93.73585859 98.65625 97.2890625 C102.52314533 101.52827714 103.25943455 105.11151704 103.28125 110.76171875 C103.29800781 111.76074219 103.31476563 112.75976562 103.33203125 113.7890625 C102.59315159 119.96228284 99.40384336 123.80342715 95.09375 128.07421875 C94.25070312 128.925 93.40765625 129.77578125 92.5390625 130.65234375 C88.16235168 134.35059787 84.38357835 135.16002083 78.71875 135.32421875 C77.66171875 135.37578125 76.6046875 135.42734375 75.515625 135.48046875 C66.79082228 133.86618807 60.53203238 126.79640936 54.59375 120.63671875 C53.54767578 119.5703418 53.54767578 119.5703418 52.48046875 118.48242188 C51.19516273 117.17121237 49.91299318 115.85691427 48.63525391 114.53833008 C47.53488982 113.40653162 46.40677572 112.30099306 45.25146484 111.2253418 C43.96875 109.82421875 43.96875 109.82421875 43.96875 107.82421875 C43.30875 107.82421875 42.64875 107.82421875 41.96875 107.82421875 C41.96875 107.16421875 41.96875 106.50421875 41.96875 105.82421875 C41.30875 105.82421875 40.64875 105.82421875 39.96875 105.82421875 C39.96875 105.16421875 39.96875 104.50421875 39.96875 103.82421875 C39.30875 103.82421875 38.64875 103.82421875 37.96875 103.82421875 C37.96875 103.16421875 37.96875 102.50421875 37.96875 101.82421875 C36.48375 101.32921875 36.48375 101.32921875 34.96875 100.82421875 C34.96875 100.16421875 34.96875 99.50421875 34.96875 98.82421875 C33.48375 98.32921875 33.48375 98.32921875 31.96875 97.82421875 C30.57121277 96.40296936 30.57121277 96.40296936 29.03979492 94.51977539 C24.49976226 89.17415142 19.52312898 84.29760812 14.53551674 79.37695122 C12.79579495 77.65954092 11.06031285 75.93794794 9.32597351 74.21510315 C4.40024089 69.32270343 -0.52976182 64.43466933 -5.4699707 59.55688477 C-8.50603553 56.55859178 -11.53463356 53.55292539 -14.55866432 50.54249763 C-15.70527475 49.4038997 -16.85464743 48.26807602 -18.00690269 47.13519096 C-19.61930989 45.54944566 -21.22202578 43.95445585 -22.82299805 42.35717773 C-23.73454147 41.45531235 -24.6460849 40.55344696 -25.58525085 39.62425232 C-30.79745238 33.65763566 -33.35529736 28.24272418 -33.2421875 20.34765625 C-32.95083753 16.86224736 -31.94000949 14.7509833 -30.03125 11.82421875 C-29.61746094 11.17582031 -29.20367187 10.52742188 -28.77734375 9.859375 C-21.86213686 -0.25906125 -12.08510694 -4.68765102 0 0 Z " fill="#747474" transform="translate(369.03125,249.17578125)"/>
<path d="M0 0 C0.69738281 -0.02835937 1.39476562 -0.05671875 2.11328125 -0.0859375 C9.06437208 1.15871913 14.21247742 5.31389222 19.01171875 10.24511719 C19.58834763 10.82116196 20.1649765 11.39720673 20.75907898 11.9907074 C22.64070608 13.87509539 24.50780626 15.7731939 26.375 17.671875 C27.68548223 18.98982669 28.99685719 20.30689125 30.30908203 21.62310791 C33.74399494 25.07322145 37.16671976 28.5351803 40.5869751 31.99981689 C44.08580386 35.53971864 47.5961232 39.06818574 51.10546875 42.59765625 C57.97738656 49.51234656 64.8364721 56.43961585 71.6875 63.375 C74.48204022 62.0289887 76.50787956 60.79128213 78.66796875 58.5546875 C79.19197266 58.01972656 79.71597656 57.48476563 80.25585938 56.93359375 C81.05733398 56.10021484 81.05733398 56.10021484 81.875 55.25 C83.79384803 53.26998444 85.72713125 51.31460842 87.6875 49.375 C88.0175 49.375 88.3475 49.375 88.6875 49.375 C88.71668874 53.08331663 88.73436218 56.79160342 88.75 60.5 C88.75837891 61.54671875 88.76675781 62.5934375 88.77539062 63.671875 C88.77861328 64.69023437 88.78183594 65.70859375 88.78515625 66.7578125 C88.79039307 67.68996582 88.79562988 68.62211914 88.80102539 69.58251953 C88.6875 72.375 88.6875 72.375 87.87744141 75.38598633 C87.35917972 78.52810482 87.35917972 78.52810482 89.65356445 81.08813477 C91.08768677 82.43862915 91.08768677 82.43862915 92.55078125 83.81640625 C93.05796188 84.30656723 93.56514252 84.79672821 94.08769226 85.30174255 C95.70940383 86.8645026 97.35265403 88.40182219 99 89.9375 C100.63302087 91.4799447 102.26067672 93.0273276 103.88017273 94.58396912 C105.35395259 95.99751334 106.84324064 97.39483553 108.33325195 98.79125977 C112.20322033 103.0384728 112.97820452 106.66747127 113 112.3125 C113.01675781 113.31152344 113.03351563 114.31054688 113.05078125 115.33984375 C112.31190159 121.51306409 109.12259336 125.3542084 104.8125 129.625 C103.96945312 130.47578125 103.12640625 131.3265625 102.2578125 132.203125 C96.87243345 136.75368845 91.76302028 136.8660958 84.91796875 136.7578125 C77.96058769 135.93335864 73.17584405 131.54339618 68.6875 126.375 C68.3575 125.385 68.0275 124.395 67.6875 123.375 C65.9852994 122.12212004 65.9852994 122.12212004 63.6875 122.375 C61.63872138 124.23752602 59.88124289 126.05891277 58.0625 128.125 C53.19482124 133.28732883 49.10710016 136.98387092 41.6875 137.375 C34.7034402 136.97087785 28.96255203 135.03439736 24.18522644 129.69642639 C23.37653862 128.74080055 23.37653862 128.74080055 22.55151367 127.76586914 C18.59669766 123.20011773 14.36115298 118.97388814 10.05078125 114.74609375 C8.40531202 113.11812852 6.76013845 111.4898644 5.11523438 109.86132812 C2.55102084 107.32811842 -0.01544821 104.79732877 -2.5871582 102.27172852 C-5.08966486 99.81164935 -7.58254292 97.34213582 -10.07421875 94.87109375 C-10.84094406 94.12298935 -11.60766937 93.37488495 -12.39762878 92.60411072 C-17.83028644 87.19759414 -23.39647824 81.22572038 -23.5625 73.1875 C-23.38901831 63.31481495 -17.379835 57.54662564 -10.875 50.875 C-10.359375 50.38 -9.84375 49.885 -9.3125 49.375 C-10.67603559 46.27666913 -12.19897793 44.33911736 -14.6875 42.0625 C-19.61308382 37.30110231 -23.41950967 31.73667122 -23.625 24.75 C-23.4981755 17.95025554 -21.68788374 13.86254352 -16.99609375 8.94921875 C-11.80636824 4.09980311 -7.38797093 0.13506345 0 0 Z " fill="#757574" transform="translate(255.3125,351.625)"/>
<path d="M0 0 C7.52735904 4.48853632 11.93185993 10.28063521 15.421875 18.2578125 C16.28588231 22.02802621 16.15296605 25.39009771 16.109375 29.2578125 C17.22908691 29.23686523 18.34879883 29.21591797 19.50244141 29.19433594 C23.67320877 29.12170824 27.84392068 29.07593039 32.01513672 29.03808594 C33.81731581 29.01802217 35.61943021 28.99076437 37.42138672 28.95605469 C40.01806636 28.90730421 42.61388229 28.88479168 45.2109375 28.8671875 C46.41129135 28.83621979 46.41129135 28.83621979 47.63589478 28.80462646 C52.93322822 28.80252154 55.976604 29.65165705 60.109375 33.2578125 C63.9027796 37.72724203 64.69792631 41.35924524 64.60546875 47.0703125 C64.60692398 47.8022583 64.60837921 48.5342041 64.60987854 49.28833008 C64.60822666 50.82800294 64.59674532 52.36769355 64.57592773 53.90722656 C64.54695461 56.25137136 64.55533578 58.59325266 64.56835938 60.9375 C64.56212118 62.44011505 64.55372959 63.94272303 64.54296875 65.4453125 C64.54590439 66.13923096 64.54884003 66.83314941 64.55186462 67.5480957 C64.45038101 72.83571815 63.21084859 76.95385317 59.609375 80.90234375 C55.10314444 84.4111014 52.21922781 85.38091173 46.5879364 85.40498352 C44.86564819 85.41571648 44.86564819 85.41571648 43.10856628 85.42666626 C41.8477272 85.42935516 40.58688812 85.43204407 39.2878418 85.43481445 C37.94739608 85.44108053 36.6069521 85.44772746 35.26651001 85.45472717 C30.86388352 85.47575128 26.46125675 85.48612738 22.05859375 85.49609375 C20.5422088 85.5001418 19.02582404 85.50425873 17.50943947 85.50844383 C10.38566698 85.52749117 3.26190483 85.54172366 -3.86188823 85.5500558 C-12.08230325 85.55982967 -20.3024491 85.58615477 -28.52276927 85.62655669 C-34.87871189 85.65672249 -41.23457736 85.67152507 -47.59059018 85.67483681 C-51.38588131 85.67718662 -55.18088474 85.6861377 -58.97609901 85.71129799 C-62.5474933 85.73459244 -66.11841071 85.7388068 -69.6898613 85.72853661 C-71.62102594 85.72780586 -73.55216644 85.7468871 -75.48323059 85.76660156 C-81.90049928 85.72807627 -86.06860169 85.6886114 -90.890625 81.2578125 C-95.44636725 76.20955758 -96.06010817 72.34528892 -96.12890625 65.73828125 C-96.136978 65.00209061 -96.14504974 64.26589996 -96.15336609 63.50740051 C-96.16718535 61.94986308 -96.17791715 60.39229563 -96.18579102 58.8347168 C-96.1973087 57.24706102 -96.21775747 55.6594439 -96.24731445 54.07202148 C-96.2901146 51.77300821 -96.30617628 49.47514411 -96.31640625 47.17578125 C-96.33391434 46.47245163 -96.35142242 45.76912201 -96.36946106 45.04447937 C-96.34724169 39.95157694 -95.17778431 37.11430411 -91.890625 33.2578125 C-86.9905374 28.98211526 -83.18939792 28.70730679 -76.9921875 28.8671875 C-76.15722748 28.87284729 -75.32226746 28.87850708 -74.46200562 28.88433838 C-71.81261234 28.90661027 -69.16460484 28.95678727 -66.515625 29.0078125 C-64.71225921 29.02788948 -62.90887208 29.04613815 -61.10546875 29.0625 C-56.69999231 29.10644464 -52.29554306 29.17540649 -47.890625 29.2578125 C-47.90432129 27.99396729 -47.91801758 26.73012207 -47.93212891 25.42797852 C-48.01394109 17.87863854 -44.70184128 11.25833195 -39.59375 5.7890625 C-28.99673947 -3.73852495 -12.95346121 -6.21592266 0 0 Z " fill="#EE524F" transform="translate(207.890625,26.7421875)"/>
<path d="M0 0 C1.39412914 2.75509047 2.63568792 5.52060473 3.8125 8.375 C7.54529567 16.71567897 13.26579311 21.76483368 21.69366646 25.04997826 C25.30396349 26.08733902 28.30820011 26.26154075 32.06149292 26.2784729 C32.74857271 26.2842653 33.43565251 26.2900577 34.1435529 26.29602563 C36.43282711 26.31295436 38.72189885 26.31589592 41.01123047 26.31884766 C42.65741974 26.32815077 44.30360431 26.33832001 45.94978333 26.34928894 C50.41001962 26.37655984 54.87022438 26.39172973 59.33052206 26.40471697 C63.99505315 26.42036022 68.65951997 26.44714665 73.32400513 26.4727478 C82.15298176 26.51951441 90.98197051 26.55626879 99.81100762 26.58942068 C109.86419959 26.62765701 119.91732697 26.67706323 129.97046447 26.72740483 C150.64692861 26.83069319 171.32343364 26.91996368 192 27 C192.19083003 27.68569942 192.38166006 28.37139885 192.57827282 29.07787704 C192.96590786 30.42785971 192.96590786 30.42785971 193.3613739 31.80511475 C193.61407893 32.69706417 193.86678396 33.5890136 194.12714672 34.50799179 C195.35214366 38.00537502 197.24326131 40.1437308 199.83203125 42.765625 C200.30880814 43.25758362 200.78558502 43.74954224 201.27680969 44.25640869 C202.83474114 45.85480569 204.41617263 47.4272941 206 49 C207.1123807 50.12836046 208.22352451 51.25794148 209.33349609 52.38867188 C212.76082513 55.86679658 216.22192068 59.31005581 219.6875 62.75 C220.89021165 63.94767802 222.09268679 65.1455936 223.29492188 66.34375 C226.193909 69.23189879 229.09602993 72.11686185 232 75 C230.53659141 76.71146481 229.07169857 78.42160206 227.60400391 80.12939453 C226.31630423 81.63112283 225.03753791 83.14050918 223.76171875 84.65234375 C223.07722656 85.40644531 222.39273438 86.16054688 221.6875 86.9375 C221.01074219 87.70964844 220.33398438 88.48179687 219.63671875 89.27734375 C216.38174638 91.4039257 214.22623503 91.80223106 210.37426758 91.61645508 C205.6385474 90.3868722 202.73740277 86.86284336 199.5 83.375 C198.78585938 82.66214844 198.07171875 81.94929688 197.3359375 81.21484375 C194.42348068 78.19718412 192.29926996 75.81490401 190.84375 71.8515625 C191.19748258 65.39594293 195.25247888 61.33683941 199.6875 57.125 C200.19861328 56.62742187 200.70972656 56.12984375 201.23632812 55.6171875 C202.48408112 54.40441824 203.74109864 53.20119281 205 52 C204.07639238 51.99853344 203.15278477 51.99706688 202.20118904 51.99555588 C179.70727317 51.95892876 157.21350582 51.89943702 134.71971321 51.81609726 C123.84178552 51.77632141 112.96393003 51.7439215 102.0859375 51.72900391 C92.60249212 51.71597989 83.11920569 51.68899596 73.63584983 51.64538693 C68.61644058 51.62278911 63.59722724 51.60708832 58.5777626 51.60811615 C53.84823948 51.60886375 49.11914918 51.59087285 44.38973808 51.55883217 C42.65884692 51.55034988 40.92790712 51.54857184 39.19700432 51.55419731 C27.62136744 51.58679213 17.4137716 50.99906498 8.53125 42.703125 C2.72188824 36.24169202 -0.27855263 29.24802653 -0.1953125 20.5078125 C-0.18886719 19.30898438 -0.18242188 18.11015625 -0.17578125 16.875 C-0.15902344 15.6375 -0.14226563 14.4 -0.125 13.125 C-0.11597656 11.86429687 -0.10695312 10.60359375 -0.09765625 9.3046875 C-0.07415808 6.2029296 -0.04130334 3.10156348 0 0 Z " fill="#FEA726" transform="translate(40,397)"/>
<path d="M0 0 C4.37477474 -0.11651725 8.74914827 -0.18736 13.125 -0.25 C14.3625 -0.28351562 15.6 -0.31703125 16.875 -0.3515625 C26.00836269 -0.4497707 26.00836269 -0.4497707 30.6171875 1.640625 C34.95208492 5.93288409 37.4412755 9.44950368 37.53013611 15.7097168 C37.51328514 16.75059448 37.51328514 16.75059448 37.49609375 17.8125 C37.49754898 18.5444458 37.49900421 19.2763916 37.50050354 20.03051758 C37.49885166 21.57019044 37.48737032 23.10988105 37.46655273 24.64941406 C37.43757961 26.99355886 37.44596078 29.33544016 37.45898438 31.6796875 C37.45274618 33.18230255 37.44435459 34.68491053 37.43359375 36.1875 C37.43652939 36.88141846 37.43946503 37.57533691 37.44248962 38.2902832 C37.34100601 43.57790565 36.10147359 47.69604067 32.5 51.64453125 C27.99376944 55.1532889 25.10985281 56.12309923 19.4785614 56.14717102 C17.75627319 56.15790398 17.75627319 56.15790398 15.99919128 56.16885376 C14.7383522 56.17154266 13.47751312 56.17423157 12.1784668 56.17700195 C10.83802108 56.18326803 9.4975771 56.18991496 8.15713501 56.19691467 C3.75450852 56.21793878 -0.64811825 56.22831488 -5.05078125 56.23828125 C-6.5671662 56.2423293 -8.08355096 56.24644623 -9.59993553 56.25063133 C-16.72370802 56.26967867 -23.84747017 56.28391116 -30.97126323 56.2922433 C-39.19167825 56.30201717 -47.4118241 56.32834227 -55.63214427 56.36874419 C-61.98808689 56.39890999 -68.34395236 56.41371257 -74.69996518 56.41702431 C-78.49525631 56.41937412 -82.29025974 56.4283252 -86.08547401 56.45348549 C-89.6568683 56.47677994 -93.22778571 56.4809943 -96.7992363 56.47072411 C-98.73040094 56.46999336 -100.66154144 56.4890746 -102.59260559 56.50878906 C-109.00987428 56.47026377 -113.17797669 56.4307989 -118 52 C-122.1281118 47.42560584 -123.12855679 44.32568737 -123.09765625 38.23828125 C-123.09443359 37.12001953 -123.09121094 36.00175781 -123.08789062 34.84960938 C-123.07951172 33.68236328 -123.07113281 32.51511719 -123.0625 31.3125 C-123.05573242 29.54422852 -123.05573242 29.54422852 -123.04882812 27.74023438 C-123.03703273 24.82677211 -123.0205727 21.91341137 -123 19 C-122.71640625 19.59554687 -122.4328125 20.19109375 -122.140625 20.8046875 C-120.05128333 24.82595468 -117.66910378 28.22544565 -113.49485779 30.16252136 C-108.73729659 31.30258374 -104.20832704 31.28678658 -99.33227539 31.2746582 C-98.26975052 31.27976913 -97.20722565 31.28488007 -96.11250305 31.29014587 C-92.60749649 31.30402227 -89.10268698 31.30308662 -85.59765625 31.30078125 C-83.15677314 31.30466907 -80.71589071 31.30900392 -78.27500916 31.31376648 C-73.1615886 31.32122437 -68.0482371 31.32094037 -62.93481445 31.31567383 C-56.38666773 31.30987802 -49.83880375 31.32681528 -43.29070377 31.3500185 C-38.25062918 31.36475943 -33.21062265 31.36562706 -28.17053032 31.36250877 C-25.75643796 31.36302174 -23.34234177 31.36825487 -20.92827034 31.37832069 C-17.55103364 31.39067517 -14.17434722 31.38389896 -10.79711914 31.37231445 C-9.8031311 31.37995819 -8.80914307 31.38760193 -7.78503418 31.39547729 C-0.9669124 31.34385939 4.06231327 30.551149 9.375 25.9375 C11.97239525 21.24220859 12.68934595 16.22101468 11.55859375 10.9375 C9.37798361 5.15576798 5.31040926 2.58191873 0 0 Z " fill="#E53935" transform="translate(235,56)"/>
<path d="M0 0 C5.70396018 4.73752584 10.93795746 9.82228137 16.15234375 15.08984375 C17.01130753 15.95259415 17.8702713 16.81534454 18.75526428 17.70423889 C22.40438107 21.36959543 26.04751025 25.04088208 29.69116211 28.71166992 C32.36363404 31.40231381 35.03916832 34.08988611 37.71484375 36.77734375 C38.52654526 37.5973436 39.33824677 38.41734344 40.17454529 39.26219177 C44.38818981 43.493735 48.66767854 47.56542276 53.2182312 51.434021 C57.02702851 54.78153534 60.48010894 58.51927288 63.97460938 62.18945312 C68.49009696 66.81544208 72.10192932 69.25283137 78.75 69.4375 C85.47576338 69.26760702 90.21487506 66.63630147 95.046875 62.0625 C100.27051795 56.36398042 102.35884111 52.03984532 102.203125 44.29296875 C101.91076399 40.99266275 101.06625489 38.13212375 100 35 C104.45802053 38.66548355 108.68589512 42.52824632 112.8125 46.5625 C113.74707031 47.47128906 114.68164062 48.38007813 115.64453125 49.31640625 C119.47621776 53.68186004 120.29035197 57.20116091 120.3125 62.9375 C120.32925781 63.93652344 120.34601563 64.93554688 120.36328125 65.96484375 C119.62440159 72.13806409 116.43509336 75.9792084 112.125 80.25 C110.86042969 81.52617187 110.86042969 81.52617187 109.5703125 82.828125 C104.18493345 87.37868845 99.07552028 87.4910958 92.23046875 87.3828125 C85.27308769 86.55835864 80.48834405 82.16839618 76 77 C75.67 76.01 75.34 75.02 75 74 C73.2977994 72.74712004 73.2977994 72.74712004 71 73 C68.95122138 74.86252602 67.19374289 76.68391277 65.375 78.75 C60.50732124 83.91232883 56.41960016 87.60887092 49 88 C42.0159402 87.59587785 36.27505203 85.65939736 31.49772644 80.32142639 C30.95860123 79.6843425 30.41947601 79.04725861 29.86401367 78.39086914 C25.90919766 73.82511773 21.67365298 69.59888814 17.36328125 65.37109375 C15.71781202 63.74312852 14.07263845 62.1148644 12.42773438 60.48632812 C9.86352084 57.95311842 7.29705179 55.42232877 4.7253418 52.89672852 C2.22283514 50.43664935 -0.27004292 47.96713582 -2.76171875 45.49609375 C-3.91180672 44.37393715 -3.91180672 44.37393715 -5.08512878 43.22911072 C-10.51778644 37.82259414 -16.08397824 31.85072038 -16.25 23.8125 C-16.14575001 18.38281285 -15.15642813 14.16576332 -11.1953125 10.1875 C-9.81961457 8.98311539 -8.4235063 7.80163892 -7.0078125 6.64453125 C-4.48946055 4.58183442 -2.2641737 2.33492912 0 0 Z " fill="#626161" transform="translate(248,401)"/>
<path d="M0 0 C3.47095417 2.13281 6.05361831 4.57374041 8.84375 7.51171875 C9.34132813 8.02283203 9.83890625 8.53394531 10.3515625 9.06054688 C11.56433176 10.30829987 12.76755719 11.56531739 13.96875 12.82421875 C15.4228125 11.58671875 15.4228125 11.58671875 16.90625 10.32421875 C17.8653125 9.51597656 17.8653125 9.51597656 18.84375 8.69140625 C20.32461672 7.3902035 21.75982626 6.03596776 23.15625 4.64453125 C29.67052482 -1.7114105 29.67052482 -1.7114105 34.03125 -2.11328125 C39.27198745 -1.52175247 42.45133394 2.21192056 45.96875 5.82421875 C46.70996094 6.54222656 47.45117188 7.26023437 48.21484375 8 C54.77326789 14.3947558 54.77326789 14.3947558 55.46875 19.48046875 C55.42126224 23.23200193 54.4439627 24.93723092 51.90625 27.66796875 C50.61365246 28.90780721 49.30031324 30.12632595 47.96875 31.32421875 C47.30101562 31.95585937 46.63328125 32.5875 45.9453125 33.23828125 C44.3031027 34.78665049 42.64532165 36.31326588 40.96875 37.82421875 C43.2118328 42.67462924 46.7960491 45.65890264 50.65625 49.2890625 C54.52314533 53.52827714 55.25943455 57.11151704 55.28125 62.76171875 C55.29800781 63.76074219 55.31476563 64.75976562 55.33203125 65.7890625 C54.51897242 72.58203785 50.60079346 76.64523048 45.90625 81.19921875 C45.36419922 81.74449219 44.82214844 82.28976562 44.26367188 82.8515625 C40.2362547 86.82421875 40.2362547 86.82421875 37.96875 86.82421875 C36.48828125 85.3203125 36.48828125 85.3203125 34.78125 83.26171875 C31.36115637 79.23724267 27.73775337 75.5185062 23.96875 71.82421875 C22.301279 70.15835681 20.63474436 68.49155746 18.96875 66.82421875 C18.11887009 65.97433884 17.26899017 65.12445892 16.39335632 64.24882507 C-0.08151245 47.7739563 -16.55638123 31.29908752 -33.03125 14.82421875 C-26.9632233 2.21099632 -13.67010236 -5.3024495 0 0 Z " fill="#606060" transform="translate(417.03125,249.17578125)"/>
<path d="M0 0 C3.86328627 1.5847358 6.28876923 4.05956887 9.203125 7.0078125 C9.6857782 7.49329559 10.1684314 7.97877869 10.66571045 8.47897339 C12.19858562 10.02299866 13.72434004 11.57384824 15.25 13.125 C16.29120361 14.17624009 17.33286541 15.22702657 18.375 16.27734375 C20.92199464 18.84633004 23.46265177 21.42148161 26 24 C21.98788275 28.81083002 17.79404277 33.34672497 13.35205078 37.76147461 C12.71719254 38.39647888 12.08233429 39.03148315 11.42823792 39.68572998 C9.35296051 41.76031704 7.27417599 43.83135073 5.1953125 45.90234375 C3.74635295 47.34943599 2.29761568 48.79675084 0.84909058 50.24427795 C-2.9462331 54.03580107 -6.74455131 57.82431021 -10.54351807 61.61218262 C-14.42667159 65.4850689 -18.30696195 69.36082152 -22.1875 73.23632812 C-29.78887983 80.82701408 -37.39342884 88.41451649 -45 96 C-48.71713736 94.26239853 -51.08741012 92.14323122 -53.984375 89.2109375 C-54.44483215 88.74765045 -54.90528931 88.2843634 -55.37969971 87.80703735 C-56.84125078 86.33434102 -58.29567168 84.85482597 -59.75 83.375 C-60.74302611 82.37193678 -61.73651089 81.36932743 -62.73046875 80.3671875 C-65.15897941 77.91669165 -67.58114675 75.4600333 -70 73 C-68.59879754 69.82716634 -66.94854242 67.70831007 -64.48754883 65.27636719 C-63.41051445 64.20440094 -63.41051445 64.20440094 -62.3117218 63.11077881 C-61.53467392 62.34719055 -60.75762604 61.58360229 -59.95703125 60.796875 C-59.1552092 60.00025452 -58.35338715 59.20363403 -57.52726746 58.38287354 C-54.96037582 55.8337925 -52.38692442 53.2914714 -49.8125 50.75 C-47.25675608 48.22200181 -44.7025261 45.69252167 -42.15129089 43.15997314 C-40.5646798 41.58547555 -38.97540406 40.01365686 -37.38301086 38.44500732 C-33.28321409 34.38170008 -29.3862012 30.22397328 -25.62110901 25.84942627 C-23.21623254 23.1058466 -20.65887234 20.53384433 -18.06640625 17.96875 C-17.5436058 17.4473645 -17.02080536 16.925979 -16.48216248 16.38879395 C-14.84465002 14.75678922 -13.20366151 13.12833426 -11.5625 11.5 C-10.4379167 10.38044368 -9.31356595 9.26065371 -8.18945312 8.140625 C-5.46230656 5.42438466 -2.73204093 2.71131708 0 0 Z " fill="#E0DFDF" transform="translate(374,320)"/>
<path d="M0 0 C15.84 0 31.68 0 48 0 C48 15.84 48 31.68 48 48 C32.16 48 16.32 48 0 48 C0 32.16 0 16.32 0 0 Z " fill="#E53935" transform="translate(88,352)"/>
<path d="M0 0 C15.84 0 31.68 0 48 0 C48 15.84 48 31.68 48 48 C32.16 48 16.32 48 0 48 C0 32.16 0 16.32 0 0 Z " fill="#E53935" transform="translate(88,256)"/>
<path d="M0 0 C15.84 0 31.68 0 48 0 C48 15.84 48 31.68 48 48 C32.16 48 16.32 48 0 48 C0 32.16 0 16.32 0 0 Z " fill="#E53935" transform="translate(88,160)"/>
<path d="M0 0 C1.21189499 -0.00554901 2.42378998 -0.01109802 3.67240906 -0.01681519 C6.98903489 -0.0265929 10.30409834 -0.01402681 13.62055779 0.00946999 C17.09489473 0.02960797 20.56919813 0.02369791 24.0435791 0.0213623 C29.87766191 0.02141585 35.71142052 0.04115355 41.54541016 0.07324219 C48.28528902 0.11013385 55.0247433 0.11891746 61.76470995 0.11194468 C68.25475312 0.10563404 74.74465106 0.11640428 81.23466492 0.13591003 C83.99372938 0.14407354 86.75271952 0.14679553 89.51179504 0.1452179 C93.3660937 0.14417378 97.22000933 0.16837667 101.07421875 0.1953125 C102.21722946 0.1923819 103.36024017 0.18945129 104.53788757 0.18643188 C106.11501274 0.20345657 106.11501274 0.20345657 107.72399902 0.2208252 C108.63468895 0.22455391 109.54537888 0.22828262 110.48366547 0.23212433 C113.59447653 0.69885985 115.49506771 1.79130185 118.03710938 3.61523438 C119.44168674 6.42438911 119.28606095 8.50333972 119.03710938 11.61523438 C117.25726533 14.75115008 116.51402731 15.45626173 113.03710938 16.61523438 C111.34843891 16.71551059 109.65612165 16.75880484 107.96450806 16.76913452 C106.91584061 16.77773499 105.86717316 16.78633545 104.78672791 16.79519653 C103.06142601 16.80158646 103.06142601 16.80158646 101.30126953 16.80810547 C100.0896666 16.81628296 98.87806366 16.82446045 97.62974548 16.83288574 C93.61189097 16.85774208 89.59407404 16.87440688 85.57617188 16.88867188 C84.19225432 16.89403262 82.80833683 16.89941013 81.4244194 16.90480423 C75.66823796 16.92642502 69.9120593 16.9451623 64.15584755 16.95642662 C55.90908434 16.97267193 47.66279179 17.00587217 39.416206 17.06282747 C33.61569067 17.10152278 27.81530126 17.12105862 22.01466024 17.12634718 C18.55074417 17.13000054 15.08733051 17.14201914 11.62355423 17.17444992 C7.75947481 17.21011182 3.89598698 17.2061607 0.03173828 17.19873047 C-1.11441452 17.2151358 -2.26056732 17.23154114 -3.44145203 17.2484436 C-11.18087486 17.18737957 -11.18087486 17.18737957 -15.17349243 14.26626587 C-16.96289062 11.61523438 -16.96289062 11.61523438 -17.58789062 8.61523438 C-15.62891684 -0.78783981 -7.85308355 -0.09112545 0 0 Z " fill="#EEEDED" transform="translate(184.962890625,247.384765625)"/>
<path d="M0 0 C1.21189499 -0.00554901 2.42378998 -0.01109802 3.67240906 -0.01681519 C6.98903489 -0.0265929 10.30409834 -0.01402681 13.62055779 0.00946999 C17.09489473 0.02960797 20.56919813 0.02369791 24.0435791 0.0213623 C29.87766191 0.02141585 35.71142052 0.04115355 41.54541016 0.07324219 C48.28528902 0.11013385 55.0247433 0.11891746 61.76470995 0.11194468 C68.25475312 0.10563404 74.74465106 0.11640428 81.23466492 0.13591003 C83.99372938 0.14407354 86.75271952 0.14679553 89.51179504 0.1452179 C93.3660937 0.14417378 97.22000933 0.16837667 101.07421875 0.1953125 C102.21722946 0.1923819 103.36024017 0.18945129 104.53788757 0.18643188 C106.11501274 0.20345657 106.11501274 0.20345657 107.72399902 0.2208252 C108.63468895 0.22455391 109.54537888 0.22828262 110.48366547 0.23212433 C113.59447653 0.69885985 115.49506771 1.79130185 118.03710938 3.61523438 C119.44168674 6.42438911 119.28606095 8.50333972 119.03710938 11.61523438 C117.25726533 14.75115008 116.51402731 15.45626173 113.03710938 16.61523438 C111.34843891 16.71551059 109.65612165 16.75880484 107.96450806 16.76913452 C106.91584061 16.77773499 105.86717316 16.78633545 104.78672791 16.79519653 C103.06142601 16.80158646 103.06142601 16.80158646 101.30126953 16.80810547 C100.0896666 16.81628296 98.87806366 16.82446045 97.62974548 16.83288574 C93.61189097 16.85774208 89.59407404 16.87440688 85.57617188 16.88867188 C84.19225432 16.89403262 82.80833683 16.89941013 81.4244194 16.90480423 C75.66823796 16.92642502 69.9120593 16.9451623 64.15584755 16.95642662 C55.90908434 16.97267193 47.66279179 17.00587217 39.416206 17.06282747 C33.61569067 17.10152278 27.81530126 17.12105862 22.01466024 17.12634718 C18.55074417 17.13000054 15.08733051 17.14201914 11.62355423 17.17444992 C7.75947481 17.21011182 3.89598698 17.2061607 0.03173828 17.19873047 C-1.11441452 17.2151358 -2.26056732 17.23154114 -3.44145203 17.2484436 C-11.18087486 17.18737957 -11.18087486 17.18737957 -15.17349243 14.26626587 C-16.96289062 11.61523438 -16.96289062 11.61523438 -17.58789062 8.61523438 C-15.62891684 -0.78783981 -7.85308355 -0.09112545 0 0 Z " fill="#EEEDED" transform="translate(184.962890625,151.384765625)"/>
<path d="M0 0 C4.45802053 3.66548355 8.68589512 7.52824632 12.8125 11.5625 C14.21435547 12.92568359 14.21435547 12.92568359 15.64453125 14.31640625 C19.47621776 18.68186004 20.29035197 22.20116091 20.3125 27.9375 C20.32925781 28.93652344 20.34601563 29.93554688 20.36328125 30.96484375 C19.62440159 37.13806409 16.43509336 40.9792084 12.125 45.25 C11.28195312 46.10078125 10.43890625 46.9515625 9.5703125 47.828125 C4.18493345 52.37868845 -0.92447972 52.4910958 -7.76953125 52.3828125 C-14.72691231 51.55835864 -19.51165595 47.16839618 -24 42 C-24.33 41.01 -24.66 40.02 -25 39 C-26.7022006 37.74712004 -26.7022006 37.74712004 -29 38 C-31.04877862 39.86252602 -32.80625711 41.68391277 -34.625 43.75 C-39.49267876 48.91232883 -43.58039984 52.60887092 -51 53 C-58.25237952 52.58035193 -63.76979959 50.44601122 -68.8125 45.06640625 C-70.02150233 43.69368485 -71.21435486 42.30648533 -72.38671875 40.90234375 C-73.95232106 38.9870337 -73.95232106 38.9870337 -75.70703125 37.37890625 C-77 36 -77 36 -77 34 C-76.13117188 34.03480469 -75.26234375 34.06960938 -74.3671875 34.10546875 C-72.63855469 34.14607422 -72.63855469 34.14607422 -70.875 34.1875 C-69.73804688 34.22230469 -68.60109375 34.25710938 -67.4296875 34.29296875 C-60.30813551 33.68463572 -56.32043431 29.73401078 -51.625 24.8125 C-51.07972656 24.25369141 -50.53445313 23.69488281 -49.97265625 23.11914062 C-48.64143231 21.75288448 -47.3197169 20.37737443 -46 19 C-41.3913946 20.8217546 -38.45159708 24.47203725 -35.15429688 28.01171875 C-30.92891681 32.40799982 -27.33268374 34.26853656 -21.25 34.4375 C-14.52423662 34.26760702 -9.78512494 31.63630147 -4.953125 27.0625 C0.27051795 21.36398042 2.35884111 17.03984532 2.203125 9.29296875 C1.91076399 5.99266275 1.06625489 3.13212375 0 0 Z " fill="#616161" transform="translate(348,436)"/>
<path d="M0 0 C3.63303084 1.69586126 5.94549046 3.73800488 8.75 6.625 C9.54921875 7.44226563 10.3484375 8.25953125 11.171875 9.1015625 C11.77515625 9.72804688 12.3784375 10.35453125 13 11 C11.71694496 13.81106202 10.37662436 15.87710262 8.2048645 18.06929016 C7.63573334 18.64839645 7.06660217 19.22750275 6.48022461 19.82415771 C5.85784912 20.44719788 5.23547363 21.07023804 4.59423828 21.7121582 C3.9371286 22.3775914 3.28001892 23.0430246 2.60299683 23.72862244 C0.43088261 25.92481922 -1.74880561 28.11329282 -3.9296875 30.30078125 C-5.44190139 31.82195914 -6.95403615 33.3432157 -8.46609497 34.86454773 C-11.63496912 38.04990714 -14.80820722 41.23084991 -17.98388672 44.40942383 C-22.06038807 48.49132411 -26.12047029 52.58915195 -30.17680168 56.69108295 C-33.29270324 59.836654 -36.41972564 62.97098403 -39.54999161 66.10225487 C-41.05244548 67.60892717 -42.55075922 69.11973944 -44.04488754 70.63466835 C-46.13016758 72.74666549 -48.23050908 74.84243715 -50.33544922 76.93481445 C-50.95377625 77.56797577 -51.57210327 78.20113708 -52.20916748 78.85348511 C-53.95089722 80.56562805 -53.95089722 80.56562805 -57 83 C-61.10861839 82.56019924 -62.953735 80.35712964 -65.75 77.4375 C-66.54921875 76.61121094 -67.3484375 75.78492188 -68.171875 74.93359375 C-68.77515625 74.29550781 -69.3784375 73.65742188 -70 73 C-68.59879754 69.82716634 -66.94854242 67.70831007 -64.48754883 65.27636719 C-63.41051445 64.20440094 -63.41051445 64.20440094 -62.3117218 63.11077881 C-61.53467392 62.34719055 -60.75762604 61.58360229 -59.95703125 60.796875 C-59.1552092 60.00025452 -58.35338715 59.20363403 -57.52726746 58.38287354 C-54.96037582 55.8337925 -52.38692442 53.2914714 -49.8125 50.75 C-47.25675608 48.22200181 -44.7025261 45.69252167 -42.15129089 43.15997314 C-40.5646798 41.58547555 -38.97540406 40.01365686 -37.38301086 38.44500732 C-33.28321409 34.38170008 -29.3862012 30.22397328 -25.62110901 25.84942627 C-23.21623254 23.1058466 -20.65887234 20.53384433 -18.06640625 17.96875 C-17.5436058 17.4473645 -17.02080536 16.925979 -16.48216248 16.38879395 C-14.84465002 14.75678922 -13.20366151 13.12833426 -11.5625 11.5 C-10.4379167 10.38044368 -9.31356595 9.26065371 -8.18945312 8.140625 C-5.46230656 5.42438466 -2.73204093 2.71131708 0 0 Z " fill="#EEEDEC" transform="translate(374,320)"/>
<path d="M0 0 C0.7437236 -0.00554901 1.4874472 -0.01109802 2.25370789 -0.01681519 C4.70300491 -0.02859027 7.15044281 -0.00436063 9.59960938 0.02148438 C11.30684322 0.02319615 13.01407969 0.02312912 14.72131348 0.0213623 C18.29574806 0.02301432 21.86955455 0.04168994 25.44384766 0.07324219 C30.02049387 0.11291968 34.59631776 0.11728675 39.17310333 0.10977936 C42.6973623 0.10670656 46.22143716 0.11884115 49.74565125 0.13591003 C51.43290553 0.14293026 53.12018067 0.14606575 54.80744934 0.1452179 C57.16758777 0.14702014 59.52674969 0.16843711 61.88671875 0.1953125 C62.58089401 0.1923819 63.27506927 0.18945129 63.99028015 0.18643188 C68.29005316 0.26179669 71.01585249 0.99361097 74.44335938 3.61523438 C75.84793674 6.42438911 75.69231095 8.50333972 75.44335938 11.61523438 C73.66351533 14.75115008 72.92027731 15.45626173 69.44335938 16.61523438 C66.99135519 16.73133432 64.56661451 16.7932074 62.11376953 16.80810547 C61.37033798 16.81628296 60.62690643 16.82446045 59.86094666 16.83288574 C57.40144654 16.85769286 54.94200387 16.87424193 52.48242188 16.88867188 C51.64190655 16.89399555 50.80139122 16.89931923 49.93540573 16.90480423 C45.48819644 16.93151295 41.04101502 16.9508968 36.59375 16.96533203 C32.91348481 16.97868314 29.23377253 17.00655985 25.55371094 17.04736328 C21.10870856 17.09664655 16.66420849 17.12144728 12.21894455 17.12855911 C10.52604055 17.13527539 8.83314793 17.15050737 7.14039993 17.17444992 C4.77025092 17.20606647 2.40204275 17.20614481 0.03173828 17.19873047 C-1.01423775 17.22333847 -1.01423775 17.22333847 -2.0813446 17.2484436 C-5.90405448 17.19955402 -7.46824976 16.68597115 -10.49185181 14.26626587 C-12.55664062 11.61523438 -12.55664062 11.61523438 -13.18164062 8.61523438 C-11.69131941 1.46169254 -6.60431081 -0.12618512 0 0 Z " fill="#EEEDEC" transform="translate(180.556640625,295.384765625)"/>
<path d="M0 0 C0.7437236 -0.00554901 1.4874472 -0.01109802 2.25370789 -0.01681519 C4.70300491 -0.02859027 7.15044281 -0.00436063 9.59960938 0.02148438 C11.30684322 0.02319615 13.01407969 0.02312912 14.72131348 0.0213623 C18.29574806 0.02301432 21.86955455 0.04168994 25.44384766 0.07324219 C30.02049387 0.11291968 34.59631776 0.11728675 39.17310333 0.10977936 C42.6973623 0.10670656 46.22143716 0.11884115 49.74565125 0.13591003 C51.43290553 0.14293026 53.12018067 0.14606575 54.80744934 0.1452179 C57.16758777 0.14702014 59.52674969 0.16843711 61.88671875 0.1953125 C62.58089401 0.1923819 63.27506927 0.18945129 63.99028015 0.18643188 C68.29005316 0.26179669 71.01585249 0.99361097 74.44335938 3.61523438 C75.84793674 6.42438911 75.69231095 8.50333972 75.44335938 11.61523438 C73.66351533 14.75115008 72.92027731 15.45626173 69.44335938 16.61523438 C66.99135519 16.73133432 64.56661451 16.7932074 62.11376953 16.80810547 C61.37033798 16.81628296 60.62690643 16.82446045 59.86094666 16.83288574 C57.40144654 16.85769286 54.94200387 16.87424193 52.48242188 16.88867188 C51.64190655 16.89399555 50.80139122 16.89931923 49.93540573 16.90480423 C45.48819644 16.93151295 41.04101502 16.9508968 36.59375 16.96533203 C32.91348481 16.97868314 29.23377253 17.00655985 25.55371094 17.04736328 C21.10870856 17.09664655 16.66420849 17.12144728 12.21894455 17.12855911 C10.52604055 17.13527539 8.83314793 17.15050737 7.14039993 17.17444992 C4.77025092 17.20606647 2.40204275 17.20614481 0.03173828 17.19873047 C-1.01423775 17.22333847 -1.01423775 17.22333847 -2.0813446 17.2484436 C-5.90405448 17.19955402 -7.46824976 16.68597115 -10.49185181 14.26626587 C-12.55664062 11.61523438 -12.55664062 11.61523438 -13.18164062 8.61523438 C-11.69131941 1.46169254 -6.60431081 -0.12618512 0 0 Z " fill="#EEEDEC" transform="translate(180.556640625,199.384765625)"/>
<path d="M0 0 C4.3805351 1.01452249 7.12998191 4.37594662 10.17578125 7.50390625 C10.91699219 8.22191406 11.65820312 8.93992187 12.421875 9.6796875 C18.96395559 16.05850761 18.96395559 16.05850761 19.70703125 21.12890625 C19.65788649 25.01134199 18.52079964 26.75372215 15.89453125 29.56640625 C14.50819831 30.89992651 13.10109579 32.21213469 11.67578125 33.50390625 C10.96035156 34.18324219 10.24492187 34.86257813 9.5078125 35.5625 C7.74719599 37.22921696 5.97077874 38.87440499 4.17578125 40.50390625 C-2.03423316 36.12522647 -7.49783689 31.22601383 -12.88671875 25.87890625 C-13.66982422 25.12867188 -14.45292969 24.3784375 -15.25976562 23.60546875 C-15.99388672 22.8784375 -16.72800781 22.15140625 -17.484375 21.40234375 C-18.15090088 20.74927246 -18.81742676 20.09620117 -19.50415039 19.42333984 C-20.82421875 17.50390625 -20.82421875 17.50390625 -20.68286133 15.43066406 C-19.29864555 12.32454211 -16.86634572 10.19686903 -14.44921875 7.87890625 C-13.95421875 7.3890625 -13.45921875 6.89921875 -12.94921875 6.39453125 C-8.83763613 2.37089693 -6.00020841 -0.16453954 0 0 Z " fill="#DFDFDF" transform="translate(452.82421875,247.49609375)"/>
<path d="M0 0 C3.86328627 1.5847358 6.28876923 4.05956887 9.203125 7.0078125 C9.6857782 7.49329559 10.1684314 7.97877869 10.66571045 8.47897339 C12.19858562 10.02299866 13.72434004 11.57384824 15.25 13.125 C16.29120361 14.17624009 17.33286541 15.22702657 18.375 16.27734375 C20.92199464 18.84633004 23.46265177 21.42148161 26 24 C24.53659141 25.71146481 23.07169857 27.42160206 21.60400391 29.12939453 C20.31630423 30.63112283 19.03753791 32.14050918 17.76171875 33.65234375 C17.07722656 34.40644531 16.39273437 35.16054688 15.6875 35.9375 C15.01074219 36.70964844 14.33398438 37.48179687 13.63671875 38.27734375 C10.38174638 40.4039257 8.22623503 40.80223106 4.37426758 40.61645508 C-0.3614526 39.3868722 -3.26259723 35.86284336 -6.5 32.375 C-7.21414062 31.66214844 -7.92828125 30.94929688 -8.6640625 30.21484375 C-11.57651932 27.19718412 -13.70073004 24.81490401 -15.15625 20.8515625 C-14.78393658 14.05684262 -10.4577187 10.0568341 -5.8125 5.625 C-5.25369141 5.07972656 -4.69488281 4.53445313 -4.11914062 3.97265625 C-2.75288448 2.64143231 -1.37737443 1.3197169 0 0 Z " fill="#E0E0E0" transform="translate(246,448)"/>
<path d="M0 0 C3.99784427 1.60103242 6.67362191 4.41115375 9.625 7.4375 C10.35976563 8.17323242 10.35976563 8.17323242 11.109375 8.92382812 C13.3469118 11.18887562 15.22778332 13.34167499 17 16 C16.80989611 21.26699599 11.6382011 25.09461573 8.0390625 28.484375 C3.090737 32.58041822 -1.21908107 34.21285173 -7.63671875 33.8515625 C-16.13829074 32.50452718 -20.99647753 28.35824186 -26.38671875 21.90234375 C-27.95232106 19.9870337 -27.95232106 19.9870337 -29.70703125 18.37890625 C-31 17 -31 17 -31 15 C-30.13117188 15.03480469 -29.26234375 15.06960938 -28.3671875 15.10546875 C-26.63855469 15.14607422 -26.63855469 15.14607422 -24.875 15.1875 C-23.73804688 15.22230469 -22.60109375 15.25710938 -21.4296875 15.29296875 C-14.30813551 14.68463572 -10.32043431 10.73401078 -5.625 5.8125 C-5.07972656 5.25369141 -4.53445313 4.69488281 -3.97265625 4.11914062 C-2.64143231 2.75288448 -1.3197169 1.37737443 0 0 Z " fill="#4D4D4D" transform="translate(302,455)"/>
<path d="M0 0 C4.17583045 1.64410716 7.02098084 4.68959994 10.125 7.8125 C10.66253906 8.33392578 11.20007813 8.85535156 11.75390625 9.39257812 C16.5644399 14.1971136 18.28580668 18.02393049 18.3125 24.9375 C18.32925781 25.93652344 18.34601563 26.93554688 18.36328125 27.96484375 C17.55022242 34.7578191 13.63204346 38.82101173 8.9375 43.375 C8.39544922 43.92027344 7.85339844 44.46554687 7.29492188 45.02734375 C3.2675047 49 3.2675047 49 1 49 C-0.4453125 47.53125 -0.4453125 47.53125 -2.125 45.5 C-5.36472507 41.66007324 -8.82892203 38.19229874 -12.49609375 34.76171875 C-14 33 -14 33 -14 30 C-13.34 30 -12.68 30 -12 30 C-12 29.34 -12 28.68 -12 28 C-11.34 28 -10.68 28 -10 28 C-9.61521484 27.13568359 -9.61521484 27.13568359 -9.22265625 26.25390625 C-7.47115417 23.02509889 -5.03851686 20.58849747 -2.55859375 17.90234375 C0.42205959 14.26430321 0.10723014 10.83024461 0.0625 6.3125 C0.05347656 5.13300781 0.04445313 3.95351563 0.03515625 2.73828125 C0.02355469 1.83464844 0.01195312 0.93101562 0 0 Z " fill="#4D4D4D" transform="translate(454,287)"/>
<path d="M0 0 C7.52735904 4.48853632 11.93185993 10.28063521 15.421875 18.2578125 C16.109375 21.2578125 16.109375 21.2578125 16.109375 29.2578125 C8.189375 29.2578125 0.269375 29.2578125 -7.890625 29.2578125 C-8.2825 27.4634375 -8.674375 25.6690625 -9.078125 23.8203125 C-11.61606985 13.84477928 -15.16999034 7.8222342 -23.890625 2.2578125 C-24.880625 1.5978125 -25.870625 0.9378125 -26.890625 0.2578125 C-26.890625 -0.4021875 -26.890625 -1.0621875 -26.890625 -1.7421875 C-18.66806225 -4.48304175 -7.77064565 -3.72886687 0 0 Z " fill="#E53935" transform="translate(207.890625,26.7421875)"/>
<path d="M0 0 C1.26972656 0.00257813 2.53945312 0.00515625 3.84765625 0.0078125 C5.16636719 0.03617187 6.48507813 0.06453125 7.84375 0.09375 C9.16246094 0.09117187 10.48117188 0.08859375 11.83984375 0.0859375 C22.77449158 0.19694915 22.77449158 0.19694915 27.34375 3.59375 C28.74832737 6.40290474 28.59270157 8.48185534 28.34375 11.59375 C26.56390595 14.7296657 25.82066793 15.43477736 22.34375 16.59375 C18.23251683 16.86499388 14.12143728 16.90688817 10.00195312 16.94384766 C8.64989001 16.96040751 7.29791446 16.98769924 5.94628906 17.02587891 C3.98816461 17.08082871 2.0291272 17.099416 0.0703125 17.1171875 C-1.09935059 17.13700684 -2.26901367 17.15682617 -3.47412109 17.17724609 C-7.60762496 16.41929963 -9.07026796 14.83412437 -11.65625 11.59375 C-12.28125 8.59375 -12.28125 8.59375 -11.65625 5.59375 C-8.02251354 1.05742951 -5.77097589 -0.03536531 0 0 Z " fill="#EEEDEB" transform="translate(179.65625,391.40625)"/>
<path d="M0 0 C1.26972656 0.00257813 2.53945312 0.00515625 3.84765625 0.0078125 C5.16636719 0.03617187 6.48507813 0.06453125 7.84375 0.09375 C9.16246094 0.09117187 10.48117188 0.08859375 11.83984375 0.0859375 C22.77449158 0.19694915 22.77449158 0.19694915 27.34375 3.59375 C28.74832737 6.40290474 28.59270157 8.48185534 28.34375 11.59375 C26.56390595 14.7296657 25.82066793 15.43477736 22.34375 16.59375 C18.23251683 16.86499388 14.12143728 16.90688817 10.00195312 16.94384766 C8.64989001 16.96040751 7.29791446 16.98769924 5.94628906 17.02587891 C3.98816461 17.08082871 2.0291272 17.099416 0.0703125 17.1171875 C-1.09935059 17.13700684 -2.26901367 17.15682617 -3.47412109 17.17724609 C-7.60762496 16.41929963 -9.07026796 14.83412437 -11.65625 11.59375 C-12.28125 8.59375 -12.28125 8.59375 -11.65625 5.59375 C-8.02251354 1.05742951 -5.77097589 -0.03536531 0 0 Z " fill="#EEEDEB" transform="translate(179.65625,343.40625)"/>
<path d="M0 0 C4.31559985 1.04643749 7.21135667 4.41200616 10.20703125 7.53515625 C7.97126443 12.57861393 4.17030207 15.97881513 0.33203125 19.84765625 C-0.74884766 20.9778418 -0.74884766 20.9778418 -1.8515625 22.13085938 C-2.55152344 22.83791016 -3.25148438 23.54496094 -3.97265625 24.2734375 C-4.60929199 24.92352783 -5.24592773 25.57361816 -5.90185547 26.2434082 C-7.79296875 27.53515625 -7.79296875 27.53515625 -9.88208008 27.359375 C-12.67092281 26.15647056 -14.45203193 24.3482619 -16.60546875 22.22265625 C-17.41628906 21.44277344 -18.22710937 20.66289062 -19.0625 19.859375 C-20.79296875 17.53515625 -20.79296875 17.53515625 -20.890625 15.59375 C-19.25690402 12.52979642 -16.89759229 10.28805164 -14.41796875 7.91015625 C-13.92296875 7.4203125 -13.42796875 6.93046875 -12.91796875 6.42578125 C-8.80390373 2.39971762 -5.9870922 -0.07775444 0 0 Z " fill="#ECECEC" transform="translate(452.79296875,247.46484375)"/>
<path d="M0 0 C3.68069887 1.53643852 5.98775204 3.78150945 8.75 6.625 C9.54921875 7.44226563 10.3484375 8.25953125 11.171875 9.1015625 C11.77515625 9.72804688 12.3784375 10.35453125 13 11 C11.5735422 14.2586636 9.83295838 16.4024854 7.3046875 18.890625 C6.58925781 19.59960938 5.87382812 20.30859375 5.13671875 21.0390625 C4.39035156 21.76867187 3.64398438 22.49828125 2.875 23.25 C1.74384766 24.36761719 1.74384766 24.36761719 0.58984375 25.5078125 C-1.26900772 27.3431342 -3.13237005 29.1736191 -5 31 C-8.79508024 29.21979178 -11.27452693 27.24110311 -14 24 C-15.22032735 20.4152884 -15.29140122 18.7310592 -13.88671875 15.20703125 C-11.64318021 11.39348023 -8.99375498 8.66011959 -5.8125 5.625 C-5.25369141 5.07972656 -4.69488281 4.53445313 -4.11914062 3.97265625 C-2.75288448 2.64143231 -1.37737443 1.3197169 0 0 Z " fill="#EEEEEE" transform="translate(246,448)"/>
<path d="M0 0 C7.92 0 15.84 0 24 0 C24 7.79876123 21.98467261 12.15741032 16.6875 17.8125 C11.42446584 22.73816018 7.37023915 24 0 24 C0 16.08 0 8.16 0 0 Z " fill="#EE524F" transform="translate(88,352)"/>
<path d="M0 0 C7.92 0 15.84 0 24 0 C24 7.79876123 21.98467261 12.15741032 16.6875 17.8125 C11.42446584 22.73816018 7.37023915 24 0 24 C0 16.08 0 8.16 0 0 Z " fill="#EE524F" transform="translate(88,256)"/>
<path d="M0 0 C7.92 0 15.84 0 24 0 C24 7.79876123 21.98467261 12.15741032 16.6875 17.8125 C11.42446584 22.73816018 7.37023915 24 0 24 C0 16.08 0 8.16 0 0 Z " fill="#EE524F" transform="translate(88,160)"/>
<path d="M0 0 C0.0582462 3.72910066 0.09367917 7.45808364 0.125 11.1875 C0.14175781 12.24259766 0.15851563 13.29769531 0.17578125 14.38476562 C0.18222656 15.40634766 0.18867188 16.42792969 0.1953125 17.48046875 C0.20578613 18.41785889 0.21625977 19.35524902 0.22705078 20.32104492 C-0.01833287 23.21630812 -0.79478381 25.37062697 -2 28 C-5.90285767 26.41332422 -8.33520982 23.86649519 -11.25 20.875 C-12.14203125 19.96492188 -13.0340625 19.05484375 -13.953125 18.1171875 C-14.62859375 17.41851562 -15.3040625 16.71984375 -16 16 C-2.72340426 0 -2.72340426 0 0 0 Z " fill="#FBA628" transform="translate(344,401)"/>
</svg>
