<?xml version="1.0" encoding="UTF-8"?>
<svg version="1.1" xmlns="http://www.w3.org/2000/svg" width="512" height="512">
<path d="M0 0 C0.94785873 -0.0127597 1.89571747 -0.02551941 2.87229919 -0.03866577 C4.40516319 -0.04200424 4.40516319 -0.04200424 5.96899414 -0.04541016 C7.02067276 -0.05206696 8.07235138 -0.05872375 9.15589905 -0.06558228 C11.38093312 -0.07571112 13.60599758 -0.08039922 15.83105469 -0.08007812 C19.23756874 -0.08445137 22.64278752 -0.12076992 26.04907227 -0.15869141 C28.20987512 -0.16455943 30.37068414 -0.16852892 32.53149414 -0.17041016 C33.55137924 -0.18478119 34.57126434 -0.19915222 35.62205505 -0.21395874 C42.50190016 -0.16944456 42.50190016 -0.16944456 45.80322266 1.69433594 C48.14273647 5.70762677 49.18812764 9.7991453 50.31665039 14.29052734 C50.4800806 14.93189007 50.64351082 15.57325279 50.81189346 16.23405075 C52.27431019 21.98200118 53.68143501 27.74310881 55.08618164 33.50537109 C55.55897586 35.43675496 56.03197304 37.36808914 56.50515747 39.29937744 C57.78268682 44.51688688 59.05674723 49.73523759 60.32999802 54.95379257 C61.1346011 58.25035962 61.94019342 61.54668335 62.74612427 64.84292603 C71.19700986 99.40731995 79.58524886 133.98670568 87.93286133 168.57617188 C88.83941253 172.3325254 89.74598583 176.08887359 90.65258789 179.84521484 C90.87823425 180.78018421 91.10388062 181.71515358 91.33636475 182.67845535 C97.05581278 206.37431368 102.81075593 230.06154848 108.56449127 253.74909973 C117.18837616 289.25337996 125.79778387 324.76087533 134.31665039 360.29052734 C135.41364258 360.32791016 136.51063477 360.36529297 137.64086914 360.40380859 C139.09532896 360.46949388 140.54975455 360.53594033 142.00415039 360.60302734 C142.72538086 360.62558594 143.44661133 360.64814453 144.18969727 360.67138672 C148.66107236 360.89597634 151.6732549 361.44475833 155.31665039 364.29052734 C158.27965148 368.73502897 157.76277789 372.93316023 157.81665039 378.16552734 C157.87852539 379.65632812 157.87852539 379.65632812 157.94165039 381.17724609 C157.95196289 382.14017578 157.96227539 383.10310547 157.97290039 384.09521484 C157.9915918 384.97161621 158.0102832 385.84801758 158.02954102 386.75097656 C157.17289391 389.8026352 155.74657457 391.27298238 153.2858907 393.22441173 C149.31785304 395.37264468 144.97745983 394.9741259 140.56834412 394.92544556 C139.48460402 394.93324551 138.40086393 394.94104546 137.28428322 394.94908178 C133.6520672 394.96902884 130.02089571 394.95322545 126.38867188 394.9375 C123.78508899 394.94427481 121.18151089 394.95317717 118.57794189 394.96405029 C112.24027835 394.98627361 105.90291101 394.98148595 99.56523591 394.96698709 C94.41474847 394.9556922 89.264344 394.954165 84.11384773 394.95960617 C83.38063356 394.96037234 82.64741938 394.9611385 81.8919866 394.96192788 C80.40245943 394.96352652 78.91293229 394.96514758 77.42340518 394.96679084 C63.45925942 394.98104541 49.49527783 394.96465973 35.53115899 394.93778901 C23.54884804 394.91544576 11.56677925 394.9193345 -0.41552734 394.94238281 C-14.33145747 394.96913799 -28.24724378 394.97967707 -42.16319603 394.96432149 C-43.64691823 394.96272875 -45.13064046 394.9611569 -46.61436272 394.95960617 C-47.34437845 394.95883479 -48.07439418 394.95806342 -48.82653161 394.95726866 C-53.97144663 394.95295114 -59.11627044 394.96023919 -64.26117134 394.97200394 C-71.18468083 394.98748788 -78.10772471 394.97647087 -85.03118896 394.94753265 C-87.57531408 394.94090911 -90.11947763 394.94284097 -92.66358757 394.95384598 C-96.13025865 394.96746165 -99.59545075 394.95043135 -103.06202698 394.92544556 C-104.58069354 394.94217597 -104.58069354 394.94217597 -106.13004023 394.95924437 C-110.84271168 394.89312616 -112.96855316 394.84706435 -116.78468227 391.87584496 C-119.19733238 388.59066345 -119.84635299 386.66049358 -120.24584961 382.66552734 C-120.32963867 381.84826172 -120.41342773 381.03099609 -120.49975586 380.18896484 C-120.5603418 379.56248047 -120.62092773 378.93599609 -120.68334961 378.29052734 C-121.84608398 378.81001953 -123.00881836 379.32951172 -124.20678711 379.86474609 C-135.17896419 384.68075595 -146.01402574 388.56715732 -157.68334961 391.29052734 C-158.33400391 391.45423828 -158.9846582 391.61794922 -159.6550293 391.78662109 C-181.12109273 397.05249778 -208.29091834 396.65067503 -229.68334961 391.29052734 C-230.88072754 390.99251221 -230.88072754 390.99251221 -232.10229492 390.68847656 C-274.19632992 379.82733688 -310.60042174 353.28877693 -333.08081055 315.97070312 C-342.34407238 299.90294648 -349.14854968 282.52596026 -352.68334961 264.29052734 C-352.94825195 262.93544067 -352.94825195 262.93544067 -353.21850586 261.55297852 C-354.86942498 252.14052849 -355.08341186 242.87910247 -355.05834961 233.35302734 C-355.05747345 232.53793701 -355.05659729 231.72284668 -355.05569458 230.88305664 C-354.92011736 192.56114807 -341.82862379 155.45941731 -316.02709961 126.79003906 C-314.71728639 125.32839793 -313.43425856 123.8428925 -312.15209961 122.35693359 C-306.50876521 115.91888913 -300.50315837 110.45704913 -293.68334961 105.29052734 C-293.15757324 104.88979004 -292.63179688 104.48905273 -292.09008789 104.07617188 C-263.31704559 82.30726158 -229.88452784 71.07736188 -193.80834961 71.04052734 C-193.12248779 71.03952026 -192.43662598 71.03851318 -191.72998047 71.03747559 C-180.48408449 71.04861273 -169.67102308 71.78372188 -158.68334961 74.29052734 C-158.03060059 74.43506348 -157.37785156 74.57959961 -156.70532227 74.72851562 C-128.62468352 81.11080024 -102.81907963 94.86194337 -82.15551758 114.86962891 C-80.66950611 116.30388873 -79.16374878 117.71510511 -77.65600586 119.12646484 C-67.35458295 128.91976808 -59.4581608 140.00775999 -52.34741211 152.27880859 C-51.89470947 153.0543811 -51.44200684 153.82995361 -50.97558594 154.62902832 C-49.87547443 156.51462234 -48.7790202 158.40234936 -47.68334961 160.29052734 C-44.93382724 149.0719375 -42.18543682 137.8530709 -39.43829536 126.63389778 C-38.11717761 121.2386436 -36.79572615 115.84347162 -35.47351074 110.44848633 C-28.00083042 79.98097641 -28.00083042 79.98097641 -20.6541481 49.4829216 C-20.15430153 47.38720256 -19.65365466 45.2916762 -19.15280151 43.19619751 C-17.67850654 37.02498137 -16.21220607 30.85200873 -14.7590332 24.67578125 C-14.24970733 22.53688064 -13.74012295 20.39804156 -13.23022461 18.25927734 C-12.90361343 16.85027664 -12.90361343 16.85027664 -12.57040405 15.41281128 C-8.88938947 0.08125908 -8.88938947 0.08125908 0 0 Z " fill="#CED7DB" transform="translate(354.683349609375,58.70947265625)"/>
<path d="M0 0 C0.94770767 -0.01253311 1.89541534 -0.02506622 2.87184143 -0.03797913 C4.38922157 -0.01809181 4.38922157 -0.01809181 5.93725586 0.00219727 C6.98610458 -0.00021469 8.03495331 -0.00262665 9.11558533 -0.00511169 C11.32872303 -0.0041338 13.54188536 0.00924586 15.75488281 0.03417969 C19.14399133 0.06852135 22.53049717 0.05482615 25.91967773 0.03540039 C28.07138155 0.04229794 30.22307863 0.05196949 32.37475586 0.06469727 C33.89517235 0.05725746 33.89517235 0.05725746 35.44630432 0.04966736 C42.26759674 0.16403254 42.26759674 0.16403254 45.57177734 2.04150391 C47.92085009 6.04932354 48.96115794 10.1400442 50.08959961 14.63110352 C50.25302982 15.27246624 50.41646004 15.91382896 50.58484268 16.57462692 C52.04725941 22.32257735 53.45438423 28.08368498 54.85913086 33.84594727 C55.33192508 35.77733113 55.80492226 37.70866531 56.27810669 39.63995361 C57.55563604 44.85746305 58.82969645 50.07581376 60.10294724 55.29436874 C60.90755032 58.59093579 61.71314263 61.88725952 62.51907349 65.1835022 C70.96995908 99.74789612 79.35819808 134.32728186 87.70581055 168.91674805 C88.61236175 172.67310157 89.51893505 176.42944976 90.42553711 180.18579102 C90.65118347 181.12076038 90.87682983 182.05572975 91.10931396 183.01903152 C96.828762 206.71488985 102.58370515 230.40212466 108.33744049 254.0896759 C116.96132537 289.59395613 125.57073309 325.1014515 134.08959961 360.63110352 C135.1865918 360.66848633 136.28358398 360.70586914 137.41381836 360.74438477 C138.86827818 360.81007005 140.32270377 360.8765165 141.77709961 360.94360352 C142.49833008 360.96616211 143.21956055 360.9887207 143.96264648 361.01196289 C148.43402158 361.23655251 151.44620412 361.7853345 155.08959961 364.63110352 C158.05260069 369.07560514 157.5357271 373.27373641 157.58959961 378.50610352 C157.65147461 379.9969043 157.65147461 379.9969043 157.71459961 381.51782227 C157.73006836 382.9622168 157.73006836 382.9622168 157.74584961 384.43579102 C157.76454102 385.31219238 157.78323242 386.18859375 157.80249023 387.09155273 C156.94584313 390.14321137 155.51952378 391.61355855 153.05883992 393.5649879 C149.09080226 395.71322085 144.75040905 395.31470208 140.34129333 395.26602173 C139.25755324 395.27382168 138.17381314 395.28162163 137.05723244 395.28965795 C133.42501642 395.30960501 129.79384493 395.29380162 126.16162109 395.27807617 C123.55803821 395.28485098 120.95446011 395.29375334 118.35089111 395.30462646 C112.01322757 395.32684978 105.67586023 395.32206213 99.33818512 395.30756326 C94.18769769 395.29626837 89.03729322 395.29474117 83.88679695 395.30018234 C83.15358278 395.30094851 82.4203686 395.30171467 81.66493582 395.30250406 C80.17540865 395.30410269 78.68588151 395.30572375 77.1963544 395.30736701 C63.23220863 395.32162159 49.26822705 395.30523591 35.30410821 395.27836518 C23.32179726 395.25602193 11.33972847 395.25991067 -0.64257812 395.28295898 C-14.55850825 395.30971416 -28.47429456 395.32025324 -42.39024681 395.30489767 C-43.87396902 395.30330492 -45.35769125 395.30173307 -46.8414135 395.30018234 C-47.57142923 395.29941096 -48.30144497 395.29863959 -49.05358239 395.29784483 C-54.19849741 395.29352731 -59.34332122 395.30081537 -64.48822212 395.31258011 C-71.41173161 395.32806406 -78.33477549 395.31704704 -85.25823975 395.28810883 C-87.80236486 395.28148528 -90.34652841 395.28341714 -92.89063835 395.29442215 C-96.35730943 395.30803782 -99.82250153 395.29100753 -103.28907776 395.26602173 C-104.80774432 395.28275214 -104.80774432 395.28275214 -106.35709101 395.29982054 C-111.06976246 395.23370233 -113.19560394 395.18764053 -117.01173306 392.21642113 C-120.02986778 388.10678238 -121.0437032 384.75385524 -121.02368164 379.63500977 C-118.65519434 373.24424931 -110.87519208 370.83793553 -105.13745117 367.85620117 C-71.76951424 349.50054369 -49.82716843 312.83769546 -38.62915039 277.69750977 C-29.06115646 244.60819742 -29.83125378 206.20352813 -43.70336914 174.36157227 C-44.13202271 173.3760437 -44.13202271 173.3760437 -44.56933594 172.37060547 C-45.34670313 170.64730989 -46.17337878 168.94648593 -47.00415039 167.24829102 C-49.08551869 158.94076064 -45.14133135 149.07597738 -43.13232422 140.90283203 C-42.86042267 139.78552704 -42.58852112 138.66822205 -42.30838013 137.51705933 C-41.41448749 133.84728132 -40.51602041 130.17864043 -39.61743164 126.51000977 C-38.98661401 123.92486221 -38.35603582 121.33965735 -37.72575378 118.75437927 C-36.40393905 113.33475324 -35.07975746 107.91571021 -33.75390625 102.49707031 C-32.07480377 95.63469206 -30.39929691 88.77144175 -28.72508717 81.90786839 C-27.10713177 75.27494041 -25.48732602 68.64246442 -23.86743164 62.01000977 C-23.56799967 60.78360842 -23.2685677 59.55720707 -22.96006203 58.29364204 C-22.66755751 57.09608725 -22.37505299 55.89853245 -22.07368469 54.66468811 C-21.78508418 53.48309585 -21.49648367 52.30150358 -21.19913769 51.08410549 C-20.62888458 48.75669734 -20.05613976 46.42989811 -19.48075581 44.10375309 C-18.13744785 38.67254703 -16.81172195 33.23947085 -15.55361801 27.78778869 C-14.81025785 24.57905546 -14.04632129 21.37516779 -13.28808594 18.16992188 C-13.0229485 16.98575715 -12.75781107 15.80159243 -12.48463917 14.58154392 C-8.99226587 0.01042547 -8.99226587 0.01042547 0 0 Z " fill="#FE8F00" transform="translate(354.910400390625,58.368896484375)"/>
<path d="M0 0 C29.61811537 5.07324978 57.02505546 19.75883878 78.52783203 40.57910156 C80.0138435 42.01336139 81.51960083 43.42457776 83.02734375 44.8359375 C111.39891369 71.80829909 127.87086702 112.4408238 129.28125 151.296875 C130.14268004 191.69435462 118.33182748 232.47173846 91 263 C90.13632812 263.98355469 89.27265625 264.96710938 88.3828125 265.98046875 C77.85193591 277.83641006 66.30708414 287.42583194 53 296 C52.32694824 296.43876465 51.65389648 296.8775293 50.96044922 297.32958984 C17.89230461 318.65539642 -26.10774401 326.02523768 -64.71875 318.046875 C-77.17719986 315.11890598 -89.3589716 311.34730166 -101 306 C-98.30056153 302.75460768 -94.77178716 301.24335047 -91.03515625 299.48046875 C-90.33782883 299.14484421 -89.6405014 298.80921967 -88.92204285 298.46342468 C-86.63834194 297.36546944 -84.35063991 296.27617051 -82.0625 295.1875 C-78.87992807 293.66604845 -75.69924963 292.14068679 -72.51953125 290.61328125 C-71.3184523 290.03707031 -71.3184523 290.03707031 -70.09310913 289.44921875 C-64.91860699 286.95612039 -59.79499438 284.38040702 -54.69921875 281.73046875 C-53.42377546 281.07196586 -52.14830421 280.41351712 -50.87280273 279.75512695 C-48.50348084 278.53080062 -46.14915072 277.28616278 -43.79711914 276.02807617 C-36.12384065 272.06893218 -36.12384065 272.06893218 -31.43359375 271.78125 C-25.25398096 273.97469618 -19.59546736 277.13054471 -13.83007812 280.2265625 C-12.40791992 280.9690625 -12.40791992 280.9690625 -10.95703125 281.7265625 C-9.67276245 282.41613037 -9.67276245 282.41613037 -8.36254883 283.11962891 C-5.6545314 284.12873409 -4.65175045 284.03266435 -2 283 C30.16140556 267.86754505 54.65315084 242.27606369 71 211 C71.37656738 210.29214355 71.75313477 209.58428711 72.14111328 208.85498047 C72.50833496 208.14873535 72.87555664 207.44249023 73.25390625 206.71484375 C73.58849854 206.07538818 73.92309082 205.43593262 74.26782227 204.77709961 C75.19047073 202.85803736 75.19047073 202.85803736 75 200 C73.23250592 198.54917633 73.23250592 198.54917633 70.85546875 197.28515625 C69.95957031 196.76904785 69.06367188 196.25293945 68.140625 195.72119141 C67.16609375 195.17382324 66.1915625 194.62645508 65.1875 194.0625 C59.21202285 190.64529835 53.26673665 187.23399434 47.51953125 183.44140625 C46.67173096 182.88380615 45.82393066 182.32620605 44.95043945 181.75170898 C43.34762327 180.68768944 41.75324542 179.61081931 40.16870117 178.51977539 C36.99295221 176.42739701 34.85046867 175.06011166 31.015625 174.7890625 C26.5477464 176.58315883 23.03945575 179.31481237 19.25 182.25 C17.54884405 183.53603898 15.84700494 184.82117471 14.14453125 186.10546875 C13.28553223 186.75821777 12.4265332 187.4109668 11.54150391 188.08349609 C7.71551269 190.96860955 3.82989773 193.76798007 -0.0625 196.5625 C-1.53523586 197.62358743 -3.00789179 198.6847858 -4.48046875 199.74609375 C-5.21442871 200.27444824 -5.94838867 200.80280273 -6.70458984 201.34716797 C-10.76367473 204.26995086 -14.81935193 207.1974511 -18.875 210.125 C-19.63047119 210.66970947 -20.38594238 211.21441895 -21.16430664 211.77563477 C-21.87063232 212.28537842 -22.57695801 212.79512207 -23.3046875 213.3203125 C-23.92327637 213.76648926 -24.54186523 214.21266602 -25.17919922 214.67236328 C-27.07129903 216.01120846 -27.07129903 216.01120846 -28.98095703 217.72998047 C-31 219 -31 219 -33.00317383 218.84277344 C-35.18330639 217.92263435 -36.99586797 216.85325847 -38.94921875 215.515625 C-39.70589844 214.99935547 -40.46257812 214.48308594 -41.2421875 213.95117188 C-42.04914063 213.38978516 -42.85609375 212.82839844 -43.6875 212.25 C-44.53183594 211.66798828 -45.37617188 211.08597656 -46.24609375 210.48632812 C-52.50261807 206.13579587 -58.56057812 201.56760544 -64.57177734 196.88671875 C-69.85306725 192.8024228 -75.28422405 188.99166229 -80.8125 185.25 C-82.39848474 184.16934016 -83.98442354 183.0886129 -85.5703125 182.0078125 C-87.7082085 180.55220417 -89.84785594 179.10095956 -92.00292969 177.67089844 C-93.74670535 176.50990375 -95.468546 175.32230231 -97.1875 174.125 C-98.12980469 173.48820313 -99.07210937 172.85140625 -100.04296875 172.1953125 C-102 170 -102 170 -102.24456787 166.78219604 C-101.99600719 162.93825193 -101.2656767 159.93379262 -100.04394531 156.28955078 C-99.73171524 155.34409897 -99.73171524 155.34409897 -99.41317749 154.37954712 C-98.72830654 152.31459125 -98.0285632 150.25503465 -97.328125 148.1953125 C-96.84367221 146.74740556 -96.36002273 145.29922962 -95.87713623 143.85079956 C-94.86463702 140.82101282 -93.84523294 137.79367338 -92.8203125 134.76806641 C-91.51456964 130.91292909 -90.22187254 127.0535831 -88.93385696 123.19249153 C-87.93550688 120.2021719 -86.93232417 117.21349215 -85.92751312 114.22533798 C-85.44976956 112.80407013 -84.97298691 111.38247886 -84.49723053 109.96054459 C-77.70795935 89.70795935 -77.70795935 89.70795935 -75 87 C-73.54383254 86.87738844 -72.0819107 86.82220522 -70.62084961 86.79467773 C-69.68208984 86.77475266 -68.74333008 86.75482758 -67.77612305 86.73429871 C-66.74527588 86.71756607 -65.71442871 86.70083344 -64.65234375 86.68359375 C-63.58483887 86.66263138 -62.51733398 86.64166901 -61.41748047 86.62007141 C-57.92423154 86.55344118 -54.43091509 86.49471694 -50.9375 86.4375 C-49.75938751 86.41731812 -48.58127502 86.39713623 -47.36746216 86.37634277 C-40.31184329 86.25609948 -33.25611785 86.14756567 -26.20019531 86.04681396 C-23.28313599 86.00414185 -20.36618435 85.95728528 -17.44921875 85.90869141 C-13.61880126 85.84632485 -9.78859776 85.79921256 -5.95779419 85.76882935 C-3.97362537 85.75033669 -1.98960167 85.71794827 -0.00561523 85.68530273 C1.74706665 85.67865601 1.74706665 85.67865601 3.53515625 85.671875 C4.529104 85.6625293 5.52305176 85.65318359 6.54711914 85.64355469 C9 86 9 86 10.68115234 87.078125 C12.59377028 89.86526465 13.54677027 92.88764574 14.56640625 96.078125 C14.80171555 96.78971771 15.03702484 97.50131042 15.27946472 98.23446655 C16.0493159 100.57018061 16.80608917 102.90990227 17.5625 105.25 C18.09143148 106.86529802 18.62106085 108.48036767 19.15136719 110.09521484 C20.51088703 114.24320849 21.85896828 118.39482727 23.2041626 122.54748535 C24.22514711 125.6938309 25.2537003 128.8376737 26.28257751 131.98144531 C27.44244822 135.52797724 28.59650509 139.07639035 29.75 142.625 C30.07727585 143.62907898 30.07727585 143.62907898 30.41116333 144.65344238 C31.0220614 146.5309569 31.628342 148.40997197 32.234375 150.2890625 C32.57694336 151.34818848 32.91951172 152.40731445 33.27246094 153.49853516 C34 156 34 156 34 158 C35.00933594 158.36351562 35.00933594 158.36351562 36.0390625 158.734375 C39.66655458 160.28491251 42.99529011 162.23164014 46.375 164.25 C47.09381348 164.67603516 47.81262695 165.10207031 48.55322266 165.54101562 C74.11992873 180.74661915 74.11992873 180.74661915 82 186 C82.20302734 184.48212891 82.20302734 184.48212891 82.41015625 182.93359375 C82.95970058 179.26875173 83.6647892 175.68583302 84.4375 172.0625 C91.16509559 138.82512167 88.63850397 105.94177456 75.1015625 74.66796875 C74 72 74 72 74 70 C72.79601562 69.731875 71.59203125 69.46375 70.3515625 69.1875 C69.52817383 69.00316406 68.70478516 68.81882812 67.85644531 68.62890625 C65.85306178 68.18781941 63.846913 67.75919468 61.83886719 67.33984375 C58.34096855 66.59961195 54.85908481 65.80255665 51.375 65 C50.18648437 64.75894531 48.99796875 64.51789063 47.7734375 64.26953125 C41.79490481 62.84829524 37.78250602 61.62980358 34.1328125 56.51171875 C33.05690735 54.69282377 32.01366718 52.85430033 31 51 C29.78733115 49.04439305 28.56833835 47.09269645 27.34375 45.14453125 C26.06014855 43.03528337 24.77898509 40.9245503 23.5 38.8125 C17.36990263 28.75032504 11.06172943 18.83752806 4.52148438 9.03442383 C3.92658203 8.13618896 3.33167969 7.2379541 2.71875 6.3125 C1.92887695 5.13107422 1.92887695 5.13107422 1.12304688 3.92578125 C0 2 0 2 0 0 Z " fill="#90A4AD" transform="translate(194,133)"/>
<path d="M0 0 C0.70576172 0.01611328 1.41152344 0.03222656 2.13867188 0.04882812 C3.22051758 0.11166992 3.22051758 0.11166992 4.32421875 0.17578125 C5.06478516 0.19833984 5.80535156 0.22089844 6.56835938 0.24414062 C8.38369232 0.30269975 10.19797556 0.39237239 12.01171875 0.48828125 C13.07855904 4.6955257 14.13929046 8.90429063 15.19921875 13.11328125 C15.49119141 14.26441406 15.78316406 15.41554688 16.08398438 16.6015625 C17.96144773 24.07104037 19.71869506 31.55952602 21.40625 39.07421875 C23.92297395 50.26031634 26.69203496 61.37529376 29.51171875 72.48828125 C32.52791346 84.37576104 35.445475 96.27078833 38.12817383 108.23828125 C40.41115587 118.36648515 42.9584905 128.42545306 45.51171875 138.48828125 C49.02542794 152.33657387 52.35541294 166.20923366 55.48394775 180.14971924 C56.59773008 185.08490713 57.76629443 190.00678404 58.94921875 194.92578125 C59.31817261 196.46564697 59.31817261 196.46564697 59.69458008 198.03662109 C61.19848245 204.2648266 62.77657905 210.46919699 64.41772461 216.66259766 C65.6368791 221.2657533 66.82655761 225.87628006 68.01171875 230.48828125 C68.19395996 231.18034668 68.37620117 231.87241211 68.56396484 232.58544922 C74.62154502 256.0261749 71.39030645 279.64535669 59.76171875 300.67578125 C47.52502185 320.56374615 29.75274054 333.70966733 7.28515625 340.015625 C1.76923603 341.16240566 -3.58042788 341.61198442 -9.20874023 341.60180664 C-9.89251236 341.60195267 -10.57628448 341.60209869 -11.28077698 341.60224915 C-13.51534322 341.6015588 -15.74982353 341.59380802 -17.984375 341.5859375 C-19.54378718 341.5840702 -21.10319994 341.58264777 -22.66261292 341.58164978 C-26.74785001 341.57784921 -30.833051 341.56804016 -34.91827393 341.5569458 C-39.09459953 341.54667856 -43.27093101 341.54214082 -47.44726562 341.53710938 C-55.62762065 341.52641548 -63.80794645 341.5093689 -71.98828125 341.48828125 C-70.35718067 338.06175447 -68.42508177 335.54534851 -65.92578125 332.67578125 C-60.45051893 326.05983928 -56.15281008 318.98292971 -51.98828125 311.48828125 C-51.64410156 310.87919922 -51.29992187 310.27011719 -50.9453125 309.64257812 C-30.48144169 272.98794364 -26.57034838 228.8356067 -37.80078125 188.67578125 C-39.21922703 183.7455747 -40.73063168 178.92572483 -42.78125 174.21875 C-43.06701904 173.56173096 -43.35278809 172.90471191 -43.6472168 172.2277832 C-44.42458399 170.50448762 -45.25125964 168.80366366 -46.08203125 167.10546875 C-48.16339955 158.79793837 -44.21921221 148.93315511 -42.21020508 140.76000977 C-41.93830353 139.64270477 -41.66640198 138.52539978 -41.38626099 137.37423706 C-40.49236835 133.70445906 -39.59390127 130.03581816 -38.6953125 126.3671875 C-38.06449487 123.78203994 -37.43391668 121.19683508 -36.80363464 118.61155701 C-35.48181991 113.19193098 -34.15763832 107.77288794 -32.83178711 102.35424805 C-31.15268463 95.4918698 -29.47717777 88.62861948 -27.80296803 81.76504612 C-26.18501262 75.13211814 -24.56520688 68.49964215 -22.9453125 61.8671875 C-22.64588053 60.64078615 -22.34644855 59.4143848 -22.03794289 58.15081978 C-21.74543837 56.95326498 -21.45293385 55.75571018 -21.15156555 54.52186584 C-20.86296504 53.34027358 -20.57436453 52.15868132 -20.27701855 50.94128323 C-19.70676544 48.61387507 -19.13402062 46.28707584 -18.55863667 43.96093082 C-17.21532871 38.52972476 -15.88960281 33.09664858 -14.63149887 27.64496642 C-13.88813871 24.43623319 -13.12420215 21.23234553 -12.3659668 18.02709961 C-12.10082936 16.84293489 -11.83569193 15.65877016 -11.56252003 14.43872166 C-8.02370435 -0.32616684 -8.02370435 -0.32616684 0 0 Z " fill="#FEC927" transform="translate(353.98828125,58.51171875)"/>
<path d="M0 0 C2.01185675 -0.00217446 4.02315264 -0.02035796 6.03491211 -0.03930664 C15.64026479 -0.05345296 25.64626771 0.11890564 34.84545898 3.18530273 C36.09716797 4.74145508 36.09716797 4.74145508 37.34155273 6.77124023 C37.81141602 7.52727539 38.2812793 8.28331055 38.76538086 9.06225586 C39.26618164 9.88661133 39.76698242 10.7109668 40.28295898 11.56030273 C41.36476611 13.30783733 42.44680367 15.05522929 43.52905273 16.80249023 C44.08061035 17.69935547 44.63216797 18.5962207 45.20043945 19.52026367 C47.7161963 23.59595405 50.28139433 27.63990088 52.84545898 31.68530273 C53.83272726 33.24762008 54.81970449 34.81012138 55.80639648 36.37280273 C56.29978516 37.15397461 56.79317383 37.93514648 57.30151367 38.73999023 C58.93399238 41.3255226 60.5655763 43.91161811 62.19702148 46.49780273 C62.74487305 47.36598633 63.29272461 48.23416992 63.85717773 49.12866211 C64.90956985 50.79643605 65.9616671 52.46439611 67.01342773 54.13256836 C67.48651367 54.8821582 67.95959961 55.63174805 68.44702148 56.40405273 C68.86290527 57.0634082 69.27878906 57.72276367 69.70727539 58.40209961 C72.47913207 62.74479398 73.61597313 63.68525041 78.63061523 64.90405273 C79.80172852 65.19666992 80.9728418 65.48928711 82.17944336 65.79077148 C83.40985352 66.0859668 84.64026367 66.38116211 85.90795898 66.68530273 C89.4832679 67.56237369 93.05522477 68.44714868 96.62036133 69.36474609 C98.59572621 69.86733514 100.57958922 70.33931377 102.57446289 70.7578125 C105.88809489 71.57719941 108.09495454 72.19767614 110.203125 74.97192383 C111.38183571 77.31568512 112.25891758 79.63648117 113.09545898 82.12280273 C113.4191748 83.00798584 113.74289062 83.89316895 114.07641602 84.80517578 C125.89765537 118.13376716 128.23201826 155.30393104 116.84545898 189.18530273 C113.32961019 187.86983583 110.22205862 186.3188354 107.02905273 184.34936523 C106.10970947 183.78781738 105.19036621 183.22626953 104.24316406 182.64770508 C102.2250211 181.39504166 100.21336425 180.13188233 98.20751953 178.85961914 C93.34082028 175.80007466 88.65513078 172.98739284 83.30639648 170.85717773 C75.30263452 167.45572845 69.70092025 163.95259098 66.14302063 155.68954468 C63.19390245 148.13929787 61.00138993 140.34352103 58.88508606 132.5262146 C56.70522397 124.48318005 54.05400546 116.62707912 51.34622192 108.74911499 C50.15730665 105.28289125 48.98971098 101.8097718 47.82983398 98.33374023 C47.44537109 97.1908252 47.0609082 96.04791016 46.66479492 94.87036133 C45.84545898 92.18530273 45.84545898 92.18530273 45.84545898 90.18530273 C26.36135825 90.05062956 6.87749609 90.16257026 -12.6048584 90.44876099 C-14.97482835 90.48150405 -17.34487561 90.50905637 -19.71496582 90.53146362 C-23.07020392 90.5645564 -26.42463366 90.61666554 -29.77954102 90.67358398 C-30.79888733 90.67997894 -31.81823364 90.6863739 -32.86846924 90.69296265 C-33.80076355 90.71275177 -34.73305786 90.73254089 -35.69360352 90.75292969 C-36.51038574 90.76403275 -37.32716797 90.7751358 -38.16870117 90.78657532 C-40.55645242 91.02271604 -40.55645242 91.02271604 -42.15454102 94.18530273 C-42.53953993 95.84079805 -42.88247236 97.50754604 -43.15454102 99.18530273 C-43.72688477 98.44022461 -44.29922852 97.69514648 -44.88891602 96.92749023 C-46.94056825 94.44428357 -48.98160819 92.41977921 -51.40454102 90.31030273 C-56.23350682 86.03796922 -60.95505654 81.66211921 -65.65454102 77.24780273 C-66.36126953 76.58474121 -67.06799805 75.92167969 -67.79614258 75.23852539 C-72.85299107 70.48685268 -72.85299107 70.48685268 -75.15454102 68.18530273 C-81.09632484 67.76247917 -86.09218928 68.67486721 -91.79125977 70.26733398 C-92.59255814 70.48217941 -93.39385651 70.69702484 -94.21943665 70.91838074 C-96.76294343 71.60217064 -99.30252392 72.29935691 -101.84204102 72.99780273 C-105.178273 73.90388827 -108.5158615 74.8049082 -111.85375977 75.70483398 C-113.05764847 76.03017624 -113.05764847 76.03017624 -114.28585815 76.36209106 C-132.22914664 81.18530273 -132.22914664 81.18530273 -137.15454102 81.18530273 C-136.65493711 76.43014413 -134.42264996 73.24382937 -131.65454102 69.49780273 C-131.20747803 68.88275879 -130.76041504 68.26771484 -130.29980469 67.6340332 C-126.86360404 62.97845731 -123.17050396 58.63206171 -119.21704102 54.40405273 C-117.38008353 52.4279318 -115.67642937 50.39575653 -113.96704102 48.31030273 C-86.29363275 16.75625561 -41.15716658 -0.00495571 0 0 Z " fill="#CED7DB" transform="translate(159.154541015625,129.814697265625)"/>
<path d="M0 0 C3.83041749 -0.06236656 7.66062099 -0.10947884 11.49142456 -0.13986206 C13.47559338 -0.15835471 15.45961708 -0.19074313 17.44360352 -0.22338867 C19.1962854 -0.2300354 19.1962854 -0.2300354 20.984375 -0.23681641 C21.97832275 -0.24616211 22.97227051 -0.25550781 23.99633789 -0.26513672 C26.44921875 0.09130859 26.44921875 0.09130859 28.13696289 1.18920898 C30.01964507 3.91813491 30.88109013 6.70205067 31.91015625 9.85302734 C32.25088417 10.88330048 32.25088417 10.88330048 32.59849548 11.93438721 C33.34948827 14.212993 34.0872081 16.49564533 34.82421875 18.77880859 C35.34467116 20.37284419 35.86575967 21.96667223 36.38745117 23.56030273 C37.21071879 26.07804661 38.03244096 28.59625229 38.8500824 31.11582947 C40.61664048 36.55935124 42.41241125 41.99219343 44.23187256 47.41825867 C45.45407442 51.06631877 46.66632795 54.71764158 47.87701416 58.36953735 C48.46531493 60.13786921 49.05738002 61.90495332 49.65325928 63.67074585 C50.48845209 66.1498014 51.30841545 68.63341583 52.125 71.11865234 C52.37644272 71.85359924 52.62788544 72.58854614 52.88694763 73.34576416 C54.15635516 77.2647868 54.91151168 80.15876914 53.44921875 84.09130859 C51.57526074 85.86962601 49.84694159 87.2964184 47.76171875 88.77880859 C47.17865967 89.20959717 46.59560059 89.64038574 45.99487305 90.08422852 C44.15697426 91.4353285 42.30519939 92.76518683 40.44921875 94.09130859 C39.33453575 94.89585802 38.21994958 95.70054163 37.10546875 96.50537109 C34.82161202 98.14749129 32.53023855 99.7785237 30.234375 101.40380859 C26.0368945 104.37744004 21.86741818 107.38932726 17.69921875 110.40380859 C16.9518042 110.94416748 16.20438965 111.48452637 15.43432617 112.04125977 C13.89789059 113.15209991 12.36151439 114.26302217 10.82519531 115.37402344 C8.36491348 117.15224193 5.9033362 118.92865397 3.44140625 120.70458984 C2.62639648 121.29264404 1.81138672 121.88069824 0.97167969 122.48657227 C-0.58998495 123.61329263 -2.1518251 124.73976978 -3.71386719 125.8659668 C-4.4205957 126.37603271 -5.12732422 126.88609863 -5.85546875 127.41162109 C-6.78335205 128.08088623 -6.78335205 128.08088623 -7.72998047 128.76367188 C-9.62208028 130.10251705 -9.62208028 130.10251705 -11.53173828 131.82128906 C-13.55078125 133.09130859 -13.55078125 133.09130859 -15.55395508 132.93408203 C-17.73408764 132.01394294 -19.54664922 130.94456706 -21.5 129.60693359 C-22.25667969 129.09066406 -23.01335937 128.57439453 -23.79296875 128.04248047 C-24.59992188 127.48109375 -25.406875 126.91970703 -26.23828125 126.34130859 C-27.08261719 125.75929688 -27.92695313 125.17728516 -28.796875 124.57763672 C-35.05339932 120.22710446 -41.11135937 115.65891404 -47.12255859 110.97802734 C-52.4038485 106.8937314 -57.8350053 103.08297088 -63.36328125 99.34130859 C-64.94926599 98.26064875 -66.53520479 97.1799215 -68.12109375 96.09912109 C-70.25898975 94.64351276 -72.39863719 93.19226816 -74.55371094 91.76220703 C-76.2974866 90.60121234 -78.01932725 89.41361091 -79.73828125 88.21630859 C-81.15173828 87.26111328 -81.15173828 87.26111328 -82.59375 86.28662109 C-84.55078125 84.09130859 -84.55078125 84.09130859 -84.79534912 80.87350464 C-84.54678844 77.02956052 -83.81645795 74.02510121 -82.59472656 70.38085938 C-82.28249649 69.43540756 -82.28249649 69.43540756 -81.96395874 68.47085571 C-81.27908779 66.40589984 -80.57934445 64.34634325 -79.87890625 62.28662109 C-79.39445346 60.83871416 -78.91080398 59.39053821 -78.42791748 57.94210815 C-77.41541827 54.91232141 -76.39601419 51.88498197 -75.37109375 48.859375 C-74.06535089 45.00423769 -72.77265379 41.1448917 -71.48463821 37.28380013 C-70.48628813 34.29348049 -69.48310542 31.30480074 -68.47829437 28.31664658 C-68.00055081 26.89537872 -67.52376816 25.47378746 -67.04801178 24.05185318 C-60.2587406 3.79926794 -60.2587406 3.79926794 -57.55078125 1.09130859 C-56.09461379 0.96869704 -54.63269195 0.91351381 -53.17163086 0.88598633 C-52.23287109 0.86606125 -51.29411133 0.84613617 -50.3269043 0.8256073 C-49.29605713 0.80887466 -48.26520996 0.79214203 -47.203125 0.77490234 C-46.13562012 0.75393997 -45.06811523 0.7329776 -43.96826172 0.71138 C-40.47501279 0.64474977 -36.98169634 0.58602553 -33.48828125 0.52880859 C-31.72111252 0.49853577 -31.72111252 0.49853577 -29.91824341 0.46765137 C-22.86262454 0.34740807 -15.8068991 0.23887426 -8.75097656 0.13812256 C-5.83391724 0.09545044 -2.9169656 0.04859387 0 0 Z " fill="#546E7A" transform="translate(176.55078125,218.90869140625)"/>
<path d="M0 0 C1.94189453 -0.29785156 1.94189453 -0.29785156 5.75439453 0.63964844 C8.77049072 3.17013977 11.44075738 5.87382258 14.10205078 8.76855469 C16.22216841 11.06352738 18.31839991 13.12143783 20.69189453 15.13964844 C21.30806641 15.67589844 21.92423828 16.21214844 22.55908203 16.76464844 C23.79047321 17.81637044 25.02657396 18.86283208 26.27880859 19.88964844 C27.97603076 21.28631051 29.6463987 22.71118674 31.31689453 24.13964844 C31.86659912 24.57857422 32.41630371 25.0175 32.98266602 25.46972656 C34.50830078 26.79589844 34.50830078 26.79589844 36.75439453 29.63964844 C36.32375482 40.32387426 31.39999425 51.03967465 28.1105957 61.13623047 C27.24508638 63.79951746 26.3997241 66.46794446 25.5715332 69.14306641 C24.37115741 73.01991336 23.11388079 76.87610714 21.85205078 80.73339844 C21.31077293 82.516474 21.31077293 82.516474 20.75856018 84.33557129 C17.94841822 92.68257971 14.4112322 96.41703123 6.75439453 100.63964844 C5.21414151 101.58612485 3.67599122 102.53604254 2.14111328 103.49121094 C0.5770038 104.41957068 -0.98947666 105.34394548 -2.55810547 106.26464844 C-8.12289168 109.54587272 -13.6425035 112.86878441 -19.06982422 116.37402344 C-20.49331177 117.28547119 -20.49331177 117.28547119 -21.94555664 118.21533203 C-23.7861038 119.39807094 -25.6186325 120.59339936 -27.44213867 121.80224609 C-28.27447021 122.33382324 -29.10680176 122.86540039 -29.96435547 123.41308594 C-31.06166992 124.13117432 -31.06166992 124.13117432 -32.18115234 124.86376953 C-34.24560547 125.63964844 -34.24560547 125.63964844 -36.33081055 124.97192383 C-38.25733707 123.63148583 -39.64488638 122.33398088 -41.16357422 120.54980469 C-41.69112305 119.93588867 -42.21867187 119.32197266 -42.76220703 118.68945312 C-43.31360352 118.03364258 -43.865 117.37783203 -44.43310547 116.70214844 C-45.00899414 116.02700195 -45.58488281 115.35185547 -46.17822266 114.65625 C-50.94603484 109.04815413 -55.61720159 103.36312754 -60.24560547 97.63964844 C-61.76559515 95.78479011 -63.2864365 93.93062938 -64.80810547 92.07714844 C-65.53900391 91.16578125 -66.26990234 90.25441406 -67.02294922 89.31542969 C-69.20654384 86.61770378 -69.20654384 86.61770378 -71.62451172 84.18261719 C-74.68414043 80.88886037 -76.98147973 78.31397596 -77.69482422 73.79199219 C-77.53945772 70.2807094 -76.98785569 67.07705964 -76.24560547 63.63964844 C-76.09897461 62.94194336 -75.95234375 62.24423828 -75.80126953 61.52539062 C-73.01790307 48.69502331 -68.49002216 36.64731237 -63.24560547 24.63964844 C-62.74029297 23.42921875 -62.23498047 22.21878906 -61.71435547 20.97167969 C-61.01826172 19.47701172 -61.01826172 19.47701172 -60.30810547 17.95214844 C-59.92783203 17.12328125 -59.54755859 16.29441406 -59.15576172 15.44042969 C-56.63211519 13.06128643 -54.48144017 13.1714783 -51.11987305 12.94750977 C-45.52770786 12.34853582 -40.10344104 10.75829259 -34.66381836 9.3659668 C-32.58128487 8.83307968 -30.49673365 8.30882663 -28.41162109 7.78613281 C-20.61132469 5.81925705 -12.86548775 3.71614746 -5.14355469 1.45898438 C-3.42862137 0.97412201 -1.713981 0.48821812 0 0 Z " fill="#CED7DB" transform="translate(78.24560546875,196.3603515625)"/>
<path d="M0 0 C5.71073596 3.93185698 5.71073596 3.93185698 6.953125 8.51953125 C7.08122607 9.94820688 7.17779354 11.37991138 7.25 12.8125 C7.31243896 13.60930176 7.37487793 14.40610352 7.43920898 15.22705078 C7.65755119 18.14997544 7.828605 21.07394801 8 24 C8.12687959 25.94457304 8.25382948 27.88914198 8.38241577 29.83360291 C8.87577844 37.30536261 9.3387714 44.77826488 9.74438477 52.25537109 C9.91345597 54.73217543 10.14490404 57.20558239 10.44116211 59.67041016 C11.43633097 68.20991252 11.43633097 68.20991252 9.18359375 72.2890625 C8.27738281 73.05992187 7.37117187 73.83078125 6.4375 74.625 C5.69463745 75.27927979 5.69463745 75.27927979 4.93676758 75.94677734 C3.32397026 77.34315379 1.66870917 78.67117751 0 80 C-1.12074913 80.93635517 -2.24053368 81.87386603 -3.359375 82.8125 C-11.14467443 89.22313989 -19.41596461 94.72910108 -28 100 C-28.92683594 100.60457031 -29.85367188 101.20914063 -30.80859375 101.83203125 C-61.63760233 121.2040182 -105.29373481 126.36690233 -140.71875 119.046875 C-153.17719986 116.11890598 -165.3589716 112.34730166 -177 107 C-174.30056153 103.75460768 -170.77178716 102.24335047 -167.03515625 100.48046875 C-165.98916512 99.97703194 -165.98916512 99.97703194 -164.92204285 99.46342468 C-162.63834194 98.36546944 -160.35063991 97.27617051 -158.0625 96.1875 C-154.87992807 94.66604845 -151.69924963 93.14068679 -148.51953125 91.61328125 C-147.71881195 91.22914063 -146.91809265 90.845 -146.09310913 90.44921875 C-140.91860699 87.95612039 -135.79499438 85.38040702 -130.69921875 82.73046875 C-129.42377546 82.07196586 -128.14830421 81.41351712 -126.87280273 80.75512695 C-124.50348084 79.53080062 -122.14915072 78.28616278 -119.79711914 77.02807617 C-112.12384065 73.06893218 -112.12384065 73.06893218 -107.43359375 72.78125 C-101.25398096 74.97469618 -95.59546736 78.13054471 -89.83007812 81.2265625 C-88.88197266 81.7215625 -87.93386719 82.2165625 -86.95703125 82.7265625 C-86.10085205 83.18627441 -85.24467285 83.64598633 -84.36254883 84.11962891 C-81.6545314 85.12873409 -80.65175045 85.03266435 -78 84 C-45.85400983 68.87479824 -21.31823745 43.27996623 -5 12 C-4.45255127 10.95561768 -4.45255127 10.95561768 -3.89404297 9.89013672 C-3.53584473 9.19291504 -3.17764648 8.49569336 -2.80859375 7.77734375 C-2.48560303 7.14948975 -2.1626123 6.52163574 -1.82983398 5.87475586 C-0.97226053 3.93733115 -0.45326361 2.06613854 0 0 Z " fill="#90A3AD" transform="translate(270,332)"/>
<path d="M0 0 C2.00552059 1.02226588 3.97065575 2.12551566 5.90234375 3.28125 C7.03438232 3.95478516 8.1664209 4.62832031 9.33276367 5.32226562 C10.53453683 6.04785523 11.73611249 6.77377204 12.9375 7.5 C14.15903751 8.23149324 15.38079902 8.96261255 16.6027832 9.69335938 C24.84009314 14.63322331 33.00277506 19.67837157 41 25 C40.4050805 30.18728056 37.97376165 34.39655421 35.5625 38.9375 C35.11656494 39.77853271 34.67062988 40.61956543 34.21118164 41.48608398 C28.37521567 52.26372098 21.44785062 61.81284238 13.06640625 70.77734375 C11.2088233 72.77538666 9.48178749 74.83127197 7.75 76.9375 C-2.01713908 88.03955558 -14.5680461 96.20604173 -27 104 C-27.59216309 104.37125 -28.18432617 104.7425 -28.79443359 105.125 C-36.85600845 110.0904452 -36.85600845 110.0904452 -40.09057617 109.8347168 C-44.31607314 108.62241721 -47.9684888 106.54155643 -51.8125 104.4375 C-52.99489258 103.80038086 -52.99489258 103.80038086 -54.20117188 103.15039062 C-56.1373378 102.10603446 -58.07005367 101.0557923 -60 100 C-60.30267109 92.22030246 -60.53289954 84.44200858 -60.67355824 76.6578846 C-60.7411154 73.0419282 -60.83251181 69.4300273 -60.98071289 65.81640625 C-61.99222694 40.49642186 -61.99222694 40.49642186 -57.28344727 34.99243164 C-54.16587129 32.26147489 -50.7809519 30.64954259 -47 29 C-45.73902365 28.13707955 -44.49767678 27.24277617 -43.30078125 26.29296875 C-42.31464844 25.59816406 -41.32851562 24.90335937 -40.3125 24.1875 C-39.14675381 23.36251813 -37.98141118 22.53696582 -36.81640625 21.7109375 C-35.9039917 21.06463379 -35.9039917 21.06463379 -34.97314453 20.40527344 C-32.00752213 18.29315731 -29.05930727 16.15721254 -26.11083984 14.02124023 C-23.79728089 12.3467212 -21.47891286 10.67902948 -19.16015625 9.01171875 C-16.6865527 7.23021153 -14.2328627 5.43003308 -11.80859375 3.58203125 C-10.51115234 2.61330078 -10.51115234 2.61330078 -9.1875 1.625 C-8.47980469 1.08101563 -7.77210938 0.53703125 -7.04296875 -0.0234375 C-4.24564191 -1.36059182 -2.97171917 -0.83053569 0 0 Z " fill="#CED7DB" transform="translate(229,308)"/>
<path d="M0 0 C19.44593571 1.71006972 19.44593571 1.71006972 24.99609375 8.12988281 C28.28924555 13.7425375 29.79187056 19.93410547 31.33203125 26.20507812 C31.8241491 27.95006482 32.32144948 29.69359923 32.82421875 31.43554688 C40.98718476 60.70413155 41.06605672 93.24091722 31.33203125 122.20507812 C27.81618246 120.88961122 24.70863088 119.33861079 21.515625 117.36914062 C20.59628174 116.80759277 19.67693848 116.24604492 18.72973633 115.66748047 C16.71159336 114.41481705 14.69993652 113.15165772 12.6940918 111.87939453 C7.82739255 108.81985005 3.14170305 106.00716823 -2.20703125 103.87695312 C-10.32533214 100.42096962 -15.91339152 96.7636202 -19.44740295 88.47828674 C-22.71546859 80.06347708 -25.0980926 71.3698272 -27.43359375 62.65966797 C-29.12434943 56.42350156 -31.27277519 50.36069742 -33.41796875 44.26757812 C-34.0675101 42.40738635 -34.70899999 40.54434991 -35.33984375 38.67773438 C-35.7280127 37.55250366 -35.7280127 37.55250366 -36.12402344 36.40454102 C-36.74741957 33.88381583 -36.89944185 31.79208341 -36.66796875 29.20507812 C-34.60546875 26.83789062 -34.60546875 26.83789062 -31.66796875 24.33007812 C-30.57417701 23.3758872 -29.48180828 22.42006341 -28.390625 21.46289062 C-27.79652832 20.94758789 -27.20243164 20.43228516 -26.59033203 19.90136719 C-23.01996806 16.750886 -19.57053482 13.47035802 -16.10546875 10.20507812 C-15.41517578 9.55812988 -14.72488281 8.91118164 -14.01367188 8.24462891 C-10.49055798 4.98790665 -10.49055798 4.98790665 -7.17797852 1.52441406 C-4.96139253 -0.41227643 -2.83028355 -0.12159353 0 0 Z " fill="#CED7DB" transform="translate(244.66796875,196.794921875)"/>
<path d="M0 0 C10.89 0 21.78 0 33 0 C37.50946568 12.40103063 37.50946568 12.40103063 39.48950195 18.31982422 C39.81465538 19.2904203 39.81465538 19.2904203 40.14637756 20.28062439 C42.36399355 26.90917928 44.56102281 33.54461924 46.75610352 40.18066406 C47.79632414 43.32311152 48.84320594 46.46322235 49.89575195 49.6015625 C51.17526144 53.41684555 52.44308456 57.23582369 53.70262718 61.05774307 C54.18218391 62.50634867 54.66582842 63.95360783 55.1536808 65.39944077 C55.8328387 67.4149595 56.49684798 69.43488615 57.1574707 71.45654297 C57.53845413 72.60250946 57.91943756 73.74847595 58.31196594 74.9291687 C59.02912056 78.12997079 59.05934092 79.91630313 58 83 C56.12604199 84.77831741 54.39772284 86.20510981 52.3125 87.6875 C51.72944092 88.11828857 51.14638184 88.54907715 50.5456543 88.99291992 C48.70775551 90.34401991 46.85598064 91.67387824 45 93 C43.885317 93.80454943 42.77073083 94.60923304 41.65625 95.4140625 C39.37239327 97.05618269 37.0810198 98.68721511 34.78515625 100.3125 C30.58767575 103.28613144 26.41819943 106.29801866 22.25 109.3125 C21.50258545 109.85285889 20.7551709 110.39321777 19.98510742 110.94995117 C18.44867184 112.06079131 16.91229564 113.17171358 15.37597656 114.28271484 C12.91569473 116.06093334 10.45411745 117.83734537 7.9921875 119.61328125 C7.17717773 120.20133545 6.36216797 120.78938965 5.52246094 121.39526367 C3.9607963 122.52198403 2.39895615 123.64846119 0.83691406 124.7746582 C0.13018555 125.28472412 -0.57654297 125.79479004 -1.3046875 126.3203125 C-1.92327637 126.76648926 -2.54186523 127.21266602 -3.17919922 127.67236328 C-5.07129903 129.01120846 -5.07129903 129.01120846 -6.98095703 130.72998047 C-9 132 -9 132 -10.9921875 131.8515625 C-13.24391737 130.89654867 -15.1107448 129.76491041 -17.125 128.375 C-17.9089917 127.83721924 -18.6929834 127.29943848 -19.50073242 126.74536133 C-20.32549072 126.16939209 -21.15024902 125.59342285 -22 125 C-22.84344971 124.41565186 -23.68689941 123.83130371 -24.5559082 123.22924805 C-40.05363577 112.44223786 -40.05363577 112.44223786 -44 109 C-44 108.34 -44 107.68 -44 107 C-41.53476841 105.12666807 -39.05768535 103.36445738 -36.5 101.625 C-34.93757852 100.54082367 -33.37641103 99.45483831 -31.81640625 98.3671875 C-31.01605957 97.80999023 -30.21571289 97.25279297 -29.39111328 96.67871094 C-12.32893327 84.6999944 3.29499099 72.98479068 7.53515625 51.2578125 C9.90219608 34.66864261 6.240581 21.07611292 0.734375 5.42578125 C0 3 0 3 0 0 Z " fill="#37474F" transform="translate(172,220)"/>
<path d="M0 0 C1.05852173 0.03951782 1.05852173 0.03951782 2.13842773 0.07983398 C6.45957531 0.34233603 9.36682034 1.10432275 12.8125 3.75 C15.77550108 8.19450163 15.25862749 12.39263289 15.3125 17.625 C15.374375 19.11580078 15.374375 19.11580078 15.4375 20.63671875 C15.45296875 22.08111328 15.45296875 22.08111328 15.46875 23.5546875 C15.48744141 24.43108887 15.50613281 25.30749023 15.52539062 26.21044922 C14.66874352 29.26210786 13.24242418 30.73245503 10.78174031 32.68388438 C6.81370265 34.83211733 2.47330944 34.43359856 -1.93580627 34.38491821 C-3.01954637 34.39271817 -4.10328647 34.40051812 -5.21986717 34.40855443 C-8.85208319 34.4285015 -12.48325468 34.4126981 -16.11547852 34.39697266 C-18.7190614 34.40374747 -21.3226395 34.41264982 -23.9262085 34.42352295 C-30.26387204 34.44574627 -36.60123938 34.44095861 -42.93891449 34.42645974 C-48.08940192 34.41516485 -53.23980639 34.41363766 -58.39030266 34.41907883 C-59.12351683 34.41984499 -59.85673101 34.42061116 -60.61216379 34.42140054 C-62.10169096 34.42299917 -63.5912181 34.42462024 -65.08074521 34.4262635 C-79.04489098 34.44051807 -93.00887256 34.42413239 -106.9729914 34.39726166 C-118.95530235 34.37491842 -130.93737114 34.37880715 -142.91967773 34.40185547 C-156.83560786 34.42861064 -170.75139417 34.43914972 -184.66734642 34.42379415 C-186.15106863 34.42220141 -187.63479086 34.42062955 -189.11851311 34.41907883 C-190.21353671 34.41792176 -190.21353671 34.41792176 -191.330682 34.41674132 C-196.47559702 34.4124238 -201.62042083 34.41971185 -206.76532173 34.43147659 C-213.68883122 34.44696054 -220.6118751 34.43594352 -227.53533936 34.40700531 C-230.07946447 34.40038177 -232.62362802 34.40231363 -235.16773796 34.41331863 C-238.63440904 34.4269343 -242.09960114 34.40990401 -245.56617737 34.38491821 C-247.08484393 34.40164863 -247.08484393 34.40164863 -248.63419062 34.41871703 C-253.34686207 34.35259882 -255.47270355 34.30653701 -259.28883266 31.33531761 C-262.59153594 26.8381965 -262.27588988 24.23017249 -262.1875 18.75 C-260.4241064 18.74641747 -260.4241064 18.74641747 -258.62508869 18.74276257 C-230.72436672 18.68541369 -202.82371769 18.61269098 -174.92308675 18.52101372 C-171.48965911 18.50974544 -168.05623106 18.498607 -164.62280273 18.48754883 C-163.59749389 18.4842433 -163.59749389 18.4842433 -162.55147173 18.480871 C-151.48093484 18.44549007 -140.41039803 18.42063044 -129.33982555 18.39965298 C-117.98199932 18.37789724 -106.62425751 18.3446261 -95.26648921 18.30129844 C-88.88631923 18.27732523 -82.50623064 18.2586233 -76.12601662 18.25238609 C-70.12357228 18.24635381 -64.12133629 18.22642115 -58.11896896 18.19572449 C-55.91349291 18.18691445 -53.70798966 18.18322778 -51.50249672 18.18499184 C-48.49558792 18.18663786 -45.48931934 18.17000238 -42.48249817 18.14872742 C-41.16780374 18.15599878 -41.16780374 18.15599878 -39.82654983 18.16341704 C-35.12324319 18.10834757 -32.01308376 17.79585971 -28.1875 14.75 C-26.15878391 11.78782558 -25.84178891 9.03765958 -25.5625 5.5 C-25.48773438 4.60796875 -25.41296875 3.7159375 -25.3359375 2.796875 C-25.26246094 1.78367187 -25.26246094 1.78367187 -25.1875 0.75 C-16.77006266 0.01361585 -8.44768101 -0.41409293 0 0 Z " fill="#FF8F00" transform="translate(497.1875,419.25)"/>
<path d="M0 0 C0.87577763 -0.00427212 1.75155525 -0.00854425 2.6538716 -0.01294583 C5.57621724 -0.02115437 8.49711431 0.00627368 11.41932678 0.03364563 C13.51885443 0.03505656 15.61838455 0.03426324 17.71791077 0.03143311 C23.40968017 0.02999932 29.10092205 0.05938358 34.79256892 0.09430289 C40.74361286 0.12557234 46.69466906 0.12849762 52.64578247 0.13442993 C63.9114851 0.14996657 75.17694495 0.19099288 86.44254071 0.24117738 C99.26951054 0.2970762 112.09649202 0.32455875 124.92355335 0.34965456 C151.30647502 0.40190867 177.68918124 0.48984774 204.07191467 0.60127258 C204.10407031 2.20660992 204.12705223 3.81213286 204.14613342 5.41767883 C204.15991028 6.31172424 204.17368713 7.20576965 204.18788147 8.12690735 C204.03391935 11.41197283 203.23778076 13.13666635 201.07191467 15.60127258 C196.49036604 19.22251496 192.35842287 19.01768495 186.7769165 18.96203613 C185.36780808 18.96588104 185.36780808 18.96588104 183.93023282 18.96980363 C180.78091533 18.97474696 177.63207671 18.95823927 174.48280334 18.94184875 C172.225937 18.9410026 169.96906984 18.94147739 167.71220398 18.94317627 C161.58245811 18.94403811 155.45288783 18.92638166 149.32318282 18.9054544 C142.91833492 18.88671911 136.51348314 18.88493964 130.10861206 18.88137817 C119.35749187 18.87310891 108.60644854 18.85436169 97.85536194 18.82759094 C86.78244855 18.80004753 75.70955268 18.77881534 64.63661194 18.7660675 C63.95390357 18.76527933 63.2711952 18.76449116 62.5677987 18.76367911 C59.14279966 18.75976395 55.7178005 18.75597284 52.29280126 18.7522434 C23.88579467 18.7211509 -4.52114187 18.66809484 -32.92808533 18.60127258 C-32.92808533 17.61127258 -32.92808533 16.62127258 -32.92808533 15.60127258 C-31.47862244 14.42207336 -31.47862244 14.42207336 -29.45542908 13.29658508 C-28.72001892 12.87763977 -27.98460876 12.45869446 -27.22691345 12.02705383 C-26.44767517 11.59779602 -25.66843689 11.16853821 -24.86558533 10.72627258 C-23.35199572 9.87803985 -21.84025482 9.0264994 -20.33042908 8.17158508 C-19.3171051 7.61108459 -19.3171051 7.61108459 -18.28330994 7.03926086 C-16.0119427 5.73267946 -16.0119427 5.73267946 -14.48071092 4.38823253 C-9.68673887 0.47772927 -6.07792461 -0.10950286 0 0 Z " fill="#FEC927" transform="translate(267.92808532714844,419.3987274169922)"/>
<path d="M0 0 C0.90861534 0.45376007 0.90861534 0.45376007 1.83558655 0.91668701 C3.81529204 1.90826656 5.78754901 2.91377522 7.76000977 3.91967773 C9.13962039 4.61415101 10.51967838 5.30773621 11.90016174 6.00047302 C15.51642069 7.81810642 19.12650863 9.64767483 22.7354126 11.4798584 C26.42548312 13.35055656 30.12130596 15.20981641 33.81665039 17.07006836 C41.05472703 20.71584576 48.28631978 24.37426134 55.51391602 28.04077148 C54.51391602 31.04077148 54.51391602 31.04077148 51.66235352 32.50561523 C50.41036977 33.01118174 49.15197229 33.50104027 47.88891602 33.97827148 C47.21449463 34.23842041 46.54007324 34.49856934 45.84521484 34.76660156 C38.86165683 37.39202982 31.78979129 39.38883209 24.51391602 41.04077148 C23.28801758 41.34112305 22.06211914 41.64147461 20.79907227 41.95092773 C-12.17907238 49.19891659 -49.04784449 44.02256442 -79.48608398 30.04077148 C-76.78664552 26.79537917 -73.25787114 25.28412195 -69.52124023 23.52124023 C-68.82391281 23.18561569 -68.12658539 22.84999115 -67.40812683 22.50419617 C-65.12442592 21.40624092 -62.8367239 20.31694199 -60.54858398 19.22827148 C-57.36601205 17.70681994 -54.18533361 16.18145828 -51.00561523 14.65405273 C-50.20489594 14.26991211 -49.40417664 13.88577148 -48.57919312 13.48999023 C-43.40469097 10.99689188 -38.28107837 8.42117851 -33.18530273 5.77124023 C-31.90985945 5.11273734 -30.6343882 4.45428861 -29.35888672 3.79589844 C-26.98956483 2.57157211 -24.63523471 1.32693427 -22.28320312 0.06884766 C-21.22093506 -0.47924561 -20.15866699 -1.02733887 -19.06420898 -1.59204102 C-18.15058594 -2.07560059 -17.23696289 -2.55916016 -16.2956543 -3.05737305 C-10.41572866 -4.94479443 -5.28147314 -2.66773797 0 0 Z " fill="#394951" transform="translate(172.486083984375,408.959228515625)"/>
<path d="M0 0 C0.33 0 0.66 0 1 0 C8.85759965 34.83168421 -4.58204147 76.47041844 -22.89526367 105.86450195 C-26.83061629 111.9723744 -31.24224048 117.50875255 -36 123 C-36.53625 123.75539063 -37.0725 124.51078125 -37.625 125.2890625 C-38.07875 125.85367188 -38.5325 126.41828125 -39 127 C-39.66 127 -40.32 127 -41 127 C-42.01535208 116.39281124 -42.93065393 105.78915054 -43.5078125 95.1484375 C-43.54929413 94.39253326 -43.59077576 93.63662903 -43.6335144 92.8578186 C-43.8386922 89.08619017 -44.03322576 85.31436177 -44.21435547 81.54150391 C-44.28849254 80.13182306 -44.36286378 78.72215451 -44.4375 77.3125 C-44.49808594 76.07113281 -44.55867188 74.82976562 -44.62109375 73.55078125 C-45.02093541 69.80381147 -45.7115845 66.54205074 -47 63 C-47.99 62.34 -48.98 61.68 -50 61 C-49.36843005 55.94744036 -47.86540627 51.70406799 -46 47 C-44.67935547 47.42539062 -44.67935547 47.42539062 -43.33203125 47.859375 C-39.82286836 48.39268102 -39.82286836 48.39268102 -37.32421875 45.640625 C-36.42457913 44.5268496 -35.54673879 43.39523176 -34.6875 42.25 C-33.9759375 41.35571289 -33.9759375 41.35571289 -33.25 40.44335938 C-32.2786647 39.22072687 -31.31556741 37.99150406 -30.36083984 36.75585938 C-28.45539312 34.29730666 -26.47789049 31.90045596 -24.5 29.5 C-23.778125 28.613125 -23.05625 27.72625 -22.3125 26.8125 C-19.28395853 23.12913875 -16.19866671 19.49568016 -13.10791016 15.86450195 C-9.22027952 11.28770668 -5.43603312 6.63462494 -1.6796875 1.94921875 C-1.12539063 1.30597656 -0.57109375 0.66273438 0 0 Z " fill="#384850" transform="translate(321,273)"/>
<path d="M0 0 C3.74737427 1.24912476 4.68977442 2.7938723 7.125 5.875 C8.32382812 7.37546875 8.32382812 7.37546875 9.546875 8.90625 C10.35640625 9.9271875 11.1659375 10.948125 12 12 C17.22567459 18.44870481 22.5278051 24.8260161 27.90258789 31.15039062 C31.60214902 35.51061087 35.23184929 39.92440976 38.83203125 44.3671875 C40.80334011 46.89585291 40.80334011 46.89585291 42.59301758 48.42773438 C45.29269729 51.01537282 46.82588738 52.92432735 47.43334961 56.67724609 C47.47685071 60.06060519 47.30491882 63.37488842 47.0625 66.75 C46.99474365 68.01739014 46.9269873 69.28478027 46.85717773 70.59057617 C46.65902634 74.22773506 46.41552144 77.86082994 46.16650391 81.49481201 C45.92212832 85.17164332 45.70807436 88.85015738 45.49049377 92.52865601 C45.19562426 97.45753957 44.87976985 102.38501615 44.5625 107.3125 C44.50160187 108.28417114 44.44070374 109.25584229 44.37796021 110.25695801 C44.20122209 113.02239316 44.01100622 115.78655254 43.81640625 118.55078125 C43.7642395 119.39105362 43.71207275 120.23132599 43.6583252 121.09706116 C43.51204294 123.07149476 43.26629278 125.03814508 43 127 C42.01 127.495 42.01 127.495 41 128 C24.0348877 107.06776068 10.76314234 85.36234361 4 59 C3.79117187 58.2177002 3.58234375 57.43540039 3.3671875 56.62939453 C-1.38752358 38.08827829 -0.39535117 18.97989735 0 0 Z " fill="#56707C" transform="translate(0,273)"/>
<path d="M0 0 C-6.08292198 9.74894635 -12.16744472 19.49694328 -18.28125 29.2265625 C-18.77729736 30.01732178 -19.27334473 30.80808105 -19.78442383 31.62280273 C-20.762979 33.16831025 -21.75248236 34.70693887 -22.75268555 36.23852539 C-25.18380077 39.97817744 -27.36283176 43.65656383 -29.23828125 47.70703125 C-32.86891052 55.08318807 -36.03798242 59.68512924 -44.0625 62.4375 C-49.89982423 64.08250743 -55.8054714 65.27424895 -61.76708984 66.37207031 C-66.05422468 67.20476256 -70.1940838 68.37687213 -74.375 69.625 C-81.02378591 71.51631741 -87.71610181 73.19941023 -94.4375 74.8125 C-95.34483887 75.03180176 -96.25217773 75.25110352 -97.18701172 75.47705078 C-98.45375732 75.77651611 -98.45375732 75.77651611 -99.74609375 76.08203125 C-100.49560303 76.25968018 -101.2451123 76.4373291 -102.01733398 76.62036133 C-104 77 -104 77 -107 77 C-106.50039609 72.24484139 -104.26810895 69.05852664 -101.5 65.3125 C-101.05293701 64.69745605 -100.60587402 64.08241211 -100.14526367 63.44873047 C-96.70906302 58.79315457 -93.01596294 54.44675898 -89.0625 50.21875 C-87.22554251 48.24262907 -85.52188835 46.21045379 -83.8125 44.125 C-63.93396984 21.45890584 -35.37906371 8.30918532 -7 0 C-6.2471875 -0.23203125 -5.494375 -0.4640625 -4.71875 -0.703125 C-3 -1 -3 -1 0 0 Z " fill="#56707B" transform="translate(129,134)"/>
<path d="M0 0 C29.61811537 5.07324978 57.02505546 19.75883878 78.52783203 40.57910156 C80.0138435 42.01336139 81.51960083 43.42457776 83.02734375 44.8359375 C92.59481306 53.93808687 100.79101772 64.3150403 107 76 C107 76.66 107 77.32 107 78 C101.17895811 77.50441346 95.73152327 76.5520968 90.125 74.875 C82.22033172 72.59518476 74.27859289 70.49190187 66.3125 68.4375 C65.14895996 68.13158936 63.98541992 67.82567871 62.78662109 67.51049805 C57.93560038 66.23936945 53.10543281 64.98231976 48.18359375 64.015625 C47.50192139 63.87068604 46.82024902 63.72574707 46.11791992 63.57641602 C44.42298273 63.2235164 42.71954188 62.91209147 41.015625 62.60546875 C36.12457307 60.0015538 33.87157895 55.62492122 31 51 C30.40219727 50.04843018 29.80439453 49.09686035 29.18847656 48.11645508 C27.27116931 45.02760104 25.38317102 41.92227193 23.5 38.8125 C17.36990263 28.75032504 11.06172943 18.83752806 4.52148438 9.03442383 C3.92658203 8.13618896 3.33167969 7.2379541 2.71875 6.3125 C2.19216797 5.52488281 1.66558594 4.73726562 1.12304688 3.92578125 C0 2 0 2 0 0 Z " fill="#556E7A" transform="translate(194,133)"/>
<path d="M0 0 C6.8611428 0.39124736 12.0684276 3.23591393 18.0625 6.4375 C19.08384033 6.97882568 20.10518066 7.52015137 21.1574707 8.07788086 C33.61741678 14.80043349 44.36383085 22.73771318 54.52783203 32.57910156 C56.0138435 34.01336139 57.51960083 35.42457776 59.02734375 36.8359375 C68.59481306 45.93808687 76.79101772 56.3150403 83 68 C83 68.66 83 69.32 83 70 C76.69548717 69.44224489 70.9387377 68.34625817 64.875 66.5625 C63.73611328 66.23668945 63.73611328 66.23668945 62.57421875 65.90429688 C61.08157365 65.4765423 59.59167781 65.03905372 58.10498047 64.59106445 C56.158877 64.0446116 54.17238047 63.64795853 52.1875 63.265625 C47.97192617 61.59179421 46.87618816 59.12559269 45.125 55.1875 C44.4557599 53.81839775 43.77981631 52.45255462 43.09765625 51.08984375 C42.75492676 50.4026123 42.41219727 49.71538086 42.05908203 49.00732422 C35.37361734 36.33607232 25.44993952 25.30390058 15.4375 15.1875 C14.82438965 14.56504395 14.2112793 13.94258789 13.57958984 13.30126953 C9.79124248 9.53915307 5.87651234 6.30101698 1.48852539 3.25512695 C0.99731201 2.84093506 0.50609863 2.42674316 0 2 C0 1.34 0 0.68 0 0 Z " fill="#3A4A52" transform="translate(218,141)"/>
<path d="M0 0 C1.32753296 0.68340454 1.32753296 0.68340454 2.68188477 1.38061523 C3.6519043 1.87368164 4.62192383 2.36674805 5.62133789 2.87475586 C7.10730469 3.64916016 7.10730469 3.64916016 8.62329102 4.43920898 C9.64100586 4.9593457 10.6587207 5.47948242 11.70727539 6.01538086 C14.20490838 7.2935123 16.69736615 8.58076711 19.18579102 9.87670898 C19.18579102 10.53670898 19.18579102 11.19670898 19.18579102 11.87670898 C-8.50912587 23.76346535 -34.93821539 26.4392639 -64.81420898 25.87670898 C-62.18645367 24.12487211 -59.61499114 22.68792358 -56.8112793 21.24707031 C-55.2838913 20.46164604 -55.2838913 20.46164604 -53.72564697 19.66035461 C-49.68400767 17.59714856 -45.63991907 15.53884742 -41.59062576 13.49069691 C-38.51976787 11.93737569 -35.45285278 10.37721216 -32.39428711 8.79980469 C-28.86214188 6.97833821 -25.3154291 5.18645435 -21.76733398 3.39624023 C-20.67543762 2.8286348 -19.58354126 2.26102936 -18.45855713 1.67622375 C-11.46735226 -1.81073888 -7.47750987 -2.98464674 0 0 Z " fill="#546E7A" transform="translate(168.814208984375,407.123291015625)"/>
<path d="M0 0 C0 20.13 0 40.26 0 61 C-1.65 60.34 -3.3 59.68 -5 59 C-8.56502255 59.30732953 -11.60833492 59.86944497 -15 61 C-15 41.2 -15 21.4 -15 1 C-10 3 -10 3 -8 3.875 C-5.71981346 4.22975836 -5.71981346 4.22975836 -3.3125 2.0625 C-1 0 -1 0 0 0 Z " fill="#8FA3AD" transform="translate(169,347)"/>
<path d="M0 0 C0.495 0.99 0.495 0.99 1 2 C0.67 2.99 0.34 3.98 0 5 C-0.50007794 8.45786015 -0.50007794 8.45786015 0 12 C2.4493573 14.23168855 2.4493573 14.23168855 5 16 C4.08863281 16.49886719 3.17726562 16.99773437 2.23828125 17.51171875 C-8.58908665 23.49313252 -19.09905198 29.93298349 -29.58544922 36.49023438 C-32.96868265 38.60569601 -36.35703336 40.71269263 -39.75 42.8125 C-40.75546875 43.43769531 -41.7609375 44.06289063 -42.796875 44.70703125 C-45 46 -45 46 -46 46 C-46.02578125 45.33613281 -46.0515625 44.67226563 -46.078125 43.98828125 C-46.13484375 43.10527344 -46.1915625 42.22226562 -46.25 41.3125 C-46.29640625 40.44238281 -46.3428125 39.57226562 -46.390625 38.67578125 C-47.15353451 35.32582602 -48.81267419 33.60078374 -51 31 C-50.36312256 30.6189209 -49.72624512 30.2378418 -49.07006836 29.84521484 C-37.06727319 22.660496 -25.07546237 15.4590216 -13.125 8.1875 C-12.15167725 7.59565918 -11.17835449 7.00381836 -10.17553711 6.39404297 C-9.27456299 5.84506348 -8.37358887 5.29608398 -7.4453125 4.73046875 C-6.65656738 4.24989014 -5.86782227 3.76931152 -5.05517578 3.27416992 C-3.34887613 2.21629657 -1.67044423 1.11362948 0 0 Z " fill="#90A4AE" transform="translate(93,291)"/>
<path d="M0 0 C0.81210938 1.07121094 0.81210938 1.07121094 1.640625 2.1640625 C4.63517328 5.76346988 7.98091447 8.84693096 11.51513672 11.8996582 C14.770076 14.75692543 17.44786651 17.50036281 19.8984375 21.08203125 C24.07784744 26.66050328 28.17140601 31.09452741 35.31872559 32.43481445 C48.76167994 34.09334849 62.49688951 33.53466177 76 33 C76 33.33 76 33.66 76 34 C75.35298126 34.00586624 74.70596252 34.01173248 74.03933716 34.01777649 C67.32362084 34.08155918 60.6083905 34.16593877 53.89306641 34.26245117 C51.38466791 34.29576863 48.87619322 34.32377902 46.36767578 34.34643555 C42.76822333 34.37985599 39.16947361 34.43216586 35.5703125 34.48828125 C33.87964157 34.49786613 33.87964157 34.49786613 32.15481567 34.50764465 C31.11388763 34.52743881 30.07295959 34.54723297 29.00048828 34.56762695 C28.08115509 34.57873001 27.1618219 34.58983307 26.21463013 34.60127258 C25.11838821 34.79864265 25.11838821 34.79864265 24 35 C22.0549 37.91765 21.54723683 39.62537285 21 43 C20.42765625 42.25492188 19.8553125 41.50984375 19.265625 40.7421875 C17.21397277 38.25898084 15.17293282 36.23447648 12.75 34.125 C7.9210342 29.85266648 3.19948448 25.47681647 -1.5 21.0625 C-2.20672852 20.39943848 -2.91345703 19.73637695 -3.64160156 19.05322266 C-8.69845005 14.30154995 -8.69845005 14.30154995 -11 12 C-12.31747324 11.30251417 -13.64914193 10.63040043 -15 10 C-14.25234375 9.86464844 -13.5046875 9.72929687 -12.734375 9.58984375 C-6.99582932 8.50617275 -6.99582932 8.50617275 -2.37890625 5.2421875 C-1.16062565 3.13436436 -1.16062565 3.13436436 0 0 Z " fill="#90A4AE" transform="translate(95,186)"/>
<path d="M0 0 C0.40863281 0.78761719 0.81726563 1.57523438 1.23828125 2.38671875 C3.54635596 5.8104482 5.20881096 5.99964955 9.1875 6.8125 C10.81751953 7.16248047 10.81751953 7.16248047 12.48046875 7.51953125 C13.31191406 7.67808594 14.14335937 7.83664063 15 8 C15 8.33 15 8.66 15 9 C14.12085938 9.22300781 13.24171875 9.44601563 12.3359375 9.67578125 C8.40921977 11.23451346 6.5088115 13.12186461 3.625 16.1875 C-0.15032999 20.12708636 -4.0080659 23.83816662 -8.16015625 27.37890625 C-10.69208583 29.60979962 -13.02731786 32.01520442 -15.390625 34.421875 C-17.46409701 36.45508542 -19.68682856 38.2475974 -22 40 C-22.66 37.36 -23.32 34.72 -24 32 C-27.3 31.67 -30.6 31.34 -34 31 C-29.58624484 25.48280605 -24.62548435 20.78658481 -19.3828125 16.06640625 C-16.95118149 13.87620867 -14.55730137 11.65106529 -12.1796875 9.40234375 C-11.54611328 8.80502441 -10.91253906 8.20770508 -10.25976562 7.59228516 C-9.01808618 6.41976661 -7.77971205 5.24373635 -6.54492188 4.06396484 C-2.22286871 0 -2.22286871 0 0 0 Z " fill="#90A4AE" transform="translate(229,188)"/>
<path d="M0 0 C1.21558594 0.27585937 2.43117188 0.55171875 3.68359375 0.8359375 C9.79102521 2.19314449 15.92608369 3.40692313 22.0625 4.625 C23.21427734 4.85445313 24.36605469 5.08390625 25.55273438 5.3203125 C28.36831498 5.88109204 31.18407214 6.44096724 34 7 C25.98653276 13.13504158 25.98653276 13.13504158 21.81640625 12.8515625 C17.84444929 11.65061019 14.45972687 9.68834006 10.875 7.625 C10.15957031 7.22539062 9.44414063 6.82578125 8.70703125 6.4140625 C5.3846808 4.52622225 2.62915641 2.80853159 0 0 Z " fill="#96A9B2" transform="translate(70,425)"/>
<path d="M0 0 C1.9375 0.375 1.9375 0.375 4 1 C4.33 1.66 4.66 2.32 5 3 C4.51917969 3.55171875 4.03835938 4.1034375 3.54296875 4.671875 C1.76045839 7.36143493 1.52248591 9.05821418 1.3125 12.25 C1.24675781 13.14203125 1.18101562 14.0340625 1.11328125 14.953125 C1.07589844 15.62859375 1.03851563 16.3040625 1 17 C-0.65 16.01 -2.3 15.02 -4 14 C-3.36843005 8.94744036 -1.86540627 4.70406799 0 0 Z " fill="#566F7B" transform="translate(275,320)"/>
<path d="M0 0 C0.66 0.33 1.32 0.66 2 1 C-5.59 8.59 -13.18 16.18 -21 24 C-21 20.55976047 -20.6780229 20.27885862 -18.4375 17.890625 C-17.8911792 17.30361816 -17.3448584 16.71661133 -16.78198242 16.11181641 C-16.19392822 15.49741699 -15.60587402 14.88301758 -15 14.25 C-14.11501831 13.31099854 -14.11501831 13.31099854 -13.2121582 12.35302734 C-9.03458654 7.96477863 -4.72746672 3.79911223 0 0 Z " fill="#738992" transform="translate(58,166)"/>
</svg>
