<?xml version="1.0" encoding="UTF-8"?>
<svg version="1.1" xmlns="http://www.w3.org/2000/svg" width="512" height="512">
<path d="M0 0 C0.93090958 -0.00832352 1.86181915 -0.01664703 2.82093811 -0.02522278 C5.88945741 -0.04925937 8.95776381 -0.05808765 12.02636719 -0.06469727 C14.16860007 -0.07366914 16.31083233 -0.08279108 18.45306396 -0.09205627 C22.9418693 -0.10853212 27.43060019 -0.11624371 31.91943359 -0.11914062 C37.65362837 -0.1245197 43.38711715 -0.16218682 49.12111282 -0.20788479 C53.54624954 -0.2377211 57.97121769 -0.24486563 62.39644623 -0.24586678 C64.5094399 -0.25005679 66.62243464 -0.26244177 68.73532867 -0.28338432 C90.88419924 -0.48542856 90.88419924 -0.48542856 99.37188721 6.86378479 C106.51785071 14.2441458 107.01097842 23.33157757 106.86621094 33.12280273 C106.86196609 34.21987045 106.85772125 35.31693817 106.85334778 36.44725037 C106.83667146 39.92139127 106.79903936 43.39493348 106.76074219 46.86889648 C106.7456811 49.2367266 106.7319952 51.60456588 106.71972656 53.97241211 C106.68680421 59.75060818 106.63671597 65.52845954 106.57324219 71.30639648 C110.66358463 70.36865758 114.75287481 69.42648558 118.84130859 68.48046875 C120.22775675 68.16028437 121.61446935 67.84124253 123.00146484 67.5234375 C130.23811817 65.86449351 137.42236284 64.19373699 144.47119141 61.83300781 C148.94037599 60.71337585 153.38153604 61.0439362 157.39746094 63.35717773 C161.51398456 66.57663809 163.2735668 69.40524886 164.07568359 74.49389648 C164.19089355 75.75202148 164.30610352 77.01014648 164.42480469 78.30639648 C164.48878952 79.00267654 164.55277435 79.6989566 164.61869812 80.41633606 C164.82364852 82.7121818 165.01276753 85.00889918 165.19824219 87.30639648 C165.26361176 88.09307709 165.32898132 88.87975769 165.39633179 89.6902771 C166.41305487 102.16681163 166.87245978 114.60233294 166.88574219 127.11889648 C166.88914612 127.88661377 166.89255005 128.65433105 166.89605713 129.4453125 C166.90165199 131.63496314 166.8913061 133.82384942 166.87402344 136.01342773 C166.86109253 137.87704956 166.86109253 137.87704956 166.84790039 139.77832031 C166.32036557 146.55468099 164.76346133 151.11316814 159.80761719 155.66967773 C152.46571515 161.04774933 144.0750064 162.88172452 135.19042969 163.94702148 C132.5978369 164.16019035 132.5978369 164.16019035 130.57324219 165.30639648 C131.5903125 165.79946289 131.5903125 165.79946289 132.62792969 166.30249023 C153.12105177 176.77612188 163.96602642 196.68383313 175.18310547 215.9362793 C176.53198975 218.23606303 177.90396382 220.51986486 179.28808594 222.79858398 C179.70735352 223.48927979 180.12662109 224.17997559 180.55859375 224.89160156 C181.33642398 226.17097748 182.11563018 227.44951827 182.89648438 228.72705078 C184.41780204 231.24470918 185.63873623 233.50287862 186.57324219 236.30639648 C188.37143405 237.40423691 188.37143405 237.40423691 190.57324219 238.30639648 C191.35441406 238.72018555 192.13558594 239.13397461 192.94042969 239.56030273 C193.76800781 239.99213867 194.59558594 240.42397461 195.44824219 240.86889648 C196.27066406 241.30331055 197.09308594 241.73772461 197.94042969 242.18530273 C203.38285876 244.50277624 209.07399101 244.47128163 214.90917969 244.55249023 C216.54850697 244.58547729 218.18782976 244.61868798 219.82714844 244.65209961 C222.37154531 244.69901998 224.91593091 244.74339093 227.46044922 244.78320312 C262.88630149 245.36287365 262.88630149 245.36287365 272.59277344 254.13061523 C283.42681746 265.74014873 285.0508715 279.83520545 285.04199219 295.12280273 C285.04911282 296.63012467 285.05681451 298.13744395 285.06506348 299.64476013 C285.07842291 302.78554855 285.08011464 305.92608588 285.07421875 309.06689453 C285.06831298 313.06693354 285.09898892 317.06576288 285.13933563 321.06556797 C285.16532934 324.17223969 285.16807993 327.27862388 285.16444397 330.38538933 C285.16612254 331.85922232 285.17564164 333.33307044 285.19358826 334.80679512 C285.30321549 344.91473573 284.22116252 352.81339973 277.51074219 360.74389648 C276.87136719 361.25952148 276.23199219 361.77514648 275.57324219 362.30639648 C274.93386719 362.84264648 274.29449219 363.37889648 273.63574219 363.93139648 C268.61126665 367.28104684 264.18588896 367.56906745 258.26074219 367.43139648 C257.52017578 367.42237305 256.77960938 367.41334961 256.01660156 367.40405273 C254.20200751 367.38063862 252.38758148 367.34477264 250.57324219 367.30639648 C250.61964844 367.85424805 250.66605469 368.40209961 250.71386719 368.96655273 C251.42085118 384.49495104 245.1432829 398.1703278 235.07324219 409.68139648 C233.58999044 411.23918349 232.09148018 412.78268736 230.57324219 414.30639648 C229.76306641 415.15137695 229.76306641 415.15137695 228.93652344 416.01342773 C217.18581113 427.23136215 200.77397257 430.82067633 185.07885742 430.72851562 C168.05294188 430.23857278 154.52082609 423.21299382 142.57324219 411.30639648 C141.93515625 410.69151367 141.29707031 410.07663086 140.63964844 409.44311523 C129.57128558 397.93103182 125.57324219 382.85358958 125.57324219 367.30639648 C90.59324219 367.30639648 55.61324219 367.30639648 19.57324219 367.30639648 C19.57324219 370.93639648 19.57324219 374.56639648 19.57324219 378.30639648 C16.48683279 395.73553191 6.96818484 410.13570555 -7.34863281 420.33374023 C-11.86659889 423.22913728 -16.40235129 425.4387235 -21.42675781 427.30639648 C-22.22855469 427.62479492 -23.03035156 427.94319336 -23.85644531 428.27124023 C-39.64311983 433.60723458 -58.43116708 430.95994535 -73.11425781 423.74389648 C-87.40262081 415.32016009 -98.52440201 401.81731996 -103.46972656 385.96264648 C-105.04709951 379.62353266 -105.75828158 373.82636389 -105.42675781 367.30639648 C-106.18859375 367.35280273 -106.95042969 367.39920898 -107.73535156 367.44702148 C-115.89742283 367.73233733 -122.19145611 367.11238885 -128.43066406 361.50561523 C-136.28356598 353.0625161 -136.97452749 345.54977791 -137.42675781 334.30639648 C-138.35488281 334.65702148 -139.28300781 335.00764648 -140.23925781 335.36889648 C-148.15496337 337.55633798 -156.41769295 335.22734258 -164.23925781 333.49389648 C-164.95645996 333.34098145 -165.67366211 333.18806641 -166.41259766 333.03051758 C-173.99216175 331.24553288 -178.87031349 327.50822347 -183.42675781 321.30639648 C-188.69322478 310.13788047 -184.18823741 296.46405638 -181.81347656 284.97045898 C-181.43874732 283.11883892 -181.06480381 281.26705967 -180.69160461 279.41513062 C-179.91124291 275.55588716 -179.12286679 271.69839847 -178.32836914 267.84204102 C-177.31248954 262.90884799 -176.31477915 257.97219164 -175.32272625 253.03415871 C-174.5545019 249.21866245 -173.77782467 245.40492593 -172.99848366 241.59168625 C-172.6273664 239.77175873 -172.25860209 237.9513497 -171.89227867 236.1304512 C-171.37921686 233.58784331 -170.85506734 231.04776824 -170.32788086 228.50805664 C-170.17970413 227.7630188 -170.0315274 227.01798096 -169.87886047 226.25036621 C-168.52930748 219.85224934 -166.59187226 214.83166866 -161.55175781 210.55639648 C-160.89433594 209.98405273 -160.23691406 209.41170898 -159.55957031 208.82202148 C-152.5121107 203.81393663 -144.96322878 204.69548065 -136.80175781 205.99389648 C-126.42538196 207.84503295 -117.89372071 209.80859599 -110.98925781 218.30639648 C-109.45042881 221.26094818 -108.44219987 224.14138227 -107.42675781 227.30639648 C-107.04455078 226.7226123 -106.66234375 226.13882813 -106.26855469 225.53735352 C-90.25157114 201.13120981 -90.25157114 201.13120981 -84.42675781 195.30639648 C-85.02512451 195.29705078 -85.62349121 195.28770508 -86.23999023 195.27807617 C-105.67667944 194.89729402 -121.98561257 192.50336928 -136.73925781 178.61889648 C-143.80559434 171.14357585 -148.93002214 162.31254484 -151.42675781 152.30639648 C-151.60851562 151.58323242 -151.79027344 150.86006836 -151.97753906 150.11499023 C-153.85788227 138.35875746 -153.11018351 126.27857304 -148.42675781 115.30639648 C-148.03746094 114.37698242 -147.64816406 113.44756836 -147.24707031 112.48999023 C-140.38282736 98.21317723 -128.09047602 89.39344668 -113.55175781 83.99389648 C-98.18752329 79.26187065 -82.67176448 81.09807986 -68.42675781 88.30639648 C-63.02883593 91.19442427 -57.71631691 94.22529544 -52.42675781 97.30639648 C-50.89354151 95.77318018 -51.06805763 94.17396012 -50.81347656 92.04467773 C-50.69939453 91.17262695 -50.5853125 90.30057617 -50.46777344 89.40209961 C-50.23472098 87.56729434 -50.01055003 85.73133598 -49.79589844 83.89428711 C-48.86225082 76.94039799 -47.21392944 73.01823914 -42.11425781 68.05639648 C-37.69608019 65.17944361 -33.65874177 64.30639648 -28.42675781 64.30639648 C-28.44770508 62.99034424 -28.46865234 61.67429199 -28.49023438 60.31835938 C-28.56300682 55.40392065 -28.60869259 50.48952893 -28.64648438 45.57470703 C-28.66651528 43.45353162 -28.69374807 41.33241083 -28.72851562 39.21142578 C-28.77740995 36.15049708 -28.79981233 33.09030272 -28.81738281 30.02905273 C-28.83802795 29.09118423 -28.8586731 28.15331573 -28.87994385 27.18702698 C-28.88247186 19.65419449 -27.17671254 13.58134257 -22.27832031 7.74780273 C-21.54355469 7.12776367 -20.80878906 6.50772461 -20.05175781 5.86889648 C-18.95734375 4.91176758 -18.95734375 4.91176758 -17.84082031 3.93530273 C-12.17979031 0.11548152 -6.58762434 0.0050344 0 0 Z " fill="#FEB555" transform="translate(206.4267578125,40.693603515625)"/>
<path d="M0 0 C0.93090958 -0.00832352 1.86181915 -0.01664703 2.82093811 -0.02522278 C5.88945741 -0.04925937 8.95776381 -0.05808765 12.02636719 -0.06469727 C14.16860007 -0.07366914 16.31083233 -0.08279108 18.45306396 -0.09205627 C22.9418693 -0.10853212 27.43060019 -0.11624371 31.91943359 -0.11914062 C37.65362837 -0.1245197 43.38711715 -0.16218682 49.12111282 -0.20788479 C53.54624954 -0.2377211 57.97121769 -0.24486563 62.39644623 -0.24586678 C64.5094399 -0.25005679 66.62243464 -0.26244177 68.73532867 -0.28338432 C90.88419924 -0.48542856 90.88419924 -0.48542856 99.37188721 6.86378479 C106.51785071 14.2441458 107.01097842 23.33157757 106.86621094 33.12280273 C106.86196609 34.21987045 106.85772125 35.31693817 106.85334778 36.44725037 C106.83667146 39.92139127 106.79903936 43.39493348 106.76074219 46.86889648 C106.7456811 49.2367266 106.7319952 51.60456588 106.71972656 53.97241211 C106.68680421 59.75060818 106.63671597 65.52845954 106.57324219 71.30639648 C110.66358463 70.36865758 114.75287481 69.42648558 118.84130859 68.48046875 C120.22775675 68.16028437 121.61446935 67.84124253 123.00146484 67.5234375 C130.23811817 65.86449351 137.42236284 64.19373699 144.47119141 61.83300781 C148.94037599 60.71337585 153.38153604 61.0439362 157.39746094 63.35717773 C161.51398456 66.57663809 163.2735668 69.40524886 164.07568359 74.49389648 C164.19089355 75.75202148 164.30610352 77.01014648 164.42480469 78.30639648 C164.48878952 79.00267654 164.55277435 79.6989566 164.61869812 80.41633606 C164.82364852 82.7121818 165.01276753 85.00889918 165.19824219 87.30639648 C165.26361176 88.09307709 165.32898132 88.87975769 165.39633179 89.6902771 C166.41305487 102.16681163 166.87245978 114.60233294 166.88574219 127.11889648 C166.88914612 127.88661377 166.89255005 128.65433105 166.89605713 129.4453125 C166.90165199 131.63496314 166.8913061 133.82384942 166.87402344 136.01342773 C166.86109253 137.87704956 166.86109253 137.87704956 166.84790039 139.77832031 C166.32036557 146.55468099 164.76346133 151.11316814 159.80761719 155.66967773 C149.94117999 162.89701547 136.58272563 165.10702871 124.57324219 164.30639648 C123.31105865 163.97723236 122.04887512 163.64806824 120.7484436 163.30892944 C114.22973302 161.82929254 107.67046653 162.01036981 101.02001953 162.01586914 C99.56521259 162.00987451 98.11040881 162.00306683 96.65560913 161.99551392 C92.72549097 161.9779379 88.79546005 161.97316199 84.86530638 161.97188234 C82.40223646 161.97045496 79.9391883 161.96617422 77.47612381 161.96088791 C68.86118426 161.94241263 60.24630636 161.93421381 51.63134766 161.93579102 C43.63735727 161.93699046 35.64363772 161.91592042 27.64971578 161.88430369 C20.75762441 161.85802931 13.86562085 161.84742843 6.97347987 161.84870183 C2.8700542 161.84920837 -1.23313071 161.84369844 -5.33650589 161.82234573 C-9.20267538 161.80277493 -13.06837918 161.80296522 -16.9345665 161.817379 C-18.34088076 161.81944538 -19.74722565 161.81489843 -21.15348816 161.80265808 C-40.00547448 161.64940402 -54.90219381 167.01295284 -68.98535156 179.75170898 C-71.54638946 182.29427954 -71.54638946 182.29427954 -73.64941406 185.54858398 C-76.77228797 190.01216133 -79.51989392 193.64894309 -85.04980469 194.8996582 C-101.98171051 196.67062588 -117.51523444 193.23503166 -131.42675781 183.30639648 C-141.26151738 175.17651644 -148.32172111 164.75042818 -151.42675781 152.30639648 C-151.60851562 151.58323242 -151.79027344 150.86006836 -151.97753906 150.11499023 C-153.85788227 138.35875746 -153.11018351 126.27857304 -148.42675781 115.30639648 C-148.03746094 114.37698242 -147.64816406 113.44756836 -147.24707031 112.48999023 C-140.38282736 98.21317723 -128.09047602 89.39344668 -113.55175781 83.99389648 C-98.18752329 79.26187065 -82.67176448 81.09807986 -68.42675781 88.30639648 C-63.02883593 91.19442427 -57.71631691 94.22529544 -52.42675781 97.30639648 C-50.89354151 95.77318018 -51.06805763 94.17396012 -50.81347656 92.04467773 C-50.69939453 91.17262695 -50.5853125 90.30057617 -50.46777344 89.40209961 C-50.23472098 87.56729434 -50.01055003 85.73133598 -49.79589844 83.89428711 C-48.86225082 76.94039799 -47.21392944 73.01823914 -42.11425781 68.05639648 C-37.69608019 65.17944361 -33.65874177 64.30639648 -28.42675781 64.30639648 C-28.45817871 62.33231812 -28.45817871 62.33231812 -28.49023438 60.31835938 C-28.56300682 55.40392065 -28.60869259 50.48952893 -28.64648438 45.57470703 C-28.66651528 43.45353162 -28.69374807 41.33241083 -28.72851562 39.21142578 C-28.77740995 36.15049708 -28.79981233 33.09030272 -28.81738281 30.02905273 C-28.83802795 29.09118423 -28.8586731 28.15331573 -28.87994385 27.18702698 C-28.88247186 19.65419449 -27.17671254 13.58134257 -22.27832031 7.74780273 C-21.54355469 7.12776367 -20.80878906 6.50772461 -20.05175781 5.86889648 C-18.95734375 4.91176758 -18.95734375 4.91176758 -17.84082031 3.93530273 C-12.17979031 0.11548152 -6.58762434 0.0050344 0 0 Z " fill="#CB3B5E" transform="translate(206.4267578125,40.693603515625)"/>
<path d="M0 0 C11.11685399 2.31601125 22.31238582 4.24182797 33.5 6.1875 C33.5 35.2275 33.5 64.2675 33.5 94.1875 C8.9375 94.4375 8.9375 94.4375 1.28295898 94.48535156 C-19.96634998 94.73534707 -35.80685006 97.93248722 -52.05859375 112.6328125 C-54.61963164 115.17538306 -54.61963164 115.17538306 -56.72265625 118.4296875 C-59.84553016 122.89326484 -62.59313611 126.53004661 -68.12304688 127.78076172 C-85.05495269 129.5517294 -100.58847663 126.11613517 -114.5 116.1875 C-124.33475956 108.05761996 -131.3949633 97.63153169 -134.5 85.1875 C-134.68175781 84.46433594 -134.86351562 83.74117188 -135.05078125 82.99609375 C-136.93112446 71.23986098 -136.1834257 59.15967656 -131.5 48.1875 C-131.11070312 47.25808594 -130.72140625 46.32867187 -130.3203125 45.37109375 C-123.45606955 31.09428075 -111.16371821 22.2745502 -96.625 16.875 C-81.26076548 12.14297416 -65.74500667 13.97918337 -51.5 21.1875 C-46.10207812 24.07552779 -40.78955909 27.10639895 -35.5 30.1875 C-33.9667837 28.6542837 -34.14129982 27.05506363 -33.88671875 24.92578125 C-33.77263672 24.05373047 -33.65855469 23.18167969 -33.54101562 22.28320312 C-33.30796317 20.44839785 -33.08379221 18.61243949 -32.86914062 16.77539062 C-31.935493 9.82150151 -30.28717162 5.89934266 -25.1875 0.9375 C-16.84897301 -4.49223851 -9.0299139 -1.98121363 0 0 Z " fill="#86A473" transform="translate(189.5,107.8125)"/>
<path d="M0 0 C1.501073 0.00858032 1.501073 0.00858032 3.0324707 0.01733398 C18.90285655 0.39662944 32.91385956 6.72436588 44.5 17.5625 C56.00481298 29.69816853 62.12170986 44.7874823 62.75 61.5 C62.81316406 62.28503906 62.87632812 63.07007813 62.94140625 63.87890625 C63.71363314 78.9996069 56.99235357 92.73851065 47.25 103.875 C45.76674825 105.43278701 44.268238 106.97629088 42.75 108.5 C41.93982422 109.34498047 41.93982422 109.34498047 41.11328125 110.20703125 C29.36256895 121.42496567 12.95073038 125.01427985 -2.74438477 124.92211914 C-19.77030031 124.43217629 -33.3024161 117.40659734 -45.25 105.5 C-45.88808594 104.88511719 -46.52617187 104.27023437 -47.18359375 103.63671875 C-58.39649959 91.97429775 -62.75915227 76.33067551 -62.59960938 60.55126953 C-62.06509278 42.31630802 -54.23684757 27.84393432 -41.25 15.5 C-29.48948606 4.89018312 -15.78550483 -0.10621369 0 0 Z " fill="#4A4A60" transform="translate(394.25,346.5)"/>
<path d="M0 0 C1.42119141 0.63615234 1.42119141 0.63615234 2.87109375 1.28515625 C9.91131438 4.79061978 15.45311306 9.47214183 21 15 C21.63808594 15.61488281 22.27617187 16.22976563 22.93359375 16.86328125 C34.35887668 28.74659334 38.521853 44.78881047 38.42211914 60.85229492 C37.9347396 76.90386048 31.09936969 91.45292464 20 103 C13.01405813 109.12613364 5.70642176 113.76364789 -3 117 C-3.80179687 117.31839844 -4.60359375 117.63679688 -5.4296875 117.96484375 C-21.21636202 123.3008381 -40.00440926 120.65354887 -54.6875 113.4375 C-69.85801571 104.4936885 -81.11366448 89.98977738 -85.9375 73.0625 C-88.5578308 60.11681809 -87.57834651 45.01490018 -82 33 C-81.5771875 32.071875 -81.154375 31.14375 -80.71875 30.1875 C-73.06232596 14.87465192 -59.8998016 3.95768222 -44 -2 C-30.25173375 -6.23916974 -13.16845642 -5.94525247 0 0 Z " fill="#4A4A60" transform="translate(188,351)"/>
<path d="M0 0 C5.48557546 3.45691322 8.85225285 7.41222731 10.91796875 13.609375 C11.36699662 19.67125126 10.81554611 22.65846812 7.41796875 27.859375 C-7.0030095 51.1944908 -15.13385254 82.16538239 -16.3125 109.4609375 C-16.36712402 110.69710815 -16.36712402 110.69710815 -16.42285156 111.95825195 C-16.48613375 113.57082919 -16.53425702 115.18409007 -16.56542969 116.79760742 C-16.640625 119.00390625 -16.640625 119.00390625 -17.08203125 122.609375 C-23.22606639 126.70539843 -30.68871722 125.85917249 -37.6796875 124.47070312 C-38.51371094 124.28958984 -39.34773438 124.10847656 -40.20703125 123.921875 C-41.46966797 123.67920898 -41.46966797 123.67920898 -42.7578125 123.43164062 C-49.6954221 121.99571678 -56.86809499 119.91467674 -61.45703125 114.171875 C-61.91851562 113.61628906 -62.38 113.06070313 -62.85546875 112.48828125 C-70.11124558 101.37354031 -64.94849361 86.27514066 -62.46875 74.2734375 C-62.09402076 72.42181743 -61.72007725 70.57003819 -61.34687805 68.71810913 C-60.56651635 64.85886568 -59.77814023 61.00137699 -58.98364258 57.14501953 C-57.96776298 52.2118265 -56.97005259 47.27517016 -55.97799969 42.33713722 C-55.20977533 38.52164096 -54.43309811 34.70790444 -53.6537571 30.89466476 C-53.28263984 29.07473725 -52.91387552 27.25432822 -52.54755211 25.43342972 C-52.0344903 22.89082183 -51.51034078 20.35074676 -50.9831543 17.81103516 C-50.83497757 17.06599731 -50.68680084 16.32095947 -50.53413391 15.55334473 C-49.18458092 9.15522786 -47.2471457 4.13464718 -42.20703125 -0.140625 C-41.22089844 -0.99914062 -41.22089844 -0.99914062 -40.21484375 -1.875 C-29.51744887 -9.47681175 -11.18223928 -5.04547172 0 0 Z " fill="#4A4A60" transform="translate(87.08203125,251.390625)"/>
<path d="M0 0 C11.11685399 2.31601125 22.31238582 4.24182797 33.5 6.1875 C33.5 35.2275 33.5 64.2675 33.5 94.1875 C19.2996875 94.5896875 19.2996875 94.5896875 4.8125 95 C1.83001221 95.09772705 -1.15247559 95.1954541 -4.2253418 95.29614258 C-6.59158739 95.35179573 -8.95787862 95.40555439 -11.32421875 95.45703125 C-12.55096313 95.50420288 -13.77770752 95.55137451 -15.04162598 95.59997559 C-23.71980869 95.75413162 -23.71980869 95.75413162 -27.71801758 92.8503418 C-36.08723544 80.34409996 -34.87491801 63.51727119 -34.8125 49 C-34.81026428 47.71647141 -34.81026428 47.71647141 -34.8079834 46.40701294 C-34.77725336 36.60080532 -34.68466072 26.84584979 -33.25 17.125 C-33.08624878 15.9963855 -33.08624878 15.9963855 -32.91918945 14.8449707 C-31.87302666 9.03516565 -29.37949804 5.0162008 -25.1875 0.9375 C-16.84897301 -4.49223851 -9.0299139 -1.98121363 0 0 Z " fill="#79ADEC" transform="translate(189.5,107.8125)"/>
<path d="M0 0 C3.78899912 2.1825284 6.39483956 4.92083886 8 9 C8.36599284 11.32186711 8.63721434 13.65925813 8.8515625 16 C8.91554733 16.69628006 8.97953217 17.39256012 9.04545593 18.10993958 C9.25040633 20.40578532 9.43952534 22.70250269 9.625 25 C9.69036957 25.7866806 9.75573914 26.57336121 9.8230896 27.38388062 C10.83981268 39.86041514 11.29921759 52.29593646 11.3125 64.8125 C11.31590393 65.58021729 11.31930786 66.34793457 11.32281494 67.13891602 C11.3284098 69.32856666 11.31806392 71.51745294 11.30078125 73.70703125 C11.29216064 74.9494458 11.28354004 76.19186035 11.2746582 77.47192383 C10.74712338 84.2482845 9.19021914 88.80677165 4.234375 93.36328125 C-5.63206219 100.59061899 -18.99051656 102.80063223 -31 102 C-32.46360004 101.71317728 -33.9220535 101.39915833 -35.375 101.0625 C-40.84546874 99.70367504 -40.84546874 99.70367504 -50 99 C-50 69.3 -50 39.6 -50 9 C-34.655 5.535 -34.655 5.535 -19 2 C-6.01149425 -1.89655172 -6.01149425 -1.89655172 0 0 Z " fill="#79ADEC" transform="translate(362,103)"/>
<path d="M0 0 C0.80722 -0.00860046 1.61444 -0.01720093 2.44612122 -0.02606201 C3.3230513 -0.03032196 4.19998138 -0.03458191 5.10348511 -0.03897095 C6.03410263 -0.04714844 6.96472015 -0.05532593 7.92353821 -0.06375122 C11.00288253 -0.08855871 14.08218083 -0.10511125 17.16159058 -0.11953735 C18.7426037 -0.12752287 18.7426037 -0.12752287 20.35555649 -0.13566971 C25.93672711 -0.16238374 31.51787553 -0.18176247 37.09909058 -0.19619751 C41.70834247 -0.20952445 46.31715039 -0.23735717 50.92623901 -0.27822876 C56.50059178 -0.32765528 62.07454254 -0.35233112 67.64910507 -0.35942459 C69.76769271 -0.36611986 71.88627198 -0.38129671 74.00473404 -0.4053154 C96.43182953 -0.64504085 96.43182953 -0.64504085 104.77612305 6.83154297 C110.51165578 12.59346807 112.01727136 19.18960883 112.10153198 27.13632202 C112.08670441 30.14420063 112.01070698 33.14800988 111.90377808 36.15390015 C94.26954757 41.27642906 76.24265352 43.81779246 57.90377808 44.15390015 C56.93343628 44.1796814 55.96309448 44.20546265 54.96334839 44.23202515 C35.14611477 44.7291649 18.28173341 43.9599841 3.16549683 29.6031189 C-4.05280061 21.78641338 -8.44349184 11.89997485 -8.09622192 1.15390015 C-5.33463576 0.37738591 -2.86555201 0.02285556 0 0 Z " fill="#F64E72" transform="translate(201.09622192382813,40.846099853515625)"/>
<path d="M0 0 C1.66420573 -0.01646131 3.32834369 -0.0436197 4.9921875 -0.08203125 C15.80935873 -0.33023051 24.6343557 -0.32217467 33.15258789 7.24731445 C43.56742633 17.59398403 55.91972696 38.04845485 56.76757812 52.97509766 C56.3668648 57.83272452 54.62502882 60.14347481 51.01757812 63.35009766 C47.26350059 65.20607238 44.20256407 65.60999503 40.03735352 65.640625 C38.26510155 65.65976456 38.26510155 65.65976456 36.45704651 65.67929077 C34.5553495 65.68262924 34.5553495 65.68262924 32.61523438 65.68603516 C30.6495475 65.69602036 30.6495475 65.69602036 28.64414978 65.70620728 C25.87446802 65.71815692 23.10491078 65.72189041 20.33520508 65.72070312 C16.796603 65.72049984 13.25880324 65.7478202 9.72039127 65.78224754 C6.3311607 65.80990747 2.94207629 65.80866662 -0.44726562 65.81103516 C-1.7130394 65.82540619 -2.97881317 65.83977722 -4.28294373 65.85458374 C-15.5454657 65.79608459 -15.5454657 65.79608459 -19.98242188 61.35009766 C-21.62855105 57.93255048 -22.24105337 55.15637349 -22.28881836 51.37963867 C-22.30480576 50.41836563 -22.32079315 49.45709259 -22.33726501 48.46669006 C-22.34262772 47.43950363 -22.34799042 46.4123172 -22.35351562 45.35400391 C-22.3625441 44.28770248 -22.37157257 43.22140106 -22.38087463 42.12278748 C-22.39536105 39.8710307 -22.40425986 37.61923198 -22.40795898 35.36743164 C-22.41986858 31.92798948 -22.46908343 28.49033404 -22.51953125 25.05126953 C-22.52899445 22.86052306 -22.53622998 20.66976559 -22.54101562 18.47900391 C-22.56054794 17.45384171 -22.58008026 16.4286795 -22.60020447 15.37245178 C-22.54998194 7.40304781 -22.54998194 7.40304781 -19.57250977 3.71704102 C-14.13738143 -1.24983327 -7.00871595 0.05068852 0 0 Z " fill="#4C4B5F" transform="translate(297.982421875,225.64990234375)"/>
<path d="M0 0 C1.3569976 -0.01441132 1.3569976 -0.01441132 2.7414093 -0.02911377 C3.72159531 -0.03336365 4.70178131 -0.03761353 5.71166992 -0.04199219 C7.22116463 -0.0505423 7.22116463 -0.0505423 8.76115417 -0.05926514 C10.89381862 -0.06872304 13.02649774 -0.07525225 15.15917969 -0.07910156 C18.41847343 -0.08879679 21.67713393 -0.11980878 24.9362793 -0.15136719 C27.00723909 -0.15789819 29.0782034 -0.16314828 31.14916992 -0.16699219 C32.12328323 -0.17933899 33.09739655 -0.19168579 34.10102844 -0.20440674 C42.68571322 -0.17622287 42.68571322 -0.17622287 46.62963867 3.16113281 C48.81918885 6.44545808 48.89187303 7.46984156 48.93603516 11.28759766 C48.95202255 12.33233246 48.96800995 13.37706726 48.98448181 14.45346069 C48.98984451 15.58160187 48.99520721 16.70974304 49.00073242 17.87207031 C49.01427513 19.61250107 49.01427513 19.61250107 49.02809143 21.38809204 C49.04260874 23.8443137 49.05148433 26.30057415 49.05517578 28.75683594 C49.0670707 32.51466039 49.11624431 36.27084262 49.16674805 40.02832031 C49.17621213 42.41372895 49.18344723 44.7991477 49.18823242 47.18457031 C49.20776474 48.30866302 49.22729706 49.43275574 49.24742126 50.59091187 C49.20224068 58.40412175 49.20224068 58.40412175 46.21972656 62.34716797 C42.92878604 64.65197409 41.31262063 65.28813736 37.36694336 65.33813477 C36.48552673 65.35097 35.60411011 65.36380524 34.69598389 65.37702942 C33.74080872 65.38441635 32.78563354 65.39180328 31.80151367 65.39941406 C30.32887054 65.41152168 30.32887054 65.41152168 28.82647705 65.4238739 C26.74509449 65.43772074 24.66368917 65.4484402 22.58227539 65.45629883 C19.40621569 65.47348897 16.23120293 65.51736737 13.05541992 65.56152344 C11.03329216 65.57165231 9.01115555 65.5801678 6.98901367 65.58691406 C5.5683963 65.61317619 5.5683963 65.61317619 4.11907959 65.63996887 C-1.52395573 65.62150286 -4.98967629 65.09243934 -9.37036133 61.16113281 C-11.25964924 58.11739147 -11.63283202 55.76808396 -11.67675781 52.21240234 C-11.69274521 51.23103302 -11.7087326 50.2496637 -11.72520447 49.23855591 C-11.73056717 48.18433441 -11.73592987 47.13011292 -11.74145508 46.04394531 C-11.75499779 44.40907669 -11.75499779 44.40907669 -11.76881409 42.74118042 C-11.78331618 40.43636827 -11.79220322 38.13151496 -11.79589844 35.82666016 C-11.80779443 32.3059331 -11.85698286 28.78695879 -11.9074707 25.26660156 C-11.91693513 23.02572469 -11.92417007 20.78483706 -11.92895508 18.54394531 C-11.9484874 17.49377228 -11.96801971 16.44359924 -11.98814392 15.36160278 C-11.93791274 7.19868157 -11.93791274 7.19868157 -8.96044922 3.51220703 C-5.68682601 0.54067423 -4.28373721 0.03666884 0 0 Z " fill="#4C4B5F" transform="translate(204.370361328125,225.8388671875)"/>
<path d="M0 0 C13.53 0 27.06 0 41 0 C41 28.38 41 56.76 41 86 C27.47 86 13.94 86 0 86 C0 57.62 0 29.24 0 0 Z " fill="#7AADEC" transform="translate(247,116)"/>
<path d="M0 0 C39.6 0 79.2 0 120 0 C118.35 4.95 116.7 9.9 115 15 C114.34 19.29 113.68 23.58 113 28 C78.02 28 43.04 28 7 28 C6.01 22.39 5.02 16.78 4 11 C2.68 7.37 1.36 3.74 0 0 Z " fill="#E77A31" transform="translate(219,380)"/>
<path d="M0 0 C5.7029716 4.32743091 11.87468686 10.40755962 13.21875 17.68359375 C14.29989805 28.43364542 13.23286957 36.0914264 6.6796875 44.70703125 C1.59896597 50.41381325 -4.4176546 53.16360757 -11.9609375 54.0625 C-21.52240488 54.41121234 -29.00054047 52.56857627 -36.15625 46.05859375 C-42.66520223 38.90401671 -44.51578597 31.42078468 -44.15625 21.859375 C-43.19407689 13.7109715 -40.03817006 7.87735476 -33.9609375 2.37890625 C-24.30057826 -5.13470649 -10.70843989 -6.30013214 0 0 Z " fill="#FDFDFD" transform="translate(409.78125,383.31640625)"/>
<path d="M0 0 C6.89406499 4.93865746 11.17255065 10.1444663 13.1484375 18.5390625 C14.31920686 28.36386931 12.50405202 35.86033023 7.5234375 44.2890625 C-0.32480297 51.72423768 -7.91711912 53.93070424 -18.4609375 53.8125 C-26.10173131 53.19630695 -32.20481818 50.29956441 -37.3125 44.5625 C-43.79181602 36.04400838 -45.24275683 28.19722069 -43.8515625 17.5390625 C-41.24901196 8.28693306 -34.5915706 2.57266769 -26.7265625 -2.4609375 C-18.15346413 -5.49849217 -7.74718471 -4.60712978 0 0 Z " fill="#FDFDFD" transform="translate(178.8515625,383.4609375)"/>
<path d="M0 0 C3.75212276 2.01502889 5.63644095 3.45466142 8 7 C8.18484884 9.99082893 8.25208798 12.88726516 8.22705078 15.87768555 C8.22734283 16.78520569 8.22763489 17.69272583 8.22793579 18.62774658 C8.22654118 21.63083418 8.21097373 24.63367443 8.1953125 27.63671875 C8.19158284 29.71751266 8.18873565 31.79830832 8.18673706 33.87910461 C8.17909692 39.35853922 8.15944512 44.83786798 8.1373291 50.31726074 C8.1168789 55.90745614 8.10773711 61.49766862 8.09765625 67.08789062 C8.07619961 78.05864776 8.04101433 89.02929852 8 100 C0.08 100 -7.84 100 -16 100 C-16.06776914 88.0910502 -16.12281239 76.18222843 -16.15543652 64.27312946 C-16.17109422 58.74329274 -16.19233462 53.21359476 -16.22631836 47.68383789 C-16.25890775 42.34758833 -16.27685223 37.01147224 -16.28463173 31.67513084 C-16.29017597 29.63895758 -16.30100244 27.60279165 -16.31719017 25.56667519 C-16.33895867 22.71526919 -16.34196714 19.86441514 -16.34057617 17.01293945 C-16.351362 16.17064789 -16.36214783 15.32835632 -16.3732605 14.46054077 C-16.34864947 9.79986078 -15.99495237 6.80057303 -13 3 C-9.05525001 -0.26850714 -4.97867919 -0.89635711 0 0 Z " fill="#4A4A60" transform="translate(304,102)"/>
<path d="M0 0 C3.41963207 1.22590583 5.37108772 2.21706054 7.64668274 5.04997253 C9.51002107 9.111769 9.39713607 12.59603951 9.34057617 17.01293945 C9.34123329 18.36002739 9.34123329 18.36002739 9.34190369 19.73432922 C9.33981847 22.69420326 9.31649984 25.65350651 9.29296875 28.61328125 C9.28737185 30.66879466 9.2831022 32.72431208 9.28010559 34.77983093 C9.26866424 40.18367609 9.239203 45.58727845 9.20599365 50.99102783 C9.17527757 56.50765702 9.16159695 62.02432553 9.14648438 67.54101562 C9.11433272 78.3608008 9.06157041 89.1803422 9 100 C1.08 100 -6.84 100 -15 100 C-15.09039925 88.10832635 -15.16377283 76.21688124 -15.20724869 64.32494164 C-15.2281158 58.80292359 -15.25641786 53.28115299 -15.30175781 47.75927734 C-15.3452462 42.42949621 -15.3691437 37.09995297 -15.37950897 31.77000809 C-15.38689492 29.73743572 -15.40131798 27.70487624 -15.42292023 25.67240524 C-15.45199369 22.82347312 -15.45595432 19.97552166 -15.45410156 17.12646484 C-15.46848267 16.28776855 -15.48286377 15.44907227 -15.49768066 14.58496094 C-15.46023091 9.25660233 -14.56038342 6.21252489 -11 2 C-7.2727104 -0.48485973 -4.31580629 -0.52312804 0 0 Z " fill="#4A495F" transform="translate(238,102)"/>
<path d="M0 0 C0.33 0 0.66 0 1 0 C1 19.8 1 39.6 1 60 C18.09652171 57.50954968 18.09652171 57.50954968 34.5 53.1875 C35.54929687 52.86974609 36.59859375 52.55199219 37.6796875 52.22460938 C44.35339224 50.12774782 50.44073309 47.44539854 56.61914062 44.1652832 C59 43 59 43 61 43 C61.04978833 47.0018325 61.08590164 51.00354265 61.10986328 55.00561523 C61.11986243 56.36437118 61.13346624 57.72310594 61.15087891 59.08178711 C61.17539594 61.04531296 61.18546962 63.00900201 61.1953125 64.97265625 C61.21102295 66.74008179 61.21102295 66.74008179 61.22705078 68.54321289 C60.78354551 75.29546141 59.15820941 79.83620209 54.234375 84.36328125 C44.36793781 91.59061899 31.00948344 93.80063223 19 93 C17.53639996 92.71317728 16.0779465 92.39915833 14.625 92.0625 C9.15453126 90.70367504 9.15453126 90.70367504 0 90 C0 60.3 0 30.6 0 0 Z " fill="#4A7FCD" transform="translate(312,112)"/>
<path d="M0 0 C0.94875 0.86625 1.8975 1.7325 2.875 2.625 C12.65405558 10.97876812 21.62678449 14.2559199 34.30859375 14.4140625 C35.27531509 14.43342865 36.24203644 14.4527948 37.23805237 14.4727478 C40.30444713 14.53219191 43.37088016 14.57878769 46.4375 14.625 C48.52540636 14.66321217 50.6132975 14.70226576 52.70117188 14.7421875 C57.80069891 14.83943712 62.90007761 14.91928486 68 15 C68 24.57 68 34.14 68 44 C60.5303603 44.23553968 53.06340572 44.46615759 45.59276581 44.64954376 C42.11377164 44.73635449 38.63556531 44.83215383 35.1574707 44.94995117 C31.16400101 45.08478561 27.17048441 45.17820229 23.17578125 45.26953125 C21.93290848 45.31721146 20.69003571 45.36489166 19.40950012 45.41401672 C10.77887664 45.56567681 10.77887664 45.56567681 6.78198242 42.6628418 C-1.50197007 30.28401321 -0.29562522 14.33782337 0 0 Z " fill="#497FCD" transform="translate(155,158)"/>
<path d="M0 0 C6.68732871 5.60423981 10.33347998 11.81684618 13.06640625 20.015625 C13.56503545 29.0868409 13.90360211 37.60331101 10.06640625 46.015625 C8.06640625 48.015625 8.06640625 48.015625 5.62890625 48.328125 C3.06640625 48.015625 3.06640625 48.015625 1.19140625 46.953125 C-0.55067218 43.95287881 0.55555083 41.40340307 1.06640625 38.015625 C2.35811046 24.98874549 2.35811046 24.98874549 -2.515625 13.41796875 C-9.01274847 6.99243892 -14.31168096 4.83949676 -23.37109375 4.515625 C-30.98586355 4.68100006 -35.15542084 6.20823941 -40.44921875 11.54296875 C-44.77540563 16.42857635 -46.22356117 19.95623087 -46.24609375 26.453125 C-46.26285156 27.56558594 -46.27960938 28.67804688 -46.296875 29.82421875 C-45.89161999 33.38436219 -45.10708384 35.19008789 -42.93359375 38.015625 C-39.52656497 40.55091934 -35.91964107 41.86095091 -31.74609375 42.515625 C-28.18467868 41.88248454 -26.50435483 40.51293577 -23.93359375 38.015625 C-22.36423781 34.87691312 -22.58158272 32.47706678 -22.93359375 29.015625 C-24.55912658 27.30881553 -26.2247537 25.63902305 -27.93359375 24.015625 C-28.50318585 21.0252665 -28.36831431 19.74015926 -26.80859375 17.140625 C-24.93359375 16.015625 -24.93359375 16.015625 -22.18359375 15.828125 C-17.42464923 17.56697011 -14.81660854 20.9333396 -11.93359375 25.015625 C-10.23761509 30.10356099 -9.94036817 34.6212419 -12.02734375 39.65234375 C-15.68592643 46.16189644 -19.68338267 50.59888797 -26.93359375 53.015625 C-35.59027781 53.98453826 -42.56371571 51.86554546 -49.80859375 47.140625 C-55.67894965 41.2702691 -58.20798082 34.94332385 -58.30859375 26.703125 C-58.21122952 20.59699682 -57.00417005 16.25053113 -53.93359375 11.015625 C-53.35609375 9.984375 -52.77859375 8.953125 -52.18359375 7.890625 C-39.08924955 -8.84103704 -17.83547831 -12.06447801 0 0 Z " fill="#536E3B" transform="translate(130.93359375,151.984375)"/>
<path d="M0 0 C7.79523934 3.46240159 12.5035195 7.6129249 17 15 C20.46998981 25.40996944 18.21083955 39.35881902 13.9375 49.1875 C10.6995113 55.28875467 5.77958405 59.06849779 -0.30078125 62.17578125 C-3.83923986 63.25626572 -6.99398556 63.22729301 -10.6875 63.1875 C-11.70166992 63.1865332 -11.70166992 63.1865332 -12.73632812 63.18554688 C-17.7181326 63.1409337 -17.7181326 63.1409337 -20 62 C-16.68706733 40.44121427 -10.46073184 19.19716722 0 0 Z " fill="#F64F72" transform="translate(92,282)"/>
<path d="M0 0 C0.07609679 7.17156168 0.12861962 14.34301914 0.16479492 21.51489258 C0.17987654 23.95438528 0.20034469 26.3938509 0.22631836 28.83325195 C0.26272812 32.34072559 0.27973289 35.84784054 0.29296875 39.35546875 C0.30845261 40.44522507 0.32393646 41.53498138 0.33988953 42.65776062 C0.34199048 52.12145141 0.34199048 52.12145141 -3 56 C-7.47700473 59.79473261 -11.20496533 60.6551339 -16.9375 60.5 C-18.00037231 60.48187256 -18.00037231 60.48187256 -19.0847168 60.46337891 C-24.60317272 60.25272645 -27.86921579 59.65046047 -32 56 C-35.03261941 51.59781053 -35.39491869 48.26558248 -35 43 C-33.95520186 40.41789671 -32.92432551 38.20747814 -31.5625 35.8125 C-31.20341553 35.16321533 -30.84433105 34.51393066 -30.47436523 33.8449707 C-25.68070395 25.39317965 -11.01962807 0 0 0 Z " fill="#4E4C5F" transform="translate(171,231)"/>
<path d="M0 0 C9.3151509 -0.28857345 16.97754712 1.16207739 24.375 7.25 C32.61970986 15.24232078 36.82281406 25.72559963 37.24609375 37.23828125 C37.28757117 40.83089581 37.18093293 44.41149689 37 48 C15.11461151 48.849918 15.11461151 48.849918 6.125 40.75 C0.67175303 35.42847397 -0.18140601 29.15683213 -0.29296875 21.875 C-0.27318111 19.24983916 -0.23763003 16.62475674 -0.1875 14 C-0.17242476 12.63933774 -0.15874138 11.27865931 -0.14648438 9.91796875 C-0.11130983 6.61156157 -0.06208288 3.30599316 0 0 Z " fill="#FFEDDB" transform="translate(454,287)"/>
<path d="M0 0 C13.53 0 27.06 0 41 0 C41 9.57 41 19.14 41 29 C27.47 29 13.94 29 0 29 C0 19.43 0 9.86 0 0 Z " fill="#497ECD" transform="translate(247,173)"/>
<path d="M0 0 C1.06069598 24.87576843 1.06069598 24.87576843 -5 32 C-9.20492417 36.48468727 -13.58447973 40.65992804 -19.99072266 41.15332031 C-22.26828597 41.19647309 -24.53511945 41.17463277 -26.8125 41.125 C-27.99489258 41.11146484 -27.99489258 41.11146484 -29.20117188 41.09765625 C-31.13424666 41.07422504 -33.0671638 41.03835838 -35 41 C-35.14695312 39.44152344 -35.14695312 39.44152344 -35.296875 37.8515625 C-36.07387006 30.37410656 -36.99178339 23.71842263 -40.1953125 16.8203125 C-41 15 -41 15 -41 13 C-39.58460938 12.96132813 -39.58460938 12.96132813 -38.140625 12.921875 C-25.07639793 12.34474047 -13.4379789 9.37368763 -2.8125 1.34765625 C-1 0 -1 0 0 0 Z " fill="#E77A31" transform="translate(491,367)"/>
<path d="M0 0 C12.54 0 25.08 0 38 0 C35 9 35 9 33.875 12.3125 C32.64462538 17.49765019 32.33127686 22.69085249 32 28 C23.96030448 28.44734009 16.81659379 28.75297653 10 24 C5.28099008 19.7510477 1.83112921 15.13966852 0 9 C0 6.03 0 3.06 0 0 Z " fill="#E77A31" transform="translate(70,380)"/>
<path d="M0 0 C0.80695313 -0.01160156 1.61390625 -0.02320313 2.4453125 -0.03515625 C5.99677577 -0.01757475 8.37186038 0.03624982 11.53515625 1.7421875 C13 3.375 13 3.375 13.4375 5.875 C12.91981331 8.83320965 12.33738136 9.5550889 10 11.375 C7.87109375 11.76318359 7.87109375 11.76318359 5.4375 11.7734375 C4.55835938 11.77730469 3.67921875 11.78117187 2.7734375 11.78515625 C1.85820312 11.77355469 0.94296875 11.76195312 0 11.75 C-1.37285156 11.76740234 -1.37285156 11.76740234 -2.7734375 11.78515625 C-3.65257812 11.78128906 -4.53171875 11.77742188 -5.4375 11.7734375 C-6.64212891 11.76836182 -6.64212891 11.76836182 -7.87109375 11.76318359 C-10.50713166 11.28252989 -11.39292832 10.485545 -13 8.375 C-13.4375 5.875 -13.4375 5.875 -13 3.375 C-9.405733 -0.63140962 -4.98848522 -0.07171944 0 0 Z " fill="#E97D32" transform="translate(201,309.625)"/>
<path d="M0 0 C1.25103516 0.0009668 1.25103516 0.0009668 2.52734375 0.00195312 C3.39488281 0.01806641 4.26242187 0.03417969 5.15625 0.05078125 C6.45755859 0.04594727 6.45755859 0.04594727 7.78515625 0.04101562 C14.25535409 0.09601731 14.25535409 0.09601731 17.65625 2.36328125 C17.96875 5.86328125 17.96875 5.86328125 17.65625 9.36328125 C14.78029444 12.23923681 12.45076445 11.65394348 8.51757812 11.68554688 C7.59396484 11.68232422 6.67035156 11.67910156 5.71875 11.67578125 C4.33913086 11.69995117 4.33913086 11.69995117 2.93164062 11.72460938 C1.60616211 11.72557617 1.60616211 11.72557617 0.25390625 11.7265625 C-0.55554443 11.72954346 -1.36499512 11.73252441 -2.19897461 11.7355957 C-4.85431919 11.27465085 -5.73397755 10.4906736 -7.34375 8.36328125 C-7.71875 5.86328125 -7.71875 5.86328125 -7.34375 3.36328125 C-5.12191969 0.4642433 -3.5945758 -0.01407698 0 0 Z " fill="#E97D32" transform="translate(278.34375,309.63671875)"/>
</svg>
